<?xml version="1.0" encoding="utf-8"?>
<!-- Generator: Adobe Illustrator 22.0.0, SVG Export Plug-In . SVG Version: 6.00 Build 0)  -->
<svg version="1.1" id="Layer_1" xmlns="http://www.w3.org/2000/svg" xmlns:xlink="http://www.w3.org/1999/xlink" x="0px" y="0px"
	 viewBox="0 0 100 100" style="enable-background:new 0 0 100 100;" xml:space="preserve">
<style type="text/css">
	.st0{fill:none;stroke:#000000;stroke-width:2;stroke-miterlimit:10;}
	.st1{fill:none;}
	.st2{fill:none;stroke:#000000;stroke-width:2;stroke-linecap:round;stroke-miterlimit:10;stroke-dasharray:7;}
	.st3{fill:none;stroke:#000000;stroke-width:2;stroke-linecap:round;stroke-miterlimit:10;}
	.st4{fill:none;stroke:#000000;stroke-width:2;stroke-linecap:round;stroke-linejoin:round;stroke-miterlimit:10;}
	.st5{fill:none;stroke:#000000;stroke-width:2;stroke-linecap:square;stroke-miterlimit:10;}
	.st6{fill:none;stroke:#000000;stroke-width:2;stroke-miterlimit:10;stroke-dasharray:5.3638,5.3638;}
</style>
<g>
	<path class="st0" d="M37.1,61.2h9v-8.7V37.1h-9.8c-1,0-2,0.4-2.7,1.1l-8.3,8.3c-0.4,0.4-1,0.7-1.6,0.9l-6.6,1.9
		c-1.2,0.6-2,1.8-2,3.1v8.7h10.6"/>
	<path class="st0" d="M78.8,61.2h6v-8.7v-19c0-1-0.8-1.7-1.7-1.7H47.9c-1,0-1.7,0.8-1.7,1.7v3.6v15.4v8.7h21.5"/>
	<line class="st0" x1="46.1" y1="52.5" x2="84.8" y2="52.5"/>
	<circle class="st0" cx="31.5" cy="62.4" r="5.8"/>
	<circle class="st0" cx="73.2" cy="62.4" r="5.8"/>
</g>
</svg>
