<?xml version="1.0" encoding="utf-8"?>
<!-- Generator: Adobe Illustrator 22.0.0, SVG Export Plug-In . SVG Version: 6.00 Build 0)  -->
<svg version="1.1" id="Layer_1" xmlns="http://www.w3.org/2000/svg" xmlns:xlink="http://www.w3.org/1999/xlink" x="0px" y="0px"
	 viewBox="0 0 100 100" style="enable-background:new 0 0 100 100;" xml:space="preserve">
<style type="text/css">
	.st0{fill:none;stroke:#000000;stroke-width:2;stroke-miterlimit:10;}
	.st1{fill:none;}
	.st2{fill:none;stroke:#000000;stroke-width:2;stroke-linecap:round;stroke-miterlimit:10;stroke-dasharray:7;}
	.st3{fill:none;stroke:#000000;stroke-width:2;stroke-linecap:round;stroke-miterlimit:10;}
	.st4{fill:none;stroke:#000000;stroke-width:2;stroke-linecap:round;stroke-linejoin:round;stroke-miterlimit:10;}
	.st5{fill:none;stroke:#000000;stroke-width:2;stroke-linecap:square;stroke-miterlimit:10;}
	.st6{fill:none;stroke:#000000;stroke-width:2;stroke-miterlimit:10;stroke-dasharray:5.3638,5.3638;}
</style>
<g>
	<circle class="st0" cx="50" cy="50" r="35.8"/>
	<g>
		<path d="M36.4,58.8v-5.3h-9.1v-1.7L36,39.3h2.9v12.1h2.7v2.1h-2.7v5.3H36.4z M36.4,51.4v-6.5c0-1,0-2,0.1-3.1h-0.1
			c-0.6,1.1-1.1,2-1.6,2.9L30,51.4v0.1H36.4z"/>
		<path d="M56.6,48.8c0,6.6-2.5,10.3-6.8,10.3c-3.8,0-6.4-3.6-6.5-10c0-6.5,2.8-10.2,6.8-10.2C54.3,39,56.6,42.6,56.6,48.8z
			 M46,49.1c0,5.1,1.6,8,4,8c2.7,0,4-3.2,4-8.1c0-4.8-1.2-8-4-8C47.7,41,46,43.8,46,49.1z"/>
		<path d="M67.2,58.8v-5.3h-9.1v-1.7l8.7-12.5h2.9v12.1h2.7v2.1h-2.7v5.3H67.2z M67.2,51.4v-6.5c0-1,0-2,0.1-3.1h-0.1
			c-0.6,1.1-1.1,2-1.6,2.9l-4.8,6.6v0.1H67.2z"/>
	</g>
</g>
</svg>
