<?xml version="1.0" encoding="utf-8"?>
<!-- Generator: Adobe Illustrator 22.0.0, SVG Export Plug-In . SVG Version: 6.00 Build 0)  -->
<svg version="1.1" id="Layer_1" xmlns="http://www.w3.org/2000/svg" xmlns:xlink="http://www.w3.org/1999/xlink" x="0px" y="0px"
	 viewBox="0 0 100 100" style="enable-background:new 0 0 100 100;" xml:space="preserve">
<style type="text/css">
	.st0{fill:none;stroke:#000000;stroke-width:2;stroke-miterlimit:10;}
	.st1{fill:none;}
	.st2{fill:none;stroke:#000000;stroke-width:2;stroke-linecap:round;stroke-miterlimit:10;stroke-dasharray:7;}
	.st3{fill:none;stroke:#000000;stroke-width:2;stroke-linecap:round;stroke-miterlimit:10;}
	.st4{fill:none;stroke:#000000;stroke-width:2;stroke-linecap:round;stroke-linejoin:round;stroke-miterlimit:10;}
	.st5{fill:none;stroke:#000000;stroke-width:2;stroke-linecap:square;stroke-miterlimit:10;}
	.st6{fill:none;stroke:#000000;stroke-width:2;stroke-miterlimit:10;stroke-dasharray:5.3638,5.3638;}
</style>
<g>
	<g>
		<g>
			<path class="st0" d="M53.8,28.7c1.7,0,3,0.5,4,1.4c0.9,0.9,1.4,2.3,1.4,4"/>
			<path class="st0" d="M53.8,28.7c1.7,0,3,0.5,4,1.4c0.9,0.9,1.4,2.3,1.4,4"/>
			<path class="st0" d="M53.8,24.8c2.7,0,5,0.9,6.7,2.6c1.7,1.7,2.6,4,2.6,6.7"/>
		</g>
		<polygon class="st0" points="50.8,46 43,51 36.9,44.9 41.9,37.1 		"/>
		<g>
			<polyline class="st0" points="50.8,46 59.4,43.6 62.2,40.8 47.1,25.7 44.3,28.5 41.9,37.1 			"/>
		</g>
		<line class="st0" x1="44.3" y1="28.5" x2="59.4" y2="43.6"/>
		<polyline class="st0" points="48.5,47.5 52.8,50.6 50.8,52.7 44.9,49.8 		"/>
	</g>
	<g>
		<path class="st0" d="M81,65.2H19c-2,0-3.7-1.6-3.7-3.7v-38c0-2,1.6-3.7,3.7-3.7h62c2,0,3.7,1.6,3.7,3.7v38
			C84.7,63.6,83,65.2,81,65.2z"/>
		<line class="st0" x1="15.3" y1="57" x2="84.7" y2="57"/>
		<line class="st0" x1="42.8" y1="65.2" x2="41.3" y2="73"/>
		<line class="st0" x1="58.7" y1="73" x2="57.2" y2="65.2"/>
		<path class="st0" d="M60.8,80.1H39.2c-2,0-3.6-1.6-3.6-3.6v0c0-2,1.6-3.6,3.6-3.6h21.5c2,0,3.6,1.6,3.6,3.6v0
			C64.3,78.5,62.7,80.1,60.8,80.1z"/>
	</g>
</g>
</svg>
