<?xml version="1.0" encoding="utf-8"?>
<!-- Generator: Adobe Illustrator 22.0.0, SVG Export Plug-In . SVG Version: 6.00 Build 0)  -->
<svg version="1.1" id="Layer_1" xmlns="http://www.w3.org/2000/svg" xmlns:xlink="http://www.w3.org/1999/xlink" x="0px" y="0px"
	 viewBox="0 0 100 100" style="enable-background:new 0 0 100 100;" xml:space="preserve">
<style type="text/css">
	.st0{fill:none;stroke:#000000;stroke-width:2;stroke-miterlimit:10;}
	.st1{fill:none;}
	.st2{fill:none;stroke:#000000;stroke-width:2;stroke-linecap:round;stroke-miterlimit:10;stroke-dasharray:7;}
	.st3{fill:none;stroke:#000000;stroke-width:2;stroke-linecap:round;stroke-miterlimit:10;}
	.st4{fill:none;stroke:#000000;stroke-width:2;stroke-linecap:round;stroke-linejoin:round;stroke-miterlimit:10;}
	.st5{fill:none;stroke:#000000;stroke-width:2;stroke-linecap:square;stroke-miterlimit:10;}
	.st6{fill:none;stroke:#000000;stroke-width:2;stroke-miterlimit:10;stroke-dasharray:5.3638,5.3638;}
</style>
<g>
	<g>
		<polyline class="st0" points="43.1,45.8 64.9,45.8 69,30.7 38.8,30.7 		"/>
		<path class="st0" d="M63.6,49.5h-17c-1.4,0-2.7-1-3.1-2.3l-0.4-1.4l-4.3-15.1l-0.9-3.1c-0.4-1.4-1.7-2.4-3.2-2.4H31"/>
		<g>
			<circle class="st0" cx="47.9" cy="55" r="2.7"/>
			<circle class="st0" cx="60.2" cy="55" r="2.7"/>
		</g>
	</g>
	<path class="st0" d="M81.8,63.9H18.2c-1.4,0-2.5-1.1-2.5-2.5V21.5c0-1.4,1.1-2.5,2.5-2.5h63.5c1.4,0,2.5,1.1,2.5,2.5v39.8
		C84.3,62.8,83.2,63.9,81.8,63.9z"/>
	<line class="st0" x1="50" y1="63.9" x2="50" y2="81"/>
	<line class="st0" x1="38" y1="81" x2="62" y2="81"/>
</g>
</svg>
