<?xml version="1.0" encoding="utf-8"?>
<!-- Generator: Adobe Illustrator 22.0.0, SVG Export Plug-In . SVG Version: 6.00 Build 0)  -->
<svg version="1.1" id="Layer_1" xmlns="http://www.w3.org/2000/svg" xmlns:xlink="http://www.w3.org/1999/xlink" x="0px" y="0px"
	 viewBox="0 0 100 100" style="enable-background:new 0 0 100 100;" xml:space="preserve">
<style type="text/css">
	.st0{fill:none;stroke:#000000;stroke-width:2;stroke-miterlimit:10;}
	.st1{fill:none;}
	.st2{fill:none;stroke:#000000;stroke-width:2;stroke-linecap:round;stroke-miterlimit:10;stroke-dasharray:7;}
	.st3{fill:none;stroke:#000000;stroke-width:2;stroke-linecap:round;stroke-miterlimit:10;}
	.st4{fill:none;stroke:#000000;stroke-width:2;stroke-linecap:round;stroke-linejoin:round;stroke-miterlimit:10;}
	.st5{fill:none;stroke:#000000;stroke-width:2;stroke-linecap:square;stroke-miterlimit:10;}
	.st6{fill:none;stroke:#000000;stroke-width:2;stroke-miterlimit:10;stroke-dasharray:5.3638,5.3638;}
</style>
<g>
	<path class="st0" d="M14.7,23.2h6.9c2.8,0,5.2,1.8,5.9,4.5l1.7,5.8l8,28.1h40.5l7.5-28.1H29.2"/>
	<g>
		<circle class="st0" cx="46.2" cy="71.7" r="5.1"/>
		<circle class="st0" cx="68.9" cy="71.7" r="5.1"/>
	</g>
	<line class="st0" x1="43.3" y1="47.4" x2="33.2" y2="47.4"/>
	<line class="st0" x1="81.6" y1="47.4" x2="71.4" y2="47.4"/>
	<g>
		<g>
			<path class="st0" d="M51.1,41.2c0,0.1,0,0.1,0,0.1l5.3,13.5l1.3-6.9c0,0,0,0,0-0.1c0,0,0.1,0,0.1,0l6.9-1.3l-13.5-5.3
				C51.2,41.3,51.2,41.3,51.1,41.2z"/>
			<line class="st0" x1="57.7" y1="47.8" x2="62.4" y2="52.6"/>
		</g>
		<circle class="st0" cx="57.4" cy="47.5" r="14.1"/>
	</g>
</g>
</svg>
