<?xml version="1.0" encoding="utf-8"?>
<!-- Generator: Adobe Illustrator 22.0.0, SVG Export Plug-In . SVG Version: 6.00 Build 0)  -->
<svg version="1.1" id="Layer_1" xmlns="http://www.w3.org/2000/svg" xmlns:xlink="http://www.w3.org/1999/xlink" x="0px" y="0px"
	 viewBox="0 0 100 100" style="enable-background:new 0 0 100 100;" xml:space="preserve">
<style type="text/css">
	.st0{fill:none;stroke:#000000;stroke-width:2;stroke-miterlimit:10;}
	.st1{fill:none;}
	.st2{fill:none;stroke:#000000;stroke-width:2;stroke-linecap:round;stroke-miterlimit:10;stroke-dasharray:7;}
	.st3{fill:none;stroke:#000000;stroke-width:2;stroke-linecap:round;stroke-miterlimit:10;}
	.st4{fill:none;stroke:#000000;stroke-width:2;stroke-linecap:round;stroke-linejoin:round;stroke-miterlimit:10;}
	.st5{fill:none;stroke:#000000;stroke-width:2;stroke-linecap:square;stroke-miterlimit:10;}
	.st6{fill:none;stroke:#000000;stroke-width:2;stroke-miterlimit:10;stroke-dasharray:5.3638,5.3638;}
</style>
<g>
	<g>
		<g>
			<path class="st0" d="M56.4,61.3l-0.6-1.6c0,0,0-0.1-0.1-0.2c0.1,0,0.2,0.1,0.2,0.1l4.2,1.6"/>
			<path class="st0" d="M46.6,72.5H30.2c-0.3,0-0.5-0.2-0.6-0.4l-4.4-10.8l-4.7-11.6l-4.2-10.3c-0.2-0.4,0.1-0.9,0.6-0.9h15.2H50
				h17.9h15.2c0.5,0,0.8,0.5,0.6,0.9l-4.2,10.3l-2.5,6c-3.3-3.7-8-6-13.4-6c-7.6,0-14.2,4.8-16.7,11.6"/>
			<line class="st0" x1="72.8" y1="66.2" x2="72.7" y2="66.3"/>
			<g>
				<polyline class="st0" points="20.4,49.7 34.7,49.7 50,49.7 65.3,49.7 79.6,49.7 				"/>
				<polyline class="st0" points="25.2,61.3 36.6,61.3 36.6,61.3 47,61.3 				"/>
			</g>
			<g>
				<line class="st0" x1="38.5" y1="72.5" x2="36.6" y2="61.3"/>
				<line class="st0" x1="50" y1="49.7" x2="50" y2="38.5"/>
			</g>
		</g>
		<g>
			<g>
				<line class="st0" x1="32.1" y1="38.5" x2="40.5" y2="20.6"/>
				<circle class="st0" cx="41" cy="17.6" r="3"/>
			</g>
			<g>
				<line class="st0" x1="59.5" y1="20.6" x2="67.9" y2="38.5"/>
				<circle class="st0" cx="59" cy="17.6" r="3"/>
			</g>
		</g>
	</g>
	<g>
		<g>
			<path class="st0" d="M73,66.3l-0.2,0l-8.5,1.6c0,0,0,0-0.1,0c0,0,0,0.1,0,0.1l-0.8,4.5l-0.8,4.3l-1.7-4.3l-4.4-11.2l-0.6-1.6
				c0,0,0-0.1-0.1-0.2c0.1,0,0.2,0.1,0.2,0.1l4.2,1.6l3,1.2l9.6,3.8L73,66.3z"/>
			<line class="st0" x1="64.1" y1="67.9" x2="70.1" y2="73.9"/>
		</g>
		<path class="st0" d="M56.4,61.3l-0.6-1.6c0,0,0-0.1-0.1-0.2c0.1,0,0.2,0.1,0.2,0.1l4.2,1.6"/>
		<path class="st0" d="M77.1,55.7c2.8,3.1,4.4,7.3,4.4,11.8c0,9.8-8,17.8-17.8,17.8c-8.1,0-14.9-5.4-17.1-12.8
			c-0.5-1.6-0.7-3.2-0.7-5c0-2.2,0.4-4.3,1.1-6.2"/>
	</g>
</g>
</svg>
