<?xml version="1.0" encoding="utf-8"?>
<!-- Generator: Adobe Illustrator 22.0.0, SVG Export Plug-In . SVG Version: 6.00 Build 0)  -->
<svg version="1.1" id="Layer_1" xmlns="http://www.w3.org/2000/svg" xmlns:xlink="http://www.w3.org/1999/xlink" x="0px" y="0px"
	 viewBox="0 0 100 100" style="enable-background:new 0 0 100 100;" xml:space="preserve">
<style type="text/css">
	.st0{fill:none;stroke:#000000;stroke-width:2;stroke-miterlimit:10;}
	.st1{fill:none;}
	.st2{fill:none;stroke:#000000;stroke-width:2;stroke-linecap:round;stroke-miterlimit:10;stroke-dasharray:7;}
	.st3{fill:none;stroke:#000000;stroke-width:2;stroke-linecap:round;stroke-miterlimit:10;}
	.st4{fill:none;stroke:#000000;stroke-width:2;stroke-linecap:round;stroke-linejoin:round;stroke-miterlimit:10;}
	.st5{fill:none;stroke:#000000;stroke-width:2;stroke-linecap:square;stroke-miterlimit:10;}
	.st6{fill:none;stroke:#000000;stroke-width:2;stroke-miterlimit:10;stroke-dasharray:5.3638,5.3638;}
</style>
<g>
	<g>
		<path class="st0" d="M55.3,80.2H17.5c-1.8,0-3.3-1.5-3.3-3.3v-6.6c0-12.3,10-22.2,22.2-22.2h0c12.3,0,22.2,10,22.2,22.2v6.6
			C58.6,78.7,57.2,80.2,55.3,80.2z"/>
		<ellipse class="st0" cx="36.4" cy="32.1" rx="10.9" ry="12.3"/>
	</g>
	<g>
		<path class="st0" d="M58.6,76h24.6c1.4,0,2.6-1.2,2.6-2.6v-5.3c0-4.9-2-9.3-5.2-12.5c-3.2-3.2-7.6-5.2-12.5-5.2
			c-5.6,0-10.6,2.6-13.8,6.7"/>
		<ellipse class="st0" cx="68.1" cy="37.8" rx="8.7" ry="9.8"/>
	</g>
</g>
</svg>
