<?xml version="1.0" encoding="utf-8"?>
<!-- Generator: Adobe Illustrator 22.0.0, SVG Export Plug-In . SVG Version: 6.00 Build 0)  -->
<svg version="1.1" id="Layer_1" xmlns="http://www.w3.org/2000/svg" xmlns:xlink="http://www.w3.org/1999/xlink" x="0px" y="0px"
	 viewBox="0 0 100 100" style="enable-background:new 0 0 100 100;" xml:space="preserve">
<style type="text/css">
	.st0{fill:none;stroke:#000000;stroke-width:2;stroke-miterlimit:10;}
	.st1{fill:none;}
	.st2{fill:none;stroke:#000000;stroke-width:2;stroke-linecap:round;stroke-miterlimit:10;stroke-dasharray:7;}
	.st3{fill:none;stroke:#000000;stroke-width:2;stroke-linecap:round;stroke-miterlimit:10;}
	.st4{fill:none;stroke:#000000;stroke-width:2;stroke-linecap:round;stroke-linejoin:round;stroke-miterlimit:10;}
	.st5{fill:none;stroke:#000000;stroke-width:2;stroke-linecap:square;stroke-miterlimit:10;}
	.st6{fill:none;stroke:#000000;stroke-width:2;stroke-miterlimit:10;stroke-dasharray:5.3638,5.3638;}
</style>
<g>
	<g>
		<g>
			<path class="st0" d="M79.2,41.8l4.9-1.9c0.6-0.2,1-1,0.7-1.6l-7.3-19c-0.2-0.6-1-1-1.6-0.7L71,20.4c-0.6,0.2-1,1-0.7,1.6l7.3,19
				C77.8,41.7,78.5,42,79.2,41.8z"/>
			<path class="st0" d="M71.2,24.4L34,38.7c-0.5,0.2-0.7,0.7-0.5,1.2l0.8,2.2l3.1,8.2l0.8,2.2c0.2,0.5,0.7,0.7,1.2,0.5l37.1-14.3"/>
			<path class="st0" d="M34.3,42.1l-10,3.9c-0.5,0.2-0.7,0.7-0.5,1.2l0.5,1.4l1.4,3.7l0.5,1.4c0.2,0.5,0.7,0.7,1.2,0.5l10-3.9"/>
			<path class="st0" d="M24.3,48.5l-8.7,3.3c-0.4,0.1-0.6,0.6-0.4,1l0.9,2.3c0.1,0.4,0.6,0.6,1,0.4l8.7-3.3"/>
		</g>
		<line class="st0" x1="50.6" y1="48.5" x2="63.2" y2="81.5"/>
		<line class="st0" x1="50.3" y1="48.9" x2="35.1" y2="81.5"/>
	</g>
	<line class="st0" x1="50.4" y1="49.5" x2="50.4" y2="72.4"/>
</g>
</svg>
