<?xml version="1.0" encoding="utf-8"?>
<!-- Generator: Adobe Illustrator 22.0.0, SVG Export Plug-In . SVG Version: 6.00 Build 0)  -->
<svg version="1.1" id="Layer_1" xmlns="http://www.w3.org/2000/svg" xmlns:xlink="http://www.w3.org/1999/xlink" x="0px" y="0px"
	 viewBox="0 0 100 100" style="enable-background:new 0 0 100 100;" xml:space="preserve">
<style type="text/css">
	.st0{fill:none;stroke:#000000;stroke-width:2;stroke-miterlimit:10;}
	.st1{fill:none;}
	.st2{fill:none;stroke:#000000;stroke-width:2;stroke-linecap:round;stroke-miterlimit:10;stroke-dasharray:7;}
	.st3{fill:none;stroke:#000000;stroke-width:2;stroke-linecap:round;stroke-miterlimit:10;}
	.st4{fill:none;stroke:#000000;stroke-width:2;stroke-linecap:round;stroke-linejoin:round;stroke-miterlimit:10;}
	.st5{fill:none;stroke:#000000;stroke-width:2;stroke-linecap:square;stroke-miterlimit:10;}
	.st6{fill:none;stroke:#000000;stroke-width:2;stroke-miterlimit:10;stroke-dasharray:5.3638,5.3638;}
</style>
<g>
	<path class="st0" d="M43.3,23.7v6.1l-2.8,4.1C39.2,35.7,39,38,39.9,40l0,0c0.8,1.8,0.6,3.9-0.6,5.4l-3.7,4.8
		c-1.4,1.7-2.1,3.9-2.1,6.1v23.6c0,2.9,2.3,5.2,5.2,5.2h22.6c2.9,0,5.2-2.3,5.2-5.2V56.3c0-2.2-0.7-4.3-2.1-6.1l-3.7-4.8
		c-1.2-1.5-1.4-3.6-0.6-5.4l0,0c0.9-2,0.7-4.3-0.5-6.2l-2.8-4.1v-6.1"/>
	<line class="st0" x1="43.3" y1="29.8" x2="56.7" y2="29.8"/>
	<line class="st0" x1="33.5" y1="56.3" x2="66.5" y2="56.3"/>
	<path class="st0" d="M57.1,23.7H42.9c-0.8,0-1.5-0.7-1.5-1.5v-5.7c0-0.8,0.7-1.5,1.5-1.5h14.2c0.8,0,1.5,0.7,1.5,1.5v5.7
		C58.6,23,57.9,23.7,57.1,23.7z"/>
</g>
</svg>
