<?xml version="1.0" encoding="utf-8"?>
<!-- Generator: Adobe Illustrator 22.0.0, SVG Export Plug-In . SVG Version: 6.00 Build 0)  -->
<svg version="1.1" id="Layer_1" xmlns="http://www.w3.org/2000/svg" xmlns:xlink="http://www.w3.org/1999/xlink" x="0px" y="0px"
	 viewBox="0 0 100 100" style="enable-background:new 0 0 100 100;" xml:space="preserve">
<style type="text/css">
	.st0{fill:none;stroke:#000000;stroke-width:2;stroke-miterlimit:10;}
	.st1{fill:none;}
	.st2{fill:none;stroke:#000000;stroke-width:2;stroke-linecap:round;stroke-miterlimit:10;stroke-dasharray:7;}
	.st3{fill:none;stroke:#000000;stroke-width:2;stroke-linecap:round;stroke-miterlimit:10;}
	.st4{fill:none;stroke:#000000;stroke-width:2;stroke-linecap:round;stroke-linejoin:round;stroke-miterlimit:10;}
	.st5{fill:none;stroke:#000000;stroke-width:2;stroke-linecap:square;stroke-miterlimit:10;}
	.st6{fill:none;stroke:#000000;stroke-width:2;stroke-miterlimit:10;stroke-dasharray:5.3638,5.3638;}
</style>
<g>
	<g>
		<path class="st0" d="M76.3,28.5v30.1l8.2,9.8c0.5,0.6,0.7,1.3,0.7,2.1v1.2c0,2-1.6,3.6-3.6,3.6H55.1H44.9H18.4
			c-2,0-3.6-1.6-3.6-3.6v-1.2c0-0.8,0.3-1.5,0.7-2.1l8.2-9.8V28.5c0-2.1,1.7-3.8,3.8-3.8h44.9C74.6,24.7,76.3,26.4,76.3,28.5z"/>
		<line class="st0" x1="76.3" y1="58.6" x2="23.7" y2="58.6"/>
		<polyline class="st0" points="85.3,69.3 85,69.3 57.2,69.3 		"/>
		<polyline class="st0" points="42.8,69.3 15,69.3 14.8,69.3 		"/>
		<line class="st0" x1="23.7" y1="30.1" x2="76.3" y2="30.1"/>
		<path class="st0" d="M55.8,71.8H44.2c-0.5,0-1-0.4-1.1-0.9l-0.8-4.4c-0.1-0.7,0.4-1.3,1.1-1.3h13.3c0.7,0,1.2,0.6,1.1,1.3
			l-0.8,4.4C56.8,71.5,56.3,71.8,55.8,71.8z"/>
	</g>
	<path class="st3" d="M43.5,38.1L38,44c-0.2,0.2-0.2,0.5,0,0.8c1.3,1.3,5.5,5.8,5.5,5.8"/>
	<path class="st3" d="M56.5,38.1L62,44c0.2,0.2,0.2,0.5,0,0.8c-1.3,1.3-5.5,5.8-5.5,5.8"/>
	<line class="st3" x1="52" y1="36.2" x2="48" y2="52.5"/>
</g>
</svg>
