<?xml version="1.0" encoding="utf-8"?>
<!-- Generator: Adobe Illustrator 22.0.0, SVG Export Plug-In . SVG Version: 6.00 Build 0)  -->
<svg version="1.1" id="Layer_1" xmlns="http://www.w3.org/2000/svg" xmlns:xlink="http://www.w3.org/1999/xlink" x="0px" y="0px"
	 viewBox="0 0 100 100" style="enable-background:new 0 0 100 100;" xml:space="preserve">
<style type="text/css">
	.st0{fill:none;stroke:#000000;stroke-width:2;stroke-miterlimit:10;}
	.st1{fill:none;}
	.st2{fill:none;stroke:#000000;stroke-width:2;stroke-linecap:round;stroke-miterlimit:10;stroke-dasharray:7;}
	.st3{fill:none;stroke:#000000;stroke-width:2;stroke-linecap:round;stroke-miterlimit:10;}
	.st4{fill:none;stroke:#000000;stroke-width:2;stroke-linecap:round;stroke-linejoin:round;stroke-miterlimit:10;}
	.st5{fill:none;stroke:#000000;stroke-width:2;stroke-linecap:square;stroke-miterlimit:10;}
	.st6{fill:none;stroke:#000000;stroke-width:2;stroke-miterlimit:10;stroke-dasharray:5.3638,5.3638;}
</style>
<g>
	<path class="st0" d="M81.8,27.7l-13.9,4.5c-0.4,0.1-0.7-0.1-0.8-0.4l-3.9-12c-0.1-0.4,0.1-0.7,0.4-0.8l13.9-4.5
		c0.4-0.1,0.7,0.1,0.8,0.4l3.9,12C82.3,27.2,82.1,27.6,81.8,27.7z"/>
	<path class="st0" d="M63.5,20.8L30.8,31.3c0,0,0.3,0.9,0.3,0.9c0,0-3.2,1-3.2,1c-0.9,0.3-1.4,1.3-1.1,2.2l0.1,0.4l1.4,4.4
		c0.3,0.9,1.3,1.4,2.2,1.1l3.2-1l0,0l0.3,0.9l32.6-10.5"/>
	<path class="st0" d="M28.4,40.5L18.8,37c-0.9-0.3-1.3-1.2-1-2.1l0.2-0.5c0.3-0.9,1.2-1.3,2.1-1l6.8,2.5"/>
	<line class="st0" x1="56.1" y1="42.8" x2="56.1" y2="34.1"/>
	<line class="st0" x1="48.6" y1="42.8" x2="48.6" y2="36.5"/>
	<path class="st0" d="M57.6,46.6H47.1c-0.5,0-1-0.4-1-1v-1.9c0-0.5,0.4-1,1-1h10.6c0.5,0,1,0.4,1,1v1.9
		C58.6,46.2,58.2,46.6,57.6,46.6z"/>
	<g>
		<g>
			<line class="st0" x1="48.3" y1="46.6" x2="32.3" y2="85.7"/>
			<line class="st0" x1="56.4" y1="46.6" x2="72.4" y2="85.7"/>
		</g>
		<line class="st0" x1="52.3" y1="46.6" x2="52.3" y2="72.7"/>
	</g>
	<line class="st0" x1="31.1" y1="32.2" x2="33.8" y2="40.4"/>
</g>
</svg>
