<?xml version="1.0" encoding="utf-8"?>
<!-- Generator: Adobe Illustrator 22.0.0, SVG Export Plug-In . SVG Version: 6.00 Build 0)  -->
<svg version="1.1" id="Layer_1" xmlns="http://www.w3.org/2000/svg" xmlns:xlink="http://www.w3.org/1999/xlink" x="0px" y="0px"
	 viewBox="0 0 100 100" style="enable-background:new 0 0 100 100;" xml:space="preserve">
<style type="text/css">
	.st0{fill:none;stroke:#000000;stroke-width:2;stroke-miterlimit:10;}
	.st1{fill:none;}
	.st2{fill:none;stroke:#000000;stroke-width:2;stroke-linecap:round;stroke-miterlimit:10;stroke-dasharray:7;}
	.st3{fill:none;stroke:#000000;stroke-width:2;stroke-linecap:round;stroke-miterlimit:10;}
	.st4{fill:none;stroke:#000000;stroke-width:2;stroke-linecap:round;stroke-linejoin:round;stroke-miterlimit:10;}
	.st5{fill:none;stroke:#000000;stroke-width:2;stroke-linecap:square;stroke-miterlimit:10;}
	.st6{fill:none;stroke:#000000;stroke-width:2;stroke-miterlimit:10;stroke-dasharray:5.3638,5.3638;}
</style>
<g>
	<g>
		<path class="st0" d="M55,23.1h0.9c1.4,0,2.5,1.1,2.5,2.5v7.7v23.9c6.9,2,12.7,6.5,16.5,12.4c1.5,2.4,2.7,5,3.5,7.8
			c1.2,4.1-1.9,8.1-6.2,8.1H27.8c-4.3,0-7.3-4.1-6.2-8.2c1.4-4.9,4-9.2,7.5-12.7c3.4-3.4,7.7-6,12.4-7.4V25.6c0-1.4,1.1-2.5,2.5-2.5
			h1"/>
		<line class="st0" x1="41.5" y1="33.3" x2="58.5" y2="33.3"/>
		<path class="st0" d="M55,33.3V23.1v-6.9c0-1-0.8-1.8-1.8-1.8h-6.4c-1,0-1.8,0.8-1.8,1.8v6.9v10.2"/>
	</g>
	<line class="st0" x1="32.1" y1="73.6" x2="67.9" y2="73.6"/>
</g>
</svg>
