<?xml version="1.0" encoding="utf-8"?>
<!-- Generator: Adobe Illustrator 22.0.0, SVG Export Plug-In . SVG Version: 6.00 Build 0)  -->
<svg version="1.1" id="Layer_1" xmlns="http://www.w3.org/2000/svg" xmlns:xlink="http://www.w3.org/1999/xlink" x="0px" y="0px"
	 viewBox="0 0 100 100" style="enable-background:new 0 0 100 100;" xml:space="preserve">
<style type="text/css">
	.st0{fill:none;stroke:#000000;stroke-width:2;stroke-miterlimit:10;}
	.st1{fill:none;}
	.st2{fill:none;stroke:#000000;stroke-width:2;stroke-linecap:round;stroke-miterlimit:10;stroke-dasharray:7;}
	.st3{fill:none;stroke:#000000;stroke-width:2;stroke-linecap:round;stroke-miterlimit:10;}
	.st4{fill:none;stroke:#000000;stroke-width:2;stroke-linecap:round;stroke-linejoin:round;stroke-miterlimit:10;}
	.st5{fill:none;stroke:#000000;stroke-width:2;stroke-linecap:square;stroke-miterlimit:10;}
	.st6{fill:none;stroke:#000000;stroke-width:2;stroke-miterlimit:10;stroke-dasharray:5.3638,5.3638;}
</style>
<g>
	<path class="st0" d="M71.2,66.2c0.4,2.1,0.6,4.4,0.6,6.7c0,4-0.6,7.8-1.8,11.2c-0.3,0.8-1,1.4-1.9,1.4H31.8c-0.9,0-1.6-0.6-1.9-1.4
		c-1.1-3.4-1.8-7.2-1.8-11.2c0-12.2,6-22.7,14.4-26.6V18.8c0-2.3,1.9-4.2,4.2-4.2h6.5c2.3,0,4.2,1.9,4.2,4.2v27.4
		C64.3,49.4,69.5,56.9,71.2,66.2z"/>
	<line class="st0" x1="42.4" y1="77.7" x2="28.5" y2="77.7"/>
	<line class="st0" x1="42.4" y1="68.3" x2="28.5" y2="68.3"/>
	<line class="st0" x1="42.4" y1="58.8" x2="31" y2="58.8"/>
	<line class="st0" x1="42.5" y1="24.6" x2="57.5" y2="24.6"/>
</g>
</svg>
