<?xml version="1.0" encoding="utf-8"?>
<!-- Generator: Adobe Illustrator 22.0.0, SVG Export Plug-In . SVG Version: 6.00 Build 0)  -->
<svg version="1.1" id="Layer_1" xmlns="http://www.w3.org/2000/svg" xmlns:xlink="http://www.w3.org/1999/xlink" x="0px" y="0px"
	 viewBox="0 0 100 100" style="enable-background:new 0 0 100 100;" xml:space="preserve">
<style type="text/css">
	.st0{fill:none;stroke:#000000;stroke-width:2;stroke-miterlimit:10;}
	.st1{fill:none;}
	.st2{fill:none;stroke:#000000;stroke-width:2;stroke-linecap:round;stroke-miterlimit:10;stroke-dasharray:7;}
	.st3{fill:none;stroke:#000000;stroke-width:2;stroke-linecap:round;stroke-miterlimit:10;}
	.st4{fill:none;stroke:#000000;stroke-width:2;stroke-linecap:round;stroke-linejoin:round;stroke-miterlimit:10;}
	.st5{fill:none;stroke:#000000;stroke-width:2;stroke-linecap:square;stroke-miterlimit:10;}
	.st6{fill:none;stroke:#000000;stroke-width:2;stroke-miterlimit:10;stroke-dasharray:5.3638,5.3638;}
</style>
<g>
	<g>
		<path class="st0" d="M63.4,71.3H36.6c-1.3,0-2.3-1-2.3-2.3v-4.7c0-8.7,7-15.7,15.7-15.7h0c8.7,0,15.7,7,15.7,15.7V69
			C65.7,70.3,64.7,71.3,63.4,71.3z"/>
		<ellipse class="st0" cx="50" cy="37.4" rx="7.7" ry="8.7"/>
	</g>
	<g>
		<g>
			<path class="st0" d="M65.8,68.5h17.4c1,0,1.8-0.8,1.8-1.8V63c0-3.5-1.4-6.6-3.7-8.8c-2.3-2.3-5.4-3.7-8.8-3.7
				c-4,0-7.5,1.8-9.8,4.7"/>
			<ellipse class="st0" cx="72.5" cy="41.5" rx="6.1" ry="6.9"/>
		</g>
		<g>
			<path class="st0" d="M37.3,55.2c-2.3-2.9-5.8-4.7-9.8-4.7c-3.5,0-6.6,1.4-8.8,3.7C16.4,56.4,15,59.5,15,63v3.7
				c0,1,0.8,1.8,1.8,1.8h17.4"/>
			<ellipse class="st0" cx="27.5" cy="41.5" rx="6.1" ry="6.9"/>
		</g>
	</g>
</g>
</svg>
