<?xml version="1.0" encoding="utf-8"?>
<!-- Generator: Adobe Illustrator 22.0.0, SVG Export Plug-In . SVG Version: 6.00 Build 0)  -->
<svg version="1.1" id="Layer_1" xmlns="http://www.w3.org/2000/svg" xmlns:xlink="http://www.w3.org/1999/xlink" x="0px" y="0px"
	 viewBox="0 0 100 100" style="enable-background:new 0 0 100 100;" xml:space="preserve">
<style type="text/css">
	.st0{fill:none;stroke:#000000;stroke-width:2;stroke-miterlimit:10;}
	.st1{fill:none;}
	.st2{fill:none;stroke:#000000;stroke-width:2;stroke-linecap:round;stroke-miterlimit:10;stroke-dasharray:7;}
	.st3{fill:none;stroke:#000000;stroke-width:2;stroke-linecap:round;stroke-miterlimit:10;}
	.st4{fill:none;stroke:#000000;stroke-width:2;stroke-linecap:round;stroke-linejoin:round;stroke-miterlimit:10;}
	.st5{fill:none;stroke:#000000;stroke-width:2;stroke-linecap:square;stroke-miterlimit:10;}
	.st6{fill:none;stroke:#000000;stroke-width:2;stroke-miterlimit:10;stroke-dasharray:5.3638,5.3638;}
</style>
<g>
	<g>
		<path d="M48.8,55.8h2.6v17.3h-3.7V59.7l-3,0.7l-0.8-3.1L48.8,55.8z"/>
	</g>
	<g>
		<g>
			<g>
				<polyline class="st0" points="61,44.5 76.3,14.8 59.6,14.8 50,33.5 44.1,44.9 44.1,45 				"/>
			</g>
		</g>
		<polyline class="st0" points="39,44.5 23.7,14.8 40.4,14.8 50,33.5 		"/>
	</g>
	<g>
		<path class="st0" d="M50,48.5l-0.2-0.2c-2.5-2.5-5.9-3.8-9.2-3.8s-6.7,1.3-9.2,3.8c-5.1,5.1-5.1,13.3,0,18.4l0.2,0.2L50,85.2
			l18.4-18.3l0.2-0.2c2.5-2.5,3.8-5.9,3.8-9.2c0-3.3-1.2-6.6-3.8-9.2c-5.1-5.1-13.3-5.1-18.4,0C50.2,48.2,50,48.4,50,48.5z"/>
	</g>
</g>
</svg>
