<?xml version="1.0" encoding="utf-8"?>
<!-- Generator: Adobe Illustrator 22.0.0, SVG Export Plug-In . SVG Version: 6.00 Build 0)  -->
<svg version="1.1" id="Layer_1" xmlns="http://www.w3.org/2000/svg" xmlns:xlink="http://www.w3.org/1999/xlink" x="0px" y="0px"
	 viewBox="0 0 100 100" style="enable-background:new 0 0 100 100;" xml:space="preserve">
<style type="text/css">
	.st0{fill:none;stroke:#000000;stroke-width:2;stroke-miterlimit:10;}
	.st1{fill:none;}
	.st2{fill:none;stroke:#000000;stroke-width:2;stroke-linecap:round;stroke-miterlimit:10;stroke-dasharray:7;}
	.st3{fill:none;stroke:#000000;stroke-width:2;stroke-linecap:round;stroke-miterlimit:10;}
	.st4{fill:none;stroke:#000000;stroke-width:2;stroke-linecap:round;stroke-linejoin:round;stroke-miterlimit:10;}
	.st5{fill:none;stroke:#000000;stroke-width:2;stroke-linecap:square;stroke-miterlimit:10;}
	.st6{fill:none;stroke:#000000;stroke-width:2;stroke-miterlimit:10;stroke-dasharray:5.3638,5.3638;}
</style>
<g>
	<g>
		<polyline class="st0" points="54.8,21.4 85.2,21.4 85.2,40 80.3,40 75.3,40 65,40 		"/>
		<polyline class="st0" points="35,40 24.7,40 19.7,40 14.8,40 14.8,21.4 45.2,21.4 		"/>
		<polyline class="st0" points="80.3,40 80.3,44.4 80.3,78.4 		"/>
		<polyline class="st0" points="19.7,40 19.7,44.4 19.7,78.4 		"/>
		<polyline class="st0" points="65,79.2 65,40 65,30.7 60.4,26.5 54.8,21.4 50,17.1 45.2,21.4 39.6,26.5 35,30.6 35,40 35,79.2 		
			"/>
		<line class="st0" x1="35" y1="44.4" x2="65" y2="44.4"/>
	</g>
	<rect x="14.8" y="78.4" class="st0" width="70.3" height="4.5"/>
	<path class="st0" d="M44,78.4V65.2c0-3.3,2.7-6,6-6c1.7,0,3.2,0.7,4.3,1.8c1.1,1.1,1.8,2.6,1.8,4.3v13.2"/>
</g>
</svg>
