<?xml version="1.0" encoding="utf-8"?>
<!-- Generator: Adobe Illustrator 22.0.0, SVG Export Plug-In . SVG Version: 6.00 Build 0)  -->
<svg version="1.1" id="Layer_1" xmlns="http://www.w3.org/2000/svg" xmlns:xlink="http://www.w3.org/1999/xlink" x="0px" y="0px"
	 viewBox="0 0 100 100" style="enable-background:new 0 0 100 100;" xml:space="preserve">
<style type="text/css">
	.st0{fill:none;stroke:#000000;stroke-width:2;stroke-miterlimit:10;}
	.st1{fill:none;}
	.st2{fill:none;stroke:#000000;stroke-width:2;stroke-linecap:round;stroke-miterlimit:10;stroke-dasharray:7;}
	.st3{fill:none;stroke:#000000;stroke-width:2;stroke-linecap:round;stroke-miterlimit:10;}
	.st4{fill:none;stroke:#000000;stroke-width:2;stroke-linecap:round;stroke-linejoin:round;stroke-miterlimit:10;}
	.st5{fill:none;stroke:#000000;stroke-width:2;stroke-linecap:square;stroke-miterlimit:10;}
	.st6{fill:none;stroke:#000000;stroke-width:2;stroke-miterlimit:10;stroke-dasharray:5.3638,5.3638;}
</style>
<g>
	<path class="st0" d="M34.6,21.9l-5.5,8c-0.3,0.5-0.5,1.1-0.5,1.7v9v11.2V80c0,2.8,2.3,5.1,5.1,5.1h32.7c2.8,0,5.1-2.3,5.1-5.1V51.8
		V40.5v-9c0-0.6-0.2-1.2-0.5-1.7l-5.5-8"/>
	<path class="st0" d="M69.8,21.9H30.2c-0.9,0-1.6-0.7-1.6-1.6v-3.7c0-0.9,0.7-1.6,1.6-1.6h39.6c0.9,0,1.6,0.7,1.6,1.6v3.7
		C71.4,21.1,70.7,21.9,69.8,21.9z"/>
	<rect x="28.6" y="40.5" class="st0" width="42.8" height="11.2"/>
</g>
</svg>
