<?xml version="1.0" encoding="utf-8"?>
<!-- Generator: Adobe Illustrator 22.0.0, SVG Export Plug-In . SVG Version: 6.00 Build 0)  -->
<svg version="1.1" id="Layer_1" xmlns="http://www.w3.org/2000/svg" xmlns:xlink="http://www.w3.org/1999/xlink" x="0px" y="0px"
	 viewBox="0 0 100 100" style="enable-background:new 0 0 100 100;" xml:space="preserve">
<style type="text/css">
	.st0{fill:none;stroke:#000000;stroke-width:2;stroke-miterlimit:10;}
	.st1{fill:none;}
	.st2{fill:none;stroke:#000000;stroke-width:2;stroke-linecap:round;stroke-miterlimit:10;stroke-dasharray:7;}
	.st3{fill:none;stroke:#000000;stroke-width:2;stroke-linecap:round;stroke-miterlimit:10;}
	.st4{fill:none;stroke:#000000;stroke-width:2;stroke-linecap:round;stroke-linejoin:round;stroke-miterlimit:10;}
	.st5{fill:none;stroke:#000000;stroke-width:2;stroke-linecap:square;stroke-miterlimit:10;}
	.st6{fill:none;stroke:#000000;stroke-width:2;stroke-miterlimit:10;stroke-dasharray:5.3638,5.3638;}
</style>
<g>
	<path class="st0" d="M54.9,19.3V31l2.7,4c3.2,4.8,4.9,10.5,4.9,16.2v31.4c0,1.3-1,2.3-2.3,2.3h-9.8h-0.8h-9.8c-1.3,0-2.3-1-2.3-2.3
		V51.2c0-5.8,1.7-11.4,4.9-16.2l2.7-4V19.3"/>
	<path class="st0" d="M55.4,19.3H44.6c-0.5,0-0.9-0.4-0.9-0.9v-2.3c0-0.5,0.4-0.9,0.9-0.9h10.8c0.5,0,0.9,0.4,0.9,0.9v2.3
		C56.3,18.8,55.9,19.3,55.4,19.3z"/>
	<line class="st0" x1="45.1" y1="31" x2="54.9" y2="31"/>
	<line class="st0" x1="37.6" y1="77.7" x2="62.4" y2="77.7"/>
	<line class="st0" x1="38" y1="46.3" x2="62" y2="46.3"/>
</g>
</svg>
