<?xml version="1.0" encoding="utf-8"?>
<!-- Generator: Adobe Illustrator 22.0.0, SVG Export Plug-In . SVG Version: 6.00 Build 0)  -->
<svg version="1.1" id="Layer_1" xmlns="http://www.w3.org/2000/svg" xmlns:xlink="http://www.w3.org/1999/xlink" x="0px" y="0px"
	 viewBox="0 0 100 100" style="enable-background:new 0 0 100 100;" xml:space="preserve">
<style type="text/css">
	.st0{fill:none;stroke:#000000;stroke-width:2;stroke-miterlimit:10;}
	.st1{fill:none;}
	.st2{fill:none;stroke:#000000;stroke-width:2;stroke-linecap:round;stroke-miterlimit:10;stroke-dasharray:7;}
	.st3{fill:none;stroke:#000000;stroke-width:2;stroke-linecap:round;stroke-miterlimit:10;}
	.st4{fill:none;stroke:#000000;stroke-width:2;stroke-linecap:round;stroke-linejoin:round;stroke-miterlimit:10;}
	.st5{fill:none;stroke:#000000;stroke-width:2;stroke-linecap:square;stroke-miterlimit:10;}
	.st6{fill:none;stroke:#000000;stroke-width:2;stroke-miterlimit:10;stroke-dasharray:5.3638,5.3638;}
</style>
<g>
	<path class="st0" d="M45.4,24.4v4.2l-5.3,6.7c-1.5,1.9-2.3,4.2-2.3,6.7c0,1.6,0.4,3.2,1.1,4.7l1.6,3.4c0.7,1.5,1.1,3.1,1.1,4.7v4.8
		c0,1.4-0.3,2.9-0.8,4.2l-2.1,5c-0.6,1.3-0.8,2.7-0.8,4.2v9.5c0,1.5,1.2,2.8,2.8,2.8h18.9c1.5,0,2.8-1.2,2.8-2.8v-9.5
		c0-1.4-0.3-2.9-0.8-4.2l-2.1-5c-0.6-1.3-0.8-2.7-0.8-4.2v-4.8c0-1.6,0.4-3.2,1.1-4.7l1.6-3.4c0.7-1.5,1.1-3.1,1.1-4.7
		c0-1.2-0.2-2.4-0.6-3.5c-0.4-1.1-1-2.2-1.7-3.1l-5.3-6.7v-4.2"/>
	<line class="st0" x1="41.6" y1="54.7" x2="58.4" y2="54.7"/>
	<line class="st0" x1="41.6" y1="59.5" x2="58.4" y2="59.5"/>
	<line class="st0" x1="38.6" y1="68.7" x2="61.4" y2="68.7"/>
	<path class="st0" d="M43.5,21.4V24c0,0.2,0.2,0.4,0.4,0.4h1.5h9.2h1.5c0.2,0,0.4-0.2,0.4-0.4v-2.7c0-0.2-0.2-0.4-0.4-0.4h-1.5v-5.1
		c0-0.5-0.4-1-1-1h-7.3c-0.5,0-1,0.4-1,1V21h-1.5C43.7,21,43.5,21.2,43.5,21.4z"/>
</g>
</svg>
