<?xml version="1.0" encoding="utf-8"?>
<!-- Generator: Adobe Illustrator 22.0.0, SVG Export Plug-In . SVG Version: 6.00 Build 0)  -->
<svg version="1.1" id="Layer_1" xmlns="http://www.w3.org/2000/svg" xmlns:xlink="http://www.w3.org/1999/xlink" x="0px" y="0px"
	 viewBox="0 0 100 100" style="enable-background:new 0 0 100 100;" xml:space="preserve">
<style type="text/css">
	.st0{fill:none;stroke:#000000;stroke-width:2;stroke-miterlimit:10;}
	.st1{fill:none;}
	.st2{fill:none;stroke:#000000;stroke-width:2;stroke-linecap:round;stroke-miterlimit:10;stroke-dasharray:7;}
	.st3{fill:none;stroke:#000000;stroke-width:2;stroke-linecap:round;stroke-miterlimit:10;}
	.st4{fill:none;stroke:#000000;stroke-width:2;stroke-linecap:round;stroke-linejoin:round;stroke-miterlimit:10;}
	.st5{fill:none;stroke:#000000;stroke-width:2;stroke-linecap:square;stroke-miterlimit:10;}
	.st6{fill:none;stroke:#000000;stroke-width:2;stroke-miterlimit:10;stroke-dasharray:5.3638,5.3638;}
</style>
<g>
	<path class="st0" d="M29.1,86h41.7c0.9,0,1.6-0.7,1.6-1.6V25.3c0-0.9-0.7-1.6-1.6-1.6H44.2H29.1c-0.9,0-1.6,0.7-1.6,1.6v59.1
		C27.5,85.2,28.2,86,29.1,86z"/>
	<line class="st0" x1="44" y1="86" x2="44" y2="23.6"/>
	<path class="st0" d="M56,23.6v-7.4c0-1.2,1-2.2,2.2-2.2h7.5c1.2,0,2.2,1,2.2,2.2v7.4"/>
	<line class="st0" x1="44" y1="65.5" x2="72.2" y2="37.3"/>
	<line class="st0" x1="44" y1="77.6" x2="72.2" y2="49.4"/>
</g>
</svg>
