<?xml version="1.0" encoding="utf-8"?>
<!-- Generator: Adobe Illustrator 22.0.0, SVG Export Plug-In . SVG Version: 6.00 Build 0)  -->
<svg version="1.1" id="Layer_1" xmlns="http://www.w3.org/2000/svg" xmlns:xlink="http://www.w3.org/1999/xlink" x="0px" y="0px"
	 viewBox="0 0 100 100" style="enable-background:new 0 0 100 100;" xml:space="preserve">
<style type="text/css">
	.st0{fill:none;stroke:#000000;stroke-width:2;stroke-miterlimit:10;}
	.st1{fill:none;}
	.st2{fill:none;stroke:#000000;stroke-width:2;stroke-linecap:round;stroke-miterlimit:10;stroke-dasharray:7;}
	.st3{fill:none;stroke:#000000;stroke-width:2;stroke-linecap:round;stroke-miterlimit:10;}
	.st4{fill:none;stroke:#000000;stroke-width:2;stroke-linecap:round;stroke-linejoin:round;stroke-miterlimit:10;}
	.st5{fill:none;stroke:#000000;stroke-width:2;stroke-linecap:square;stroke-miterlimit:10;}
	.st6{fill:none;stroke:#000000;stroke-width:2;stroke-miterlimit:10;stroke-dasharray:5.3638,5.3638;}
</style>
<g>
	<polyline class="st0" points="46.2,37.8 22.1,37.8 13.8,52.2 19.5,52.2 35,52.2 46.2,37.8 50,33 53.8,37.8 65,52.2 80.5,52.2 
		86.2,52.2 77.9,37.8 53.8,37.8 	"/>
	<circle class="st0" cx="50" cy="52.2" r="5.5"/>
	<g>
		<g>
			<line class="st0" x1="19.5" y1="79.9" x2="19.5" y2="52.2"/>
			<line class="st0" x1="80.5" y1="79.9" x2="80.5" y2="52.2"/>
		</g>
		<path class="st0" d="M84.5,85.7H15.5c-1,0-1.8-0.8-1.8-1.8v-2.2c0-1,0.8-1.8,1.8-1.8h68.9c1,0,1.8,0.8,1.8,1.8v2.2
			C86.2,84.9,85.4,85.7,84.5,85.7z"/>
	</g>
	<path class="st0" d="M56.2,79.9H43.8V65.5c0-1.5,1.2-2.7,2.7-2.7h7.2c1.5,0,2.7,1.2,2.7,2.7V79.9z"/>
	<line class="st0" x1="50" y1="33" x2="50" y2="14.3"/>
	<polyline class="st0" points="50,23.2 60.9,23.2 58.6,20 60.9,16.9 50,16.9 	"/>
</g>
</svg>
