<?xml version="1.0" encoding="utf-8"?>
<!-- Generator: Adobe Illustrator 22.0.0, SVG Export Plug-In . SVG Version: 6.00 Build 0)  -->
<svg version="1.1" id="Layer_1" xmlns="http://www.w3.org/2000/svg" xmlns:xlink="http://www.w3.org/1999/xlink" x="0px" y="0px"
	 viewBox="0 0 100 100" style="enable-background:new 0 0 100 100;" xml:space="preserve">
<style type="text/css">
	.st0{fill:none;stroke:#000000;stroke-width:2;stroke-miterlimit:10;}
	.st1{fill:none;}
	.st2{fill:none;stroke:#000000;stroke-width:2;stroke-linecap:round;stroke-miterlimit:10;stroke-dasharray:7;}
	.st3{fill:none;stroke:#000000;stroke-width:2;stroke-linecap:round;stroke-miterlimit:10;}
	.st4{fill:none;stroke:#000000;stroke-width:2;stroke-linecap:round;stroke-linejoin:round;stroke-miterlimit:10;}
	.st5{fill:none;stroke:#000000;stroke-width:2;stroke-linecap:square;stroke-miterlimit:10;}
	.st6{fill:none;stroke:#000000;stroke-width:2;stroke-miterlimit:10;stroke-dasharray:5.3638,5.3638;}
</style>
<g>
	<path class="st0" d="M16.3,63.1v-40c0-2.5,2-4.5,4.5-4.5h58.5c2.5,0,4.5,2,4.5,4.5v40c0,2.5-2,4.5-4.5,4.5H20.8
		C18.3,67.6,16.3,65.6,16.3,63.1z"/>
	<rect x="23.3" y="25.6" class="st0" width="53.5" height="35"/>
	<line class="st0" x1="40.5" y1="67.6" x2="38.8" y2="74.9"/>
	<line class="st0" x1="61.2" y1="74.9" x2="59.5" y2="67.6"/>
	<path class="st0" d="M70,81.4H30V81c0-3.4,2.7-6.1,6.1-6.1h27.8c3.4,0,6.1,2.7,6.1,6.1V81.4z"/>
</g>
</svg>
