<?xml version="1.0" encoding="utf-8"?>
<!-- Generator: Adobe Illustrator 22.0.0, SVG Export Plug-In . SVG Version: 6.00 Build 0)  -->
<svg version="1.1" id="Layer_1" xmlns="http://www.w3.org/2000/svg" xmlns:xlink="http://www.w3.org/1999/xlink" x="0px" y="0px"
	 viewBox="0 0 100 100" style="enable-background:new 0 0 100 100;" xml:space="preserve">
<style type="text/css">
	.st0{fill:none;stroke:#000000;stroke-width:2;stroke-miterlimit:10;}
	.st1{fill:none;}
	.st2{fill:none;stroke:#000000;stroke-width:2;stroke-linecap:round;stroke-miterlimit:10;stroke-dasharray:7;}
	.st3{fill:none;stroke:#000000;stroke-width:2;stroke-linecap:round;stroke-miterlimit:10;}
	.st4{fill:none;stroke:#000000;stroke-width:2;stroke-linecap:round;stroke-linejoin:round;stroke-miterlimit:10;}
	.st5{fill:none;stroke:#000000;stroke-width:2;stroke-linecap:square;stroke-miterlimit:10;}
	.st6{fill:none;stroke:#000000;stroke-width:2;stroke-miterlimit:10;stroke-dasharray:5.3638,5.3638;}
</style>
<g>
	<g>
		<path class="st0" d="M77.5,46.5V26c0-1.8-1.5-3.3-3.3-3.3H17.9c-1.8,0-3.3,1.5-3.3,3.3v30.4v4.1c0,1.8,1.5,3.3,3.3,3.3h21.6h13
			h13.3"/>
		<line class="st0" x1="65.8" y1="56.4" x2="14.5" y2="56.4"/>
		<line class="st0" x1="39.5" y1="63.8" x2="38.1" y2="70.9"/>
		<line class="st0" x1="53.9" y1="70.9" x2="52.5" y2="63.8"/>
		<path class="st0" d="M55.8,77.4H36.2c-1.8,0-3.2-1.4-3.2-3.2v0c0-1.8,1.4-3.2,3.2-3.2h19.6c1.8,0,3.2,1.4,3.2,3.2v0
			C59,75.9,57.6,77.4,55.8,77.4z"/>
	</g>
	<g>
		<path class="st0" d="M82.1,77.4H69.2c-1.9,0-3.4-1.5-3.4-3.4V49.9c0-1.9,1.5-3.4,3.4-3.4h12.9c1.9,0,3.4,1.5,3.4,3.4V74
			C85.5,75.8,84,77.4,82.1,77.4z"/>
		<line class="st0" x1="65.8" y1="71.5" x2="85.5" y2="71.5"/>
	</g>
</g>
</svg>
