<?xml version="1.0" encoding="utf-8"?>
<!-- Generator: Adobe Illustrator 22.0.0, SVG Export Plug-In . SVG Version: 6.00 Build 0)  -->
<svg version="1.1" id="Layer_1" xmlns="http://www.w3.org/2000/svg" xmlns:xlink="http://www.w3.org/1999/xlink" x="0px" y="0px"
	 viewBox="0 0 100 100" style="enable-background:new 0 0 100 100;" xml:space="preserve">
<style type="text/css">
	.st0{fill:none;stroke:#000000;stroke-width:2;stroke-miterlimit:10;}
	.st1{fill:none;}
	.st2{fill:none;stroke:#000000;stroke-width:2;stroke-linecap:round;stroke-miterlimit:10;stroke-dasharray:7;}
	.st3{fill:none;stroke:#000000;stroke-width:2;stroke-linecap:round;stroke-miterlimit:10;}
	.st4{fill:none;stroke:#000000;stroke-width:2;stroke-linecap:round;stroke-linejoin:round;stroke-miterlimit:10;}
	.st5{fill:none;stroke:#000000;stroke-width:2;stroke-linecap:square;stroke-miterlimit:10;}
	.st6{fill:none;stroke:#000000;stroke-width:2;stroke-miterlimit:10;stroke-dasharray:5.3638,5.3638;}
</style>
<g>
	<path class="st0" d="M50.6,60.9h3.1c1.9,0,3.7,0.9,4.8,2.5l10.1,13.9c1.6,2.2,4.2,3.5,6.9,3.5h0c3.5,0,6.3-2.8,6.3-6.3v-21
		c0-8.3-6.7-15-15-15H50.6h-1.2H33.1c-8.3,0-15,6.7-15,15v21c0,3.5,2.8,6.3,6.3,6.3h0c2.7,0,5.3-1.3,6.9-3.5l10.1-13.9
		c1.1-1.6,2.9-2.5,4.8-2.5h3.1H50.6z"/>
	<polyline class="st0" points="44.7,38.5 44.7,34.1 55.3,34.1 55.3,38.5 	"/>
	<path class="st0" d="M50,34.1V27c0-4.3-3.5-7.7-7.7-7.7h-9.5"/>
</g>
</svg>
