<?xml version="1.0" encoding="utf-8"?>
<!-- Generator: Adobe Illustrator 22.0.0, SVG Export Plug-In . SVG Version: 6.00 Build 0)  -->
<svg version="1.1" id="Layer_1" xmlns="http://www.w3.org/2000/svg" xmlns:xlink="http://www.w3.org/1999/xlink" x="0px" y="0px"
	 viewBox="0 0 100 100" style="enable-background:new 0 0 100 100;" xml:space="preserve">
<style type="text/css">
	.st0{fill:none;stroke:#000000;stroke-width:2;stroke-miterlimit:10;}
	.st1{fill:none;}
	.st2{fill:none;stroke:#000000;stroke-width:2;stroke-linecap:round;stroke-miterlimit:10;stroke-dasharray:7;}
	.st3{fill:none;stroke:#000000;stroke-width:2;stroke-linecap:round;stroke-miterlimit:10;}
	.st4{fill:none;stroke:#000000;stroke-width:2;stroke-linecap:round;stroke-linejoin:round;stroke-miterlimit:10;}
	.st5{fill:none;stroke:#000000;stroke-width:2;stroke-linecap:square;stroke-miterlimit:10;}
	.st6{fill:none;stroke:#000000;stroke-width:2;stroke-miterlimit:10;stroke-dasharray:5.3638,5.3638;}
</style>
<g>
	<g>
		<path class="st0" d="M21.6,26.1c0-3.1,0-6.4,0-6.4h10.3V31v20.5c0,5,2,9.5,5.3,12.8c3.3,3.3,7.8,5.3,12.8,5.3
			c10,0,18.1-8.1,18.1-18.1V31V19.7h10.3V31v21c0,15.7-12.7,28.4-28.4,28.4S21.6,67.6,21.6,51.9V31C21.6,31,21.6,28.6,21.6,26.1z"/>
		<line class="st0" x1="78.4" y1="31" x2="68.1" y2="31"/>
		<line class="st0" x1="31.9" y1="31" x2="21.6" y2="31"/>
	</g>
	<line class="st0" x1="23.8" y1="25.7" x2="29.6" y2="25.7"/>
	<g>
		<line class="st0" x1="70.3" y1="25.4" x2="76.2" y2="25.4"/>
		<line class="st0" x1="73.2" y1="22.5" x2="73.2" y2="28.4"/>
	</g>
</g>
</svg>
