<?xml version="1.0" encoding="utf-8"?>
<!-- Generator: Adobe Illustrator 22.0.0, SVG Export Plug-In . SVG Version: 6.00 Build 0)  -->
<svg version="1.1" id="Layer_1" xmlns="http://www.w3.org/2000/svg" xmlns:xlink="http://www.w3.org/1999/xlink" x="0px" y="0px"
	 viewBox="0 0 100 100" style="enable-background:new 0 0 100 100;" xml:space="preserve">
<style type="text/css">
	.st0{fill:none;stroke:#000000;stroke-width:2;stroke-miterlimit:10;}
	.st1{fill:none;}
	.st2{fill:none;stroke:#000000;stroke-width:2;stroke-linecap:round;stroke-miterlimit:10;stroke-dasharray:7;}
	.st3{fill:none;stroke:#000000;stroke-width:2;stroke-linecap:round;stroke-miterlimit:10;}
	.st4{fill:none;stroke:#000000;stroke-width:2;stroke-linecap:round;stroke-linejoin:round;stroke-miterlimit:10;}
	.st5{fill:none;stroke:#000000;stroke-width:2;stroke-linecap:square;stroke-miterlimit:10;}
	.st6{fill:none;stroke:#000000;stroke-width:2;stroke-miterlimit:10;stroke-dasharray:5.3638,5.3638;}
</style>
<g>
	<g>
		<path class="st0" d="M39.5,51.9c-3.5-1-6.8-1.5-9.7-1.5c1.5-8.6,10.6-15.2,21.6-15.2S71.6,41.8,73,50.4c-2.9,0-6.2,0.5-9.7,1.5
			c-0.8,0.2-1.6,0.5-2.3,0.8c-1.7-1.5-5.4-2.5-9.6-2.5s-7.9,1-9.6,2.5C41.1,52.3,40.3,52.1,39.5,51.9z"/>
		<line class="st0" x1="51.4" y1="35.2" x2="51.4" y2="29.4"/>
		<path class="st0" d="M40.1,73.7c0-0.1,0-0.2,0-0.3v-0.2c0-1.1,0.9-2,2-2h0c1.1,0,2,0.9,2,2v0.2c0,1.6,1.2,2.9,2.7,2.9
			c1.5,0,2.7-1.3,2.7-2.9v-6.4h4v6.4c0,3.9-3,7.1-6.7,7.1C43.2,80.5,40.2,77.5,40.1,73.7z"/>
		<line class="st0" x1="51.4" y1="66.9" x2="51.4" y2="50.1"/>
	</g>
	<path class="st0" d="M27,34.3c0-1.9,3.5-6.7,3.5-6.7s3.5,4.7,3.5,6.7c0,1.9-1.6,3.5-3.5,3.5S27,36.2,27,34.3z"/>
	<path class="st0" d="M36.6,26.2c0-1.9,3.5-6.7,3.5-6.7s3.5,4.7,3.5,6.7s-1.6,3.5-3.5,3.5S36.6,28.1,36.6,26.2z"/>
</g>
</svg>
