<?xml version="1.0" encoding="utf-8"?>
<!-- Generator: Adobe Illustrator 22.0.0, SVG Export Plug-In . SVG Version: 6.00 Build 0)  -->
<svg version="1.1" id="Layer_1" xmlns="http://www.w3.org/2000/svg" xmlns:xlink="http://www.w3.org/1999/xlink" x="0px" y="0px"
	 viewBox="0 0 100 100" style="enable-background:new 0 0 100 100;" xml:space="preserve">
<style type="text/css">
	.st0{fill:none;stroke:#000000;stroke-width:2;stroke-miterlimit:10;}
	.st1{fill:none;}
	.st2{fill:none;stroke:#000000;stroke-width:2;stroke-linecap:round;stroke-miterlimit:10;stroke-dasharray:7;}
	.st3{fill:none;stroke:#000000;stroke-width:2;stroke-linecap:round;stroke-miterlimit:10;}
	.st4{fill:none;stroke:#000000;stroke-width:2;stroke-linecap:round;stroke-linejoin:round;stroke-miterlimit:10;}
	.st5{fill:none;stroke:#000000;stroke-width:2;stroke-linecap:square;stroke-miterlimit:10;}
	.st6{fill:none;stroke:#000000;stroke-width:2;stroke-miterlimit:10;stroke-dasharray:5.3638,5.3638;}
</style>
<g>
	<path class="st0" d="M54,68.4h0.3c3,0,5.4,2.4,5.4,5.4H40.3c0-1.5,0.6-2.8,1.6-3.8s2.3-1.6,3.8-1.6H46"/>
	<path class="st0" d="M66.6,85.5H33.4c-0.3,0-0.5-0.2-0.5-0.5V74.4c0-0.3,0.2-0.5,0.5-0.5h33.3c0.3,0,0.5,0.2,0.5,0.5V85
		C67.2,85.3,66.9,85.5,66.6,85.5z"/>
	<path class="st0" d="M50,20.1l10.6-5.6l-2,11.8l8.6,8.4l-11.9,1.7L50.1,47c0,0.1-0.1,0.1-0.2,0l-5.2-10.6l-11.9-1.7l8.6-8.4
		l-2-11.8L50,20.1z"/>
	<path class="st0" d="M54,48.5v20h-8v-20c0-0.7,0.6-1.3,1.3-1.3h5.4C53.4,47.2,54,47.8,54,48.5z"/>
</g>
</svg>
