<?xml version="1.0" encoding="utf-8"?>
<!-- Generator: Adobe Illustrator 22.0.0, SVG Export Plug-In . SVG Version: 6.00 Build 0)  -->
<svg version="1.1" id="Layer_1" xmlns="http://www.w3.org/2000/svg" xmlns:xlink="http://www.w3.org/1999/xlink" x="0px" y="0px"
	 viewBox="0 0 100 100" style="enable-background:new 0 0 100 100;" xml:space="preserve">
<style type="text/css">
	.st0{fill:none;stroke:#000000;stroke-width:2;stroke-miterlimit:10;}
	.st1{fill:none;}
	.st2{fill:none;stroke:#000000;stroke-width:2;stroke-linecap:round;stroke-miterlimit:10;stroke-dasharray:7;}
	.st3{fill:none;stroke:#000000;stroke-width:2;stroke-linecap:round;stroke-miterlimit:10;}
	.st4{fill:none;stroke:#000000;stroke-width:2;stroke-linecap:round;stroke-linejoin:round;stroke-miterlimit:10;}
	.st5{fill:none;stroke:#000000;stroke-width:2;stroke-linecap:square;stroke-miterlimit:10;}
	.st6{fill:none;stroke:#000000;stroke-width:2;stroke-miterlimit:10;stroke-dasharray:5.3638,5.3638;}
</style>
<g>
	<path class="st0" d="M78,47.6c0-2.4-3.1-4.3-7-4.3s-7,1.9-7,4.3c0-2.4-3.1-4.3-7-4.3c-3.9,0-7,1.9-7,4.3c0-2.4-3.1-4.3-7-4.3
		c-3.9,0-7,1.9-7,4.3c0-2.4-3.1-4.3-7-4.3s-7,1.9-7,4.3c0-13.2,12.6-23.9,28-23.9S78,34.4,78,47.6z"/>
	<g>
		<path class="st0" d="M36,47.1c0,0,0.7-19.1,14-23.3"/>
		<path class="st0" d="M64,47.1c0,0-0.7-19.1-14-23.3"/>
	</g>
	<path class="st0" d="M50,18.9v59.5c0,1.5-1.2,2.7-2.7,2.7h0c-1.5,0-2.7-1.2-2.7-2.7v-2"/>
</g>
</svg>
