<?xml version="1.0" encoding="utf-8"?>
<!-- Generator: Adobe Illustrator 22.0.0, SVG Export Plug-In . SVG Version: 6.00 Build 0)  -->
<svg version="1.1" id="Layer_1" xmlns="http://www.w3.org/2000/svg" xmlns:xlink="http://www.w3.org/1999/xlink" x="0px" y="0px"
	 viewBox="0 0 100 100" style="enable-background:new 0 0 100 100;" xml:space="preserve">
<style type="text/css">
	.st0{fill:none;stroke:#000000;stroke-width:2;stroke-miterlimit:10;}
	.st1{fill:none;}
	.st2{fill:none;stroke:#000000;stroke-width:2;stroke-linecap:round;stroke-miterlimit:10;stroke-dasharray:7;}
	.st3{fill:none;stroke:#000000;stroke-width:2;stroke-linecap:round;stroke-miterlimit:10;}
	.st4{fill:none;stroke:#000000;stroke-width:2;stroke-linecap:round;stroke-linejoin:round;stroke-miterlimit:10;}
	.st5{fill:none;stroke:#000000;stroke-width:2;stroke-linecap:square;stroke-miterlimit:10;}
	.st6{fill:none;stroke:#000000;stroke-width:2;stroke-miterlimit:10;stroke-dasharray:5.3638,5.3638;}
</style>
<g>
	<path class="st0" d="M75.7,78.3c2.1-2.1,1-6.6-2.4-10.1c-3.5-3.5-8-4.5-10.1-2.4c2.1-2.1,1-6.6-2.4-10.1c-3.5-3.5-8-4.5-10.1-2.4
		c2.1-2.1,1-6.6-2.4-10.1c-3.5-3.5-8-4.5-10.1-2.4c2.1-2.1,1-6.6-2.4-10.1s-8-4.5-10.1-2.4C37.4,16.5,58.1,18.1,71.9,32
		S87.4,66.5,75.7,78.3z"/>
	<g>
		<path class="st0" d="M38.6,40.2c0,0,17.6-16.4,33.3-8.3"/>
		<path class="st0" d="M63.7,65.2c0,0,16.4-17.6,8.3-33.3"/>
	</g>
	<path class="st0" d="M51.3,49.2L26.8,73.7c-1.3,1.3-3.4,1.4-4.6,0.2c-1.2-1.2-1.2-3.3,0.2-4.6c0,0,1.8-1.8,1.8-1.8
		c-0.1-0.1-3.3-3.3-3.3-3.3L19.1,66c-3.3,3.3-3.4,8.4-0.4,11.5s8.2,2.9,11.5-0.4l24.4-24.4"/>
	<path class="st0" d="M68.5,28.6l10.4-3.9c0,0,0.3-0.1,0.5-0.2c-0.1,0.3-0.2,0.5-0.2,0.5l-3.9,10.4"/>
</g>
</svg>
