<?xml version="1.0" encoding="utf-8"?>
<!-- Generator: Adobe Illustrator 22.0.0, SVG Export Plug-In . SVG Version: 6.00 Build 0)  -->
<svg version="1.1" id="Layer_1" xmlns="http://www.w3.org/2000/svg" xmlns:xlink="http://www.w3.org/1999/xlink" x="0px" y="0px"
	 viewBox="0 0 100 100" style="enable-background:new 0 0 100 100;" xml:space="preserve">
<style type="text/css">
	.st0{fill:none;stroke:#000000;stroke-width:2;stroke-miterlimit:10;}
	.st1{fill:none;}
	.st2{fill:none;stroke:#000000;stroke-width:2;stroke-linecap:round;stroke-miterlimit:10;stroke-dasharray:7;}
	.st3{fill:none;stroke:#000000;stroke-width:2;stroke-linecap:round;stroke-miterlimit:10;}
	.st4{fill:none;stroke:#000000;stroke-width:2;stroke-linecap:round;stroke-linejoin:round;stroke-miterlimit:10;}
	.st5{fill:none;stroke:#000000;stroke-width:2;stroke-linecap:square;stroke-miterlimit:10;}
	.st6{fill:none;stroke:#000000;stroke-width:2;stroke-miterlimit:10;stroke-dasharray:5.3638,5.3638;}
</style>
<g>
	<g>
		<path class="st0" d="M42.1,22.8c1.9-1.9,4-4,4-4l6.4,6.4l-7,7L32.8,44.9c-3.1,3.1-4.6,7.1-4.6,11.2s1.5,8.1,4.6,11.2
			c6.2,6.2,16.2,6.2,22.3,0l12.6-12.6l7-7l6.4,6.4l-7,7l-13,13c-9.7,9.7-25.4,9.7-35.1,0s-9.7-25.4,0-35.1l13-13
			C39.1,25.8,40.5,24.4,42.1,22.8z"/>
		<line class="st0" x1="74.2" y1="60.9" x2="67.8" y2="54.5"/>
		<line class="st0" x1="45.5" y1="32.2" x2="39.1" y2="25.8"/>
	</g>
	<polyline class="st0" points="63.6,36.4 52.4,40.2 59.8,47.6 48.7,51.3 	"/>
</g>
</svg>
