<?xml version="1.0" encoding="utf-8"?>
<!-- Generator: Adobe Illustrator 22.0.0, SVG Export Plug-In . SVG Version: 6.00 Build 0)  -->
<svg version="1.1" id="Layer_1" xmlns="http://www.w3.org/2000/svg" xmlns:xlink="http://www.w3.org/1999/xlink" x="0px" y="0px"
	 viewBox="0 0 100 100" style="enable-background:new 0 0 100 100;" xml:space="preserve">
<style type="text/css">
	.st0{fill:none;stroke:#000000;stroke-width:2;stroke-miterlimit:10;}
	.st1{fill:none;}
	.st2{fill:none;stroke:#000000;stroke-width:2;stroke-linecap:round;stroke-miterlimit:10;stroke-dasharray:7;}
	.st3{fill:none;stroke:#000000;stroke-width:2;stroke-linecap:round;stroke-miterlimit:10;}
	.st4{fill:none;stroke:#000000;stroke-width:2;stroke-linecap:round;stroke-linejoin:round;stroke-miterlimit:10;}
	.st5{fill:none;stroke:#000000;stroke-width:2;stroke-linecap:square;stroke-miterlimit:10;}
	.st6{fill:none;stroke:#000000;stroke-width:2;stroke-miterlimit:10;stroke-dasharray:5.3638,5.3638;}
</style>
<g>
	<g>
		<path class="st0" d="M34.8,23c1.6-1.6,3.4-3.4,3.4-3.4l5.4,5.4l-6,6L26.9,41.8c-2.6,2.6-3.9,6.1-3.9,9.5c0,3.4,1.3,6.9,3.9,9.5
			c5.3,5.3,13.8,5.3,19,0L56.8,50l6-6l5.4,5.4l-6,6L51.1,66.6c-8.3,8.3-21.7,8.3-29.9,0s-8.3-21.7,0-29.9l11.1-11.1
			C32.3,25.6,33.5,24.3,34.8,23z"/>
		<line class="st0" x1="62.2" y1="55.5" x2="56.8" y2="50"/>
		<line class="st0" x1="37.7" y1="31" x2="32.3" y2="25.6"/>
	</g>
	<g>
		<path class="st0" d="M65.2,77c-1.6,1.6-3.4,3.4-3.4,3.4L56.3,75l6-6l10.8-10.8c2.6-2.6,3.9-6.1,3.9-9.5c0-3.4-1.3-6.9-3.9-9.5
			c-5.3-5.3-13.8-5.3-19,0L43.2,50l-6,6l-5.4-5.4l6-6l11.1-11.1c8.3-8.3,21.7-8.3,29.9,0s8.3,21.7,0,29.9L67.7,74.4
			C67.7,74.4,66.5,75.7,65.2,77z"/>
		<line class="st0" x1="37.8" y1="44.5" x2="43.2" y2="50"/>
		<line class="st0" x1="62.3" y1="69" x2="67.7" y2="74.4"/>
	</g>
</g>
</svg>
