<?xml version="1.0" encoding="utf-8"?>
<!-- Generator: Adobe Illustrator 22.0.0, SVG Export Plug-In . SVG Version: 6.00 Build 0)  -->
<svg version="1.1" id="Layer_1" xmlns="http://www.w3.org/2000/svg" xmlns:xlink="http://www.w3.org/1999/xlink" x="0px" y="0px"
	 viewBox="0 0 100 100" style="enable-background:new 0 0 100 100;" xml:space="preserve">
<style type="text/css">
	.st0{fill:none;stroke:#000000;stroke-width:2;stroke-miterlimit:10;}
	.st1{fill:none;}
	.st2{fill:none;stroke:#000000;stroke-width:2;stroke-linecap:round;stroke-miterlimit:10;stroke-dasharray:7;}
	.st3{fill:none;stroke:#000000;stroke-width:2;stroke-linecap:round;stroke-miterlimit:10;}
	.st4{fill:none;stroke:#000000;stroke-width:2;stroke-linecap:round;stroke-linejoin:round;stroke-miterlimit:10;}
	.st5{fill:none;stroke:#000000;stroke-width:2;stroke-linecap:square;stroke-miterlimit:10;}
	.st6{fill:none;stroke:#000000;stroke-width:2;stroke-miterlimit:10;stroke-dasharray:5.3638,5.3638;}
</style>
<g>
	<g>
		<line class="st0" x1="50" y1="14.6" x2="50" y2="40.8"/>
		<path class="st0" d="M55.1,35.9c0,0-4.6,4.6-5.1,5.1c-0.5-0.5-5.1-5.1-5.1-5.1"/>
	</g>
	<g>
		<line class="st0" x1="14.6" y1="50" x2="40.8" y2="50"/>
		<path class="st0" d="M35.9,44.9c0,0,4.6,4.6,5.1,5.1c-0.5,0.5-5.1,5.1-5.1,5.1"/>
	</g>
	<g>
		<line class="st0" x1="50" y1="85.4" x2="50" y2="59.2"/>
		<path class="st0" d="M44.9,64.1c0,0,4.6-4.6,5.1-5.1c0.5,0.5,5.1,5.1,5.1,5.1"/>
	</g>
	<g>
		<line class="st0" x1="85.4" y1="50" x2="59.2" y2="50"/>
		<path class="st0" d="M64.1,55.1c0,0-4.6-4.6-5.1-5.1c0.5-0.5,5.1-5.1,5.1-5.1"/>
	</g>
</g>
</svg>
