<?xml version="1.0" encoding="utf-8"?>
<!-- Generator: Adobe Illustrator 22.0.0, SVG Export Plug-In . SVG Version: 6.00 Build 0)  -->
<svg version="1.1" id="Layer_1" xmlns="http://www.w3.org/2000/svg" xmlns:xlink="http://www.w3.org/1999/xlink" x="0px" y="0px"
	 viewBox="0 0 100 100" style="enable-background:new 0 0 100 100;" xml:space="preserve">
<style type="text/css">
	.st0{fill:none;stroke:#000000;stroke-width:2;stroke-miterlimit:10;}
	.st1{fill:none;}
	.st2{fill:none;stroke:#000000;stroke-width:2;stroke-linecap:round;stroke-miterlimit:10;stroke-dasharray:7;}
	.st3{fill:none;stroke:#000000;stroke-width:2;stroke-linecap:round;stroke-miterlimit:10;}
	.st4{fill:none;stroke:#000000;stroke-width:2;stroke-linecap:round;stroke-linejoin:round;stroke-miterlimit:10;}
	.st5{fill:none;stroke:#000000;stroke-width:2;stroke-linecap:square;stroke-miterlimit:10;}
	.st6{fill:none;stroke:#000000;stroke-width:2;stroke-miterlimit:10;stroke-dasharray:5.3638,5.3638;}
</style>
<g>
	<g>
		<line class="st0" x1="50" y1="40.9" x2="50" y2="14.7"/>
		<path class="st0" d="M44.9,19.6c0,0,4.6-4.6,5.1-5.1c0.5,0.5,5.1,5.1,5.1,5.1"/>
	</g>
	<g>
		<line class="st0" x1="40.9" y1="50" x2="14.7" y2="50"/>
		<path class="st0" d="M19.6,55.1c0,0-4.6-4.6-5.1-5.1c0.5-0.5,5.1-5.1,5.1-5.1"/>
	</g>
	<g>
		<line class="st0" x1="50" y1="59.1" x2="50" y2="85.3"/>
		<path class="st0" d="M55.1,80.4c0,0-4.6,4.6-5.1,5.1c-0.5-0.5-5.1-5.1-5.1-5.1"/>
	</g>
	<g>
		<line class="st0" x1="59.1" y1="50" x2="85.3" y2="50"/>
		<path class="st0" d="M80.4,44.9c0,0,4.6,4.6,5.1,5.1c-0.5,0.5-5.1,5.1-5.1,5.1"/>
	</g>
</g>
</svg>
