<?xml version="1.0" encoding="utf-8"?>
<!-- Generator: Adobe Illustrator 22.0.0, SVG Export Plug-In . SVG Version: 6.00 Build 0)  -->
<svg version="1.1" id="Layer_1" xmlns="http://www.w3.org/2000/svg" xmlns:xlink="http://www.w3.org/1999/xlink" x="0px" y="0px"
	 viewBox="0 0 100 100" style="enable-background:new 0 0 100 100;" xml:space="preserve">
<style type="text/css">
	.st0{fill:none;stroke:#000000;stroke-width:2;stroke-miterlimit:10;}
	.st1{fill:none;}
	.st2{fill:none;stroke:#000000;stroke-width:2;stroke-linecap:round;stroke-miterlimit:10;stroke-dasharray:7;}
	.st3{fill:none;stroke:#000000;stroke-width:2;stroke-linecap:round;stroke-miterlimit:10;}
	.st4{fill:none;stroke:#000000;stroke-width:2;stroke-linecap:round;stroke-linejoin:round;stroke-miterlimit:10;}
	.st5{fill:none;stroke:#000000;stroke-width:2;stroke-linecap:square;stroke-miterlimit:10;}
	.st6{fill:none;stroke:#000000;stroke-width:2;stroke-miterlimit:10;stroke-dasharray:5.3638,5.3638;}
</style>
<g>
	<g>
		<path class="st0" d="M24.5,46.8v-8.1c0-1.4,1.1-2.6,2.6-2.6h0c1.4,0,2.6,1.1,2.6,2.6v9.5"/>
		<path class="st0" d="M19.4,45.7v-5.1c0-1.4,1.1-2.6,2.6-2.6h0c1.4,0,2.6,1.1,2.6,2.6v6.2"/>
		<path class="st0" d="M19.4,45.7v-0.9c0-1.4-1.1-2.6-2.6-2.6h0c-1.4,0-2.6,1.1-2.6,2.6v3.4v13.9c0,2.8,1.1,5.5,3.1,7.5l1.7,1.7
			c0.5,0.5,1.2,0.8,1.9,0.8h11.3c1,0,1.9-0.6,2.4-1.5l1.4-2.7c0.8-1.4,1.1-3,1.1-4.6v0c0-2.5,2.1-4.6,4.6-4.6h2.5
			c1.9,0,3.4-1.5,3.4-3.4v0c0-1.9-1.5-3.4-3.4-3.4h-7.1h0c-1.4,0-2.5-1.1-2.5-2.5v-1.2V30.5c0-1.4-1.1-2.6-2.6-2.6h0
			c-1.4,0-2.6,1.1-2.6,2.6v17.7"/>
	</g>
	<g>
		<path class="st0" d="M75.5,46.8v-8.1c0-1.4-1.1-2.6-2.6-2.6h0c-1.4,0-2.6,1.1-2.6,2.6v9.5"/>
		<path class="st0" d="M80.6,45.7v-5.1c0-1.4-1.1-2.6-2.6-2.6l0,0c-1.4,0-2.6,1.1-2.6,2.6v6.2"/>
		<path class="st0" d="M80.6,45.7v-0.9c0-1.4,1.1-2.6,2.6-2.6h0c1.4,0,2.6,1.1,2.6,2.6v3.4v13.9c0,2.8-1.1,5.5-3.1,7.5L81,71.3
			c-0.5,0.5-1.2,0.8-1.9,0.8H67.7c-1,0-1.9-0.6-2.4-1.5L63.9,68c-0.8-1.4-1.1-3-1.1-4.6v0c0-2.5-2.1-4.6-4.6-4.6h-2.5
			c-1.9,0-3.4-1.5-3.4-3.4v0c0-1.9,1.5-3.4,3.4-3.4h7.1h0c1.4,0,2.5-1.1,2.5-2.5v-1.2V30.5c0-1.4,1.1-2.6,2.6-2.6l0,0
			c1.4,0,2.6,1.1,2.6,2.6v17.7"/>
	</g>
	<circle class="st0" cx="49.7" cy="35" r="4.3"/>
</g>
</svg>
