<?xml version="1.0" encoding="utf-8"?>
<!-- Generator: Adobe Illustrator 22.0.0, SVG Export Plug-In . SVG Version: 6.00 Build 0)  -->
<svg version="1.1" id="Layer_1" xmlns="http://www.w3.org/2000/svg" xmlns:xlink="http://www.w3.org/1999/xlink" x="0px" y="0px"
	 viewBox="0 0 100 100" style="enable-background:new 0 0 100 100;" xml:space="preserve">
<style type="text/css">
	.st0{fill:none;stroke:#000000;stroke-width:2;stroke-miterlimit:10;}
	.st1{fill:none;}
	.st2{fill:none;stroke:#000000;stroke-width:2;stroke-linecap:round;stroke-miterlimit:10;stroke-dasharray:7;}
	.st3{fill:none;stroke:#000000;stroke-width:2;stroke-linecap:round;stroke-miterlimit:10;}
	.st4{fill:none;stroke:#000000;stroke-width:2;stroke-linecap:round;stroke-linejoin:round;stroke-miterlimit:10;}
	.st5{fill:none;stroke:#000000;stroke-width:2;stroke-linecap:square;stroke-miterlimit:10;}
	.st6{fill:none;stroke:#000000;stroke-width:2;stroke-miterlimit:10;stroke-dasharray:5.3638,5.3638;}
</style>
<g>
	<g>
		<line class="st0" x1="50" y1="19.1" x2="50" y2="42"/>
		<path class="st0" d="M54.4,37.7c0,0-4,4-4.4,4.4c-0.4-0.4-4.4-4.4-4.4-4.4"/>
	</g>
	<g>
		<line class="st0" x1="19.1" y1="50" x2="42" y2="50"/>
		<path class="st0" d="M37.7,45.6c0,0,4,4,4.4,4.4c-0.4,0.4-4.4,4.4-4.4,4.4"/>
	</g>
	<g>
		<line class="st0" x1="50" y1="80.9" x2="50" y2="58"/>
		<path class="st0" d="M45.6,62.3c0,0,4-4,4.4-4.4c0.4,0.4,4.4,4.4,4.4,4.4"/>
	</g>
	<g>
		<line class="st0" x1="80.9" y1="50" x2="58" y2="50"/>
		<path class="st0" d="M62.3,54.4c0,0-4-4-4.4-4.4c0.4-0.4,4.4-4.4,4.4-4.4"/>
	</g>
	<circle class="st0" cx="50" cy="50" r="4.2"/>
	<g>
		<polyline class="st0" points="14.5,69.5 14.5,85.5 30.5,85.5 		"/>
		<polyline class="st0" points="85.5,69.5 85.5,85.5 69.5,85.5 		"/>
		<polyline class="st0" points="14.5,30.5 14.5,14.5 30.5,14.5 		"/>
		<polyline class="st0" points="69.5,14.5 85.5,14.5 85.5,30.5 		"/>
	</g>
</g>
</svg>
