<?xml version="1.0" encoding="utf-8"?>
<!-- Generator: Adobe Illustrator 22.0.0, SVG Export Plug-In . SVG Version: 6.00 Build 0)  -->
<svg version="1.1" id="Layer_1" xmlns="http://www.w3.org/2000/svg" xmlns:xlink="http://www.w3.org/1999/xlink" x="0px" y="0px"
	 viewBox="0 0 100 100" style="enable-background:new 0 0 100 100;" xml:space="preserve">
<style type="text/css">
	.st0{fill:none;stroke:#000000;stroke-width:2;stroke-miterlimit:10;}
	.st1{fill:none;}
	.st2{fill:none;stroke:#000000;stroke-width:2;stroke-linecap:round;stroke-miterlimit:10;stroke-dasharray:7;}
	.st3{fill:none;stroke:#000000;stroke-width:2;stroke-linecap:round;stroke-miterlimit:10;}
	.st4{fill:none;stroke:#000000;stroke-width:2;stroke-linecap:round;stroke-linejoin:round;stroke-miterlimit:10;}
	.st5{fill:none;stroke:#000000;stroke-width:2;stroke-linecap:square;stroke-miterlimit:10;}
	.st6{fill:none;stroke:#000000;stroke-width:2;stroke-miterlimit:10;stroke-dasharray:5.3638,5.3638;}
</style>
<g>
	<g>
		<polyline class="st0" points="54.8,33.6 62.8,44.5 50.1,73 		"/>
		<polyline class="st0" points="50.1,73 37.4,44.5 45.3,33.6 		"/>
		<g>
			<g>
				<path class="st0" d="M70.5,44c0.2,0.2,0.2,0.6,0,0.8L54.1,67.5l-4,5.5l-4-5.5L29.7,44.9c-0.2-0.2-0.2-0.6,0-0.8l7.4-10.1
					c0.1-0.2,0.3-0.3,0.6-0.3h24.9c0.2,0,0.4,0.1,0.6,0.3L70.5,44z"/>
			</g>
			<line class="st0" x1="29.5" y1="44.5" x2="70.6" y2="44.5"/>
		</g>
	</g>
	<circle class="st0" cx="50" cy="50" r="35.3"/>
</g>
</svg>
