<?xml version="1.0" encoding="utf-8"?>
<!-- Generator: Adobe Illustrator 22.0.0, SVG Export Plug-In . SVG Version: 6.00 Build 0)  -->
<svg version="1.1" id="Layer_1" xmlns="http://www.w3.org/2000/svg" xmlns:xlink="http://www.w3.org/1999/xlink" x="0px" y="0px"
	 viewBox="0 0 100 100" style="enable-background:new 0 0 100 100;" xml:space="preserve">
<style type="text/css">
	.st0{fill:none;stroke:#000000;stroke-width:2;stroke-miterlimit:10;}
	.st1{fill:none;}
	.st2{fill:none;stroke:#000000;stroke-width:2;stroke-linecap:round;stroke-miterlimit:10;stroke-dasharray:7;}
	.st3{fill:none;stroke:#000000;stroke-width:2;stroke-linecap:round;stroke-miterlimit:10;}
	.st4{fill:none;stroke:#000000;stroke-width:2;stroke-linecap:round;stroke-linejoin:round;stroke-miterlimit:10;}
	.st5{fill:none;stroke:#000000;stroke-width:2;stroke-linecap:square;stroke-miterlimit:10;}
	.st6{fill:none;stroke:#000000;stroke-width:2;stroke-miterlimit:10;stroke-dasharray:5.3638,5.3638;}
</style>
<g>
	<g>
		<path class="st0" d="M79.1,20.9C79.1,20.8,79.1,20.8,79.1,20.9v-6.2L73.7,20v6.1c0,0,0,0.1,0,0.2c0.1,0,0.2,0,0.2,0H80l5.4-5.4
			H79.1C79.2,20.9,79.2,20.9,79.1,20.9z"/>
		<line class="st0" x1="73.7" y1="26.3" x2="47.3" y2="52.7"/>
	</g>
	<circle class="st0" cx="47.3" cy="52.7" r="24.3"/>
	<circle class="st0" cx="47.3" cy="52.7" r="13.5"/>
	<line class="st0" x1="47.3" y1="43" x2="47.3" y2="20.1"/>
	<line class="st0" x1="37.6" y1="52.7" x2="14.7" y2="52.7"/>
	<line class="st0" x1="47.3" y1="62.4" x2="47.3" y2="85.3"/>
	<line class="st0" x1="57" y1="52.7" x2="79.9" y2="52.7"/>
	<circle class="st0" cx="47.3" cy="52.7" r="3.7"/>
</g>
</svg>
