<?xml version="1.0" encoding="utf-8"?>
<!-- Generator: Adobe Illustrator 22.0.0, SVG Export Plug-In . SVG Version: 6.00 Build 0)  -->
<svg version="1.1" id="Layer_1" xmlns="http://www.w3.org/2000/svg" xmlns:xlink="http://www.w3.org/1999/xlink" x="0px" y="0px"
	 viewBox="0 0 100 100" style="enable-background:new 0 0 100 100;" xml:space="preserve">
<style type="text/css">
	.st0{fill:none;stroke:#000000;stroke-width:2;stroke-miterlimit:10;}
	.st1{fill:none;}
	.st2{fill:none;stroke:#000000;stroke-width:2;stroke-linecap:round;stroke-miterlimit:10;stroke-dasharray:7;}
	.st3{fill:none;stroke:#000000;stroke-width:2;stroke-linecap:round;stroke-miterlimit:10;}
	.st4{fill:none;stroke:#000000;stroke-width:2;stroke-linecap:round;stroke-linejoin:round;stroke-miterlimit:10;}
	.st5{fill:none;stroke:#000000;stroke-width:2;stroke-linecap:square;stroke-miterlimit:10;}
	.st6{fill:none;stroke:#000000;stroke-width:2;stroke-miterlimit:10;stroke-dasharray:5.3638,5.3638;}
</style>
<g>
	<circle class="st0" cx="70.4" cy="26.7" r="12.1"/>
	<line class="st0" x1="60" y1="32.8" x2="40.5" y2="44.4"/>
	<circle class="st0" cx="70.4" cy="73.3" r="12.1"/>
	<line class="st0" x1="60" y1="67.2" x2="40.5" y2="55.6"/>
	<circle class="st0" cx="29.6" cy="50" r="12.1"/>
	<g>
		<path class="st0" d="M22.8,60.1c0-3.7,3-6.8,6.8-6.8h0c3.7,0,6.8,3,6.8,6.8"/>
		<circle class="st0" cx="29.6" cy="47.5" r="4"/>
	</g>
	<g>
		<path class="st0" d="M63.6,36.7c0-3.7,3-6.8,6.8-6.8h0c3.7,0,6.8,3,6.8,6.8"/>
		<circle class="st0" cx="70.6" cy="24" r="4"/>
	</g>
	<g>
		<path class="st0" d="M63.6,83.4c0-3.7,3-6.8,6.8-6.8h0c3.7,0,6.8,3,6.8,6.8"/>
		<circle class="st0" cx="70.6" cy="70.8" r="4"/>
	</g>
</g>
</svg>
