<?xml version="1.0" encoding="utf-8"?>
<!-- Generator: Adobe Illustrator 22.0.0, SVG Export Plug-In . SVG Version: 6.00 Build 0)  -->
<svg version="1.1" id="Layer_1" xmlns="http://www.w3.org/2000/svg" xmlns:xlink="http://www.w3.org/1999/xlink" x="0px" y="0px"
	 viewBox="0 0 100 100" style="enable-background:new 0 0 100 100;" xml:space="preserve">
<style type="text/css">
	.st0{fill:none;stroke:#000000;stroke-width:2;stroke-miterlimit:10;}
	.st1{fill:none;}
	.st2{fill:none;stroke:#000000;stroke-width:2;stroke-linecap:round;stroke-miterlimit:10;stroke-dasharray:7;}
	.st3{fill:none;stroke:#000000;stroke-width:2;stroke-linecap:round;stroke-miterlimit:10;}
	.st4{fill:none;stroke:#000000;stroke-width:2;stroke-linecap:round;stroke-linejoin:round;stroke-miterlimit:10;}
	.st5{fill:none;stroke:#000000;stroke-width:2;stroke-linecap:square;stroke-miterlimit:10;}
	.st6{fill:none;stroke:#000000;stroke-width:2;stroke-miterlimit:10;stroke-dasharray:5.3638,5.3638;}
</style>
<g>
	<path class="st0" d="M76,27.2v51.3c0,3.6-2.9,6.5-6.5,6.5H30.4c-3.6,0-6.5-2.9-6.5-6.5V27.2"/>
	<polyline class="st0" points="83.3,27.2 76,27.2 58.4,27.2 41.6,27.2 24,27.2 16.7,27.2 	"/>
	<path class="st0" d="M58.4,27.2v-9c0-1.8-1.4-3.2-3.2-3.2H44.8c-1.8,0-3.2,1.4-3.2,3.2v9"/>
	<g>
		<line class="st0" x1="37.5" y1="36.2" x2="37.5" y2="76"/>
		<line class="st0" x1="50" y1="36.2" x2="50" y2="76"/>
		<line class="st0" x1="62.5" y1="36.2" x2="62.5" y2="76"/>
	</g>
</g>
</svg>
