<?xml version="1.0" encoding="utf-8"?>
<!-- Generator: Adobe Illustrator 22.0.0, SVG Export Plug-In . SVG Version: 6.00 Build 0)  -->
<svg version="1.1" id="Layer_1" xmlns="http://www.w3.org/2000/svg" xmlns:xlink="http://www.w3.org/1999/xlink" x="0px" y="0px"
	 viewBox="0 0 100 100" style="enable-background:new 0 0 100 100;" xml:space="preserve">
<style type="text/css">
	.st0{fill:none;stroke:#000000;stroke-width:2;stroke-miterlimit:10;}
	.st1{fill:none;}
	.st2{fill:none;stroke:#000000;stroke-width:2;stroke-linecap:round;stroke-miterlimit:10;stroke-dasharray:7;}
	.st3{fill:none;stroke:#000000;stroke-width:2;stroke-linecap:round;stroke-miterlimit:10;}
	.st4{fill:none;stroke:#000000;stroke-width:2;stroke-linecap:round;stroke-linejoin:round;stroke-miterlimit:10;}
	.st5{fill:none;stroke:#000000;stroke-width:2;stroke-linecap:square;stroke-miterlimit:10;}
	.st6{fill:none;stroke:#000000;stroke-width:2;stroke-miterlimit:10;stroke-dasharray:5.3638,5.3638;}
</style>
<g>
	<g>
		<path class="st0" d="M43.6,58.3c-13.4-8.5-12.1-36.6-12.1-36.6"/>
		<path class="st0" d="M68.5,21.7c0,0,1.3,28.1-12.1,36.6"/>
	</g>
	<path class="st0" d="M71.3,22.5H28.7c-1,0-1.9-0.8-1.9-1.9v-4.7c0-1,0.8-1.9,1.9-1.9h42.5c1,0,1.9,0.8,1.9,1.9v4.7
		C73.1,21.7,72.3,22.5,71.3,22.5z"/>
	<path class="st0" d="M54.9,63.9h-9.8c-0.8,0-1.5-0.7-1.5-1.5v-8.2c0-0.8,0.7-1.5,1.5-1.5h9.8c0.8,0,1.5,0.7,1.5,1.5v8.2
		C56.4,63.2,55.7,63.9,54.9,63.9z"/>
	<line class="st0" x1="50" y1="63.9" x2="50" y2="76.2"/>
	<path class="st0" d="M60.2,85.9H39.8c-0.9,0-1.6-0.7-1.6-1.6v-7.7c0-0.9,0.7-1.6,1.6-1.6h20.3c0.9,0,1.6,0.7,1.6,1.6v7.7
		C61.8,85.2,61,85.9,60.2,85.9z"/>
</g>
</svg>
