<?xml version="1.0" encoding="utf-8"?>
<!-- Generator: Adobe Illustrator 22.0.0, SVG Export Plug-In . SVG Version: 6.00 Build 0)  -->
<svg version="1.1" id="Layer_1" xmlns="http://www.w3.org/2000/svg" xmlns:xlink="http://www.w3.org/1999/xlink" x="0px" y="0px"
	 viewBox="0 0 100 100" style="enable-background:new 0 0 100 100;" xml:space="preserve">
<style type="text/css">
	.st0{fill:none;stroke:#000000;stroke-width:2;stroke-miterlimit:10;}
	.st1{fill:none;}
	.st2{fill:none;stroke:#000000;stroke-width:2;stroke-linecap:round;stroke-miterlimit:10;stroke-dasharray:7;}
	.st3{fill:none;stroke:#000000;stroke-width:2;stroke-linecap:round;stroke-miterlimit:10;}
	.st4{fill:none;stroke:#000000;stroke-width:2;stroke-linecap:round;stroke-linejoin:round;stroke-miterlimit:10;}
	.st5{fill:none;stroke:#000000;stroke-width:2;stroke-linecap:square;stroke-miterlimit:10;}
	.st6{fill:none;stroke:#000000;stroke-width:2;stroke-miterlimit:10;stroke-dasharray:5.3638,5.3638;}
</style>
<g>
	<g>
		<path class="st0" d="M40.3,50.3c0.7,2,1.9,3.8,3.4,5.4l0.5,0.5c1.6,1.6,3.4,2.7,5.4,3.4c3.2,1.2,6.8,1.2,10.1,0
			c2-0.7,3.8-1.9,5.4-3.5l15.1-15.1c5.8-5.8,5.8-15.1,0-20.9l-0.5-0.5c-5.8-5.8-15.1-5.8-20.9,0L43.7,34.9c-1.6,1.6-2.7,3.4-3.5,5.4
			"/>
		<path class="st0" d="M49.7,49.8l0.5,0.5c2.4,2.4,6.4,2.4,8.9,0l0.6-0.6l14.4-14.4c2.4-2.4,2.4-6.4,0-8.9l-0.5-0.5
			c-2.4-2.4-6.4-2.4-8.9,0L50.3,40.3"/>
	</g>
	<g>
		<path class="st0" d="M59.7,49.6c-0.7-2-1.9-3.8-3.4-5.4l-0.5-0.5c-1.6-1.6-3.4-2.7-5.4-3.4c-3.2-1.2-6.8-1.2-10.1,0
			c-2,0.7-3.8,1.9-5.4,3.4L19.8,58.8c-5.8,5.8-5.8,15.1,0,20.9l0.5,0.5c5.8,5.8,15.1,5.8,20.9,0l15.1-15.1c1.6-1.6,2.7-3.4,3.4-5.4"
			/>
		<path class="st0" d="M50.3,50.3l-0.5-0.5c-2.4-2.4-6.4-2.4-8.9,0l-0.6,0.6L25.8,64.8c-2.4,2.4-2.4,6.4,0,8.9l0.5,0.5
			c2.4,2.4,6.4,2.4,8.9,0l14.4-14.4"/>
	</g>
</g>
</svg>
