<?xml version="1.0" encoding="utf-8"?>
<!-- Generator: Adobe Illustrator 22.0.0, SVG Export Plug-In . SVG Version: 6.00 Build 0)  -->
<svg version="1.1" id="Layer_1" xmlns="http://www.w3.org/2000/svg" xmlns:xlink="http://www.w3.org/1999/xlink" x="0px" y="0px"
	 viewBox="0 0 100 100" style="enable-background:new 0 0 100 100;" xml:space="preserve">
<style type="text/css">
	.st0{fill:none;stroke:#000000;stroke-width:2;stroke-miterlimit:10;}
	.st1{fill:none;}
	.st2{fill:none;stroke:#000000;stroke-width:2;stroke-linecap:round;stroke-miterlimit:10;stroke-dasharray:7;}
	.st3{fill:none;stroke:#000000;stroke-width:2;stroke-linecap:round;stroke-miterlimit:10;}
	.st4{fill:none;stroke:#000000;stroke-width:2;stroke-linecap:round;stroke-linejoin:round;stroke-miterlimit:10;}
	.st5{fill:none;stroke:#000000;stroke-width:2;stroke-linecap:square;stroke-miterlimit:10;}
	.st6{fill:none;stroke:#000000;stroke-width:2;stroke-miterlimit:10;stroke-dasharray:5.3638,5.3638;}
</style>
<g>
	<path class="st0" d="M50,66.2L50,66.2c-7.1,0-13.1-5.5-13.6-12.6l-1.3-18.7c-0.1-1.3,0.9-2.4,2.2-2.4h25.2c1.3,0,2.3,1.1,2.2,2.4
		l-1.3,18.7C63.1,60.7,57.1,66.2,50,66.2z"/>
	<path class="st0" d="M60.9,72.3H39.1l0,0c0-3.4,2.7-6.1,6.1-6.1h9.7C58.2,66.2,60.9,69,60.9,72.3L60.9,72.3z"/>
	<path class="st0" d="M63.8,85.6H36.2c-0.3,0-0.5-0.2-0.5-0.5V72.9c0-0.3,0.2-0.5,0.5-0.5h27.6c0.3,0,0.5,0.2,0.5,0.5V85
		C64.3,85.3,64.1,85.6,63.8,85.6z"/>
	<g>
		<path class="st0" d="M36.4,53.6l-6-6c-1.7-1.7-1.9-4.4-0.4-6.3l5.1-6.5"/>
		<path class="st0" d="M63.6,53.6l6-6c1.7-1.7,1.9-4.4,0.4-6.3l-5.1-6.5"/>
	</g>
	<polygon class="st0" points="50,17.3 55.4,14.4 54.4,20.5 58.8,24.7 52.7,25.6 50,31.1 47.3,25.6 41.2,24.7 45.6,20.5 44.6,14.4 	
		"/>
</g>
</svg>
