<?xml version="1.0" encoding="utf-8"?>
<!-- Generator: Adobe Illustrator 22.0.0, SVG Export Plug-In . SVG Version: 6.00 Build 0)  -->
<svg version="1.1" id="Layer_1" xmlns="http://www.w3.org/2000/svg" xmlns:xlink="http://www.w3.org/1999/xlink" x="0px" y="0px"
	 viewBox="0 0 100 100" style="enable-background:new 0 0 100 100;" xml:space="preserve">
<style type="text/css">
	.st0{fill:none;stroke:#000000;stroke-width:2;stroke-miterlimit:10;}
	.st1{fill:none;}
	.st2{fill:none;stroke:#000000;stroke-width:2;stroke-linecap:round;stroke-miterlimit:10;stroke-dasharray:7;}
	.st3{fill:none;stroke:#000000;stroke-width:2;stroke-linecap:round;stroke-miterlimit:10;}
	.st4{fill:none;stroke:#000000;stroke-width:2;stroke-linecap:round;stroke-linejoin:round;stroke-miterlimit:10;}
	.st5{fill:none;stroke:#000000;stroke-width:2;stroke-linecap:square;stroke-miterlimit:10;}
	.st6{fill:none;stroke:#000000;stroke-width:2;stroke-miterlimit:10;stroke-dasharray:5.3638,5.3638;}
</style>
<g>
	<path class="st0" d="M49.3,33.2l-4.2,3.3c-1.5,1.1-1.8,3.3-0.6,4.8c1.9,2.5,4.7,6.3,6.7,8.9c1.1,1.4,3.1,1.7,4.6,0.7l0,0
		c1.5-1,1.9-3.1,0.9-4.6l-2.2-3.5c-0.7-1.1,0.2-2.6,1.6-2.4l9.3,1.5"/>
	<path class="st0" d="M61.7,45.4l11,5.9c1.5,0.8,2,2.6,1.2,4.1l-0.5,0.9c-0.8,1.5-2.6,2-4.1,1.2l-11-5.9"/>
	<path class="st0" d="M58.4,51.6L69,57.4c1.7,0.9,2.3,2.9,1.4,4.6c-0.9,1.7-2.9,2.3-4.6,1.4l-1.6-0.8c0,0,0,0,0,0l-9.1-4.9"/>
	<path class="st0" d="M55.1,57.6l9.1,4.9c0,0,0,0,0,0c1.6,0.9,2.3,2.9,1.4,4.6c-0.9,1.7-2.9,2.3-4.6,1.4l-2.3-1.3l-0.3-0.2v0"/>
	<line class="st0" x1="46.5" y1="68.4" x2="46.4" y2="68.4"/>
	<path class="st0" d="M58.4,67.1L58.4,67.1l0.3,0.2c1.7,0.9,2.3,2.9,1.4,4.6c-0.9,1.7-2.9,2.3-4.6,1.4l-2.8-1.5"/>
	<line class="st0" x1="27.5" y1="54.4" x2="22.3" y2="51.6"/>
	<line class="st0" x1="75" y1="42.2" x2="75" y2="42.3"/>
	<path class="st0" d="M72.8,51.3l0.7-1.4c0.6-1.2,1.5-2.1,2.6-2.8L78,46"/>
	<path class="st0" d="M66.7,32.1l-0.9,0.7c-1.1,0.8-2.4,1.1-3.7,0.8l-9.4-2.2c-0.4-0.1-0.9,0-1.3,0.3l-2.1,1.7l-2-1.1
		c-1.1-0.6-2.4-0.6-3.5-0.1l-7.5,3.5c-1,0.5-2.2,0.4-3.2-0.1l-1.3-0.7"/>
	<path class="st0" d="M36.7,56.6l-5.9,4.8c-1.6,1.3-4,1.1-5.3-0.5c-0.6-0.7-0.9-1.6-0.9-2.4c0-1.1,0.5-2.2,1.4-2.9l1.5-1.2l3-2.5"/>
	<path class="st0" d="M31.8,60.7c-0.9,0.7-1.4,1.8-1.4,2.9c0,0.8,0.3,1.7,0.9,2.4c1.3,1.6,3.7,1.9,5.3,0.5l6.3-5.2"/>
	<path class="st0" d="M38.1,65.4c-0.9,0.7-1.4,1.8-1.4,2.9c0,0.8,0.3,1.7,0.9,2.4c1.3,1.6,3.7,1.9,5.3,0.5l3.5-2.9l2.7-2.2"/>
	<path class="st0" d="M60.1,65.7l-11.5,9.4c-1.4,1.1-3.5,0.9-4.6-0.5l0,0c-1.1-1.4-0.9-3.5,0.5-4.6"/>
	<path class="st0" d="M85.9,42.4l-6,4.9c-0.3,0.2-0.7,0.2-0.9-0.1L65.1,30.1c-0.2-0.3-0.2-0.7,0.1-0.9l6-4.9
		c0.3-0.2,0.7-0.2,0.9,0.1L86,41.5C86.2,41.8,86.2,42.2,85.9,42.4z"/>
	<path class="st0" d="M21,52.8L14.2,49c-0.3-0.2-0.4-0.5-0.2-0.8l10.7-19.3c0.2-0.3,0.5-0.4,0.8-0.2l6.8,3.8
		c0.3,0.2,0.4,0.5,0.2,0.8L21.8,52.6C21.6,52.9,21.3,53,21,52.8z"/>
</g>
</svg>
