<?xml version="1.0" encoding="utf-8"?>
<!-- Generator: Adobe Illustrator 22.0.0, SVG Export Plug-In . SVG Version: 6.00 Build 0)  -->
<svg version="1.1" id="Layer_1" xmlns="http://www.w3.org/2000/svg" xmlns:xlink="http://www.w3.org/1999/xlink" x="0px" y="0px"
	 viewBox="0 0 100 100" style="enable-background:new 0 0 100 100;" xml:space="preserve">
<style type="text/css">
	.st0{fill:none;stroke:#000000;stroke-width:2;stroke-miterlimit:10;}
	.st1{fill:none;}
	.st2{fill:none;stroke:#000000;stroke-width:2;stroke-linecap:round;stroke-miterlimit:10;stroke-dasharray:7;}
	.st3{fill:none;stroke:#000000;stroke-width:2;stroke-linecap:round;stroke-miterlimit:10;}
	.st4{fill:none;stroke:#000000;stroke-width:2;stroke-linecap:round;stroke-linejoin:round;stroke-miterlimit:10;}
	.st5{fill:none;stroke:#000000;stroke-width:2;stroke-linecap:square;stroke-miterlimit:10;}
	.st6{fill:none;stroke:#000000;stroke-width:2;stroke-miterlimit:10;stroke-dasharray:5.3638,5.3638;}
</style>
<g>
	<path class="st0" d="M26.5,40.7h5c0.5,0,1.1-0.2,1.4-0.6c2-2.4,10-10,22.2-1.3c0.3,0.2,0.7,0.4,1.1,0.4h7c2.5,0,4.4,2,4.4,4.4v0
		c0,2.5-2,4.4-4.4,4.4H49.8"/>
	<path class="st0" d="M26.5,60.7h38.6c3.9,0,7.6-1.8,10-4.9l10.1-12.8c1.8-2.2,1.4-5.5-0.8-7.3l0,0c-2.2-1.9-5.5-1.5-7.4,0.7
		l-10.3,9.7"/>
	<path class="st0" d="M24.2,65.4h-8.3c-1.2,0-2.2-1-2.2-2.2V36.9c0-1.2,1-2.2,2.2-2.2h8.3c1.2,0,2.2,1,2.2,2.2v26.2
		C26.5,64.4,25.5,65.4,24.2,65.4z"/>
	<circle class="st0" cx="20.1" cy="41.9" r="2.9"/>
</g>
</svg>
