<?xml version="1.0" encoding="utf-8"?>
<!-- Generator: Adobe Illustrator 22.0.0, SVG Export Plug-In . SVG Version: 6.00 Build 0)  -->
<svg version="1.1" id="Layer_1" xmlns="http://www.w3.org/2000/svg" xmlns:xlink="http://www.w3.org/1999/xlink" x="0px" y="0px"
	 viewBox="0 0 100 100" style="enable-background:new 0 0 100 100;" xml:space="preserve">
<style type="text/css">
	.st0{fill:none;stroke:#000000;stroke-width:2;stroke-miterlimit:10;}
	.st1{fill:none;}
	.st2{fill:none;stroke:#000000;stroke-width:2;stroke-linecap:round;stroke-miterlimit:10;stroke-dasharray:7;}
	.st3{fill:none;stroke:#000000;stroke-width:2;stroke-linecap:round;stroke-miterlimit:10;}
	.st4{fill:none;stroke:#000000;stroke-width:2;stroke-linecap:round;stroke-linejoin:round;stroke-miterlimit:10;}
	.st5{fill:none;stroke:#000000;stroke-width:2;stroke-linecap:square;stroke-miterlimit:10;}
	.st6{fill:none;stroke:#000000;stroke-width:2;stroke-miterlimit:10;stroke-dasharray:5.3638,5.3638;}
</style>
<g>
	<path class="st0" d="M64.7,85.8H34.3c-1.7,0-3.1-1.3-3.2-3l-3-43.2c-0.1-1.8,1.3-3.4,3.2-3.4h36.4c1.9,0,3.3,1.6,3.2,3.4l-3,43.2
		C67.8,84.5,66.4,85.8,64.7,85.8z"/>
	<g>
		<g>
			<g>
				<path class="st0" d="M41.1,64.1l-2.5,4.3c-0.6,1.1,0.2,2.5,1.4,2.5h9"/>
				<g>
					<polygon points="43.9,66.3 37.8,62.8 42.6,61.5 					"/>
				</g>
			</g>
		</g>
		<g>
			<g>
				<path class="st0" d="M54.4,57.9L50.9,52c-0.2-0.4-0.6-0.6-1-0.8c-0.3-0.1-0.6-0.1-0.9,0c-0.4,0.1-0.7,0.4-1,0.8l-5,8.6"/>
				<g>
					<polygon points="51.1,59.3 57.2,55.7 55.9,60.6 					"/>
				</g>
			</g>
		</g>
		<g>
			<g>
				<path class="st0" d="M53,70.9h6c1.3,0,2.1-1.4,1.4-2.5l-4-7"/>
				<g>
					<polygon points="53.5,67.4 53.5,74.4 50,70.9 					"/>
				</g>
			</g>
		</g>
		<path class="st0" d="M49,51.2c0.3-0.1,0.6-0.1,0.9,0"/>
	</g>
	<g>
		<path class="st0" d="M63.5,19.5l7.8-1.2c1.6-0.3,3.1,0.8,3.4,2.5l0.3,1.8c0.3,1.6-0.8,3.1-2.5,3.4l-43.8,6.9
			c-1.6,0.3-3.1-0.8-3.4-2.5L25,28.5c-0.3-1.6,0.8-3.1,2.5-3.4l7.8-1.2"/>
		<path class="st0" d="M63.5,19.5L63.5,19.5l-28.3,4.5l0,0c-0.5-3.4,1.8-6.6,5.2-7.1l15.9-2.5C59.8,13.7,63,16.1,63.5,19.5z"/>
	</g>
</g>
</svg>
