<?xml version="1.0" encoding="utf-8"?>
<!-- Generator: Adobe Illustrator 22.0.0, SVG Export Plug-In . SVG Version: 6.00 Build 0)  -->
<svg version="1.1" id="Layer_1" xmlns="http://www.w3.org/2000/svg" xmlns:xlink="http://www.w3.org/1999/xlink" x="0px" y="0px"
	 viewBox="0 0 100 100" style="enable-background:new 0 0 100 100;" xml:space="preserve">
<style type="text/css">
	.st0{fill:none;stroke:#000000;stroke-width:2;stroke-miterlimit:10;}
	.st1{fill:none;}
	.st2{fill:none;stroke:#000000;stroke-width:2;stroke-linecap:round;stroke-miterlimit:10;stroke-dasharray:7;}
	.st3{fill:none;stroke:#000000;stroke-width:2;stroke-linecap:round;stroke-miterlimit:10;}
	.st4{fill:none;stroke:#000000;stroke-width:2;stroke-linecap:round;stroke-linejoin:round;stroke-miterlimit:10;}
	.st5{fill:none;stroke:#000000;stroke-width:2;stroke-linecap:square;stroke-miterlimit:10;}
	.st6{fill:none;stroke:#000000;stroke-width:2;stroke-miterlimit:10;stroke-dasharray:5.3638,5.3638;}
</style>
<g>
	<path class="st0" d="M73.5,38.1l-4.7,41c-0.5,4.1-3.9,7.2-8,7.2H39.2c-4.1,0-7.6-3.1-8-7.2l-4.7-41"/>
	<path class="st0" d="M75,38.1H25c-2.5,0-4.5-2-4.5-4.5v0c0-4.5,3.7-8.2,8.2-8.2h42.6c4.5,0,8.2,3.7,8.2,8.2v0
		C79.5,36.1,77.5,38.1,75,38.1z"/>
	<path class="st0" d="M38.5,25.4v-5.7c0-3.3,2.7-5.9,5.9-5.9h11.2c3.3,0,5.9,2.7,5.9,5.9v5.7"/>
	<g>
		<line class="st0" x1="40.7" y1="46.1" x2="40.7" y2="75.9"/>
		<g>
			<line class="st0" x1="50" y1="46.1" x2="50" y2="75.9"/>
		</g>
		<g>
			<line class="st0" x1="59.3" y1="46.1" x2="59.3" y2="75.9"/>
		</g>
	</g>
</g>
</svg>
