<?xml version="1.0" encoding="utf-8"?>
<!-- Generator: Adobe Illustrator 22.0.0, SVG Export Plug-In . SVG Version: 6.00 Build 0)  -->
<svg version="1.1" id="Layer_1" xmlns="http://www.w3.org/2000/svg" xmlns:xlink="http://www.w3.org/1999/xlink" x="0px" y="0px"
	 viewBox="0 0 100 100" style="enable-background:new 0 0 100 100;" xml:space="preserve">
<style type="text/css">
	.st0{fill:none;stroke:#000000;stroke-width:2;stroke-miterlimit:10;}
	.st1{fill:none;}
	.st2{fill:none;stroke:#000000;stroke-width:2;stroke-linecap:round;stroke-miterlimit:10;stroke-dasharray:7;}
	.st3{fill:none;stroke:#000000;stroke-width:2;stroke-linecap:round;stroke-miterlimit:10;}
	.st4{fill:none;stroke:#000000;stroke-width:2;stroke-linecap:round;stroke-linejoin:round;stroke-miterlimit:10;}
	.st5{fill:none;stroke:#000000;stroke-width:2;stroke-linecap:square;stroke-miterlimit:10;}
	.st6{fill:none;stroke:#000000;stroke-width:2;stroke-miterlimit:10;stroke-dasharray:5.3638,5.3638;}
</style>
<g>
	<path class="st0" d="M51.9,48.1v-8.4c0-1.5,1.2-2.7,2.7-2.7h0c2,0,3.6,1.6,3.6,3.6v7.5"/>
	<path class="st0" d="M58.2,51.7v-7.9c0-1.7,1.4-3.2,3.2-3.2h0c1.7,0,3.2,1.4,3.2,3.2v7.9"/>
	<path class="st0" d="M64.5,54.3v-7.9c0-1.7,1.4-3.2,3.2-3.2h0c1.7,0,3.2,1.4,3.2,3.2v7.9"/>
	<path class="st0" d="M46.1,75.3L29.9,50.7c-1.3-2.1-0.9-4.8,1-6.3l0,0c2.1-1.6,5.1-1.3,6.7,0.8l4.9,6.2c0.4,0.5,1.1,0.2,1.1-0.4
		V22.8c0-2.3,1.8-4.1,4.1-4.1h0c2.3,0,4.1,1.8,4.1,4.1v16.4"/>
	<path class="st0" d="M38.1,23.3c0-5.3,4.3-9.6,9.6-9.6s9.6,4.3,9.6,9.6"/>
	<path class="st0" d="M70.9,54.3v5.6c0,1.2-0.2,2.4-0.7,3.6l-4.5,11.8"/>
	<path class="st0" d="M68.8,86.3H43c-1.1,0-2-0.9-2-2v-7c0-1.1,0.9-2,2-2h25.9c1.1,0,2,0.9,2,2v7C70.9,85.4,69.9,86.3,68.8,86.3z"/>
</g>
</svg>
