<?xml version="1.0" encoding="utf-8"?>
<!-- Generator: Adobe Illustrator 22.0.0, SVG Export Plug-In . SVG Version: 6.00 Build 0)  -->
<svg version="1.1" id="Layer_1" xmlns="http://www.w3.org/2000/svg" xmlns:xlink="http://www.w3.org/1999/xlink" x="0px" y="0px"
	 viewBox="0 0 100 100" style="enable-background:new 0 0 100 100;" xml:space="preserve">
<style type="text/css">
	.st0{fill:none;stroke:#000000;stroke-width:2;stroke-miterlimit:10;}
	.st1{fill:none;}
	.st2{fill:none;stroke:#000000;stroke-width:2;stroke-linecap:round;stroke-miterlimit:10;stroke-dasharray:7;}
	.st3{fill:none;stroke:#000000;stroke-width:2;stroke-linecap:round;stroke-miterlimit:10;}
	.st4{fill:none;stroke:#000000;stroke-width:2;stroke-linecap:round;stroke-linejoin:round;stroke-miterlimit:10;}
	.st5{fill:none;stroke:#000000;stroke-width:2;stroke-linecap:square;stroke-miterlimit:10;}
	.st6{fill:none;stroke:#000000;stroke-width:2;stroke-miterlimit:10;stroke-dasharray:5.3638,5.3638;}
</style>
<g>
	<g>
		<g>
			<path class="st0" d="M61.6,17.9c1.8,1.8,2.8,3.9,2.8,5.9c0,2-1,4.1-2.8,5.9"/>
			<path class="st0" d="M61.6,17.9c1.8,1.8,2.8,3.9,2.8,5.9c0,2-1,4.1-2.8,5.9"/>
			<path class="st0" d="M65.8,13.7c2.9,2.9,4.5,6.4,4.5,10.1c0,3.6-1.6,7.1-4.5,10.1"/>
		</g>
		<g>
			<path class="st0" d="M36.4,29.6c-1.8-1.8-2.8-3.9-2.8-5.9c0-2,1-4.1,2.8-5.9"/>
			<path class="st0" d="M36.4,29.6c-1.8-1.8-2.8-3.9-2.8-5.9c0-2,1-4.1,2.8-5.9"/>
			<path class="st0" d="M32.2,33.8c-2.9-2.9-4.5-6.4-4.5-10.1c0-3.6,1.6-7.1,4.5-10.1"/>
		</g>
	</g>
	<g>
		<path class="st0" d="M52.9,43.3c0-1.5,1.2-2.8,2.8-2.8h0c2,0,3.7,1.7,3.7,3.7v7.6"/>
		<path class="st0" d="M59.4,47.4c0-1.8,1.4-3.2,3.2-3.2h0c1.8,0,3.2,1.4,3.2,3.2v8.1"/>
		<path class="st0" d="M65.8,50c0-1.8,1.4-3.2,3.2-3.2l0,0c1.8,0,3.2,1.4,3.2,3.2v8.1"/>
		<path class="st0" d="M47,79.6L30.6,54.5c-1.4-2.1-0.9-4.9,1-6.4l0,0c2.1-1.7,5.2-1.3,6.8,0.8l5,6.3c0.4,0.5,1.1,0.2,1.1-0.4V26
			c0-2.3,1.9-4.2,4.2-4.2h0c2.3,0,4.2,1.9,4.2,4.2v16.7"/>
		<path class="st0" d="M72.3,58.1v5.8c0,1.3-0.2,2.5-0.7,3.7L67,79.6"/>
		<path class="st0" d="M70.7,86.3H43.4c-0.9,0-1.6-0.7-1.6-1.6v-3.5c0-0.9,0.7-1.6,1.6-1.6h27.3c0.9,0,1.6,0.7,1.6,1.6v3.5
			C72.3,85.6,71.6,86.3,70.7,86.3z"/>
	</g>
</g>
</svg>
