<?xml version="1.0" encoding="utf-8"?>
<!-- Generator: Adobe Illustrator 22.0.0, SVG Export Plug-In . SVG Version: 6.00 Build 0)  -->
<svg version="1.1" id="Layer_1" xmlns="http://www.w3.org/2000/svg" xmlns:xlink="http://www.w3.org/1999/xlink" x="0px" y="0px"
	 viewBox="0 0 100 100" style="enable-background:new 0 0 100 100;" xml:space="preserve">
<style type="text/css">
	.st0{fill:none;stroke:#000000;stroke-width:2;stroke-miterlimit:10;}
	.st1{fill:none;}
	.st2{fill:none;stroke:#000000;stroke-width:2;stroke-linecap:round;stroke-miterlimit:10;stroke-dasharray:7;}
	.st3{fill:none;stroke:#000000;stroke-width:2;stroke-linecap:round;stroke-miterlimit:10;}
	.st4{fill:none;stroke:#000000;stroke-width:2;stroke-linecap:round;stroke-linejoin:round;stroke-miterlimit:10;}
	.st5{fill:none;stroke:#000000;stroke-width:2;stroke-linecap:square;stroke-miterlimit:10;}
	.st6{fill:none;stroke:#000000;stroke-width:2;stroke-miterlimit:10;stroke-dasharray:5.3638,5.3638;}
</style>
<g>
	<g>
		<g>
			<path class="st0" d="M73.9,30.4v49.4c0,3.4-2.7,6.1-6.1,6.1H32.2c-3.4,0-6.1-2.7-6.1-6.1V30.4"/>
			<path class="st0" d="M75.7,30.4H24.3c-1.3,0-2.3-1-2.3-2.3v-3.4c0-1.3,1-2.3,2.3-2.3h51.5c1.3,0,2.3,1,2.3,2.3v3.4
				C78,29.3,77,30.4,75.7,30.4z"/>
		</g>
		<path class="st0" d="M34,22.4v-1.5c0-3.7,3-6.7,6.7-6.7h18.7c3.7,0,6.7,3,6.7,6.7v1.5"/>
	</g>
	<g>
		<line class="st0" x1="35.1" y1="41.8" x2="35.1" y2="74.1"/>
		<line class="st0" x1="45" y1="41.8" x2="45" y2="74.1"/>
		<line class="st0" x1="55" y1="41.8" x2="55" y2="74.1"/>
		<line class="st0" x1="64.9" y1="41.8" x2="64.9" y2="74.1"/>
	</g>
</g>
</svg>
