<?xml version="1.0" encoding="utf-8"?>
<!-- Generator: Adobe Illustrator 22.0.0, SVG Export Plug-In . SVG Version: 6.00 Build 0)  -->
<svg version="1.1" id="Layer_1" xmlns="http://www.w3.org/2000/svg" xmlns:xlink="http://www.w3.org/1999/xlink" x="0px" y="0px"
	 viewBox="0 0 100 100" style="enable-background:new 0 0 100 100;" xml:space="preserve">
<style type="text/css">
	.st0{fill:none;stroke:#000000;stroke-width:2;stroke-miterlimit:10;}
	.st1{fill:none;}
	.st2{fill:none;stroke:#000000;stroke-width:2;stroke-linecap:round;stroke-miterlimit:10;stroke-dasharray:7;}
	.st3{fill:none;stroke:#000000;stroke-width:2;stroke-linecap:round;stroke-miterlimit:10;}
	.st4{fill:none;stroke:#000000;stroke-width:2;stroke-linecap:round;stroke-linejoin:round;stroke-miterlimit:10;}
	.st5{fill:none;stroke:#000000;stroke-width:2;stroke-linecap:square;stroke-miterlimit:10;}
	.st6{fill:none;stroke:#000000;stroke-width:2;stroke-miterlimit:10;stroke-dasharray:5.3638,5.3638;}
</style>
<g>
	<path class="st0" d="M27.1,14.4c-1.8,0-2.8,0-2.8,0c-5.8,0-10.5,4.7-10.5,10.5v30.4c0,5.8,4.7,10.5,10.5,10.5h14.3L50,85.6
		l11.5-19.8h14.2c5.8,0,10.5-4.7,10.5-10.5V24.9c0-5.8-4.7-10.5-10.5-10.5C75.7,14.4,37.8,14.4,27.1,14.4z"/>
	<g>
		<path class="st0" d="M59.9,43.6L50,53.4l-9.9-9.9l-1.7-1.7c-2.7-2.7-2.7-7.1,0-9.8c1.4-1.4,3.1-2,4.9-2s3.6,0.7,4.9,2l1.7,1.7
			l1.7-1.7c2.7-2.7,7.1-2.7,9.8,0c2.7,2.7,2.7,7.1,0,9.8L59.9,43.6L50,53.4l-9.9-9.9"/>
	</g>
</g>
</svg>
