<?xml version="1.0" encoding="utf-8"?>
<!-- Generator: Adobe Illustrator 22.0.0, SVG Export Plug-In . SVG Version: 6.00 Build 0)  -->
<svg version="1.1" id="Layer_1" xmlns="http://www.w3.org/2000/svg" xmlns:xlink="http://www.w3.org/1999/xlink" x="0px" y="0px"
	 viewBox="0 0 100 100" style="enable-background:new 0 0 100 100;" xml:space="preserve">
<style type="text/css">
	.st0{fill:none;stroke:#000000;stroke-width:2;stroke-miterlimit:10;}
	.st1{fill:none;}
	.st2{fill:none;stroke:#000000;stroke-width:2;stroke-linecap:round;stroke-miterlimit:10;stroke-dasharray:7;}
	.st3{fill:none;stroke:#000000;stroke-width:2;stroke-linecap:round;stroke-miterlimit:10;}
	.st4{fill:none;stroke:#000000;stroke-width:2;stroke-linecap:round;stroke-linejoin:round;stroke-miterlimit:10;}
	.st5{fill:none;stroke:#000000;stroke-width:2;stroke-linecap:square;stroke-miterlimit:10;}
	.st6{fill:none;stroke:#000000;stroke-width:2;stroke-miterlimit:10;stroke-dasharray:5.3638,5.3638;}
</style>
<g>
	<path class="st0" d="M27.5,15c-1.7,0-2.7,0-2.7,0c-5.7,0-10.3,4.6-10.3,10.3v29.8c0,5.7,4.6,10.3,10.3,10.3h14L50,85l11.2-19.5h14
		c5.7,0,10.3-4.6,10.3-10.3V25.3c0-5.7-4.6-10.3-10.3-10.3C75.2,15,38,15,27.5,15z"/>
	<path class="st0" d="M50.4,30.4c-0.1,0-0.2,0-0.4,0c-8.6,0-15.6,4-15.6,9s7,9.1,15.6,9.1c1.8,0,3.6-0.2,5.2-0.5l10.3,4.2
		c0,0-1.9-4-3.3-7.2c2-1.5,3.3-3.5,3.3-5.5C65.5,34.5,58.8,30.5,50.4,30.4z"/>
</g>
</svg>
