<?xml version="1.0" encoding="utf-8"?>
<!-- Generator: Adobe Illustrator 22.0.0, SVG Export Plug-In . SVG Version: 6.00 Build 0)  -->
<svg version="1.1" id="Layer_1" xmlns="http://www.w3.org/2000/svg" xmlns:xlink="http://www.w3.org/1999/xlink" x="0px" y="0px"
	 viewBox="0 0 100 100" style="enable-background:new 0 0 100 100;" xml:space="preserve">
<style type="text/css">
	.st0{fill:none;stroke:#000000;stroke-width:2;stroke-miterlimit:10;}
	.st1{fill:none;}
	.st2{fill:none;stroke:#000000;stroke-width:2;stroke-linecap:round;stroke-miterlimit:10;stroke-dasharray:7;}
	.st3{fill:none;stroke:#000000;stroke-width:2;stroke-linecap:round;stroke-miterlimit:10;}
	.st4{fill:none;stroke:#000000;stroke-width:2;stroke-linecap:round;stroke-linejoin:round;stroke-miterlimit:10;}
	.st5{fill:none;stroke:#000000;stroke-width:2;stroke-linecap:square;stroke-miterlimit:10;}
	.st6{fill:none;stroke:#000000;stroke-width:2;stroke-miterlimit:10;stroke-dasharray:5.3638,5.3638;}
</style>
<g>
	<path class="st0" d="M27.6,15.2c-1.7,0-2.7,0-2.7,0c-5.7,0-10.3,4.6-10.3,10.3v29.7c0,5.7,4.6,10.3,10.3,10.3h13.9L50,84.8
		l11.2-19.4h13.9c5.7,0,10.3-4.6,10.3-10.3V25.4c0-5.7-4.6-10.3-10.3-10.3C75.1,15.2,38.1,15.2,27.6,15.2z"/>
	<g>
		<circle class="st0" cx="50" cy="32.8" r="5.5"/>
		<path class="st0" d="M41.6,54.2v-2.3c0-4.7,3.8-8.4,8.4-8.4h0c4.7,0,8.4,3.8,8.4,8.4v2.3"/>
	</g>
</g>
</svg>
