<?xml version="1.0" encoding="utf-8"?>
<!-- Generator: Adobe Illustrator 22.0.0, SVG Export Plug-In . SVG Version: 6.00 Build 0)  -->
<svg version="1.1" id="Layer_1" xmlns="http://www.w3.org/2000/svg" xmlns:xlink="http://www.w3.org/1999/xlink" x="0px" y="0px"
	 viewBox="0 0 100 100" style="enable-background:new 0 0 100 100;" xml:space="preserve">
<style type="text/css">
	.st0{fill:none;stroke:#000000;stroke-width:2;stroke-miterlimit:10;}
	.st1{fill:none;}
	.st2{fill:none;stroke:#000000;stroke-width:2;stroke-linecap:round;stroke-miterlimit:10;stroke-dasharray:7;}
	.st3{fill:none;stroke:#000000;stroke-width:2;stroke-linecap:round;stroke-miterlimit:10;}
	.st4{fill:none;stroke:#000000;stroke-width:2;stroke-linecap:round;stroke-linejoin:round;stroke-miterlimit:10;}
	.st5{fill:none;stroke:#000000;stroke-width:2;stroke-linecap:square;stroke-miterlimit:10;}
	.st6{fill:none;stroke:#000000;stroke-width:2;stroke-miterlimit:10;stroke-dasharray:5.3638,5.3638;}
</style>
<g>
	<path class="st0" d="M59.1,76.9l-36-36c-1.3-1.3-1.3-3.3,0-4.6l8.5-8.5c1.3-1.3,3.3-1.3,4.6,0l36,36c1.3,1.3,1.3,3.3,0,4.6
		l-8.5,8.5C62.4,78.2,60.3,78.2,59.1,76.9z"/>
	<g>
		<path class="st0" d="M34.2,52L22,64.2c-1.8,1.8-4.7,1.8-6.5,0l0,0c-1.8-1.8-1.8-4.7,0-6.5l12.1-12.1"/>
		<path class="st0" d="M54.4,72.3L42.3,84.4c-1.8,1.8-4.7,1.8-6.5,0l0,0c-1.8-1.8-1.8-4.7,0-6.5L48,65.8"/>
	</g>
	<path class="st0" d="M70.8,62.4l10.3-10.3c5.8-5.8,5.8-15.2,0-21l0,0L68.8,18.9l0,0c-5.8-5.8-15.2-5.8-21,0L37.6,29.2"/>
	<path class="st0" d="M68.8,18.9l8.4-4.1c2.3-1.1,5-0.6,6.7,1.1l0,0c1.8,1.8,2.2,4.5,1.1,6.7l-4.1,8.4"/>
</g>
</svg>
