<?xml version="1.0" encoding="utf-8"?>
<!-- Generator: Adobe Illustrator 22.0.0, SVG Export Plug-In . SVG Version: 6.00 Build 0)  -->
<svg version="1.1" id="Layer_1" xmlns="http://www.w3.org/2000/svg" xmlns:xlink="http://www.w3.org/1999/xlink" x="0px" y="0px"
	 viewBox="0 0 100 100" style="enable-background:new 0 0 100 100;" xml:space="preserve">
<style type="text/css">
	.st0{fill:none;stroke:#000000;stroke-width:2;stroke-miterlimit:10;}
	.st1{fill:none;}
	.st2{fill:none;stroke:#000000;stroke-width:2;stroke-linecap:round;stroke-miterlimit:10;stroke-dasharray:7;}
	.st3{fill:none;stroke:#000000;stroke-width:2;stroke-linecap:round;stroke-miterlimit:10;}
	.st4{fill:none;stroke:#000000;stroke-width:2;stroke-linecap:round;stroke-linejoin:round;stroke-miterlimit:10;}
	.st5{fill:none;stroke:#000000;stroke-width:2;stroke-linecap:square;stroke-miterlimit:10;}
	.st6{fill:none;stroke:#000000;stroke-width:2;stroke-miterlimit:10;stroke-dasharray:5.3638,5.3638;}
</style>
<g>
	<rect x="28" y="33.1" class="st0" width="43.9" height="7.9"/>
	<polyline class="st0" points="32.9,41 32.9,64.8 42.8,64.8 57.2,64.8 67.1,64.8 67.1,41 	"/>
	<polyline class="st0" points="57.2,64.8 57.2,77.7 42.8,77.7 42.8,64.8 	"/>
	<g>
		<path class="st0" d="M36.3,33.1V18c0-2,1.7-3.7,3.7-3.7h0c2,0,3.7,1.7,3.7,3.7v15"/>
		<path class="st0" d="M56.3,33.1V18c0-2,1.7-3.7,3.7-3.7h0c2,0,3.7,1.7,3.7,3.7v15"/>
	</g>
	<path class="st0" d="M52.9,77.7v5c0,1.6-1.3,2.9-2.9,2.9h0c-1.6,0-2.9-1.3-2.9-2.9v-5"/>
</g>
</svg>
