<?xml version="1.0" encoding="utf-8"?>
<!-- Generator: Adobe Illustrator 22.0.0, SVG Export Plug-In . SVG Version: 6.00 Build 0)  -->
<svg version="1.1" id="Layer_1" xmlns="http://www.w3.org/2000/svg" xmlns:xlink="http://www.w3.org/1999/xlink" x="0px" y="0px"
	 viewBox="0 0 100 100" style="enable-background:new 0 0 100 100;" xml:space="preserve">
<style type="text/css">
	.st0{fill:none;stroke:#000000;stroke-width:2;stroke-miterlimit:10;}
	.st1{fill:none;}
	.st2{fill:none;stroke:#000000;stroke-width:2;stroke-linecap:round;stroke-miterlimit:10;stroke-dasharray:7;}
	.st3{fill:none;stroke:#000000;stroke-width:2;stroke-linecap:round;stroke-miterlimit:10;}
	.st4{fill:none;stroke:#000000;stroke-width:2;stroke-linecap:round;stroke-linejoin:round;stroke-miterlimit:10;}
	.st5{fill:none;stroke:#000000;stroke-width:2;stroke-linecap:square;stroke-miterlimit:10;}
	.st6{fill:none;stroke:#000000;stroke-width:2;stroke-miterlimit:10;stroke-dasharray:5.3638,5.3638;}
</style>
<g>
	<path class="st0" d="M31.8,59.1h36.3c2.2,0,4,1.8,4,4v0c0,2.2-1.8,4-4,4H31.8c-2.2,0-4-1.8-4-4v0C27.8,60.9,29.6,59.1,31.8,59.1z"
		/>
	<path class="st0" d="M67.3,59.1v-14c0-5.5-4.5-10-10-10h0H42.7h0c-5.5,0-10,4.5-10,10v14"/>
	<path class="st0" d="M42.7,35.1v-8.4c0-2.6,2.1-4.6,4.6-4.6h5.3c2.6,0,4.6,2.1,4.6,4.6v8.4"/>
	<g>
		<path class="st0" d="M63.8,67.1v15.2c0,2.1-1.7,3.7-3.7,3.7h0c-2.1,0-3.7-1.7-3.7-3.7V67.1"/>
		<path class="st0" d="M43.6,67.1v15.2c0,2.1-1.7,3.7-3.7,3.7h0c-2.1,0-3.7-1.7-3.7-3.7V67.1"/>
	</g>
	<path class="st0" d="M47.1,22v-5.1c0-1.6,1.3-2.9,2.9-2.9h0c1.6,0,2.9,1.3,2.9,2.9V22"/>
</g>
</svg>
