<?xml version="1.0" encoding="utf-8"?>
<!-- Generator: Adobe Illustrator 22.0.0, SVG Export Plug-In . SVG Version: 6.00 Build 0)  -->
<svg version="1.1" id="Layer_1" xmlns="http://www.w3.org/2000/svg" xmlns:xlink="http://www.w3.org/1999/xlink" x="0px" y="0px"
	 viewBox="0 0 100 100" style="enable-background:new 0 0 100 100;" xml:space="preserve">
<style type="text/css">
	.st0{fill:none;stroke:#000000;stroke-width:2;stroke-miterlimit:10;}
	.st1{fill:none;}
	.st2{fill:none;stroke:#000000;stroke-width:2;stroke-linecap:round;stroke-miterlimit:10;stroke-dasharray:7;}
	.st3{fill:none;stroke:#000000;stroke-width:2;stroke-linecap:round;stroke-miterlimit:10;}
	.st4{fill:none;stroke:#000000;stroke-width:2;stroke-linecap:round;stroke-linejoin:round;stroke-miterlimit:10;}
	.st5{fill:none;stroke:#000000;stroke-width:2;stroke-linecap:square;stroke-miterlimit:10;}
	.st6{fill:none;stroke:#000000;stroke-width:2;stroke-miterlimit:10;stroke-dasharray:5.3638,5.3638;}
</style>
<g>
	<g>
		<g>
			<path class="st3" d="M67.4,38.4c1.8,0,3,1.7,2.5,3.4l-9.4,29.1l-2,6.2h-17l-2-6.2l-9.4-29.1c-0.5-1.7,0.7-3.4,2.5-3.4H67.4z"/>
			<line class="st3" x1="58.5" y1="77.2" x2="41.5" y2="77.2"/>
			<line class="st3" x1="60.5" y1="70.9" x2="39.5" y2="70.9"/>
			<g>
				<path class="st3" d="M40.9,38.4h-4.5V16.2c0-1.2,1-2.1,2.1-2.1h0.2c1.2,0,2.1,1,2.1,2.1V38.4z"/>
				<path class="st3" d="M63.6,38.4h-4.5V16.2c0-1.2,1-2.1,2.1-2.1h0.2c1.2,0,2.1,1,2.1,2.1V38.4z"/>
			</g>
		</g>
		<path class="st3" d="M50,86L50,86c-1.8,0-3.3-1.4-3.5-3.2l-0.8-5.7h8.7l-0.8,5.7C53.3,84.6,51.8,86,50,86z"/>
	</g>
	<circle class="st3" cx="50" cy="60.1" r="4"/>
</g>
</svg>
