<?xml version="1.0" encoding="utf-8"?>
<!-- Generator: Adobe Illustrator 22.0.0, SVG Export Plug-In . SVG Version: 6.00 Build 0)  -->
<svg version="1.1" id="Layer_1" xmlns="http://www.w3.org/2000/svg" xmlns:xlink="http://www.w3.org/1999/xlink" x="0px" y="0px"
	 viewBox="0 0 100 100" style="enable-background:new 0 0 100 100;" xml:space="preserve">
<style type="text/css">
	.st0{fill:none;stroke:#000000;stroke-width:2;stroke-miterlimit:10;}
	.st1{fill:none;}
	.st2{fill:none;stroke:#000000;stroke-width:2;stroke-linecap:round;stroke-miterlimit:10;stroke-dasharray:7;}
	.st3{fill:none;stroke:#000000;stroke-width:2;stroke-linecap:round;stroke-miterlimit:10;}
	.st4{fill:none;stroke:#000000;stroke-width:2;stroke-linecap:round;stroke-linejoin:round;stroke-miterlimit:10;}
	.st5{fill:none;stroke:#000000;stroke-width:2;stroke-linecap:square;stroke-miterlimit:10;}
	.st6{fill:none;stroke:#000000;stroke-width:2;stroke-miterlimit:10;stroke-dasharray:5.3638,5.3638;}
</style>
<g>
	<g>
		<path class="st3" d="M39.7,59.7L49,50c0,0,8.1-8.4,11-11.5c0.6-0.6,0.5-1.5,0-2.1l-9.5-9.3C49.9,26.7,49,27,49,27.8V50
			c0,0,0,0.3,0,0.3v22c0,0.7,0.9,1.1,1.4,0.6l9.5-9.3c0.6-0.6,0.6-1.5,0-2.1C57,58.4,49,50,49,50l-9.3-9.7"/>
	</g>
	<path class="st0" d="M79.2,85.6H20.8c-3.5,0-6.4-2.9-6.4-6.4V20.8c0-3.5,2.9-6.4,6.4-6.4h58.5c3.5,0,6.4,2.9,6.4,6.4v58.5
		C85.6,82.8,82.8,85.6,79.2,85.6z"/>
</g>
</svg>
