<?xml version="1.0" encoding="utf-8"?>
<!-- Generator: Adobe Illustrator 22.0.0, SVG Export Plug-In . SVG Version: 6.00 Build 0)  -->
<svg version="1.1" id="Layer_1" xmlns="http://www.w3.org/2000/svg" xmlns:xlink="http://www.w3.org/1999/xlink" x="0px" y="0px"
	 viewBox="0 0 100 100" style="enable-background:new 0 0 100 100;" xml:space="preserve">
<style type="text/css">
	.st0{fill:none;stroke:#000000;stroke-width:2;stroke-miterlimit:10;}
	.st1{fill:none;}
	.st2{fill:none;stroke:#000000;stroke-width:2;stroke-linecap:round;stroke-miterlimit:10;stroke-dasharray:7;}
	.st3{fill:none;stroke:#000000;stroke-width:2;stroke-linecap:round;stroke-miterlimit:10;}
	.st4{fill:none;stroke:#000000;stroke-width:2;stroke-linecap:round;stroke-linejoin:round;stroke-miterlimit:10;}
	.st5{fill:none;stroke:#000000;stroke-width:2;stroke-linecap:square;stroke-miterlimit:10;}
	.st6{fill:none;stroke:#000000;stroke-width:2;stroke-miterlimit:10;stroke-dasharray:5.3638,5.3638;}
</style>
<g>
	<path class="st0" d="M28,57.4h44c0.9,0,1.6,0.7,1.6,1.6v5.3c0,0.9-0.7,1.6-1.6,1.6H28c-0.9,0-1.6-0.7-1.6-1.6V59
		C26.4,58.1,27.1,57.4,28,57.4z"/>
	<path class="st0" d="M68.4,57.4V35.8c0-2.2-1.8-4-4-4h-6.7H42.3h-6.7c-2.2,0-4,1.8-4,4v21.6"/>
	<path class="st0" d="M42.3,31.9v-5.8c0-0.7,0.5-1.2,1.2-1.2h13.1c0.7,0,1.2,0.5,1.2,1.2v5.8"/>
	<g>
		<path class="st0" d="M64.7,65.9V82c0,2.2-1.8,4-4,4h0c-2.2,0-4-1.8-4-4V65.9"/>
		<path class="st0" d="M43.2,65.9V82c0,2.2-1.8,4-4,4h0c-2.2,0-4-1.8-4-4V65.9"/>
	</g>
	<g>
		<circle class="st0" cx="41.8" cy="42.2" r="3.1"/>
		<circle class="st0" cx="58.2" cy="42.2" r="3.1"/>
	</g>
	<path class="st0" d="M46.1,24.9v-3.4c0-0.7,0.5-1.2,1.2-1.2h5.4c0.7,0,1.2,0.5,1.2,1.2v3.4"/>
	<line class="st0" x1="50" y1="20.3" x2="50" y2="14"/>
</g>
</svg>
