<?xml version="1.0" encoding="utf-8"?>
<!-- Generator: Adobe Illustrator 22.0.0, SVG Export Plug-In . SVG Version: 6.00 Build 0)  -->
<svg version="1.1" id="Layer_1" xmlns="http://www.w3.org/2000/svg" xmlns:xlink="http://www.w3.org/1999/xlink" x="0px" y="0px"
	 viewBox="0 0 100 100" style="enable-background:new 0 0 100 100;" xml:space="preserve">
<style type="text/css">
	.st0{fill:none;stroke:#000000;stroke-width:2;stroke-miterlimit:10;}
	.st1{fill:none;}
	.st2{fill:none;stroke:#000000;stroke-width:2;stroke-linecap:round;stroke-miterlimit:10;stroke-dasharray:7;}
	.st3{fill:none;stroke:#000000;stroke-width:2;stroke-linecap:round;stroke-miterlimit:10;}
	.st4{fill:none;stroke:#000000;stroke-width:2;stroke-linecap:round;stroke-linejoin:round;stroke-miterlimit:10;}
	.st5{fill:none;stroke:#000000;stroke-width:2;stroke-linecap:square;stroke-miterlimit:10;}
	.st6{fill:none;stroke:#000000;stroke-width:2;stroke-miterlimit:10;stroke-dasharray:5.3638,5.3638;}
</style>
<g>
	<g>
		<path class="st0" d="M38.7,55.6h22.6c1.4,0,2.5,1.1,2.5,2.5v0c0,1.4-1.1,2.5-2.5,2.5H38.7c-1.4,0-2.5-1.1-2.5-2.5v0
			C36.2,56.8,37.3,55.6,38.7,55.6z"/>
		<path class="st0" d="M60.7,55.6V47c0-3.4-2.8-6.2-6.2-6.2h0h-9h0c-3.4,0-6.2,2.8-6.2,6.2v8.7"/>
		<path class="st0" d="M45.5,40.7v-5.3c0-1.6,1.3-2.9,2.9-2.9h3.3c1.6,0,2.9,1.3,2.9,2.9v5.3"/>
		<g>
			<path class="st0" d="M58.6,60.6V70c0,1.3-1,2.3-2.3,2.3h0c-1.3,0-2.3-1-2.3-2.3v-9.4"/>
			<path class="st0" d="M46,60.6V70c0,1.3-1,2.3-2.3,2.3h0c-1.3,0-2.3-1-2.3-2.3v-9.4"/>
		</g>
		<path class="st0" d="M48.2,32.6v-3.2c0-1,0.8-1.8,1.8-1.8l0,0c1,0,1.8,0.8,1.8,1.8v3.2"/>
	</g>
	<g>
		<circle class="st0" cx="50" cy="50" r="36.2"/>
		<line class="st0" x1="75.6" y1="75.6" x2="24.4" y2="24.4"/>
	</g>
</g>
</svg>
