<?xml version="1.0" encoding="utf-8"?>
<!-- Generator: Adobe Illustrator 22.0.0, SVG Export Plug-In . SVG Version: 6.00 Build 0)  -->
<svg version="1.1" id="Layer_1" xmlns="http://www.w3.org/2000/svg" xmlns:xlink="http://www.w3.org/1999/xlink" x="0px" y="0px"
	 viewBox="0 0 100 100" style="enable-background:new 0 0 100 100;" xml:space="preserve">
<style type="text/css">
	.st0{fill:none;stroke:#000000;stroke-width:2;stroke-miterlimit:10;}
	.st1{fill:none;}
	.st2{fill:none;stroke:#000000;stroke-width:2;stroke-linecap:round;stroke-miterlimit:10;stroke-dasharray:7;}
	.st3{fill:none;stroke:#000000;stroke-width:2;stroke-linecap:round;stroke-miterlimit:10;}
	.st4{fill:none;stroke:#000000;stroke-width:2;stroke-linecap:round;stroke-linejoin:round;stroke-miterlimit:10;}
	.st5{fill:none;stroke:#000000;stroke-width:2;stroke-linecap:square;stroke-miterlimit:10;}
	.st6{fill:none;stroke:#000000;stroke-width:2;stroke-miterlimit:10;stroke-dasharray:5.3638,5.3638;}
</style>
<g>
	<path class="st3" d="M33.9,82c-11.7-5.9-19.8-18-19.8-32c0-19.8,16-35.9,35.8-35.9c19.8,0,35.9,16,35.9,35.9
		c0,19.8-16.1,35.8-35.9,35.8V65.1"/>
	<g>
		<path class="st0" d="M50,65.1L50,65.1c-5.5,0-10-4.5-10-10v-8h20v8C60,60.6,55.5,65.1,50,65.1z"/>
		<g>
			<path class="st0" d="M46.2,47.2h-3.6V36.7c0-1,0.8-1.8,1.8-1.8h0c1,0,1.8,0.8,1.8,1.8V47.2z"/>
			<path class="st0" d="M57.4,47.2h-3.6V36.7c0-1,0.8-1.8,1.8-1.8h0c1,0,1.8,0.8,1.8,1.8V47.2z"/>
		</g>
	</g>
</g>
</svg>
