<?xml version="1.0" encoding="utf-8"?>
<!-- Generator: Adobe Illustrator 22.0.0, SVG Export Plug-In . SVG Version: 6.00 Build 0)  -->
<svg version="1.1" id="Layer_1" xmlns="http://www.w3.org/2000/svg" xmlns:xlink="http://www.w3.org/1999/xlink" x="0px" y="0px"
	 viewBox="0 0 100 100" style="enable-background:new 0 0 100 100;" xml:space="preserve">
<style type="text/css">
	.st0{fill:none;stroke:#000000;stroke-width:2;stroke-miterlimit:10;}
	.st1{fill:none;}
	.st2{fill:none;stroke:#000000;stroke-width:2;stroke-linecap:round;stroke-miterlimit:10;stroke-dasharray:7;}
	.st3{fill:none;stroke:#000000;stroke-width:2;stroke-linecap:round;stroke-miterlimit:10;}
	.st4{fill:none;stroke:#000000;stroke-width:2;stroke-linecap:round;stroke-linejoin:round;stroke-miterlimit:10;}
	.st5{fill:none;stroke:#000000;stroke-width:2;stroke-linecap:square;stroke-miterlimit:10;}
	.st6{fill:none;stroke:#000000;stroke-width:2;stroke-miterlimit:10;stroke-dasharray:5.3638,5.3638;}
</style>
<g>
	<g>
		<g>
			<path class="st0" d="M73.8,41.8c2.5,2.5,3.8,5.3,3.8,8.2c0,2.8-1.3,5.7-3.8,8.2"/>
			<path class="st0" d="M73.8,41.8c2.5,2.5,3.8,5.3,3.8,8.2c0,2.8-1.3,5.7-3.8,8.2"/>
			<path class="st0" d="M79.6,36.1c4,4,6.2,8.9,6.2,13.9c0,5-2.2,9.9-6.2,13.9"/>
		</g>
		<g>
			<path class="st0" d="M26.2,58.2c-2.5-2.5-3.8-5.3-3.8-8.2c0-2.8,1.3-5.7,3.8-8.2"/>
			<path class="st0" d="M26.2,58.2c-2.5-2.5-3.8-5.3-3.8-8.2c0-2.8,1.3-5.7,3.8-8.2"/>
			<path class="st0" d="M20.4,63.9c-4-4-6.2-8.9-6.2-13.9c0-5,2.2-9.9,6.2-13.9"/>
		</g>
	</g>
	<g>
		<path class="st0" d="M65.8,77.1H34.2c-1.5,0-2.7-1.2-2.7-2.7V25.6c0-1.5,1.2-2.7,2.7-2.7h31.6c1.5,0,2.7,1.2,2.7,2.7v48.8
			C68.5,75.9,67.3,77.1,65.8,77.1z"/>
		<circle class="st0" cx="50" cy="56.7" r="8.9"/>
		<circle class="st0" cx="50" cy="33.5" r="4.1"/>
	</g>
</g>
</svg>
