<?xml version="1.0" encoding="utf-8"?>
<!-- Generator: Adobe Illustrator 22.0.0, SVG Export Plug-In . SVG Version: 6.00 Build 0)  -->
<svg version="1.1" id="Layer_1" xmlns="http://www.w3.org/2000/svg" xmlns:xlink="http://www.w3.org/1999/xlink" x="0px" y="0px"
	 viewBox="0 0 100 100" style="enable-background:new 0 0 100 100;" xml:space="preserve">
<style type="text/css">
	.st0{fill:none;stroke:#000000;stroke-width:2;stroke-miterlimit:10;}
	.st1{fill:none;}
	.st2{fill:none;stroke:#000000;stroke-width:2;stroke-linecap:round;stroke-miterlimit:10;stroke-dasharray:7;}
	.st3{fill:none;stroke:#000000;stroke-width:2;stroke-linecap:round;stroke-miterlimit:10;}
	.st4{fill:none;stroke:#000000;stroke-width:2;stroke-linecap:round;stroke-linejoin:round;stroke-miterlimit:10;}
	.st5{fill:none;stroke:#000000;stroke-width:2;stroke-linecap:square;stroke-miterlimit:10;}
	.st6{fill:none;stroke:#000000;stroke-width:2;stroke-miterlimit:10;stroke-dasharray:5.3638,5.3638;}
</style>
<g>
	<path class="st0" d="M81.5,53.1V52V40.8c0-3.4-2.8-6.1-6.1-6.1h-4H27.2h-7c-3.4,0-6.1,2.8-6.1,6.1v35.4c0,3.4,2.8,6.1,6.1,6.1h20.1
		h35.1c3.4,0,6.1-2.8,6.1-6.1V64.1"/>
	<path class="st0" d="M86,55v7c0,1.1-0.9,2-2,2H72c-0.6,0-1.2-0.3-1.6-0.8C70.2,63,70,62.5,70,62.1v-7c0-1.1,0.9-2,2-2h12
		C85.1,53.1,86,53.9,86,55z"/>
	<circle class="st0" cx="78" cy="58.6" r="1.9"/>
	<path class="st0" d="M27.2,34.7l27.4-16.3c2.9-1.7,6.7-0.8,8.4,2.2l8.4,14.1"/>
	<line class="st0" x1="65.5" y1="24.8" x2="48.7" y2="34.7"/>
</g>
</svg>
