<?xml version="1.0" encoding="utf-8"?>
<!-- Generator: Adobe Illustrator 22.0.0, SVG Export Plug-In . SVG Version: 6.00 Build 0)  -->
<svg version="1.1" id="Layer_1" xmlns="http://www.w3.org/2000/svg" xmlns:xlink="http://www.w3.org/1999/xlink" x="0px" y="0px"
	 viewBox="0 0 100 100" style="enable-background:new 0 0 100 100;" xml:space="preserve">
<style type="text/css">
	.st0{fill:none;stroke:#000000;stroke-width:2;stroke-miterlimit:10;}
	.st1{fill:none;}
	.st2{fill:none;stroke:#000000;stroke-width:2;stroke-linecap:round;stroke-miterlimit:10;stroke-dasharray:7;}
	.st3{fill:none;stroke:#000000;stroke-width:2;stroke-linecap:round;stroke-miterlimit:10;}
	.st4{fill:none;stroke:#000000;stroke-width:2;stroke-linecap:round;stroke-linejoin:round;stroke-miterlimit:10;}
	.st5{fill:none;stroke:#000000;stroke-width:2;stroke-linecap:square;stroke-miterlimit:10;}
	.st6{fill:none;stroke:#000000;stroke-width:2;stroke-miterlimit:10;stroke-dasharray:5.3638,5.3638;}
</style>
<g>
	<path class="st0" d="M45.6,77v-4.3c2.3,0.4,4.6,0.7,7.1,0.7c2,0,3.9-0.2,5.8-0.4V77c0,0.2,0.2,0.4,0.4,0.4h9.8
		c0.2,0,0.4-0.2,0.4-0.4v-7.6c5.1-2.7,9-6.6,11.1-11.2h5.5c0.2,0,0.4-0.2,0.4-0.4v-11c0-0.2-0.2-0.4-0.4-0.4h-4.4
		c-1.3-5.1-4.8-9.7-9.8-12.9l1.3-10.7c0-0.2-0.2-0.3-0.4-0.2l-9.5,7c-3.2-0.9-6.6-1.4-10.1-1.4c-16,0-29,10.1-29,22.6
		c0,7.3,4.4,13.8,11.3,17.9V77c0,0.2,0.2,0.4,0.4,0.4h9.8C45.4,77.4,45.6,77.3,45.6,77z"/>
	<path class="st0" d="M23.6,50.2c0,2.6-2.1,4.8-4.8,4.8s-4.8-2.1-4.8-4.8c0-1.4,0.6-2.6,1.5-3.5"/>
</g>
</svg>
