<?xml version="1.0" encoding="utf-8"?>
<!-- Generator: Adobe Illustrator 22.0.0, SVG Export Plug-In . SVG Version: 6.00 Build 0)  -->
<svg version="1.1" id="Layer_1" xmlns="http://www.w3.org/2000/svg" xmlns:xlink="http://www.w3.org/1999/xlink" x="0px" y="0px"
	 viewBox="0 0 100 100" style="enable-background:new 0 0 100 100;" xml:space="preserve">
<style type="text/css">
	.st0{fill:none;stroke:#000000;stroke-width:2;stroke-miterlimit:10;}
	.st1{fill:none;}
	.st2{fill:none;stroke:#000000;stroke-width:2;stroke-linecap:round;stroke-miterlimit:10;stroke-dasharray:7;}
	.st3{fill:none;stroke:#000000;stroke-width:2;stroke-linecap:round;stroke-miterlimit:10;}
	.st4{fill:none;stroke:#000000;stroke-width:2;stroke-linecap:round;stroke-linejoin:round;stroke-miterlimit:10;}
	.st5{fill:none;stroke:#000000;stroke-width:2;stroke-linecap:square;stroke-miterlimit:10;}
	.st6{fill:none;stroke:#000000;stroke-width:2;stroke-miterlimit:10;stroke-dasharray:5.3638,5.3638;}
</style>
<g>
	<g>
		<circle class="st0" cx="50" cy="50" r="9.5"/>
		<g>
			<path class="st0" d="M52.3,46.3h-3c-0.9,0-1.7,0.8-1.7,1.7v0c0,0.9,0.8,1.7,1.7,1.7h1.3c0.9,0,1.7,0.8,1.7,1.7V52
				c0,0.9-0.8,1.7-1.7,1.7h-3"/>
			<line class="st0" x1="50" y1="50" x2="50" y2="49.7"/>
			<line class="st0" x1="50" y1="56.5" x2="50" y2="53.7"/>
			<line class="st0" x1="50" y1="46.3" x2="50" y2="43.5"/>
		</g>
	</g>
	<path class="st0" d="M82.8,68.6H17.2c-1.8,0-3.2-1.4-3.2-3.2V34.6c0-1.8,1.4-3.2,3.2-3.2h65.6c1.8,0,3.2,1.4,3.2,3.2v30.8
		C86,67.2,84.6,68.6,82.8,68.6z"/>
</g>
</svg>
