<?xml version="1.0" encoding="utf-8"?>
<!-- Generator: Adobe Illustrator 22.0.0, SVG Export Plug-In . SVG Version: 6.00 Build 0)  -->
<svg version="1.1" id="Layer_1" xmlns="http://www.w3.org/2000/svg" xmlns:xlink="http://www.w3.org/1999/xlink" x="0px" y="0px"
	 viewBox="0 0 100 100" style="enable-background:new 0 0 100 100;" xml:space="preserve">
<style type="text/css">
	.st0{fill:none;stroke:#000000;stroke-width:2;stroke-miterlimit:10;}
	.st1{fill:none;}
	.st2{fill:none;stroke:#000000;stroke-width:2;stroke-linecap:round;stroke-miterlimit:10;stroke-dasharray:7;}
	.st3{fill:none;stroke:#000000;stroke-width:2;stroke-linecap:round;stroke-miterlimit:10;}
	.st4{fill:none;stroke:#000000;stroke-width:2;stroke-linecap:round;stroke-linejoin:round;stroke-miterlimit:10;}
	.st5{fill:none;stroke:#000000;stroke-width:2;stroke-linecap:square;stroke-miterlimit:10;}
	.st6{fill:none;stroke:#000000;stroke-width:2;stroke-miterlimit:10;stroke-dasharray:5.3638,5.3638;}
</style>
<g>
	<g>
		<path class="st0" d="M71.6,40.3c2.8,2.8,4.4,6.1,4.4,9.3c0,3.2-1.5,6.5-4.4,9.3"/>
		<path class="st0" d="M71.6,40.3c2.8,2.8,4.4,6.1,4.4,9.3c0,3.2-1.5,6.5-4.4,9.3"/>
		<path class="st0" d="M78.2,33.8c4.6,4.6,7.1,10.2,7.1,15.9c0,5.8-2.5,11.3-7.1,15.9"/>
	</g>
	<polygon class="st0" points="36.7,65 14.7,60.1 14.7,39.3 36.7,34.4 	"/>
	<g>
		<polyline class="st0" points="36.7,65 55.6,75.7 65.2,75.7 65.2,23.7 55.6,23.7 36.7,34.4 		"/>
	</g>
	<line class="st0" x1="55.6" y1="23.7" x2="55.6" y2="75.7"/>
	<polyline class="st0" points="30.1,63.5 32.1,76.3 25.2,76.3 20,61.3 	"/>
</g>
</svg>
