<?xml version="1.0" encoding="utf-8"?>
<!-- Generator: Adobe Illustrator 22.0.0, SVG Export Plug-In . SVG Version: 6.00 Build 0)  -->
<svg version="1.1" id="Layer_1" xmlns="http://www.w3.org/2000/svg" xmlns:xlink="http://www.w3.org/1999/xlink" x="0px" y="0px"
	 viewBox="0 0 100 100" style="enable-background:new 0 0 100 100;" xml:space="preserve">
<style type="text/css">
	.st0{fill:none;stroke:#000000;stroke-width:2;stroke-miterlimit:10;}
	.st1{fill:none;}
	.st2{fill:none;stroke:#000000;stroke-width:2;stroke-linecap:round;stroke-miterlimit:10;stroke-dasharray:7;}
	.st3{fill:none;stroke:#000000;stroke-width:2;stroke-linecap:round;stroke-miterlimit:10;}
	.st4{fill:none;stroke:#000000;stroke-width:2;stroke-linecap:round;stroke-linejoin:round;stroke-miterlimit:10;}
	.st5{fill:none;stroke:#000000;stroke-width:2;stroke-linecap:square;stroke-miterlimit:10;}
	.st6{fill:none;stroke:#000000;stroke-width:2;stroke-miterlimit:10;stroke-dasharray:5.3638,5.3638;}
</style>
<g>
	<path class="st0" d="M85.3,50c0,2.5-5.3,4.4-5.8,6.7c-0.6,2.4,3.4,6.4,2.3,8.6c-1.1,2.2-6.6,1.6-8.2,3.5c-1.5,1.9,0.3,7.2-1.6,8.7
		c-1.9,1.5-6.7-1.4-8.9-0.3c-2.2,1.1-2.9,6.6-5.3,7.2c-2.3,0.5-5.3-4.2-7.9-4.2c-2.5,0-5.5,4.7-7.9,4.2c-2.4-0.6-3.1-6.1-5.3-7.2
		c-2.2-1.1-7,1.9-8.9,0.3c-1.9-1.5-0.1-6.8-1.6-8.7c-1.5-1.9-7.1-1.3-8.1-3.5c-1.1-2.2,2.9-6.2,2.3-8.6c-0.5-2.3-5.8-4.2-5.8-6.7
		c0-2.5,5.3-4.4,5.8-6.7c0.6-2.4-3.4-6.4-2.3-8.6c1.1-2.2,6.6-1.6,8.2-3.5c1.5-1.9-0.3-7.2,1.6-8.7c1.9-1.5,6.7,1.4,8.9,0.3
		c2.2-1.1,2.9-6.6,5.3-7.2c2.3-0.5,5.3,4.2,7.9,4.2c2.5,0,5.5-4.7,7.9-4.2c2.4,0.6,3.1,6.1,5.3,7.2c2.2,1.1,7-1.9,8.9-0.3
		c1.9,1.5,0.1,6.8,1.6,8.7c1.5,1.9,7.1,1.3,8.1,3.5c1.1,2.2-2.9,6.2-2.3,8.6C80,45.6,85.3,47.5,85.3,50z"/>
	<circle class="st0" cx="50" cy="50" r="23.7"/>
	<g>
		<path d="M34.7,47.5v1.7h3.7v1.5h-3.7v3H33V46h5.9v1.5H34.7z"/>
		<path d="M46.4,53.8l-1.7-2.5h-1.3v2.5h-1.7V46h3.6c0.9,0,1.7,0.2,2.2,0.7c0.5,0.5,0.8,1.1,0.8,1.9v0c0,0.6-0.2,1.1-0.5,1.5
			c-0.3,0.4-0.7,0.7-1.2,0.9l1.9,2.8H46.4z M46.5,48.6c0-0.4-0.1-0.6-0.4-0.8c-0.2-0.2-0.6-0.3-1-0.3h-1.7v2.2h1.7
			c0.4,0,0.7-0.1,1-0.3C46.4,49.3,46.5,49,46.5,48.6L46.5,48.6z"/>
		<path d="M51.2,53.8V46H57v1.5h-4.2v1.6h3.7v1.5h-3.7v1.6h4.2v1.5H51.2z"/>
		<path d="M60,53.8V46h5.9v1.5h-4.2v1.6h3.7v1.5h-3.7v1.6h4.2v1.5H60z"/>
	</g>
</g>
</svg>
