<?xml version="1.0" encoding="utf-8"?>
<!-- Generator: Adobe Illustrator 22.0.0, SVG Export Plug-In . SVG Version: 6.00 Build 0)  -->
<svg version="1.1" id="Layer_1" xmlns="http://www.w3.org/2000/svg" xmlns:xlink="http://www.w3.org/1999/xlink" x="0px" y="0px"
	 viewBox="0 0 100 100" style="enable-background:new 0 0 100 100;" xml:space="preserve">
<style type="text/css">
	.st0{fill:none;stroke:#000000;stroke-width:2;stroke-miterlimit:10;}
	.st1{fill:none;}
	.st2{fill:none;stroke:#000000;stroke-width:2;stroke-linecap:round;stroke-miterlimit:10;stroke-dasharray:7;}
	.st3{fill:none;stroke:#000000;stroke-width:2;stroke-linecap:round;stroke-miterlimit:10;}
	.st4{fill:none;stroke:#000000;stroke-width:2;stroke-linecap:round;stroke-linejoin:round;stroke-miterlimit:10;}
	.st5{fill:none;stroke:#000000;stroke-width:2;stroke-linecap:square;stroke-miterlimit:10;}
	.st6{fill:none;stroke:#000000;stroke-width:2;stroke-miterlimit:10;stroke-dasharray:5.3638,5.3638;}
</style>
<g>
	<g>
		<path class="st0" d="M55.6,34.8L32.7,57.8L31,68.5c0,0,0,0.3-0.1,0.6c0.3,0,0.6-0.1,0.6-0.1l10.8-1.7l22.9-22.9"/>
		<path class="st0" d="M64.4,43.6l-8.1-8.1c-0.8-0.8-0.8-2,0-2.8l1.3-1.3c0.8-0.8,2-0.8,2.8,0l8.1,8.1c0.8,0.8,0.8,2,0,2.8l-1.3,1.3
			C66.5,44.4,65.2,44.4,64.4,43.6z"/>
		<line class="st0" x1="35.6" y1="54.8" x2="45.2" y2="64.4"/>
		<line class="st0" x1="60.4" y1="39.6" x2="40.4" y2="59.6"/>
	</g>
	<circle class="st0" cx="50" cy="50" r="36.2"/>
</g>
</svg>
