<?xml version="1.0" encoding="utf-8"?>
<!-- Generator: Adobe Illustrator 22.0.0, SVG Export Plug-In . SVG Version: 6.00 Build 0)  -->
<svg version="1.1" id="Layer_1" xmlns="http://www.w3.org/2000/svg" xmlns:xlink="http://www.w3.org/1999/xlink" x="0px" y="0px"
	 viewBox="0 0 100 100" style="enable-background:new 0 0 100 100;" xml:space="preserve">
<style type="text/css">
	.st0{fill:none;stroke:#000000;stroke-width:2;stroke-miterlimit:10;}
	.st1{fill:none;}
	.st2{fill:none;stroke:#000000;stroke-width:2;stroke-linecap:round;stroke-miterlimit:10;stroke-dasharray:7;}
	.st3{fill:none;stroke:#000000;stroke-width:2;stroke-linecap:round;stroke-miterlimit:10;}
	.st4{fill:none;stroke:#000000;stroke-width:2;stroke-linecap:round;stroke-linejoin:round;stroke-miterlimit:10;}
	.st5{fill:none;stroke:#000000;stroke-width:2;stroke-linecap:square;stroke-miterlimit:10;}
	.st6{fill:none;stroke:#000000;stroke-width:2;stroke-miterlimit:10;stroke-dasharray:5.3638,5.3638;}
</style>
<g>
	<path class="st0" d="M84.9,50c0,2.5-5.2,4.3-5.7,6.7c-0.5,2.4,3.3,6.3,2.3,8.5c-1.1,2.2-6.6,1.6-8.1,3.5c-1.5,1.9,0.3,7.1-1.6,8.6
		c-1.9,1.5-6.6-1.4-8.8-0.3c-2.2,1-2.8,6.5-5.2,7.1c-2.3,0.5-5.3-4.1-7.8-4.1c-2.5,0-5.4,4.6-7.8,4.1c-2.4-0.5-3.1-6-5.2-7.1
		c-2.2-1.1-6.9,1.8-8.8,0.3c-1.9-1.5-0.1-6.7-1.6-8.6c-1.5-1.9-7-1.3-8.1-3.5c-1-2.2,2.8-6.1,2.3-8.5c-0.5-2.3-5.7-4.2-5.7-6.7
		c0-2.5,5.2-4.3,5.7-6.7c0.5-2.4-3.3-6.3-2.3-8.5c1.1-2.2,6.6-1.6,8.1-3.5c1.5-1.9-0.3-7.1,1.6-8.6c1.9-1.5,6.6,1.4,8.8,0.3
		c2.2-1,2.8-6.5,5.2-7.1c2.3-0.5,5.3,4.1,7.8,4.1c2.5,0,5.4-4.6,7.8-4.1c2.4,0.5,3.1,6,5.2,7.1c2.2,1.1,6.9-1.8,8.8-0.3
		c1.9,1.5,0.1,6.7,1.6,8.6c1.5,1.9,7,1.3,8.1,3.5c1,2.2-2.8,6.1-2.3,8.5C79.7,45.7,84.9,47.5,84.9,50z"/>
	<circle class="st0" cx="50" cy="50" r="23.5"/>
	<g>
		<path d="M39.1,54.1L35,48.7v5.4h-1.8v-8.4h1.7l4,5.2v-5.2h1.8v8.4H39.1z"/>
		<path d="M44.2,54.1v-8.4h6.4v1.7h-4.5V49h4v1.7h-4v1.8h4.6v1.7H44.2z"/>
		<path d="M63.1,54.1h-1.6l-1.9-5.5l-1.9,5.5H56l-2.9-8.5h2l1.7,5.7l1.9-5.7h1.6l1.9,5.7l1.7-5.7H66L63.1,54.1z"/>
	</g>
</g>
</svg>
