<?xml version="1.0" encoding="utf-8"?>
<!-- Generator: Adobe Illustrator 22.0.0, SVG Export Plug-In . SVG Version: 6.00 Build 0)  -->
<svg version="1.1" id="Layer_1" xmlns="http://www.w3.org/2000/svg" xmlns:xlink="http://www.w3.org/1999/xlink" x="0px" y="0px"
	 viewBox="0 0 100 100" style="enable-background:new 0 0 100 100;" xml:space="preserve">
<style type="text/css">
	.st0{fill:none;stroke:#000000;stroke-width:2;stroke-miterlimit:10;}
	.st1{fill:none;}
	.st2{fill:none;stroke:#000000;stroke-width:2;stroke-linecap:round;stroke-miterlimit:10;stroke-dasharray:7;}
	.st3{fill:none;stroke:#000000;stroke-width:2;stroke-linecap:round;stroke-miterlimit:10;}
	.st4{fill:none;stroke:#000000;stroke-width:2;stroke-linecap:round;stroke-linejoin:round;stroke-miterlimit:10;}
	.st5{fill:none;stroke:#000000;stroke-width:2;stroke-linecap:square;stroke-miterlimit:10;}
	.st6{fill:none;stroke:#000000;stroke-width:2;stroke-miterlimit:10;stroke-dasharray:5.3638,5.3638;}
</style>
<g>
	<g>
		<path class="st0" d="M31.4,20.5v47.2l18.1,18.1c0,0,0.2,0.2,0.4,0.4c0.2-0.2,0.4-0.4,0.4-0.4l18.1-18.1V20.5
			c0-3.8-3.1-6.8-6.8-6.8H38.3C34.5,13.7,31.4,16.8,31.4,20.5z"/>
		<line class="st0" x1="31.4" y1="31.1" x2="68.6" y2="31.1"/>
		<line class="st0" x1="31.4" y1="67.7" x2="68.6" y2="67.7"/>
		<g>
			<line class="st0" x1="40.8" y1="31.1" x2="40.8" y2="67.7"/>
			<line class="st0" x1="50" y1="31.1" x2="50" y2="67.7"/>
			<line class="st0" x1="59.2" y1="31.1" x2="59.2" y2="67.7"/>
		</g>
	</g>
	<line class="st0" x1="31.4" y1="23.1" x2="68.6" y2="23.1"/>
	<line class="st0" x1="43.9" y1="80.2" x2="56.1" y2="80.2"/>
</g>
</svg>
