<?xml version="1.0" encoding="utf-8"?>
<!-- Generator: Adobe Illustrator 22.0.0, SVG Export Plug-In . SVG Version: 6.00 Build 0)  -->
<svg version="1.1" id="Layer_1" xmlns="http://www.w3.org/2000/svg" xmlns:xlink="http://www.w3.org/1999/xlink" x="0px" y="0px"
	 viewBox="0 0 100 100" style="enable-background:new 0 0 100 100;" xml:space="preserve">
<style type="text/css">
	.st0{fill:none;stroke:#000000;stroke-width:2;stroke-miterlimit:10;}
	.st1{fill:none;}
	.st2{fill:none;stroke:#000000;stroke-width:2;stroke-linecap:round;stroke-miterlimit:10;stroke-dasharray:7;}
	.st3{fill:none;stroke:#000000;stroke-width:2;stroke-linecap:round;stroke-miterlimit:10;}
	.st4{fill:none;stroke:#000000;stroke-width:2;stroke-linecap:round;stroke-linejoin:round;stroke-miterlimit:10;}
	.st5{fill:none;stroke:#000000;stroke-width:2;stroke-linecap:square;stroke-miterlimit:10;}
	.st6{fill:none;stroke:#000000;stroke-width:2;stroke-miterlimit:10;stroke-dasharray:5.3638,5.3638;}
</style>
<g>
	<line class="st0" x1="43.4" y1="50" x2="56.6" y2="50"/>
	<g>
		<path class="st0" d="M43.4,36.7v31.7l6.2,8.6c0,0,0.2,0.2,0.3,0.5c0.2-0.2,0.3-0.5,0.3-0.5l6.2-8.6V36.7"/>
		<line class="st0" x1="50" y1="36.7" x2="50" y2="64.3"/>
		<path class="st0" d="M55.4,31.6H44.6c-0.7,0-1.2-0.6-1.2-1.2v-6.7c0-0.7,0.6-1.2,1.2-1.2h10.7c0.7,0,1.2,0.6,1.2,1.2v6.7
			C56.6,31.1,56,31.6,55.4,31.6z"/>
	</g>
	<path class="st0" d="M72.4,85.6H27.6c-7.3,0-13.2-5.9-13.2-13.2V27.6c0-7.3,5.9-13.2,13.2-13.2h44.7c7.3,0,13.2,5.9,13.2,13.2v44.7
		C85.6,79.7,79.7,85.6,72.4,85.6z"/>
</g>
</svg>
