<?xml version="1.0" encoding="utf-8"?>
<!-- Generator: Adobe Illustrator 22.0.0, SVG Export Plug-In . SVG Version: 6.00 Build 0)  -->
<svg version="1.1" id="Layer_1" xmlns="http://www.w3.org/2000/svg" xmlns:xlink="http://www.w3.org/1999/xlink" x="0px" y="0px"
	 viewBox="0 0 100 100" style="enable-background:new 0 0 100 100;" xml:space="preserve">
<style type="text/css">
	.st0{fill:none;stroke:#000000;stroke-width:2;stroke-miterlimit:10;}
	.st1{fill:none;}
	.st2{fill:none;stroke:#000000;stroke-width:2;stroke-linecap:round;stroke-miterlimit:10;stroke-dasharray:7;}
	.st3{fill:none;stroke:#000000;stroke-width:2;stroke-linecap:round;stroke-miterlimit:10;}
	.st4{fill:none;stroke:#000000;stroke-width:2;stroke-linecap:round;stroke-linejoin:round;stroke-miterlimit:10;}
	.st5{fill:none;stroke:#000000;stroke-width:2;stroke-linecap:square;stroke-miterlimit:10;}
	.st6{fill:none;stroke:#000000;stroke-width:2;stroke-miterlimit:10;stroke-dasharray:5.3638,5.3638;}
</style>
<g>
	<g>
		<path class="st0" d="M73.4,59.3L59.3,73.4c0,0-0.1,0-0.1,0L22,36.2C18,32.2,18,25.9,22,22l0,0c3.9-3.9,10.3-3.9,14.2,0L73.4,59.3
			C73.4,59.2,73.4,59.3,73.4,59.3z"/>
		<line class="st0" x1="23.6" y1="37.8" x2="37.8" y2="23.6"/>
		<line class="st0" x1="27.8" y1="42" x2="42" y2="27.8"/>
		<polyline class="st0" points="59.2,73.4 81,81 73.4,59.2 		"/>
		<line class="st0" x1="34.9" y1="34.9" x2="66.3" y2="66.3"/>
	</g>
	<g>
		<path class="st0" d="M64.2,50l3.2-3.2l6-6l7.3-7.3l4.9-4.9c0.5-0.5,0.5-1.3,0-1.8L73.3,14.3c-0.5-0.5-1.3-0.5-1.8,0L50,35.8"/>
		<path class="st0" d="M50,64.2l-3.2,3.2l-6,6l-7.3,7.3l-4.9,4.9c-0.5,0.5-1.3,0.5-1.8,0L14.3,73.3c-0.5-0.5-0.5-1.3,0-1.8L35.8,50"
			/>
		<g>
			<g>
				<line class="st0" x1="33.4" y1="80.8" x2="26.3" y2="73.7"/>
				<line class="st0" x1="40.8" y1="73.4" x2="37.2" y2="69.9"/>
			</g>
			<g>
				<line class="st0" x1="46.8" y1="67.4" x2="39.7" y2="60.3"/>
			</g>
			<g>
				<line class="st0" x1="67.4" y1="46.8" x2="63.9" y2="43.2"/>
			</g>
			<g>
				<line class="st0" x1="73.4" y1="40.8" x2="66.3" y2="33.7"/>
				<line class="st0" x1="80.8" y1="33.4" x2="77.2" y2="29.9"/>
			</g>
		</g>
	</g>
</g>
</svg>
