<?xml version="1.0" encoding="utf-8"?>
<!-- Generator: Adobe Illustrator 22.0.0, SVG Export Plug-In . SVG Version: 6.00 Build 0)  -->
<svg version="1.1" id="Layer_1" xmlns="http://www.w3.org/2000/svg" xmlns:xlink="http://www.w3.org/1999/xlink" x="0px" y="0px"
	 viewBox="0 0 100 100" style="enable-background:new 0 0 100 100;" xml:space="preserve">
<style type="text/css">
	.st0{fill:none;stroke:#000000;stroke-width:2;stroke-miterlimit:10;}
	.st1{fill:none;}
	.st2{fill:none;stroke:#000000;stroke-width:2;stroke-linecap:round;stroke-miterlimit:10;stroke-dasharray:7;}
	.st3{fill:none;stroke:#000000;stroke-width:2;stroke-linecap:round;stroke-miterlimit:10;}
	.st4{fill:none;stroke:#000000;stroke-width:2;stroke-linecap:round;stroke-linejoin:round;stroke-miterlimit:10;}
	.st5{fill:none;stroke:#000000;stroke-width:2;stroke-linecap:square;stroke-miterlimit:10;}
	.st6{fill:none;stroke:#000000;stroke-width:2;stroke-miterlimit:10;stroke-dasharray:5.3638,5.3638;}
</style>
<g>
	<circle class="st0" cx="50" cy="50" r="36.1"/>
	<g>
		<path class="st0" d="M29.6,43.9C35.2,38.4,42.3,35,50,35c7.7,0,14.8,3.3,20.4,8.9"/>
		<path class="st0" d="M41.5,55.9c2.6-2.6,5.5-4,8.5-4c2.9,0,5.9,1.4,8.5,4"/>
		<path class="st0" d="M41.5,55.9c2.6-2.6,5.5-4,8.5-4c2.9,0,5.9,1.4,8.5,4"/>
		<path class="st0" d="M35.5,49.9c4.2-4.2,9.2-6.4,14.5-6.4c5.2,0,10.3,2.3,14.5,6.4"/>
		<circle class="st0" cx="50" cy="61.3" r="3.7"/>
	</g>
</g>
</svg>
