<?xml version="1.0" encoding="utf-8"?>
<!-- Generator: Adobe Illustrator 22.0.0, SVG Export Plug-In . SVG Version: 6.00 Build 0)  -->
<svg version="1.1" id="Layer_1" xmlns="http://www.w3.org/2000/svg" xmlns:xlink="http://www.w3.org/1999/xlink" x="0px" y="0px"
	 viewBox="0 0 100 100" style="enable-background:new 0 0 100 100;" xml:space="preserve">
<style type="text/css">
	.st0{fill:none;stroke:#000000;stroke-width:2;stroke-miterlimit:10;}
	.st1{fill:none;}
	.st2{fill:none;stroke:#000000;stroke-width:2;stroke-linecap:round;stroke-miterlimit:10;stroke-dasharray:7;}
	.st3{fill:none;stroke:#000000;stroke-width:2;stroke-linecap:round;stroke-miterlimit:10;}
	.st4{fill:none;stroke:#000000;stroke-width:2;stroke-linecap:round;stroke-linejoin:round;stroke-miterlimit:10;}
	.st5{fill:none;stroke:#000000;stroke-width:2;stroke-linecap:square;stroke-miterlimit:10;}
	.st6{fill:none;stroke:#000000;stroke-width:2;stroke-miterlimit:10;stroke-dasharray:5.3638,5.3638;}
</style>
<g>
	<path class="st0" d="M49.9,43l-6.2,3.2c-0.1,0.1-0.3,0-0.3-0.2l1.2-6.9c0-0.1,0-0.1-0.1-0.2l-5-4.9c-0.1-0.1-0.1-0.3,0.1-0.3l6.9-1
		c0.1,0,0.1,0,0.1-0.1l3.1-6.2c0.1-0.1,0.3-0.1,0.3,0l3.1,6.2c0,0.1,0.1,0.1,0.1,0.1l6.9,1c0.2,0,0.2,0.2,0.1,0.3l-5,4.9
		c0,0-0.1,0.1-0.1,0.2l1.2,6.9c0,0.2-0.1,0.3-0.3,0.2L50.1,43C50,43,50,43,49.9,43z"/>
	<path class="st0" d="M50,60.1L50,60.1c-11,0-20-9-20-20V18.7c0-2.3,1.9-4.1,4.1-4.1h31.7c2.3,0,4.1,1.9,4.1,4.1v21.3
		C70,51.1,61,60.1,50,60.1z"/>
	<g>
		<line class="st0" x1="42.5" y1="73.3" x2="42.5" y2="58.6"/>
		<line class="st0" x1="57.5" y1="73.3" x2="57.5" y2="58.6"/>
	</g>
	<path class="st0" d="M64.8,85.4H35.2c-2.3,0-4.1-1.9-4.1-4.1v-3.8c0-2.3,1.9-4.1,4.1-4.1h29.7c2.3,0,4.1,1.9,4.1,4.1v3.8
		C69,83.6,67.1,85.4,64.8,85.4z"/>
	<g>
		<path class="st0" d="M30.1,41.8c-8.2-1.4-14.5-8.5-14.5-17.1v-2.5c0-0.9,0.7-1.6,1.6-1.6H30"/>
		<path class="st0" d="M70,20.5h12.8c0.9,0,1.6,0.7,1.6,1.6v2.5c0,8.6-6.3,15.8-14.5,17.1"/>
	</g>
</g>
</svg>
