<?xml version="1.0" encoding="utf-8"?>
<!-- Generator: Adobe Illustrator 22.0.0, SVG Export Plug-In . SVG Version: 6.00 Build 0)  -->
<svg version="1.1" id="Layer_1" xmlns="http://www.w3.org/2000/svg" xmlns:xlink="http://www.w3.org/1999/xlink" x="0px" y="0px"
	 viewBox="0 0 100 100" style="enable-background:new 0 0 100 100;" xml:space="preserve">
<style type="text/css">
	.st0{fill:none;stroke:#000000;stroke-width:2;stroke-miterlimit:10;}
	.st1{fill:none;}
	.st2{fill:none;stroke:#000000;stroke-width:2;stroke-linecap:round;stroke-miterlimit:10;stroke-dasharray:7;}
	.st3{fill:none;stroke:#000000;stroke-width:2;stroke-linecap:round;stroke-miterlimit:10;}
	.st4{fill:none;stroke:#000000;stroke-width:2;stroke-linecap:round;stroke-linejoin:round;stroke-miterlimit:10;}
	.st5{fill:none;stroke:#000000;stroke-width:2;stroke-linecap:square;stroke-miterlimit:10;}
	.st6{fill:none;stroke:#000000;stroke-width:2;stroke-miterlimit:10;stroke-dasharray:5.3638,5.3638;}
</style>
<g>
	<g>
		<path class="st0" d="M50,56.6L50,56.6c-6.2,0-11.2-5-11.2-11.2v-12c0-1.3,1-2.3,2.3-2.3h17.8c1.3,0,2.3,1,2.3,2.3v12
			C61.2,51.6,56.2,56.6,50,56.6z"/>
		<g>
			<line class="st0" x1="45.8" y1="64" x2="45.8" y2="55.8"/>
			<line class="st0" x1="54.2" y1="64" x2="54.2" y2="55.8"/>
		</g>
		<path class="st0" d="M58.3,70.8H41.7c-1.3,0-2.3-1-2.3-2.3v-2.1c0-1.3,1-2.3,2.3-2.3h16.6c1.3,0,2.3,1,2.3,2.3v2.1
			C60.6,69.8,59.6,70.8,58.3,70.8z"/>
		<g>
			<path class="st0" d="M38.8,46.4c-4.6-0.8-8.1-4.8-8.1-9.6v-1.4c0-0.5,0.4-0.9,0.9-0.9h7.2"/>
			<path class="st0" d="M61.2,34.5h7.2c0.5,0,0.9,0.4,0.9,0.9v1.4c0,4.8-3.5,8.8-8.1,9.6"/>
		</g>
	</g>
	<circle class="st0" cx="50" cy="50" r="36"/>
</g>
</svg>
