<?xml version="1.0" encoding="utf-8"?>
<!-- Generator: Adobe Illustrator 22.0.0, SVG Export Plug-In . SVG Version: 6.00 Build 0)  -->
<svg version="1.1" id="Layer_1" xmlns="http://www.w3.org/2000/svg" xmlns:xlink="http://www.w3.org/1999/xlink" x="0px" y="0px"
	 viewBox="0 0 100 100" style="enable-background:new 0 0 100 100;" xml:space="preserve">
<style type="text/css">
	.st0{fill:none;stroke:#000000;stroke-width:2;stroke-miterlimit:10;}
	.st1{fill:none;}
	.st2{fill:none;stroke:#000000;stroke-width:2;stroke-linecap:round;stroke-miterlimit:10;stroke-dasharray:7;}
	.st3{fill:none;stroke:#000000;stroke-width:2;stroke-linecap:round;stroke-miterlimit:10;}
	.st4{fill:none;stroke:#000000;stroke-width:2;stroke-linecap:round;stroke-linejoin:round;stroke-miterlimit:10;}
	.st5{fill:none;stroke:#000000;stroke-width:2;stroke-linecap:square;stroke-miterlimit:10;}
	.st6{fill:none;stroke:#000000;stroke-width:2;stroke-miterlimit:10;stroke-dasharray:5.3638,5.3638;}
</style>
<g>
	<g>
		<path class="st0" d="M24.9,25.1c6.9-6.9,15.6-11,25.1-11c9.5,0,18.2,4.1,25.1,11"/>
		<path class="st0" d="M39.6,39.8c3.2-3.2,6.8-4.9,10.4-4.9c3.6,0,7.2,1.7,10.4,4.9"/>
		<path class="st0" d="M39.6,39.8c3.2-3.2,6.8-4.9,10.4-4.9c3.6,0,7.2,1.7,10.4,4.9"/>
		<path class="st0" d="M32.2,32.4c5.2-5.1,11.3-7.9,17.8-7.9c6.4,0,12.6,2.8,17.8,7.9"/>
		<circle class="st0" cx="50" cy="46.4" r="4.5"/>
	</g>
	<polyline class="st0" points="52.1,50.4 68.6,85.9 31.4,85.9 47.9,50.4 	"/>
	<line class="st0" x1="15" y1="85.9" x2="85" y2="85.9"/>
</g>
</svg>
