<?xml version="1.0" encoding="utf-8"?>
<!-- Generator: Adobe Illustrator 22.0.0, SVG Export Plug-In . SVG Version: 6.00 Build 0)  -->
<svg version="1.1" id="Layer_1" xmlns="http://www.w3.org/2000/svg" xmlns:xlink="http://www.w3.org/1999/xlink" x="0px" y="0px"
	 viewBox="0 0 100 100" style="enable-background:new 0 0 100 100;" xml:space="preserve">
<style type="text/css">
	.st0{fill:none;stroke:#000000;stroke-width:2;stroke-miterlimit:10;}
	.st1{fill:none;}
	.st2{fill:none;stroke:#000000;stroke-width:2;stroke-linecap:round;stroke-miterlimit:10;stroke-dasharray:7;}
	.st3{fill:none;stroke:#000000;stroke-width:2;stroke-linecap:round;stroke-miterlimit:10;}
	.st4{fill:none;stroke:#000000;stroke-width:2;stroke-linecap:round;stroke-linejoin:round;stroke-miterlimit:10;}
	.st5{fill:none;stroke:#000000;stroke-width:2;stroke-linecap:square;stroke-miterlimit:10;}
	.st6{fill:none;stroke:#000000;stroke-width:2;stroke-miterlimit:10;stroke-dasharray:5.3638,5.3638;}
</style>
<g>
	<path class="st0" d="M14.2,39.4C24,29.6,36.5,23.7,50,23.7c13.5,0,26,5.9,35.8,15.6"/>
	<path class="st0" d="M35.2,60.4c4.5-4.5,9.7-7,14.8-7c5.1,0,10.3,2.4,14.8,7"/>
	<path class="st0" d="M35.2,60.4c4.5-4.5,9.7-7,14.8-7c5.1,0,10.3,2.4,14.8,7"/>
	<path class="st0" d="M24.7,49.9C32,42.5,40.8,38.6,50,38.6c9.2,0,18,4,25.3,11.3"/>
	<circle class="st0" cx="50" cy="69.8" r="6.4"/>
</g>
</svg>
