<?xml version="1.0" encoding="utf-8"?>
<!-- Generator: Adobe Illustrator 22.0.0, SVG Export Plug-In . SVG Version: 6.00 Build 0)  -->
<svg version="1.1" id="Layer_1" xmlns="http://www.w3.org/2000/svg" xmlns:xlink="http://www.w3.org/1999/xlink" x="0px" y="0px"
	 viewBox="0 0 100 100" style="enable-background:new 0 0 100 100;" xml:space="preserve">
<style type="text/css">
	.st0{fill:none;stroke:#000000;stroke-width:2;stroke-miterlimit:10;}
	.st1{fill:none;}
	.st2{fill:none;stroke:#000000;stroke-width:2;stroke-linecap:round;stroke-miterlimit:10;stroke-dasharray:7;}
	.st3{fill:none;stroke:#000000;stroke-width:2;stroke-linecap:round;stroke-miterlimit:10;}
	.st4{fill:none;stroke:#000000;stroke-width:2;stroke-linecap:round;stroke-linejoin:round;stroke-miterlimit:10;}
	.st5{fill:none;stroke:#000000;stroke-width:2;stroke-linecap:square;stroke-miterlimit:10;}
	.st6{fill:none;stroke:#000000;stroke-width:2;stroke-miterlimit:10;stroke-dasharray:5.3638,5.3638;}
</style>
<g>
	<g>
		<path class="st0" d="M47.4,65.5c-11.1-4.9-13.7-30.6-14.2-39.8c-0.1-1.8,1.3-3.3,3.1-3.3h27.5c1.8,0,3.2,1.5,3.1,3.3
			c-0.6,9.2-3.1,34.9-14.2,39.8"/>
	</g>
	<polyline class="st0" points="52.6,76 52.6,65.5 47.4,65.5 47.4,76 	"/>
	<path class="st0" d="M59.6,84.7H40.4c-0.9,0-1.7-0.7-1.7-1.7v-5.3c0-0.9,0.7-1.7,1.7-1.7h19.1c0.9,0,1.7,0.7,1.7,1.7V83
		C61.2,83.9,60.5,84.7,59.6,84.7z"/>
	<path class="st0" d="M63.7,18.8H36.3c-0.9,0-1.7-0.8-1.7-1.7v0c0-0.9,0.8-1.7,1.7-1.7h27.4c0.9,0,1.7,0.8,1.7,1.7v0
		C65.4,18,64.6,18.8,63.7,18.8z"/>
	<g>
		<path class="st0" d="M33.1,28.4h-5.9c-2.5,0-4,2.8-2.6,4.9l14.2,21.4"/>
		<path class="st0" d="M66.9,28.4h5.9c2.5,0,4,2.8,2.6,4.9L61.2,54.7"/>
	</g>
</g>
</svg>
