<?xml version="1.0" encoding="utf-8"?>
<!-- Generator: Adobe Illustrator 22.0.0, SVG Export Plug-In . SVG Version: 6.00 Build 0)  -->
<svg version="1.1" id="Layer_1" xmlns="http://www.w3.org/2000/svg" xmlns:xlink="http://www.w3.org/1999/xlink" x="0px" y="0px"
	 viewBox="0 0 100 100" style="enable-background:new 0 0 100 100;" xml:space="preserve">
<style type="text/css">
	.st0{fill:none;stroke:#000000;stroke-width:2;stroke-miterlimit:10;}
	.st1{fill:none;}
	.st2{fill:none;stroke:#000000;stroke-width:2;stroke-linecap:round;stroke-miterlimit:10;stroke-dasharray:7;}
	.st3{fill:none;stroke:#000000;stroke-width:2;stroke-linecap:round;stroke-miterlimit:10;}
	.st4{fill:none;stroke:#000000;stroke-width:2;stroke-linecap:round;stroke-linejoin:round;stroke-miterlimit:10;}
	.st5{fill:none;stroke:#000000;stroke-width:2;stroke-linecap:square;stroke-miterlimit:10;}
	.st6{fill:none;stroke:#000000;stroke-width:2;stroke-miterlimit:10;stroke-dasharray:5.3638,5.3638;}
</style>
<g>
	<g>
		<circle class="st0" cx="50" cy="50" r="8.1"/>
		<path class="st0" d="M45.9,50c0-2.3,1.8-4.1,4.1-4.1"/>
		<line class="st0" x1="50" y1="37.2" x2="50" y2="25.8"/>
		<line class="st0" x1="29" y1="37.9" x2="38.9" y2="43.6"/>
		<line class="st0" x1="29" y1="62.1" x2="38.9" y2="56.4"/>
		<line class="st0" x1="50" y1="74.2" x2="50" y2="62.8"/>
		<line class="st0" x1="71" y1="62.1" x2="61.1" y2="56.4"/>
		<line class="st0" x1="71" y1="37.9" x2="61.1" y2="43.6"/>
		<line class="st0" x1="40.7" y1="34" x2="43.6" y2="38.9"/>
		<line class="st0" x1="31.5" y1="50" x2="37.2" y2="50"/>
		<line class="st0" x1="40.7" y1="66" x2="43.6" y2="61.1"/>
		<line class="st0" x1="59.3" y1="66" x2="56.4" y2="61.1"/>
		<line class="st0" x1="68.5" y1="50" x2="62.8" y2="50"/>
		<line class="st0" x1="59.3" y1="34" x2="56.4" y2="38.9"/>
	</g>
	<circle class="st0" cx="50" cy="50" r="36"/>
</g>
</svg>
