<?xml version="1.0" encoding="utf-8"?>
<!-- Generator: Adobe Illustrator 22.0.0, SVG Export Plug-In . SVG Version: 6.00 Build 0)  -->
<svg version="1.1" id="Layer_1" xmlns="http://www.w3.org/2000/svg" xmlns:xlink="http://www.w3.org/1999/xlink" x="0px" y="0px"
	 viewBox="0 0 100 100" style="enable-background:new 0 0 100 100;" xml:space="preserve">
<style type="text/css">
	.st0{fill:none;stroke:#000000;stroke-width:2;stroke-miterlimit:10;}
	.st1{fill:none;}
	.st2{fill:none;stroke:#000000;stroke-width:2;stroke-linecap:round;stroke-miterlimit:10;stroke-dasharray:7;}
	.st3{fill:none;stroke:#000000;stroke-width:2;stroke-linecap:round;stroke-miterlimit:10;}
	.st4{fill:none;stroke:#000000;stroke-width:2;stroke-linecap:round;stroke-linejoin:round;stroke-miterlimit:10;}
	.st5{fill:none;stroke:#000000;stroke-width:2;stroke-linecap:square;stroke-miterlimit:10;}
	.st6{fill:none;stroke:#000000;stroke-width:2;stroke-miterlimit:10;stroke-dasharray:5.3638,5.3638;}
</style>
<g>
	<path class="st0" d="M86.5,50c0,2.6-5.4,4.5-6,7c-0.6,2.5,3.5,6.6,2.4,8.9c-1.1,2.3-6.9,1.7-8.4,3.7c-1.6,2,0.3,7.5-1.7,9
		c-2,1.6-6.9-1.5-9.2-0.3c-2.3,1.1-3,6.8-5.5,7.4c-2.4,0.6-5.5-4.3-8.1-4.3c-2.6,0-5.7,4.9-8.1,4.3c-2.5-0.6-3.2-6.3-5.5-7.4
		c-2.3-1.1-7.2,1.9-9.2,0.3c-2-1.6-0.1-7.1-1.7-9c-1.6-2-7.3-1.4-8.4-3.7c-1.1-2.3,3-6.4,2.4-8.9c-0.6-2.4-6-4.4-6-7
		c0-2.6,5.4-4.5,6-7c0.6-2.5-3.5-6.6-2.4-8.9c1.1-2.3,6.9-1.7,8.4-3.7c1.6-2-0.3-7.5,1.7-9c2-1.6,6.9,1.5,9.2,0.3
		c2.3-1.1,3-6.8,5.5-7.4c2.4-0.6,5.5,4.3,8.1,4.3c2.6,0,5.7-4.9,8.1-4.3c2.5,0.6,3.2,6.3,5.5,7.4c2.3,1.1,7.2-1.9,9.2-0.3
		c2,1.6,0.1,7.1,1.7,9c1.6,2,7.3,1.4,8.4,3.7c1.1,2.3-3,6.4-2.4,8.9C81.1,45.5,86.5,47.4,86.5,50z"/>
	<circle class="st0" cx="50" cy="50" r="21.4"/>
</g>
</svg>
