<?xml version="1.0" encoding="utf-8"?>
<!-- Generator: Adobe Illustrator 22.0.0, SVG Export Plug-In . SVG Version: 6.00 Build 0)  -->
<svg version="1.1" id="Layer_1" xmlns="http://www.w3.org/2000/svg" xmlns:xlink="http://www.w3.org/1999/xlink" x="0px" y="0px"
	 viewBox="0 0 100 100" style="enable-background:new 0 0 100 100;" xml:space="preserve">
<style type="text/css">
	.st0{fill:none;stroke:#000000;stroke-width:2;stroke-miterlimit:10;}
	.st1{fill:none;}
	.st2{fill:none;stroke:#000000;stroke-width:2;stroke-linecap:round;stroke-miterlimit:10;stroke-dasharray:7;}
	.st3{fill:none;stroke:#000000;stroke-width:2;stroke-linecap:round;stroke-miterlimit:10;}
	.st4{fill:none;stroke:#000000;stroke-width:2;stroke-linecap:round;stroke-linejoin:round;stroke-miterlimit:10;}
	.st5{fill:none;stroke:#000000;stroke-width:2;stroke-linecap:square;stroke-miterlimit:10;}
	.st6{fill:none;stroke:#000000;stroke-width:2;stroke-miterlimit:10;stroke-dasharray:5.3638,5.3638;}
</style>
<g>
	<polygon class="st0" points="54,32.5 49.2,35 50.1,29.7 46.3,25.9 51.6,25.2 54,20.3 56.3,25.2 61.7,25.9 57.8,29.7 58.7,35 	"/>
	<polygon class="st0" points="66.5,47.3 63.5,48.9 64.1,45.5 61.6,43.1 65,42.6 66.5,39.5 68.1,42.6 71.5,43.1 69,45.5 69.6,48.9 	
		"/>
	<path class="st0" d="M85.5,64.1c-6,12.5-18.8,21.1-33.6,21.1c-20.6,0-37.4-16.7-37.4-37.4c0-14.4,8.1-26.8,20-33.1
		c-2.4,4.9-3.7,10.4-3.7,16.3c0,20.6,16.7,37.4,37.4,37.4C74.4,68.4,80.3,66.8,85.5,64.1z"/>
</g>
</svg>
