<?xml version="1.0" encoding="utf-8"?>
<!-- Generator: Adobe Illustrator 22.0.0, SVG Export Plug-In . SVG Version: 6.00 Build 0)  -->
<svg version="1.1" id="Layer_1" xmlns="http://www.w3.org/2000/svg" xmlns:xlink="http://www.w3.org/1999/xlink" x="0px" y="0px"
	 viewBox="0 0 100 100" style="enable-background:new 0 0 100 100;" xml:space="preserve">
<style type="text/css">
	.st0{fill:none;stroke:#000000;stroke-width:2;stroke-miterlimit:10;}
	.st1{fill:none;}
	.st2{fill:none;stroke:#000000;stroke-width:2;stroke-linecap:round;stroke-miterlimit:10;stroke-dasharray:7;}
	.st3{fill:none;stroke:#000000;stroke-width:2;stroke-linecap:round;stroke-miterlimit:10;}
	.st4{fill:none;stroke:#000000;stroke-width:2;stroke-linecap:round;stroke-linejoin:round;stroke-miterlimit:10;}
	.st5{fill:none;stroke:#000000;stroke-width:2;stroke-linecap:square;stroke-miterlimit:10;}
	.st6{fill:none;stroke:#000000;stroke-width:2;stroke-miterlimit:10;stroke-dasharray:5.3638,5.3638;}
</style>
<g>
	<path class="st0" d="M75.1,38.1c0,2.4-6.2,3.7-6.9,5.9c-0.7,2.2,3.5,7,2.1,8.8c-1.4,1.9-7.2-0.7-9.1,0.7c-1.9,1.3-1.2,7.7-3.5,8.4
		c-2.1,0.7-5.4-4.8-7.7-4.8c-2.4,0-5.6,5.5-7.7,4.8c-2.2-0.7-1.6-7.1-3.5-8.4c-1.9-1.4-7.7,1.2-9.1-0.7c-1.3-1.9,2.9-6.6,2.1-8.8
		c-0.7-2.1-6.9-3.5-6.9-5.9c0-2.4,6.2-3.7,6.9-5.9c0.7-2.2-3.5-7-2.1-8.8c1.4-1.9,7.2,0.7,9.1-0.7c1.9-1.3,1.2-7.7,3.5-8.4
		c2.1-0.7,5.4,4.8,7.7,4.8c2.4,0,5.6-5.5,7.7-4.8c2.2,0.7,1.6,7.1,3.5,8.4c1.9,1.4,7.7-1.2,9.1,0.7c1.3,1.9-2.9,6.6-2.1,8.8
		C68.8,34.3,75.1,35.7,75.1,38.1z"/>
	<g>
		<g>
			<polyline class="st0" points="34.7,53.3 22.6,81.7 34.4,77 37.9,85.8 50,57.4 			"/>
		</g>
		<g>
			<polyline class="st0" points="65.3,53.3 77.4,81.7 65.6,77 62.1,85.8 50,57.4 			"/>
		</g>
	</g>
</g>
</svg>
