<?xml version="1.0" encoding="utf-8"?>
<!-- Generator: Adobe Illustrator 22.0.0, SVG Export Plug-In . SVG Version: 6.00 Build 0)  -->
<svg version="1.1" id="Layer_1" xmlns="http://www.w3.org/2000/svg" xmlns:xlink="http://www.w3.org/1999/xlink" x="0px" y="0px"
	 viewBox="0 0 100 100" style="enable-background:new 0 0 100 100;" xml:space="preserve">
<style type="text/css">
	.st0{fill:none;stroke:#000000;stroke-width:2;stroke-miterlimit:10;}
	.st1{fill:none;}
	.st2{fill:none;stroke:#000000;stroke-width:2;stroke-linecap:round;stroke-miterlimit:10;stroke-dasharray:7;}
	.st3{fill:none;stroke:#000000;stroke-width:2;stroke-linecap:round;stroke-miterlimit:10;}
	.st4{fill:none;stroke:#000000;stroke-width:2;stroke-linecap:round;stroke-linejoin:round;stroke-miterlimit:10;}
	.st5{fill:none;stroke:#000000;stroke-width:2;stroke-linecap:square;stroke-miterlimit:10;}
	.st6{fill:none;stroke:#000000;stroke-width:2;stroke-miterlimit:10;stroke-dasharray:5.3638,5.3638;}
</style>
<g>
	<path class="st0" d="M24.6,56.7l-6.2,3.2c-0.1,0.1-0.3,0-0.3-0.2l1.2-6.9c0-0.1,0-0.1-0.1-0.2l-5-4.9c-0.1-0.1-0.1-0.3,0.1-0.3
		l6.9-1c0.1,0,0.1,0,0.1-0.1l3.1-6.2c0.1-0.1,0.3-0.1,0.3,0l3.1,6.2c0,0.1,0.1,0.1,0.1,0.1l6.9,1c0.2,0,0.2,0.2,0.1,0.3l-5,4.9
		c0,0-0.1,0.1-0.1,0.2l1.2,6.9c0,0.2-0.1,0.3-0.3,0.2l-6.2-3.2C24.7,56.7,24.7,56.7,24.6,56.7z"/>
	<path class="st0" d="M49.9,56.7l-6.2,3.2c-0.1,0.1-0.3,0-0.3-0.2l1.2-6.9c0-0.1,0-0.1-0.1-0.2l-5-4.9c-0.1-0.1-0.1-0.3,0.1-0.3
		l6.9-1c0.1,0,0.1,0,0.1-0.1l3.1-6.2c0.1-0.1,0.3-0.1,0.3,0l3.1,6.2c0,0.1,0.1,0.1,0.1,0.1l6.9,1c0.2,0,0.2,0.2,0.1,0.3l-5,4.9
		c0,0-0.1,0.1-0.1,0.2l1.2,6.9c0,0.2-0.1,0.3-0.3,0.2l-6.2-3.2C50,56.7,50,56.7,49.9,56.7z"/>
	<path class="st0" d="M75.2,56.7l-6.2,3.2c-0.1,0.1-0.3,0-0.3-0.2l1.2-6.9c0-0.1,0-0.1-0.1-0.2l-5-4.9c-0.1-0.1-0.1-0.3,0.1-0.3
		l6.9-1c0.1,0,0.1,0,0.1-0.1l3.1-6.2c0.1-0.1,0.3-0.1,0.3,0l3.1,6.2c0,0.1,0.1,0.1,0.1,0.1l6.9,1c0.2,0,0.2,0.2,0.1,0.3l-5,4.9
		c0,0-0.1,0.1-0.1,0.2l1.2,6.9c0,0.2-0.1,0.3-0.3,0.2l-6.2-3.2C75.3,56.7,75.3,56.7,75.2,56.7z"/>
</g>
</svg>
