<?xml version="1.0" encoding="utf-8"?>
<!-- Generator: Adobe Illustrator 22.0.0, SVG Export Plug-In . SVG Version: 6.00 Build 0)  -->
<svg version="1.1" id="Layer_1" xmlns="http://www.w3.org/2000/svg" xmlns:xlink="http://www.w3.org/1999/xlink" x="0px" y="0px"
	 viewBox="0 0 100 100" style="enable-background:new 0 0 100 100;" xml:space="preserve">
<style type="text/css">
	.st0{fill:none;stroke:#000000;stroke-width:2;stroke-miterlimit:10;}
	.st1{fill:none;}
	.st2{fill:none;stroke:#000000;stroke-width:2;stroke-linecap:round;stroke-miterlimit:10;stroke-dasharray:7;}
	.st3{fill:none;stroke:#000000;stroke-width:2;stroke-linecap:round;stroke-miterlimit:10;}
	.st4{fill:none;stroke:#000000;stroke-width:2;stroke-linecap:round;stroke-linejoin:round;stroke-miterlimit:10;}
	.st5{fill:none;stroke:#000000;stroke-width:2;stroke-linecap:square;stroke-miterlimit:10;}
	.st6{fill:none;stroke:#000000;stroke-width:2;stroke-miterlimit:10;stroke-dasharray:5.3638,5.3638;}
</style>
<g>
	<circle class="st0" cx="50" cy="50" r="35.9"/>
	<g>
		<path class="st0" d="M42.4,45.6l16.2-8.8c1.2-0.6,2.6,0.2,2.6,1.6v4.1"/>
		<path class="st0" d="M61.3,47.3v14.1c0,1.4-1.4,2.2-2.6,1.6l-8.8-4.8"/>
		<polyline class="st0" points="46.7,56.5 43.5,54.8 42.4,54.2 		"/>
		<path class="st0" d="M40.1,56h-5.2c-1.3,0-2.3-1-2.3-2.3v-7.5c0-1.3,1-2.3,2.3-2.3h5.2c1.3,0,2.3,1,2.3,2.3v7.5
			C42.4,55,41.4,56,40.1,56z"/>
		<polyline class="st0" points="37.5,65.4 46.7,56.5 61.3,42.5 67.5,36.6 		"/>
	</g>
</g>
</svg>
