<?xml version="1.0" encoding="utf-8"?>
<!-- Generator: Adobe Illustrator 22.0.0, SVG Export Plug-In . SVG Version: 6.00 Build 0)  -->
<svg version="1.1" id="Layer_1" xmlns="http://www.w3.org/2000/svg" xmlns:xlink="http://www.w3.org/1999/xlink" x="0px" y="0px"
	 viewBox="0 0 100 100" style="enable-background:new 0 0 100 100;" xml:space="preserve">
<style type="text/css">
	.st0{fill:none;stroke:#000000;stroke-width:2;stroke-miterlimit:10;}
	.st1{fill:none;}
	.st2{fill:none;stroke:#000000;stroke-width:2;stroke-linecap:round;stroke-miterlimit:10;stroke-dasharray:7;}
	.st3{fill:none;stroke:#000000;stroke-width:2;stroke-linecap:round;stroke-miterlimit:10;}
	.st4{fill:none;stroke:#000000;stroke-width:2;stroke-linecap:round;stroke-linejoin:round;stroke-miterlimit:10;}
	.st5{fill:none;stroke:#000000;stroke-width:2;stroke-linecap:square;stroke-miterlimit:10;}
	.st6{fill:none;stroke:#000000;stroke-width:2;stroke-miterlimit:10;stroke-dasharray:5.3638,5.3638;}
</style>
<g>
	<circle class="st0" cx="50" cy="50" r="35.9"/>
	<g>
		<path class="st0" d="M34.8,41v-3.7c0-0.5,0.5-0.8,1-0.6L57,48.9c0.8,0.5,0.8,1.6,0,2.1L35.8,63.3c-0.4,0.2-1-0.1-1-0.6V59V41z"/>
		<path class="st0" d="M61.4,63.4L61.4,63.4c2.1,0,3.8-1.7,3.8-3.8V40.4c0-2.1-1.7-3.8-3.8-3.8h0c-2.1,0-3.8,1.7-3.8,3.8v19.3
			C57.6,61.7,59.3,63.4,61.4,63.4z"/>
	</g>
</g>
</svg>
