<?xml version="1.0" encoding="utf-8"?>
<!-- Generator: Adobe Illustrator 22.0.0, SVG Export Plug-In . SVG Version: 6.00 Build 0)  -->
<svg version="1.1" id="Layer_1" xmlns="http://www.w3.org/2000/svg" xmlns:xlink="http://www.w3.org/1999/xlink" x="0px" y="0px"
	 viewBox="0 0 100 100" style="enable-background:new 0 0 100 100;" xml:space="preserve">
<style type="text/css">
	.st0{fill:none;stroke:#000000;stroke-width:2;stroke-miterlimit:10;}
	.st1{fill:none;}
	.st2{fill:none;stroke:#000000;stroke-width:2;stroke-linecap:round;stroke-miterlimit:10;stroke-dasharray:7;}
	.st3{fill:none;stroke:#000000;stroke-width:2;stroke-linecap:round;stroke-miterlimit:10;}
	.st4{fill:none;stroke:#000000;stroke-width:2;stroke-linecap:round;stroke-linejoin:round;stroke-miterlimit:10;}
	.st5{fill:none;stroke:#000000;stroke-width:2;stroke-linecap:square;stroke-miterlimit:10;}
	.st6{fill:none;stroke:#000000;stroke-width:2;stroke-miterlimit:10;stroke-dasharray:5.3638,5.3638;}
</style>
<g>
	<g>
		<g>
			<path class="st0" d="M61.9,43.7c1.5,2,2.5,4.1,2.5,6.3s-1,4.3-2.5,6.3"/>
			<path class="st0" d="M61.9,43.7c1.5,2,2.5,4.1,2.5,6.3s-1,4.3-2.5,6.3"/>
			<path class="st0" d="M65.6,40c2.6,3.3,4,6.7,4,10s-1.3,6.6-4,10"/>
		</g>
		<path class="st0" d="M40.9,57.9H33c-1.5,0-2.7-1.2-2.7-2.7V44.7c0-1.5,1.2-2.7,2.7-2.7h7.8V57.9z"/>
		<path class="st0" d="M40.9,57.9l11.6,6.5c1.3,0.7,2.9-0.2,2.9-1.7V37.3c0-1.5-1.6-2.4-2.9-1.7l-11.6,6.5"/>
	</g>
	<circle class="st0" cx="50" cy="50" r="35.9"/>
</g>
</svg>
