<?xml version="1.0" encoding="utf-8"?>
<!-- Generator: Adobe Illustrator 22.0.0, SVG Export Plug-In . SVG Version: 6.00 Build 0)  -->
<svg version="1.1" id="Layer_1" xmlns="http://www.w3.org/2000/svg" xmlns:xlink="http://www.w3.org/1999/xlink" x="0px" y="0px"
	 viewBox="0 0 100 100" style="enable-background:new 0 0 100 100;" xml:space="preserve">
<style type="text/css">
	.st0{fill:none;stroke:#000000;stroke-width:2;stroke-miterlimit:10;}
	.st1{fill:none;}
	.st2{fill:none;stroke:#000000;stroke-width:2;stroke-linecap:round;stroke-miterlimit:10;stroke-dasharray:7;}
	.st3{fill:none;stroke:#000000;stroke-width:2;stroke-linecap:round;stroke-miterlimit:10;}
	.st4{fill:none;stroke:#000000;stroke-width:2;stroke-linecap:round;stroke-linejoin:round;stroke-miterlimit:10;}
	.st5{fill:none;stroke:#000000;stroke-width:2;stroke-linecap:square;stroke-miterlimit:10;}
	.st6{fill:none;stroke:#000000;stroke-width:2;stroke-miterlimit:10;stroke-dasharray:5.3638,5.3638;}
</style>
<g>
	<g>
		<path class="st0" d="M50,55.6L34.3,84.9L31,73.7c0,0-0.1-0.3-0.2-0.7c-0.3,0.1-0.7,0.2-0.7,0.2l-11.3,3.3l15.6-29.9"/>
		<path class="st0" d="M50,55.6l15.7,29.3L69,73.7c0,0,0.1-0.3,0.2-0.7c0.3,0.1,0.7,0.2,0.7,0.2l11.3,3.3L65.5,46.7"/>
	</g>
	<polygon class="st0" points="76.2,37.7 65.5,46.7 63.1,60.4 50,55.6 36.9,60.4 34.5,46.7 23.8,37.7 34.5,28.8 36.9,15.1 50,19.8 
		63.1,15.1 65.5,28.8 	"/>
</g>
</svg>
