<?xml version="1.0" encoding="utf-8"?>
<!-- Generator: Adobe Illustrator 22.0.0, SVG Export Plug-In . SVG Version: 6.00 Build 0)  -->
<svg version="1.1" id="Layer_1" xmlns="http://www.w3.org/2000/svg" xmlns:xlink="http://www.w3.org/1999/xlink" x="0px" y="0px"
	 viewBox="0 0 100 100" style="enable-background:new 0 0 100 100;" xml:space="preserve">
<style type="text/css">
	.st0{fill:none;stroke:#000000;stroke-width:2;stroke-miterlimit:10;}
	.st1{fill:none;}
	.st2{fill:none;stroke:#000000;stroke-width:2;stroke-linecap:round;stroke-miterlimit:10;stroke-dasharray:7;}
	.st3{fill:none;stroke:#000000;stroke-width:2;stroke-linecap:round;stroke-miterlimit:10;}
	.st4{fill:none;stroke:#000000;stroke-width:2;stroke-linecap:round;stroke-linejoin:round;stroke-miterlimit:10;}
	.st5{fill:none;stroke:#000000;stroke-width:2;stroke-linecap:square;stroke-miterlimit:10;}
	.st6{fill:none;stroke:#000000;stroke-width:2;stroke-miterlimit:10;stroke-dasharray:5.3638,5.3638;}
</style>
<g>
	<g>
		<path class="st0" d="M46.3,30.9h-0.7c-4.7,0-8.5-3.8-8.5-8.5v0c0-4.7,3.8-8.5,8.5-8.5h0.7c4.7,0,8.5,3.8,8.5,8.5v0
			C54.8,27.1,51,30.9,46.3,30.9z"/>
		<path class="st0" d="M54.3,49H37.5c-1.6,0-2.9-1.3-2.9-2.9V33.8c0-1.6,1.3-2.9,2.9-2.9h16.8c1.6,0,2.9,1.3,2.9,2.9v12.3
			C57.3,47.7,56,49,54.3,49z"/>
		<polygon class="st0" points="49.6,77.8 42.3,77.8 39.6,49 52.3,49 		"/>
	</g>
	<path class="st0" d="M45.9,77.8v1.8c0,3.6,2.9,6.5,6.5,6.5h0c3.6,0,6.5-2.9,6.5-6.5V64.3c0-3.6,2.9-6.5,6.5-6.5"/>
	<line class="st0" x1="37.1" y1="22.4" x2="54.8" y2="22.4"/>
</g>
</svg>
