<?xml version="1.0" encoding="utf-8"?>
<!-- Generator: Adobe Illustrator 22.0.0, SVG Export Plug-In . SVG Version: 6.00 Build 0)  -->
<svg version="1.1" id="Layer_1" xmlns="http://www.w3.org/2000/svg" xmlns:xlink="http://www.w3.org/1999/xlink" x="0px" y="0px"
	 viewBox="0 0 100 100" style="enable-background:new 0 0 100 100;" xml:space="preserve">
<style type="text/css">
	.st0{fill:none;stroke:#000000;stroke-width:2;stroke-miterlimit:10;}
	.st1{fill:none;}
	.st2{fill:none;stroke:#000000;stroke-width:2;stroke-linecap:round;stroke-miterlimit:10;stroke-dasharray:7;}
	.st3{fill:none;stroke:#000000;stroke-width:2;stroke-linecap:round;stroke-miterlimit:10;}
	.st4{fill:none;stroke:#000000;stroke-width:2;stroke-linecap:round;stroke-linejoin:round;stroke-miterlimit:10;}
	.st5{fill:none;stroke:#000000;stroke-width:2;stroke-linecap:square;stroke-miterlimit:10;}
	.st6{fill:none;stroke:#000000;stroke-width:2;stroke-miterlimit:10;stroke-dasharray:5.3638,5.3638;}
</style>
<g>
	<g>
		<path d="M39,51.5c-0.2,0.5-0.5,0.9-0.9,1.3c-0.4,0.4-0.8,0.7-1.3,0.9c-0.5,0.2-1.1,0.3-1.7,0.3c-0.6,0-1.2-0.1-1.7-0.3
			c-0.5-0.2-1-0.5-1.3-0.9c-0.4-0.4-0.7-0.8-0.9-1.3c-0.2-0.5-0.3-1-0.3-1.6v0c0-0.6,0.1-1.1,0.3-1.6c0.2-0.5,0.5-0.9,0.9-1.3
			c0.4-0.4,0.8-0.7,1.3-0.9c0.5-0.2,1.1-0.3,1.7-0.3c0.6,0,1.2,0.1,1.7,0.3c0.5,0.2,1,0.5,1.3,0.9s0.7,0.8,0.9,1.3s0.3,1,0.3,1.6v0
			C39.3,50.4,39.2,51,39,51.5z M37.5,49.9c0-0.3-0.1-0.7-0.2-1s-0.3-0.6-0.5-0.8c-0.2-0.2-0.5-0.4-0.8-0.5c-0.3-0.1-0.6-0.2-1-0.2
			c-0.4,0-0.7,0.1-1,0.2c-0.3,0.1-0.5,0.3-0.7,0.5c-0.2,0.2-0.4,0.5-0.5,0.8c-0.1,0.3-0.2,0.6-0.2,1v0c0,0.3,0.1,0.7,0.2,1
			c0.1,0.3,0.3,0.6,0.5,0.8c0.2,0.2,0.5,0.4,0.8,0.5c0.3,0.1,0.6,0.2,1,0.2c0.3,0,0.7-0.1,1-0.2c0.3-0.1,0.5-0.3,0.8-0.5
			c0.2-0.2,0.4-0.5,0.5-0.8S37.5,50.2,37.5,49.9L37.5,49.9z"/>
		<path d="M48.3,49.9c-0.2,0.3-0.4,0.6-0.7,0.9c-0.3,0.2-0.6,0.4-1,0.5c-0.4,0.1-0.8,0.2-1.3,0.2H44v2.4h-1.7v-7.9h3.2
			c0.5,0,0.9,0.1,1.3,0.2c0.4,0.1,0.7,0.3,1,0.6c0.3,0.2,0.5,0.5,0.6,0.9s0.2,0.7,0.2,1.1v0C48.6,49.1,48.5,49.5,48.3,49.9z
			 M46.8,48.7c0-0.4-0.1-0.7-0.4-0.9c-0.3-0.2-0.6-0.3-1-0.3H44v2.4h1.4c0.4,0,0.8-0.1,1-0.3C46.7,49.3,46.8,49,46.8,48.7L46.8,48.7
			z"/>
		<path d="M51.3,53.8v-7.9h6v1.6H53v1.6h3.7v1.6H53v1.7h4.3v1.6H51.3z"/>
		<path d="M65.9,53.8L62,48.8v5.1h-1.7v-7.9h1.6l3.7,4.9v-4.9h1.7v7.9H65.9z"/>
	</g>
	<path class="st0" d="M14.8,63.3V36.7c0-2.4,1.9-4.3,4.3-4.3h61.8c2.4,0,4.3,1.9,4.3,4.3v26.6c0,2.4-1.9,4.3-4.3,4.3H19.1
		C16.8,67.6,14.8,65.7,14.8,63.3z"/>
	<rect x="22.6" y="40.1" class="st0" width="54.9" height="19.7"/>
</g>
</svg>
