<?xml version="1.0" encoding="utf-8"?>
<!-- Generator: Adobe Illustrator 22.0.0, SVG Export Plug-In . SVG Version: 6.00 Build 0)  -->
<svg version="1.1" id="Layer_1" xmlns="http://www.w3.org/2000/svg" xmlns:xlink="http://www.w3.org/1999/xlink" x="0px" y="0px"
	 viewBox="0 0 100 100" style="enable-background:new 0 0 100 100;" xml:space="preserve">
<style type="text/css">
	.st0{fill:none;stroke:#000000;stroke-width:2;stroke-miterlimit:10;}
	.st1{fill:none;}
	.st2{fill:none;stroke:#000000;stroke-width:2;stroke-linecap:round;stroke-miterlimit:10;stroke-dasharray:7;}
	.st3{fill:none;stroke:#000000;stroke-width:2;stroke-linecap:round;stroke-miterlimit:10;}
	.st4{fill:none;stroke:#000000;stroke-width:2;stroke-linecap:round;stroke-linejoin:round;stroke-miterlimit:10;}
	.st5{fill:none;stroke:#000000;stroke-width:2;stroke-linecap:square;stroke-miterlimit:10;}
	.st6{fill:none;stroke:#000000;stroke-width:2;stroke-miterlimit:10;stroke-dasharray:5.3638,5.3638;}
</style>
<g>
	<g>
		<path class="st0" d="M65.5,22.4v61.9c0,0.9-0.7,1.6-1.6,1.6H36c-0.9,0-1.6-0.7-1.6-1.6V22.4c0-0.9,0.7-1.6,1.6-1.6H64
			C64.8,20.8,65.5,21.6,65.5,22.4z"/>
		<path class="st0" d="M57.7,20.8v-5.1c0-0.9-0.7-1.6-1.6-1.6H43.8c-0.9,0-1.6,0.7-1.6,1.6v5.1"/>
	</g>
	<line class="st0" x1="39.5" y1="76.1" x2="60.5" y2="76.1"/>
	<line class="st0" x1="39.5" y1="67.4" x2="60.5" y2="67.4"/>
	<line class="st0" x1="39.5" y1="58.6" x2="60.5" y2="58.6"/>
	<line class="st0" x1="39.5" y1="49.9" x2="60.5" y2="49.9"/>
</g>
</svg>
