<?xml version="1.0" encoding="utf-8"?>
<!-- Generator: Adobe Illustrator 22.0.0, SVG Export Plug-In . SVG Version: 6.00 Build 0)  -->
<svg version="1.1" id="Layer_1" xmlns="http://www.w3.org/2000/svg" xmlns:xlink="http://www.w3.org/1999/xlink" x="0px" y="0px"
	 viewBox="0 0 100 100" style="enable-background:new 0 0 100 100;" xml:space="preserve">
<style type="text/css">
	.st0{fill:none;stroke:#000000;stroke-width:2;stroke-miterlimit:10;}
	.st1{fill:none;}
	.st2{fill:none;stroke:#000000;stroke-width:2;stroke-linecap:round;stroke-miterlimit:10;stroke-dasharray:7;}
	.st3{fill:none;stroke:#000000;stroke-width:2;stroke-linecap:round;stroke-miterlimit:10;}
	.st4{fill:none;stroke:#000000;stroke-width:2;stroke-linecap:round;stroke-linejoin:round;stroke-miterlimit:10;}
	.st5{fill:none;stroke:#000000;stroke-width:2;stroke-linecap:square;stroke-miterlimit:10;}
	.st6{fill:none;stroke:#000000;stroke-width:2;stroke-miterlimit:10;stroke-dasharray:5.3638,5.3638;}
</style>
<g>
	<g>
		<g>
			<polygon points="55.7,32.6 43.1,44.9 42.5,43.2 57.5,43.2 57.5,45.2 42.5,45.2 39.5,45.2 41.8,43.4 			"/>
		</g>
		<g>
			<polygon points="44.3,55.8 56.9,43.4 57.5,45.2 42.5,45.2 42.5,43.2 57.5,43.2 60.5,43.2 58.2,44.9 			"/>
		</g>
	</g>
	<g>
		<path class="st0" d="M69.7,22.8v61.2c0,1-0.8,1.8-1.8,1.8H32.1c-1,0-1.8-0.8-1.8-1.8V22.8c0-1,0.8-1.8,1.8-1.8h35.9
			C68.9,21,69.7,21.8,69.7,22.8z"/>
		<path class="st0" d="M59.8,21v-5.1c0-0.9-0.9-1.6-2-1.6H42.2c-1.1,0-2,0.7-2,1.6V21"/>
	</g>
	<line class="st0" x1="39.2" y1="74.8" x2="60.8" y2="74.8"/>
	<line class="st0" x1="39.2" y1="66.8" x2="60.8" y2="66.8"/>
</g>
</svg>
