<?xml version="1.0" encoding="utf-8"?>
<!-- Generator: Adobe Illustrator 22.0.0, SVG Export Plug-In . SVG Version: 6.00 Build 0)  -->
<svg version="1.1" id="Layer_1" xmlns="http://www.w3.org/2000/svg" xmlns:xlink="http://www.w3.org/1999/xlink" x="0px" y="0px"
	 viewBox="0 0 100 100" style="enable-background:new 0 0 100 100;" xml:space="preserve">
<style type="text/css">
	.st0{fill:none;stroke:#000000;stroke-width:2;stroke-miterlimit:10;}
	.st1{fill:none;}
	.st2{fill:none;stroke:#000000;stroke-width:2;stroke-linecap:round;stroke-miterlimit:10;stroke-dasharray:7;}
	.st3{fill:none;stroke:#000000;stroke-width:2;stroke-linecap:round;stroke-miterlimit:10;}
	.st4{fill:none;stroke:#000000;stroke-width:2;stroke-linecap:round;stroke-linejoin:round;stroke-miterlimit:10;}
	.st5{fill:none;stroke:#000000;stroke-width:2;stroke-linecap:square;stroke-miterlimit:10;}
	.st6{fill:none;stroke:#000000;stroke-width:2;stroke-miterlimit:10;stroke-dasharray:5.3638,5.3638;}
</style>
<g>
	<g>
		<path class="st0" d="M45.9,35.9c5,0.7,9.6,2.3,12.7,5.4s4.7,7.7,5.4,12.7"/>
		<path class="st0" d="M46,14.6c11.4,1.1,20.8,5,27.6,11.8S84.3,42.6,85.4,54"/>
		<path class="st0" d="M45.9,35.9c5,0.7,9.6,2.3,12.7,5.4s4.7,7.7,5.4,12.7"/>
		<path class="st0" d="M46,25.2c8.6,1,15.4,3.9,20.1,8.6c4.8,4.8,7.7,11.5,8.6,20.1"/>
	</g>
	<path class="st0" d="M21.8,29.7l-4.6,4.6c-2.2,2.2-3.1,5.4-2.4,8.5c2.3,9.7,7.4,19.2,15.3,27.1s17.4,13,27.1,15.3
		c3,0.7,6.2-0.2,8.5-2.4l4.6-4.6c2.1-2.1,2.1-5.5,0-7.6L64,64.2c-2.1-2.1-5.5-2.1-7.6,0l-4.1,4.1c-0.7,0.7-1.7,0.8-2.6,0.4
		c-3.7-2-7.3-4.6-10.5-7.9c-3.2-3.2-5.8-6.7-7.9-10.5c-0.5-0.8-0.3-1.9,0.4-2.6l4.1-4.1c2.1-2.1,2.1-5.5,0-7.6l-6.3-6.3
		C27.4,27.6,24,27.6,21.8,29.7L21.8,29.7z"/>
</g>
</svg>
