<?xml version="1.0" encoding="utf-8"?>
<!-- Generator: Adobe Illustrator 22.0.0, SVG Export Plug-In . SVG Version: 6.00 Build 0)  -->
<svg version="1.1" id="Layer_1" xmlns="http://www.w3.org/2000/svg" xmlns:xlink="http://www.w3.org/1999/xlink" x="0px" y="0px"
	 viewBox="0 0 100 100" style="enable-background:new 0 0 100 100;" xml:space="preserve">
<style type="text/css">
	.st0{fill:none;stroke:#000000;stroke-width:2;stroke-miterlimit:10;}
	.st1{fill:none;}
	.st2{fill:none;stroke:#000000;stroke-width:2;stroke-linecap:round;stroke-miterlimit:10;stroke-dasharray:7;}
	.st3{fill:none;stroke:#000000;stroke-width:2;stroke-linecap:round;stroke-miterlimit:10;}
	.st4{fill:none;stroke:#000000;stroke-width:2;stroke-linecap:round;stroke-linejoin:round;stroke-miterlimit:10;}
	.st5{fill:none;stroke:#000000;stroke-width:2;stroke-linecap:square;stroke-miterlimit:10;}
	.st6{fill:none;stroke:#000000;stroke-width:2;stroke-miterlimit:10;stroke-dasharray:5.3638,5.3638;}
</style>
<g>
	<g>
		<circle class="st0" cx="71.9" cy="28.1" r="13.9"/>
		<line class="st0" x1="62.1" y1="18.3" x2="81.7" y2="37.9"/>
	</g>
	<path class="st0" d="M23,18.1l-5.6,5.6c-2.7,2.7-3.8,6.6-2.9,10.3c2.8,11.8,9,23.4,18.6,32.9S54.2,82.7,66,85.5
		c3.7,0.9,7.6-0.2,10.3-2.9l5.6-5.6c2.6-2.6,2.6-6.7,0-9.3L74.2,60c-2.6-2.6-6.7-2.6-9.3,0L60,65c-0.8,0.8-2.1,1-3.1,0.4
		c-4.5-2.5-8.8-5.6-12.7-9.5s-7.1-8.2-9.5-12.7c-0.6-1-0.4-2.3,0.4-3.1l4.9-4.9c2.6-2.6,2.6-6.7,0-9.3l-7.7-7.7
		C29.7,15.6,25.5,15.6,23,18.1L23,18.1z"/>
</g>
</svg>
