<?xml version="1.0" encoding="utf-8"?>
<!-- Generator: Adobe Illustrator 22.0.0, SVG Export Plug-In . SVG Version: 6.00 Build 0)  -->
<svg version="1.1" id="Layer_1" xmlns="http://www.w3.org/2000/svg" xmlns:xlink="http://www.w3.org/1999/xlink" x="0px" y="0px"
	 viewBox="0 0 100 100" style="enable-background:new 0 0 100 100;" xml:space="preserve">
<style type="text/css">
	.st0{fill:none;stroke:#000000;stroke-width:2;stroke-miterlimit:10;}
	.st1{fill:none;}
	.st2{fill:none;stroke:#000000;stroke-width:2;stroke-linecap:round;stroke-miterlimit:10;stroke-dasharray:7;}
	.st3{fill:none;stroke:#000000;stroke-width:2;stroke-linecap:round;stroke-miterlimit:10;}
	.st4{fill:none;stroke:#000000;stroke-width:2;stroke-linecap:round;stroke-linejoin:round;stroke-miterlimit:10;}
	.st5{fill:none;stroke:#000000;stroke-width:2;stroke-linecap:square;stroke-miterlimit:10;}
	.st6{fill:none;stroke:#000000;stroke-width:2;stroke-miterlimit:10;stroke-dasharray:5.3638,5.3638;}
</style>
<g>
	<path class="st0" d="M78.9,55.9H21.1c-3.2,0-5.8-2.6-5.8-5.8V31.6c0-3.2,2.6-5.8,5.8-5.8h57.8c3.2,0,5.8,2.6,5.8,5.8v18.6
		C84.7,53.3,82.1,55.9,78.9,55.9z"/>
	<g>
		<path d="M37.2,43.1c-0.3,0.8-0.8,1.5-1.4,2c-0.6,0.6-1.3,1-2.1,1.4c-0.8,0.3-1.7,0.5-2.7,0.5s-1.8-0.2-2.6-0.5
			c-0.8-0.3-1.5-0.8-2.1-1.4c-0.6-0.6-1-1.2-1.4-2c-0.3-0.8-0.5-1.6-0.5-2.5v0c0-0.9,0.2-1.7,0.5-2.5c0.3-0.8,0.8-1.5,1.4-2
			c0.6-0.6,1.3-1,2.1-1.4s1.7-0.5,2.7-0.5c1,0,1.8,0.2,2.6,0.5c0.8,0.3,1.5,0.8,2.1,1.4c0.6,0.6,1,1.2,1.4,2
			c0.3,0.8,0.5,1.6,0.5,2.5v0C37.7,41.5,37.6,42.4,37.2,43.1z M34.9,40.6c0-0.5-0.1-1-0.3-1.5c-0.2-0.5-0.4-0.9-0.8-1.2
			s-0.7-0.6-1.2-0.8s-1-0.3-1.5-0.3c-0.6,0-1.1,0.1-1.5,0.3s-0.8,0.5-1.2,0.8s-0.6,0.8-0.8,1.2c-0.2,0.5-0.3,1-0.3,1.5v0
			c0,0.5,0.1,1,0.3,1.5c0.2,0.5,0.4,0.9,0.8,1.2s0.7,0.6,1.2,0.8c0.5,0.2,1,0.3,1.5,0.3c0.5,0,1-0.1,1.5-0.3
			c0.5-0.2,0.9-0.5,1.2-0.8c0.3-0.4,0.6-0.8,0.8-1.2C34.8,41.7,34.9,41.2,34.9,40.6L34.9,40.6z"/>
		<path d="M49.6,40.7c-0.3,0.5-0.6,1-1.1,1.4s-1,0.6-1.6,0.8c-0.6,0.2-1.3,0.3-2,0.3h-2.1v3.7h-2.7V34.4h5.1c0.7,0,1.4,0.1,2,0.3
			c0.6,0.2,1.1,0.5,1.5,0.9c0.4,0.4,0.7,0.8,0.9,1.4c0.2,0.5,0.3,1.1,0.3,1.7v0C50,39.5,49.9,40.1,49.6,40.7z M47.2,38.8
			c0-0.6-0.2-1.1-0.6-1.4c-0.4-0.3-0.9-0.5-1.6-0.5h-2.1v3.8h2.2c0.7,0,1.2-0.2,1.6-0.5C47,39.8,47.2,39.4,47.2,38.8L47.2,38.8z"/>
		<path d="M52,46.9V34.4h9.3v2.4h-6.6v2.5h5.9v2.4h-5.9v2.6h6.7v2.4H52z"/>
		<path d="M72.6,46.9l-6-7.9v7.9h-2.7V34.4h2.5l5.8,7.6v-7.6h2.7v12.4H72.6z"/>
	</g>
	<line class="st0" x1="15.3" y1="15.6" x2="15.3" y2="84.4"/>
	<line class="st0" x1="84.7" y1="84.4" x2="84.7" y2="15.6"/>
</g>
</svg>
