<?xml version="1.0" encoding="utf-8"?>
<!-- Generator: Adobe Illustrator 22.0.0, SVG Export Plug-In . SVG Version: 6.00 Build 0)  -->
<svg version="1.1" id="Layer_1" xmlns="http://www.w3.org/2000/svg" xmlns:xlink="http://www.w3.org/1999/xlink" x="0px" y="0px"
	 viewBox="0 0 100 100" style="enable-background:new 0 0 100 100;" xml:space="preserve">
<style type="text/css">
	.st0{fill:none;stroke:#000000;stroke-width:2;stroke-miterlimit:10;}
	.st1{fill:none;}
	.st2{fill:none;stroke:#000000;stroke-width:2;stroke-linecap:round;stroke-miterlimit:10;stroke-dasharray:7;}
	.st3{fill:none;stroke:#000000;stroke-width:2;stroke-linecap:round;stroke-miterlimit:10;}
	.st4{fill:none;stroke:#000000;stroke-width:2;stroke-linecap:round;stroke-linejoin:round;stroke-miterlimit:10;}
	.st5{fill:none;stroke:#000000;stroke-width:2;stroke-linecap:square;stroke-miterlimit:10;}
	.st6{fill:none;stroke:#000000;stroke-width:2;stroke-miterlimit:10;stroke-dasharray:5.3638,5.3638;}
</style>
<g>
	<g>
		<line class="st0" x1="58" y1="14.2" x2="85.8" y2="42"/>
		<line class="st0" x1="85.8" y1="14.2" x2="58" y2="42"/>
	</g>
	<path class="st0" d="M22.8,19.4l-5.5,5.5c-2.6,2.6-3.7,6.4-2.9,10.1c2.7,11.6,8.9,22.9,18.3,32.3S53.4,82.8,65,85.5
		c3.6,0.9,7.4-0.2,10.1-2.9l5.5-5.5c2.5-2.5,2.5-6.6,0-9.1L73,60.5c-2.5-2.5-6.6-2.5-9.1,0l-4.8,4.8c-0.8,0.8-2,1-3,0.4
		c-4.4-2.4-8.6-5.5-12.5-9.4s-6.9-8-9.4-12.5c-0.5-1-0.4-2.2,0.4-3l4.8-4.8c2.5-2.5,2.5-6.6,0-9.1l-7.6-7.6
		C29.4,16.9,25.3,16.9,22.8,19.4L22.8,19.4z"/>
</g>
</svg>
