<?xml version="1.0" encoding="utf-8"?>
<!-- Generator: Adobe Illustrator 22.0.0, SVG Export Plug-In . SVG Version: 6.00 Build 0)  -->
<svg version="1.1" id="Layer_1" xmlns="http://www.w3.org/2000/svg" xmlns:xlink="http://www.w3.org/1999/xlink" x="0px" y="0px"
	 viewBox="0 0 100 100" style="enable-background:new 0 0 100 100;" xml:space="preserve">
<style type="text/css">
	.st0{fill:none;stroke:#000000;stroke-width:2;stroke-miterlimit:10;}
	.st1{fill:none;}
	.st2{fill:none;stroke:#000000;stroke-width:2;stroke-linecap:round;stroke-miterlimit:10;stroke-dasharray:7;}
	.st3{fill:none;stroke:#000000;stroke-width:2;stroke-linecap:round;stroke-miterlimit:10;}
	.st4{fill:none;stroke:#000000;stroke-width:2;stroke-linecap:round;stroke-linejoin:round;stroke-miterlimit:10;}
	.st5{fill:none;stroke:#000000;stroke-width:2;stroke-linecap:square;stroke-miterlimit:10;}
	.st6{fill:none;stroke:#000000;stroke-width:2;stroke-miterlimit:10;stroke-dasharray:5.3638,5.3638;}
</style>
<g>
	<g>
		<g>
			<path class="st0" d="M74.3,42.7c1.7,2.3,2.9,4.8,2.9,7.3s-1.2,5-2.9,7.3"/>
			<path class="st0" d="M80.9,38.4c3.1,3.9,4.6,7.7,4.6,11.6s-1.5,7.7-4.6,11.6"/>
		</g>
		<g>
			<path class="st0" d="M25.7,57.3C24,55,22.8,52.5,22.8,50s1.2-5,2.9-7.3"/>
			<path class="st0" d="M19.1,61.6c-3.1-3.9-4.6-7.7-4.6-11.6s1.5-7.7,4.6-11.6"/>
		</g>
	</g>
	<g>
		<path class="st0" d="M61.7,83.7H38.3c-3.1,0-5.7-2.5-5.7-5.7V22c0-3.1,2.5-5.7,5.7-5.7h23.3c3.1,0,5.7,2.5,5.7,5.7v56
			C67.3,81.1,64.8,83.7,61.7,83.7z"/>
		<line class="st0" x1="32.7" y1="24.4" x2="67.3" y2="24.4"/>
		<line class="st0" x1="32.7" y1="75.2" x2="67.3" y2="75.2"/>
		<line class="st0" x1="42.8" y1="20.5" x2="57.2" y2="20.5"/>
	</g>
</g>
</svg>
