<?xml version="1.0" encoding="utf-8"?>
<!-- Generator: Adobe Illustrator 22.0.0, SVG Export Plug-In . SVG Version: 6.00 Build 0)  -->
<svg version="1.1" id="Layer_1" xmlns="http://www.w3.org/2000/svg" xmlns:xlink="http://www.w3.org/1999/xlink" x="0px" y="0px"
	 viewBox="0 0 100 100" style="enable-background:new 0 0 100 100;" xml:space="preserve">
<style type="text/css">
	.st0{fill:none;stroke:#000000;stroke-width:2;stroke-miterlimit:10;}
	.st1{fill:none;}
	.st2{fill:none;stroke:#000000;stroke-width:2;stroke-linecap:round;stroke-miterlimit:10;stroke-dasharray:7;}
	.st3{fill:none;stroke:#000000;stroke-width:2;stroke-linecap:round;stroke-miterlimit:10;}
	.st4{fill:none;stroke:#000000;stroke-width:2;stroke-linecap:round;stroke-linejoin:round;stroke-miterlimit:10;}
	.st5{fill:none;stroke:#000000;stroke-width:2;stroke-linecap:square;stroke-miterlimit:10;}
	.st6{fill:none;stroke:#000000;stroke-width:2;stroke-miterlimit:10;stroke-dasharray:5.3638,5.3638;}
</style>
<g>
	<g>
		<path class="st0" d="M48.7,40.3c3,0.4,5.8,1.4,7.7,3.3c1.9,1.9,2.9,4.7,3.3,7.7"/>
		<path class="st0" d="M50.4,32.1c5.2,0.6,9.3,2.4,12.2,5.2c2.9,2.9,4.6,7,5.2,12.2"/>
		<path class="st0" d="M33.2,37.4l-2.8,2.8c-1.3,1.3-1.9,3.3-1.5,5.1c1.4,5.9,4.5,11.7,9.3,16.5s10.6,7.9,16.5,9.3
			c1.8,0.4,3.8-0.1,5.1-1.5l2.8-2.8c1.3-1.3,1.3-3.4,0-4.6l-3.9-3.9c-1.3-1.3-3.4-1.3-4.6,0l-2.5,2.5c-0.4,0.4-1,0.5-1.6,0.2
			c-2.3-1.2-4.4-2.8-6.4-4.8c-1.9-1.9-3.5-4.1-4.8-6.4c-0.3-0.5-0.2-1.1,0.2-1.6l2.5-2.5c1.3-1.3,1.3-3.4,0-4.6l-3.9-3.9
			C36.6,36.1,34.5,36.1,33.2,37.4L33.2,37.4z"/>
	</g>
	<circle class="st0" cx="50" cy="50" r="35.7"/>
</g>
</svg>
