<?xml version="1.0" encoding="utf-8"?>
<!-- Generator: Adobe Illustrator 22.0.0, SVG Export Plug-In . SVG Version: 6.00 Build 0)  -->
<svg version="1.1" id="Layer_1" xmlns="http://www.w3.org/2000/svg" xmlns:xlink="http://www.w3.org/1999/xlink" x="0px" y="0px"
	 viewBox="0 0 100 100" style="enable-background:new 0 0 100 100;" xml:space="preserve">
<style type="text/css">
	.st0{fill:none;stroke:#000000;stroke-width:2;stroke-miterlimit:10;}
	.st1{fill:none;}
	.st2{fill:none;stroke:#000000;stroke-width:2;stroke-linecap:round;stroke-miterlimit:10;stroke-dasharray:7;}
	.st3{fill:none;stroke:#000000;stroke-width:2;stroke-linecap:round;stroke-miterlimit:10;}
	.st4{fill:none;stroke:#000000;stroke-width:2;stroke-linecap:round;stroke-linejoin:round;stroke-miterlimit:10;}
	.st5{fill:none;stroke:#000000;stroke-width:2;stroke-linecap:square;stroke-miterlimit:10;}
	.st6{fill:none;stroke:#000000;stroke-width:2;stroke-miterlimit:10;stroke-dasharray:5.3638,5.3638;}
</style>
<g>
	<g>
		<path d="M32.6,45.2c-0.3,0.2-0.6,0.4-1,0.6c-0.4,0.2-0.8,0.3-1.2,0.4c-0.4,0.1-0.9,0.1-1.4,0.1c-0.8,0-1.5-0.1-2.2-0.4
			s-1.3-0.7-1.8-1.2s-0.9-1.1-1.2-1.8s-0.4-1.4-0.4-2.2v0c0-0.8,0.1-1.5,0.4-2.2c0.3-0.7,0.7-1.3,1.2-1.8s1.1-0.9,1.8-1.2
			s1.5-0.4,2.3-0.4c0.5,0,1,0,1.4,0.1c0.4,0.1,0.8,0.2,1.1,0.3c0.3,0.1,0.7,0.3,0.9,0.5c0.3,0.2,0.6,0.4,0.8,0.7l-1.5,1.8
			c-0.4-0.4-0.9-0.7-1.3-0.9c-0.4-0.2-0.9-0.3-1.5-0.3c-0.5,0-0.9,0.1-1.3,0.3c-0.4,0.2-0.7,0.4-1,0.7c-0.3,0.3-0.5,0.7-0.7,1.1
			S26,40.2,26,40.7v0c0,0.5,0.1,0.9,0.2,1.3c0.2,0.4,0.4,0.8,0.6,1.1c0.3,0.3,0.6,0.6,1,0.7s0.8,0.3,1.3,0.3c0.6,0,1.1-0.1,1.6-0.3
			s0.9-0.5,1.3-0.9l1.5,1.5C33.2,44.7,32.9,45,32.6,45.2z"/>
		<path d="M35.4,46.2V35.3h2.4V44h5.4v2.2H35.4z"/>
		<path d="M55.7,42.9c-0.3,0.7-0.7,1.3-1.2,1.8c-0.5,0.5-1.1,0.9-1.8,1.2s-1.5,0.4-2.3,0.4s-1.6-0.1-2.3-0.4
			c-0.7-0.3-1.3-0.7-1.8-1.2c-0.5-0.5-0.9-1.1-1.2-1.8c-0.3-0.7-0.4-1.4-0.4-2.2v0c0-0.8,0.1-1.5,0.4-2.2c0.3-0.7,0.7-1.3,1.2-1.8
			c0.5-0.5,1.1-0.9,1.8-1.2c0.7-0.3,1.5-0.4,2.3-0.4c0.8,0,1.6,0.1,2.3,0.4s1.3,0.7,1.8,1.2c0.5,0.5,0.9,1.1,1.2,1.8
			c0.3,0.7,0.4,1.4,0.4,2.2v0C56.2,41.5,56,42.2,55.7,42.9z M53.6,40.7c0-0.5-0.1-0.9-0.2-1.3s-0.4-0.8-0.7-1.1
			c-0.3-0.3-0.6-0.6-1.1-0.7c-0.4-0.2-0.8-0.3-1.3-0.3c-0.5,0-0.9,0.1-1.3,0.3c-0.4,0.2-0.7,0.4-1,0.7c-0.3,0.3-0.5,0.7-0.7,1.1
			c-0.2,0.4-0.2,0.8-0.2,1.3v0c0,0.5,0.1,0.9,0.2,1.3c0.2,0.4,0.4,0.8,0.7,1.1s0.6,0.6,1,0.7c0.4,0.2,0.8,0.3,1.3,0.3
			c0.5,0,0.9-0.1,1.3-0.3c0.4-0.2,0.8-0.4,1-0.7c0.3-0.3,0.5-0.7,0.7-1.1C53.6,41.7,53.6,41.2,53.6,40.7L53.6,40.7z"/>
		<path d="M65.9,44.4c-0.2,0.4-0.5,0.8-0.8,1.1s-0.8,0.5-1.3,0.7c-0.5,0.2-1,0.2-1.6,0.2c-0.8,0-1.6-0.1-2.4-0.4s-1.5-0.7-2.2-1.3
			l1.4-1.7c0.5,0.4,1,0.7,1.5,1s1.1,0.4,1.7,0.4c0.5,0,0.9-0.1,1.2-0.3c0.3-0.2,0.4-0.4,0.4-0.8v0c0-0.2,0-0.3-0.1-0.4
			s-0.2-0.2-0.3-0.3s-0.4-0.2-0.7-0.3c-0.3-0.1-0.7-0.2-1.1-0.3c-0.6-0.1-1-0.3-1.5-0.5c-0.4-0.2-0.8-0.4-1.1-0.6
			c-0.3-0.2-0.6-0.5-0.7-0.9C58.1,39.4,58,39,58,38.4v0c0-0.5,0.1-0.9,0.3-1.3s0.4-0.7,0.8-1s0.7-0.5,1.2-0.7c0.5-0.2,1-0.2,1.5-0.2
			c0.8,0,1.5,0.1,2.2,0.4c0.7,0.2,1.3,0.6,1.8,1l-1.2,1.8c-0.5-0.3-1-0.6-1.4-0.8c-0.5-0.2-0.9-0.3-1.4-0.3s-0.8,0.1-1.1,0.3
			s-0.3,0.4-0.3,0.7v0c0,0.2,0,0.3,0.1,0.5c0.1,0.1,0.2,0.2,0.4,0.3c0.2,0.1,0.4,0.2,0.7,0.3s0.7,0.2,1.2,0.3c0.6,0.1,1,0.3,1.5,0.5
			c0.4,0.2,0.8,0.4,1.1,0.7c0.3,0.3,0.5,0.6,0.7,0.9c0.2,0.3,0.2,0.8,0.2,1.2v0C66.2,43.5,66.1,44,65.9,44.4z"/>
		<path d="M68.2,46.2V35.3h8.2v2.1h-5.8v2.2h5.1v2.1h-5.1V44h5.9v2.1H68.2z"/>
	</g>
	<path class="st0" d="M78.8,55.9H21.3c-3.2,0-5.8-2.6-5.8-5.8V31.6c0-3.2,2.6-5.8,5.8-5.8h57.5c3.2,0,5.8,2.6,5.8,5.8v18.5
		C84.5,53.3,81.9,55.9,78.8,55.9z"/>
	<line class="st0" x1="15.5" y1="15.8" x2="15.5" y2="84.2"/>
</g>
</svg>
