<?xml version="1.0" encoding="utf-8"?>
<!-- Generator: Adobe Illustrator 22.0.0, SVG Export Plug-In . SVG Version: 6.00 Build 0)  -->
<svg version="1.1" id="Layer_1" xmlns="http://www.w3.org/2000/svg" xmlns:xlink="http://www.w3.org/1999/xlink" x="0px" y="0px"
	 viewBox="0 0 100 100" style="enable-background:new 0 0 100 100;" xml:space="preserve">
<style type="text/css">
	.st0{fill:none;stroke:#000000;stroke-width:2;stroke-miterlimit:10;}
	.st1{fill:none;}
	.st2{fill:none;stroke:#000000;stroke-width:2;stroke-linecap:round;stroke-miterlimit:10;stroke-dasharray:7;}
	.st3{fill:none;stroke:#000000;stroke-width:2;stroke-linecap:round;stroke-miterlimit:10;}
	.st4{fill:none;stroke:#000000;stroke-width:2;stroke-linecap:round;stroke-linejoin:round;stroke-miterlimit:10;}
	.st5{fill:none;stroke:#000000;stroke-width:2;stroke-linecap:square;stroke-miterlimit:10;}
	.st6{fill:none;stroke:#000000;stroke-width:2;stroke-miterlimit:10;stroke-dasharray:5.3638,5.3638;}
</style>
<g>
	<g>
		<g>
			<line class="st0" x1="26.7" y1="86" x2="26.7" y2="57.3"/>
			<line class="st0" x1="26.7" y1="49.1" x2="26.7" y2="14.2"/>
			<circle class="st0" cx="26.7" cy="53.2" r="4.1"/>
		</g>
		<g>
			<line class="st0" x1="42.2" y1="86" x2="42.2" y2="74"/>
			<line class="st0" x1="42.2" y1="65.8" x2="42.2" y2="14"/>
			<circle class="st0" cx="42.2" cy="69.9" r="4.1"/>
		</g>
		<g>
			<line class="st0" x1="57.8" y1="86" x2="57.8" y2="54.1"/>
			<line class="st0" x1="57.8" y1="45.9" x2="57.8" y2="14.2"/>
			<circle class="st0" cx="57.8" cy="50" r="4.1"/>
		</g>
		<g>
			<line class="st0" x1="73.3" y1="86" x2="73.3" y2="68.9"/>
			<line class="st0" x1="73.3" y1="60.6" x2="73.3" y2="14.2"/>
			<circle class="st0" cx="73.3" cy="64.8" r="4.1"/>
		</g>
	</g>
	<path class="st0" d="M79,85.8H21c-3.8,0-6.9-3.1-6.9-6.9V21c0-3.8,3.1-6.9,6.9-6.9H79c3.8,0,6.9,3.1,6.9,6.9V79
		C85.8,82.8,82.8,85.8,79,85.8z"/>
</g>
</svg>
