<?xml version="1.0" encoding="utf-8"?>
<!-- Generator: Adobe Illustrator 22.0.0, SVG Export Plug-In . SVG Version: 6.00 Build 0)  -->
<svg version="1.1" id="Layer_1" xmlns="http://www.w3.org/2000/svg" xmlns:xlink="http://www.w3.org/1999/xlink" x="0px" y="0px"
	 viewBox="0 0 100 100" style="enable-background:new 0 0 100 100;" xml:space="preserve">
<style type="text/css">
	.st0{fill:none;stroke:#000000;stroke-width:2;stroke-miterlimit:10;}
	.st1{fill:none;}
	.st2{fill:none;stroke:#000000;stroke-width:2;stroke-linecap:round;stroke-miterlimit:10;stroke-dasharray:7;}
	.st3{fill:none;stroke:#000000;stroke-width:2;stroke-linecap:round;stroke-miterlimit:10;}
	.st4{fill:none;stroke:#000000;stroke-width:2;stroke-linecap:round;stroke-linejoin:round;stroke-miterlimit:10;}
	.st5{fill:none;stroke:#000000;stroke-width:2;stroke-linecap:square;stroke-miterlimit:10;}
	.st6{fill:none;stroke:#000000;stroke-width:2;stroke-miterlimit:10;stroke-dasharray:5.3638,5.3638;}
</style>
<g>
	<path class="st0" d="M78.6,83.2H21.4c-3.2,0-5.7-2.6-5.7-5.7V59c0-3.2,2.6-5.7,5.7-5.7h57.2c3.2,0,5.7,2.6,5.7,5.7v18.4
		C84.3,80.6,81.8,83.2,78.6,83.2z"/>
	<g>
		<path d="M32.7,72.5c-0.3,0.2-0.6,0.4-1,0.6c-0.4,0.2-0.7,0.3-1.2,0.4c-0.4,0.1-0.9,0.1-1.4,0.1c-0.8,0-1.5-0.1-2.2-0.4
			c-0.7-0.3-1.3-0.7-1.8-1.2c-0.5-0.5-0.9-1.1-1.2-1.8c-0.3-0.7-0.4-1.4-0.4-2.2v0c0-0.8,0.1-1.5,0.4-2.2c0.3-0.7,0.7-1.3,1.2-1.8
			c0.5-0.5,1.1-0.9,1.8-1.2c0.7-0.3,1.5-0.4,2.3-0.4c0.5,0,1,0,1.4,0.1c0.4,0.1,0.8,0.2,1.1,0.3c0.3,0.1,0.7,0.3,0.9,0.5
			c0.3,0.2,0.6,0.4,0.8,0.7L32,65.9c-0.4-0.4-0.9-0.7-1.3-0.9c-0.4-0.2-0.9-0.3-1.5-0.3c-0.5,0-0.9,0.1-1.3,0.3s-0.7,0.4-1,0.7
			c-0.3,0.3-0.5,0.7-0.7,1.1c-0.2,0.4-0.2,0.8-0.2,1.3v0c0,0.5,0.1,0.9,0.2,1.3c0.2,0.4,0.4,0.8,0.6,1.1s0.6,0.6,1,0.7
			c0.4,0.2,0.8,0.3,1.3,0.3c0.6,0,1.1-0.1,1.6-0.3c0.4-0.2,0.9-0.5,1.3-0.9l1.5,1.5C33.3,72,33,72.3,32.7,72.5z"/>
		<path d="M35.5,73.5V62.7h2.4v8.7h5.4v2.2H35.5z"/>
		<path d="M55.7,70.2c-0.3,0.7-0.7,1.3-1.2,1.8c-0.5,0.5-1.1,0.9-1.8,1.2c-0.7,0.3-1.5,0.4-2.3,0.4c-0.8,0-1.6-0.1-2.3-0.4
			c-0.7-0.3-1.3-0.7-1.8-1.2c-0.5-0.5-0.9-1.1-1.2-1.8c-0.3-0.7-0.4-1.4-0.4-2.2v0c0-0.8,0.1-1.5,0.4-2.2c0.3-0.7,0.7-1.3,1.2-1.8
			c0.5-0.5,1.1-0.9,1.8-1.2c0.7-0.3,1.5-0.4,2.3-0.4s1.6,0.1,2.3,0.4c0.7,0.3,1.3,0.7,1.8,1.2s0.9,1.1,1.2,1.8
			c0.3,0.7,0.4,1.4,0.4,2.2v0C56.1,68.8,56,69.6,55.7,70.2z M53.6,68.1c0-0.5-0.1-0.9-0.2-1.3S53,66,52.7,65.7
			c-0.3-0.3-0.6-0.6-1-0.7c-0.4-0.2-0.8-0.3-1.3-0.3c-0.5,0-0.9,0.1-1.3,0.3c-0.4,0.2-0.7,0.4-1,0.7s-0.5,0.7-0.7,1.1
			c-0.2,0.4-0.2,0.8-0.2,1.3v0c0,0.5,0.1,0.9,0.2,1.3s0.4,0.8,0.7,1.1s0.6,0.6,1,0.7s0.8,0.3,1.3,0.3c0.5,0,0.9-0.1,1.3-0.3
			s0.7-0.4,1-0.7c0.3-0.3,0.5-0.7,0.7-1.1C53.6,69,53.6,68.6,53.6,68.1L53.6,68.1z"/>
		<path d="M65.8,71.7c-0.2,0.4-0.5,0.8-0.8,1.1s-0.8,0.5-1.2,0.7c-0.5,0.1-1,0.2-1.6,0.2c-0.8,0-1.6-0.1-2.4-0.4
			c-0.8-0.3-1.5-0.7-2.2-1.3l1.4-1.7c0.5,0.4,1,0.7,1.5,1c0.5,0.2,1.1,0.4,1.7,0.4c0.5,0,0.9-0.1,1.2-0.3s0.4-0.4,0.4-0.8v0
			c0-0.2,0-0.3-0.1-0.4c-0.1-0.1-0.2-0.2-0.3-0.3c-0.2-0.1-0.4-0.2-0.7-0.3c-0.3-0.1-0.7-0.2-1.1-0.3c-0.5-0.1-1-0.3-1.5-0.4
			s-0.8-0.4-1.1-0.6c-0.3-0.2-0.6-0.5-0.7-0.9s-0.3-0.8-0.3-1.3v0c0-0.5,0.1-0.9,0.3-1.3c0.2-0.4,0.4-0.7,0.8-1
			c0.3-0.3,0.7-0.5,1.2-0.7c0.5-0.2,1-0.2,1.5-0.2c0.8,0,1.5,0.1,2.2,0.4c0.7,0.2,1.3,0.6,1.8,1l-1.2,1.8c-0.5-0.3-1-0.6-1.4-0.8
			c-0.5-0.2-0.9-0.3-1.4-0.3c-0.5,0-0.8,0.1-1,0.3s-0.3,0.4-0.3,0.7v0c0,0.2,0,0.3,0.1,0.5c0.1,0.1,0.2,0.2,0.4,0.3
			c0.2,0.1,0.4,0.2,0.7,0.3c0.3,0.1,0.7,0.2,1.2,0.3c0.5,0.1,1,0.3,1.5,0.5c0.4,0.2,0.8,0.4,1.1,0.7c0.3,0.3,0.5,0.5,0.7,0.9
			s0.2,0.7,0.2,1.2v0C66.1,70.8,66,71.3,65.8,71.7z"/>
		<path d="M68.2,73.5V62.7h8.2v2.1h-5.8V67h5.1v2.1h-5.1v2.3h5.9v2.1H68.2z"/>
	</g>
	<polyline class="st0" points="29.3,53.3 50,30.3 70.7,53.3 	"/>
	<circle class="st0" cx="50" cy="22.6" r="5.8"/>
</g>
</svg>
