<?xml version="1.0" encoding="utf-8"?>
<!-- Generator: Adobe Illustrator 22.0.0, SVG Export Plug-In . SVG Version: 6.00 Build 0)  -->
<svg version="1.1" id="Layer_1" xmlns="http://www.w3.org/2000/svg" xmlns:xlink="http://www.w3.org/1999/xlink" x="0px" y="0px"
	 viewBox="0 0 100 100" style="enable-background:new 0 0 100 100;" xml:space="preserve">
<style type="text/css">
	.st0{fill:none;stroke:#000000;stroke-width:2;stroke-miterlimit:10;}
	.st1{fill:none;}
	.st2{fill:none;stroke:#000000;stroke-width:2;stroke-linecap:round;stroke-miterlimit:10;stroke-dasharray:7;}
	.st3{fill:none;stroke:#000000;stroke-width:2;stroke-linecap:round;stroke-miterlimit:10;}
	.st4{fill:none;stroke:#000000;stroke-width:2;stroke-linecap:round;stroke-linejoin:round;stroke-miterlimit:10;}
	.st5{fill:none;stroke:#000000;stroke-width:2;stroke-linecap:square;stroke-miterlimit:10;}
	.st6{fill:none;stroke:#000000;stroke-width:2;stroke-miterlimit:10;stroke-dasharray:5.3638,5.3638;}
</style>
<g>
	<path class="st0" d="M85.2,37v43.2c0,2.6-2.1,4.8-4.8,4.8H19.5c-2.6,0-4.8-2.1-4.8-4.8V37c0-2.6,2.1-4.8,4.8-4.8h60.9
		C83.1,32.2,85.2,34.3,85.2,37z"/>
	<g>
		<path class="st0" d="M36.3,84.9c0.4-1.8,0.6-3.6,0.6-5.5c0-12.3-8.2-22.4-18.3-22.4c-1.3,0-2.6,0.2-3.8,0.5"/>
		<path class="st0" d="M63.7,84.9c-0.4-1.8-0.6-3.6-0.6-5.5c0-12.3,8.2-22.4,18.3-22.4c1.3,0,2.6,0.2,3.8,0.5"/>
	</g>
	<path class="st0" d="M14.8,53.2L14.8,53.2c0-5.1,4.1-9.2,9.2-9.2h52.2c5.1,0,9.2,4.1,9.2,9.2v0"/>
	<polyline class="st0" points="43.5,44 43.5,84.9 56.5,84.9 56.5,44 	"/>
	<g>
		<path class="st0" d="M32.5,32.2v-8.8v-3.6c0-2.6,2.1-4.7,4.7-4.7h3.6h18.4h3.6c2.6,0,4.7,2.1,4.7,4.7v3.6v8.8"/>
		<polyline class="st0" points="59.2,32.2 59.2,23.4 40.8,23.4 40.8,32.2 		"/>
	</g>
	<line class="st0" x1="56.5" y1="58.5" x2="43.5" y2="58.5"/>
	<line class="st0" x1="56.5" y1="53.2" x2="43.5" y2="53.2"/>
</g>
</svg>
