<?xml version="1.0" encoding="utf-8"?>
<!-- Generator: Adobe Illustrator 22.0.0, SVG Export Plug-In . SVG Version: 6.00 Build 0)  -->
<svg version="1.1" id="Layer_1" xmlns="http://www.w3.org/2000/svg" xmlns:xlink="http://www.w3.org/1999/xlink" x="0px" y="0px"
	 viewBox="0 0 100 100" style="enable-background:new 0 0 100 100;" xml:space="preserve">
<style type="text/css">
	.st0{fill:none;stroke:#000000;stroke-width:2;stroke-miterlimit:10;}
	.st1{fill:none;}
	.st2{fill:none;stroke:#000000;stroke-width:2;stroke-linecap:round;stroke-miterlimit:10;stroke-dasharray:7;}
	.st3{fill:none;stroke:#000000;stroke-width:2;stroke-linecap:round;stroke-miterlimit:10;}
	.st4{fill:none;stroke:#000000;stroke-width:2;stroke-linecap:round;stroke-linejoin:round;stroke-miterlimit:10;}
	.st5{fill:none;stroke:#000000;stroke-width:2;stroke-linecap:square;stroke-miterlimit:10;}
	.st6{fill:none;stroke:#000000;stroke-width:2;stroke-miterlimit:10;stroke-dasharray:5.3638,5.3638;}
</style>
<g>
	<path class="st0" d="M38,38h-7.5v6.5c0,10.8,8.7,19.5,19.5,19.5h0c10.8,0,19.5-8.7,19.5-19.5V38H62"/>
	<path class="st0" d="M50,56.6L50,56.6c-6.6,0-12-5.4-12-12V26c0-6.6,5.4-12,12-12h0c6.6,0,12,5.4,12,12v18.6
		C62,51.2,56.6,56.6,50,56.6z"/>
	<line class="st0" x1="50" y1="64.1" x2="50" y2="86"/>
	<line class="st0" x1="38.7" y1="86" x2="61.3" y2="86"/>
	<line class="st0" x1="29" y1="14.3" x2="71" y2="56.3"/>
</g>
</svg>
