<?xml version="1.0" encoding="utf-8"?>
<!-- Generator: Adobe Illustrator 22.0.0, SVG Export Plug-In . SVG Version: 6.00 Build 0)  -->
<svg version="1.1" id="Layer_1" xmlns="http://www.w3.org/2000/svg" xmlns:xlink="http://www.w3.org/1999/xlink" x="0px" y="0px"
	 viewBox="0 0 100 100" style="enable-background:new 0 0 100 100;" xml:space="preserve">
<style type="text/css">
	.st0{fill:none;stroke:#000000;stroke-width:2;stroke-miterlimit:10;}
	.st1{fill:none;}
	.st2{fill:none;stroke:#000000;stroke-width:2;stroke-linecap:round;stroke-miterlimit:10;stroke-dasharray:7;}
	.st3{fill:none;stroke:#000000;stroke-width:2;stroke-linecap:round;stroke-miterlimit:10;}
	.st4{fill:none;stroke:#000000;stroke-width:2;stroke-linecap:round;stroke-linejoin:round;stroke-miterlimit:10;}
	.st5{fill:none;stroke:#000000;stroke-width:2;stroke-linecap:square;stroke-miterlimit:10;}
	.st6{fill:none;stroke:#000000;stroke-width:2;stroke-miterlimit:10;stroke-dasharray:5.3638,5.3638;}
</style>
<g>
	<g>
		<path class="st0" d="M28.5,56.1h-8c-0.9,0-1.7-0.2-2.4-0.5c-2.4-1-4.2-3.3-4.2-6.1V35.2c0-1.4,1.1-2.5,2.5-2.5h67.1
			c1.4,0,2.5,1.1,2.5,2.5v14.3c0,2.8-1.7,5.1-4.2,6.1c-0.8,0.3-1.6,0.5-2.4,0.5h-8"/>
		<line class="st0" x1="64" y1="56.1" x2="36" y2="56.1"/>
		<path class="st0" d="M81.9,55.7v21.7c0,1.2-1,2.2-2.2,2.2H20.3c-1.2,0-2.2-1-2.2-2.2V55.7"/>
	</g>
	<g>
		<path class="st0" d="M32.3,66.8L32.3,66.8c-2.1,0-3.7-1.7-3.7-3.7V47.3c0-2.1,1.7-3.7,3.7-3.7h0c2.1,0,3.7,1.7,3.7,3.7V63
			C36,65.1,34.3,66.8,32.3,66.8z"/>
		<path class="st0" d="M67.7,66.8L67.7,66.8c-2.1,0-3.7-1.7-3.7-3.7V47.3c0-2.1,1.7-3.7,3.7-3.7h0c2.1,0,3.7,1.7,3.7,3.7V63
			C71.5,65.1,69.8,66.8,67.7,66.8z"/>
	</g>
	<path class="st0" d="M33.6,32.7v-7.9c0-2.4,2-4.4,4.4-4.4h24c2.4,0,4.4,2,4.4,4.4v7.9"/>
</g>
</svg>
