<?xml version="1.0" encoding="utf-8"?>
<!-- Generator: Adobe Illustrator 22.0.0, SVG Export Plug-In . SVG Version: 6.00 Build 0)  -->
<svg version="1.1" id="Layer_1" xmlns="http://www.w3.org/2000/svg" xmlns:xlink="http://www.w3.org/1999/xlink" x="0px" y="0px"
	 viewBox="0 0 100 100" style="enable-background:new 0 0 100 100;" xml:space="preserve">
<style type="text/css">
	.st0{fill:none;stroke:#000000;stroke-width:2;stroke-miterlimit:10;}
	.st1{fill:none;}
	.st2{fill:none;stroke:#000000;stroke-width:2;stroke-linecap:round;stroke-miterlimit:10;stroke-dasharray:7;}
	.st3{fill:none;stroke:#000000;stroke-width:2;stroke-linecap:round;stroke-miterlimit:10;}
	.st4{fill:none;stroke:#000000;stroke-width:2;stroke-linecap:round;stroke-linejoin:round;stroke-miterlimit:10;}
	.st5{fill:none;stroke:#000000;stroke-width:2;stroke-linecap:square;stroke-miterlimit:10;}
	.st6{fill:none;stroke:#000000;stroke-width:2;stroke-miterlimit:10;stroke-dasharray:5.3638,5.3638;}
</style>
<g>
	<polygon class="st0" points="77.9,60.1 41.1,51.1 41.1,32.1 77.9,23 	"/>
	<path class="st0" d="M40.7,55H23.3c-0.2,0-0.4-0.2-0.4-0.4v-26c0-0.2,0.2-0.4,0.4-0.4h17.4c0.2,0,0.4,0.2,0.4,0.4v26
		C41.1,54.8,41,55,40.7,55z"/>
	<polygon class="st0" points="44.5,77 34.1,77 26.8,55 37.2,55 	"/>
	<path class="st0" d="M77.9,32.7c4.6,0.4,8.1,4.2,8.1,8.9c0,2.5-1,4.7-2.6,6.3c-1.4,1.4-3.4,2.4-5.5,2.6"/>
	<path class="st0" d="M23,48.1h-8.7c-0.2,0-0.4-0.2-0.4-0.4V35.5c0-0.2,0.2-0.4,0.4-0.4H23"/>
</g>
</svg>
