<?xml version="1.0" encoding="utf-8"?>
<!-- Generator: Adobe Illustrator 22.0.0, SVG Export Plug-In . SVG Version: 6.00 Build 0)  -->
<svg version="1.1" id="Layer_1" xmlns="http://www.w3.org/2000/svg" xmlns:xlink="http://www.w3.org/1999/xlink" x="0px" y="0px"
	 viewBox="0 0 100 100" style="enable-background:new 0 0 100 100;" xml:space="preserve">
<style type="text/css">
	.st0{fill:none;stroke:#000000;stroke-width:2;stroke-miterlimit:10;}
	.st1{fill:none;}
	.st2{fill:none;stroke:#000000;stroke-width:2;stroke-linecap:round;stroke-miterlimit:10;stroke-dasharray:7;}
	.st3{fill:none;stroke:#000000;stroke-width:2;stroke-linecap:round;stroke-miterlimit:10;}
	.st4{fill:none;stroke:#000000;stroke-width:2;stroke-linecap:round;stroke-linejoin:round;stroke-miterlimit:10;}
	.st5{fill:none;stroke:#000000;stroke-width:2;stroke-linecap:square;stroke-miterlimit:10;}
	.st6{fill:none;stroke:#000000;stroke-width:2;stroke-miterlimit:10;stroke-dasharray:5.3638,5.3638;}
</style>
<g>
	<path class="st0" d="M71.8,48c0,11.4-9.3,20.7-20.7,20.7h0h-2.3c-11.4,0-20.7-9.3-20.7-20.7"/>
	<line class="st0" x1="50" y1="86" x2="50" y2="68.7"/>
	<line class="st0" x1="38.7" y1="86" x2="61.3" y2="86"/>
	<g>
		<path class="st0" d="M50,59.9L50,59.9c-6.9,0-12.4-5.6-12.4-12.4V26.4C37.6,19.6,43.1,14,50,14h0c6.9,0,12.4,5.6,12.4,12.4v21.1
			C62.4,54.3,56.9,59.9,50,59.9z"/>
		<g>
			<line class="st0" x1="37.6" y1="26" x2="50" y2="26"/>
			<line class="st0" x1="37.6" y1="36.9" x2="50" y2="36.9"/>
			<line class="st0" x1="37.6" y1="47.8" x2="50" y2="47.8"/>
		</g>
	</g>
</g>
</svg>
