<?xml version="1.0" encoding="utf-8"?>
<!-- Generator: Adobe Illustrator 22.0.0, SVG Export Plug-In . SVG Version: 6.00 Build 0)  -->
<svg version="1.1" id="Layer_1" xmlns="http://www.w3.org/2000/svg" xmlns:xlink="http://www.w3.org/1999/xlink" x="0px" y="0px"
	 viewBox="0 0 100 100" style="enable-background:new 0 0 100 100;" xml:space="preserve">
<style type="text/css">
	.st0{fill:none;stroke:#000000;stroke-width:2;stroke-miterlimit:10;}
	.st1{fill:none;}
	.st2{fill:none;stroke:#000000;stroke-width:2;stroke-linecap:round;stroke-miterlimit:10;stroke-dasharray:7;}
	.st3{fill:none;stroke:#000000;stroke-width:2;stroke-linecap:round;stroke-miterlimit:10;}
	.st4{fill:none;stroke:#000000;stroke-width:2;stroke-linecap:round;stroke-linejoin:round;stroke-miterlimit:10;}
	.st5{fill:none;stroke:#000000;stroke-width:2;stroke-linecap:square;stroke-miterlimit:10;}
	.st6{fill:none;stroke:#000000;stroke-width:2;stroke-miterlimit:10;stroke-dasharray:5.3638,5.3638;}
</style>
<g>
	<g>
		<path class="st0" d="M27,42.3v7.7c0,12.7,10.3,23,23,23h0c12.7,0,23-10.3,23-23v-7.7"/>
		<path class="st0" d="M50,64.2L50,64.2c-7.8,0-14.2-6.3-14.2-14.2V28.2C35.8,20.3,42.2,14,50,14h0c7.8,0,14.2,6.3,14.2,14.2v21.9
			C64.2,57.9,57.8,64.2,50,64.2z"/>
	</g>
	<line class="st0" x1="50" y1="73.1" x2="50" y2="85.9"/>
	<line class="st0" x1="36.6" y1="86" x2="63.4" y2="86"/>
	<line class="st0" x1="64.2" y1="39.1" x2="35.8" y2="39.1"/>
	<line class="st0" x1="50" y1="14" x2="50" y2="39.1"/>
	<line class="st0" x1="35.8" y1="28.2" x2="64.2" y2="28.2"/>
</g>
</svg>
