<?xml version="1.0" encoding="utf-8"?>
<!-- Generator: Adobe Illustrator 22.0.0, SVG Export Plug-In . SVG Version: 6.00 Build 0)  -->
<svg version="1.1" id="Layer_1" xmlns="http://www.w3.org/2000/svg" xmlns:xlink="http://www.w3.org/1999/xlink" x="0px" y="0px"
	 viewBox="0 0 100 100" style="enable-background:new 0 0 100 100;" xml:space="preserve">
<style type="text/css">
	.st0{fill:none;stroke:#000000;stroke-width:2;stroke-miterlimit:10;}
	.st1{fill:none;}
	.st2{fill:none;stroke:#000000;stroke-width:2;stroke-linecap:round;stroke-miterlimit:10;stroke-dasharray:7;}
	.st3{fill:none;stroke:#000000;stroke-width:2;stroke-linecap:round;stroke-miterlimit:10;}
	.st4{fill:none;stroke:#000000;stroke-width:2;stroke-linecap:round;stroke-linejoin:round;stroke-miterlimit:10;}
	.st5{fill:none;stroke:#000000;stroke-width:2;stroke-linecap:square;stroke-miterlimit:10;}
	.st6{fill:none;stroke:#000000;stroke-width:2;stroke-miterlimit:10;stroke-dasharray:5.3638,5.3638;}
</style>
<g>
	<g>
		<path class="st0" d="M41.5,27.9l-6.4,6.4c-1.9,1.9-4.9,1.9-6.8,0l-5.8-5.8c-1.9-1.9-1.9-4.9,0-6.8l6.4-6.4c1.9-1.9,4.9-1.9,6.8,0
			l5.8,5.8C43.4,23,43.4,26,41.5,27.9z"/>
		<path class="st0" d="M58,38.3L45.5,50.8c-1.2,1.2-3.2,1.2-4.4,0l-9.1-9.1c-1.2-1.2-1.2-3.2,0-4.4l12.5-12.5c1.2-1.2,3.2-1.2,4.4,0
			l9.1,9.1C59.2,35.1,59.2,37.1,58,38.3z"/>
		<polygon class="st0" points="75.9,63.2 70.4,68.6 47.1,49.3 56.5,39.8 		"/>
	</g>
	<path class="st0" d="M73.2,65.9l2.9,2.9c2,2,2,5.2,0,7.2l0,0c-2,2-2,5.2,0,7.2l2.8,2.8"/>
</g>
</svg>
