<?xml version="1.0" encoding="utf-8"?>
<!-- Generator: Adobe Illustrator 22.0.0, SVG Export Plug-In . SVG Version: 6.00 Build 0)  -->
<svg version="1.1" id="Layer_1" xmlns="http://www.w3.org/2000/svg" xmlns:xlink="http://www.w3.org/1999/xlink" x="0px" y="0px"
	 viewBox="0 0 100 100" style="enable-background:new 0 0 100 100;" xml:space="preserve">
<style type="text/css">
	.st0{fill:none;stroke:#000000;stroke-width:2;stroke-miterlimit:10;}
	.st1{fill:none;}
	.st2{fill:none;stroke:#000000;stroke-width:2;stroke-linecap:round;stroke-miterlimit:10;stroke-dasharray:7;}
	.st3{fill:none;stroke:#000000;stroke-width:2;stroke-linecap:round;stroke-miterlimit:10;}
	.st4{fill:none;stroke:#000000;stroke-width:2;stroke-linecap:round;stroke-linejoin:round;stroke-miterlimit:10;}
	.st5{fill:none;stroke:#000000;stroke-width:2;stroke-linecap:square;stroke-miterlimit:10;}
	.st6{fill:none;stroke:#000000;stroke-width:2;stroke-miterlimit:10;stroke-dasharray:5.3638,5.3638;}
</style>
<g>
	<path class="st0" d="M42,54.2h-5v4.3c0,7.1,5.8,12.9,12.9,12.9h0c7.1,0,12.9-5.8,12.9-12.9v-4.3h-5"/>
	<path class="st0" d="M50,66.5L50,66.5c-4.4,0-8-3.6-8-8V46.2c0-4.4,3.6-8,8-8h0c4.4,0,8,3.6,8,8v12.3C58,62.9,54.4,66.5,50,66.5z"
		/>
	<line class="st0" x1="50" y1="71.5" x2="50" y2="86"/>
	<line class="st0" x1="42.5" y1="86" x2="57.5" y2="86"/>
	<g>
		<path class="st0" d="M39.5,35.6c3.3-2.5,6.9-4.2,10.5-4.2s7.2,1.7,10.5,4.2"/>
		<path class="st0" d="M27.2,23.2c7.3-6,14.9-9.2,22.8-9.2s15.6,3.2,22.8,9.2"/>
		<path class="st0" d="M39.5,35.6c3.3-2.5,6.9-4.2,10.5-4.2s7.2,1.7,10.5,4.2"/>
		<path class="st0" d="M33.3,29.4c5.6-4.4,11.2-6.7,16.7-6.7s11.1,2.2,16.7,6.7"/>
	</g>
</g>
</svg>
