<?xml version="1.0" encoding="utf-8"?>
<!-- Generator: Adobe Illustrator 22.0.0, SVG Export Plug-In . SVG Version: 6.00 Build 0)  -->
<svg version="1.1" id="Layer_1" xmlns="http://www.w3.org/2000/svg" xmlns:xlink="http://www.w3.org/1999/xlink" x="0px" y="0px"
	 viewBox="0 0 100 100" style="enable-background:new 0 0 100 100;" xml:space="preserve">
<style type="text/css">
	.st0{fill:none;stroke:#000000;stroke-width:2;stroke-miterlimit:10;}
	.st1{fill:none;}
	.st2{fill:none;stroke:#000000;stroke-width:2;stroke-linecap:round;stroke-miterlimit:10;stroke-dasharray:7;}
	.st3{fill:none;stroke:#000000;stroke-width:2;stroke-linecap:round;stroke-miterlimit:10;}
	.st4{fill:none;stroke:#000000;stroke-width:2;stroke-linecap:round;stroke-linejoin:round;stroke-miterlimit:10;}
	.st5{fill:none;stroke:#000000;stroke-width:2;stroke-linecap:square;stroke-miterlimit:10;}
	.st6{fill:none;stroke:#000000;stroke-width:2;stroke-miterlimit:10;stroke-dasharray:5.3638,5.3638;}
</style>
<g>
	<g>
		<path class="st0" d="M34.6,41.8c-0.9,2.1-1.4,4.4-1.4,6.8c0,4.9,2.1,9.4,5.5,12.4c1.4,1.3,2.3,3.1,2.3,5.1v4.6
			c0,1.4,1.1,2.6,2.6,2.6h12.8c1.4,0,2.6-1.1,2.6-2.6V66c0-2,0.9-3.8,2.3-5.1c3.6-3.3,5.8-8.2,5.4-13.6c-0.6-8.1-7-14.7-15-15.5
			C44.1,31.1,37.5,35.4,34.6,41.8z"/>
		<g>
			<line class="st0" x1="50" y1="14.1" x2="50" y2="23.8"/>
			<line class="st0" x1="32.8" y1="18.7" x2="37.6" y2="27.1"/>
			<line class="st0" x1="20.1" y1="31.3" x2="28.6" y2="36.2"/>
			<line class="st0" x1="15.5" y1="48.5" x2="25.3" y2="48.5"/>
			<line class="st0" x1="20.1" y1="65.8" x2="28.6" y2="60.9"/>
			<line class="st0" x1="79.9" y1="65.8" x2="71.4" y2="60.9"/>
			<line class="st0" x1="84.5" y1="48.5" x2="74.7" y2="48.5"/>
			<line class="st0" x1="79.9" y1="31.3" x2="71.4" y2="36.2"/>
			<line class="st0" x1="67.2" y1="18.7" x2="62.4" y2="27.1"/>
		</g>
	</g>
	<path class="st0" d="M54.6,77.4h-9.2c-1.2,0-2.1-0.9-2.1-2.1l0,0c0-1.2,0.9-2.1,2.1-2.1h9.2c1.2,0,2.1,0.9,2.1,2.1l0,0
		C56.7,76.5,55.7,77.4,54.6,77.4z"/>
	<path class="st0" d="M54.6,81.6h-9.2c-1.2,0-2.1-0.9-2.1-2.1l0,0c0-1.2,0.9-2.1,2.1-2.1h9.2c1.2,0,2.1,0.9,2.1,2.1l0,0
		C56.7,80.7,55.7,81.6,54.6,81.6z"/>
	<path class="st0" d="M54.5,81.6L54.5,81.6c0,2.4-1.9,4.3-4.3,4.3h-0.3c-2.4,0-4.3-1.9-4.3-4.3v0"/>
	<path class="st0" d="M50,51.1h-8c0,0,3.6,2.2,5.2,3.2c0,0.3,0,0.4,0,0.4v18.5h5.7V54.7c0,0,0-0.2,0-0.4c1.6-1,5.2-3.2,5.2-3.2H50"
		/>
</g>
</svg>
