<?xml version="1.0" encoding="utf-8"?>
<!-- Generator: Adobe Illustrator 22.0.0, SVG Export Plug-In . SVG Version: 6.00 Build 0)  -->
<svg version="1.1" id="Layer_1" xmlns="http://www.w3.org/2000/svg" xmlns:xlink="http://www.w3.org/1999/xlink" x="0px" y="0px"
	 viewBox="0 0 100 100" style="enable-background:new 0 0 100 100;" xml:space="preserve">
<style type="text/css">
	.st0{fill:none;stroke:#000000;stroke-width:2;stroke-miterlimit:10;}
	.st1{fill:none;}
	.st2{fill:none;stroke:#000000;stroke-width:2;stroke-linecap:round;stroke-miterlimit:10;stroke-dasharray:7;}
	.st3{fill:none;stroke:#000000;stroke-width:2;stroke-linecap:round;stroke-miterlimit:10;}
	.st4{fill:none;stroke:#000000;stroke-width:2;stroke-linecap:round;stroke-linejoin:round;stroke-miterlimit:10;}
	.st5{fill:none;stroke:#000000;stroke-width:2;stroke-linecap:square;stroke-miterlimit:10;}
	.st6{fill:none;stroke:#000000;stroke-width:2;stroke-miterlimit:10;stroke-dasharray:5.3638,5.3638;}
</style>
<g>
	<g>
		<path class="st0" d="M37,57.5V20.5c0-3.6,2.9-6.5,6.5-6.5c1.8,0,3.4,0.7,4.6,1.9s1.9,2.8,1.9,4.6v36.9"/>
		<path class="st0" d="M50,57.5V20.5c0-3.6,2.9-6.5,6.5-6.5c1.8,0,3.4,0.7,4.6,1.9s1.9,2.8,1.9,4.6v36.9"/>
	</g>
	<path class="st0" d="M57.7,73.5H42.3c-5.1,0-9.3-4.2-9.3-9.3v-6.7H67v6.7C67,69.4,62.9,73.5,57.7,73.5z"/>
	<path class="st0" d="M56.5,73.5v10.8c0,0.9-0.8,1.7-1.7,1.7h-9.6c-0.9,0-1.7-0.8-1.7-1.7V73.5"/>
</g>
</svg>
