<?xml version="1.0" encoding="utf-8"?>
<!-- Generator: Adobe Illustrator 22.0.0, SVG Export Plug-In . SVG Version: 6.00 Build 0)  -->
<svg version="1.1" id="Layer_1" xmlns="http://www.w3.org/2000/svg" xmlns:xlink="http://www.w3.org/1999/xlink" x="0px" y="0px"
	 viewBox="0 0 100 100" style="enable-background:new 0 0 100 100;" xml:space="preserve">
<style type="text/css">
	.st0{fill:none;stroke:#000000;stroke-width:2;stroke-miterlimit:10;}
	.st1{fill:none;}
	.st2{fill:none;stroke:#000000;stroke-width:2;stroke-linecap:round;stroke-miterlimit:10;stroke-dasharray:7;}
	.st3{fill:none;stroke:#000000;stroke-width:2;stroke-linecap:round;stroke-miterlimit:10;}
	.st4{fill:none;stroke:#000000;stroke-width:2;stroke-linecap:round;stroke-linejoin:round;stroke-miterlimit:10;}
	.st5{fill:none;stroke:#000000;stroke-width:2;stroke-linecap:square;stroke-miterlimit:10;}
	.st6{fill:none;stroke:#000000;stroke-width:2;stroke-miterlimit:10;stroke-dasharray:5.3638,5.3638;}
</style>
<g>
	<path class="st0" d="M71.1,85.8H28.9c-3.4,0-6.1-2.7-6.1-6.1V48.2c0-15,12.2-27.2,27.2-27.2h0c15,0,27.2,12.2,27.2,27.2v31.4
		C77.2,83,74.5,85.8,71.1,85.8z"/>
	<path class="st0" d="M67.4,78c1.1,0,2-0.9,2-2V48.2c0-0.7,0-1.4-0.1-2.1H30.7c-0.1,0.7-0.1,1.4-0.1,2.1V76c0,1.1,0.9,2,2,2H67.4z"
		/>
	<path class="st0" d="M69.5,48.2c0,7.7-8.7,13.9-19.5,13.9s-19.5-6.2-19.5-13.9"/>
	<path class="st0" d="M59.2,22.7c0-0.2,0-0.5,0-0.7c0-4.2-4.1-7.7-9.3-7.7c-5.1,0-9.3,3.4-9.3,7.7c0,0.2,0,0.5,0,0.7"/>
	<g>
		<line class="st0" x1="45.7" y1="78" x2="45.7" y2="61.7"/>
		<line class="st0" x1="54.3" y1="78" x2="54.3" y2="61.7"/>
	</g>
	<g>
		<path class="st0" d="M22.8,79.7h-3.3c-1.8,0-3.2-1.5-3.2-3.2v-8.8c0-1.3,0.6-2.5,1.5-3.4l5-4.3V79.7z"/>
		<path class="st0" d="M80.5,79.7h-3.3V59.9l5,4.3c1,0.8,1.5,2.1,1.5,3.4v8.8C83.7,78.2,82.3,79.7,80.5,79.7z"/>
	</g>
</g>
</svg>
