<?xml version="1.0" encoding="utf-8"?>
<!-- Generator: Adobe Illustrator 22.0.0, SVG Export Plug-In . SVG Version: 6.00 Build 0)  -->
<svg version="1.1" id="Layer_1" xmlns="http://www.w3.org/2000/svg" xmlns:xlink="http://www.w3.org/1999/xlink" x="0px" y="0px"
	 viewBox="0 0 100 100" style="enable-background:new 0 0 100 100;" xml:space="preserve">
<style type="text/css">
	.st0{fill:none;stroke:#000000;stroke-width:2;stroke-miterlimit:10;}
	.st1{fill:none;}
	.st2{fill:none;stroke:#000000;stroke-width:2;stroke-linecap:round;stroke-miterlimit:10;stroke-dasharray:7;}
	.st3{fill:none;stroke:#000000;stroke-width:2;stroke-linecap:round;stroke-miterlimit:10;}
	.st4{fill:none;stroke:#000000;stroke-width:2;stroke-linecap:round;stroke-linejoin:round;stroke-miterlimit:10;}
	.st5{fill:none;stroke:#000000;stroke-width:2;stroke-linecap:square;stroke-miterlimit:10;}
	.st6{fill:none;stroke:#000000;stroke-width:2;stroke-miterlimit:10;stroke-dasharray:5.3638,5.3638;}
</style>
<g>
	<g>
		<g>
			<line class="st3" x1="42.6" y1="25" x2="57.4" y2="31.6"/>
			<line class="st3" x1="42.6" y1="31" x2="57.4" y2="37.5"/>
			<line class="st3" x1="42.6" y1="36.9" x2="57.4" y2="43.4"/>
			<line class="st3" x1="42.6" y1="42.9" x2="57.4" y2="49.4"/>
			<line class="st3" x1="42.6" y1="48.8" x2="57.4" y2="55.3"/>
		</g>
		<g>
			<path class="st3" d="M45.7,68.3h8.7c1.2,0,2.2-1,2.2-2.2v-3.5H43.4V66C43.4,67.2,44.4,68.3,45.7,68.3z"/>
			<path class="st3" d="M54,68.3v2.7c0,2.2-1.8,4-4,4h0c-2.2,0-4-1.8-4-4v-2.7"/>
			<g>
				<line class="st3" x1="53.5" y1="62.5" x2="53.5" y2="54.4"/>
				<line class="st3" x1="46.5" y1="62.5" x2="46.5" y2="51.3"/>
			</g>
		</g>
	</g>
	<circle class="st3" cx="50" cy="50" r="35.9"/>
</g>
</svg>
