<?xml version="1.0" encoding="utf-8"?>
<!-- Generator: Adobe Illustrator 22.0.0, SVG Export Plug-In . SVG Version: 6.00 Build 0)  -->
<svg version="1.1" id="Layer_1" xmlns="http://www.w3.org/2000/svg" xmlns:xlink="http://www.w3.org/1999/xlink" x="0px" y="0px"
	 viewBox="0 0 100 100" style="enable-background:new 0 0 100 100;" xml:space="preserve">
<style type="text/css">
	.st0{fill:none;stroke:#000000;stroke-width:2;stroke-miterlimit:10;}
	.st1{fill:none;}
	.st2{fill:none;stroke:#000000;stroke-width:2;stroke-linecap:round;stroke-miterlimit:10;stroke-dasharray:7;}
	.st3{fill:none;stroke:#000000;stroke-width:2;stroke-linecap:round;stroke-miterlimit:10;}
	.st4{fill:none;stroke:#000000;stroke-width:2;stroke-linecap:round;stroke-linejoin:round;stroke-miterlimit:10;}
	.st5{fill:none;stroke:#000000;stroke-width:2;stroke-linecap:square;stroke-miterlimit:10;}
	.st6{fill:none;stroke:#000000;stroke-width:2;stroke-miterlimit:10;stroke-dasharray:5.3638,5.3638;}
</style>
<g>
	<path class="st0" d="M74.5,40.9H25.5c-2.7,0-4.9-2.2-4.9-4.9V20.2c0-2.7,2.2-4.9,4.9-4.9h48.9c2.7,0,4.9,2.2,4.9,4.9V36
		C79.3,38.7,77.2,40.9,74.5,40.9z"/>
	<polyline class="st0" points="32.6,40.9 50.2,58.5 67.4,41.3 	"/>
	<line class="st0" x1="50" y1="58.5" x2="50" y2="84.7"/>
	<line class="st0" x1="35.8" y1="84.7" x2="64.2" y2="84.7"/>
	<g>
		<path d="M35.2,31.8c-0.3,0.2-0.5,0.4-0.8,0.5c-0.3,0.1-0.6,0.3-1,0.3c-0.4,0.1-0.8,0.1-1.2,0.1c-0.7,0-1.3-0.1-1.9-0.4
			c-0.6-0.2-1.1-0.6-1.5-1c-0.4-0.4-0.8-0.9-1-1.5s-0.4-1.2-0.4-1.9v0c0-0.7,0.1-1.3,0.4-1.9s0.6-1.1,1-1.5c0.4-0.4,0.9-0.8,1.5-1
			c0.6-0.3,1.2-0.4,2-0.4c0.4,0,0.8,0,1.2,0.1s0.7,0.2,1,0.3c0.3,0.1,0.6,0.3,0.8,0.5c0.2,0.2,0.5,0.4,0.7,0.6l-1.3,1.5
			c-0.4-0.3-0.7-0.6-1.1-0.8S32.7,25,32.2,25c-0.4,0-0.7,0.1-1.1,0.2s-0.6,0.4-0.9,0.6s-0.4,0.6-0.6,0.9c-0.1,0.3-0.2,0.7-0.2,1.1v0
			c0,0.4,0.1,0.8,0.2,1.1c0.1,0.4,0.3,0.7,0.5,0.9c0.2,0.3,0.5,0.5,0.8,0.6s0.7,0.2,1.1,0.2c0.5,0,1-0.1,1.3-0.3
			c0.4-0.2,0.7-0.5,1.1-0.8l1.3,1.3C35.7,31.3,35.5,31.6,35.2,31.8z"/>
		<path d="M37.6,32.6v-9.3h2v7.4h4.6v1.8H37.6z"/>
		<path d="M54.9,29.8c-0.2,0.6-0.6,1.1-1,1.5c-0.4,0.4-1,0.8-1.6,1c-0.6,0.3-1.3,0.4-2,0.4s-1.4-0.1-2-0.4c-0.6-0.3-1.1-0.6-1.6-1
			c-0.4-0.4-0.8-0.9-1-1.5c-0.2-0.6-0.4-1.2-0.4-1.9v0c0-0.7,0.1-1.3,0.4-1.9s0.6-1.1,1-1.5c0.4-0.4,1-0.8,1.6-1
			c0.6-0.3,1.3-0.4,2-0.4s1.4,0.1,2,0.4c0.6,0.3,1.1,0.6,1.6,1c0.4,0.4,0.8,0.9,1,1.5c0.2,0.6,0.4,1.2,0.4,1.9v0
			C55.2,28.6,55.1,29.2,54.9,29.8z M53.1,27.9c0-0.4-0.1-0.8-0.2-1.1c-0.1-0.4-0.3-0.7-0.6-0.9c-0.3-0.3-0.5-0.5-0.9-0.6
			c-0.3-0.2-0.7-0.2-1.1-0.2c-0.4,0-0.8,0.1-1.1,0.2c-0.3,0.2-0.6,0.4-0.9,0.6c-0.2,0.3-0.4,0.6-0.6,0.9s-0.2,0.7-0.2,1.1v0
			c0,0.4,0.1,0.8,0.2,1.1c0.1,0.4,0.3,0.7,0.6,0.9c0.3,0.3,0.5,0.5,0.9,0.6c0.3,0.2,0.7,0.2,1.1,0.2c0.4,0,0.8-0.1,1.1-0.2
			c0.3-0.1,0.6-0.4,0.9-0.6c0.2-0.3,0.4-0.6,0.6-0.9S53.1,28.4,53.1,27.9L53.1,27.9z"/>
		<path d="M63.5,31.1c-0.2,0.4-0.4,0.7-0.7,0.9c-0.3,0.2-0.7,0.4-1.1,0.6s-0.9,0.2-1.4,0.2c-0.7,0-1.4-0.1-2.1-0.4
			c-0.7-0.2-1.3-0.6-1.9-1.1l1.2-1.4c0.4,0.3,0.9,0.6,1.3,0.8c0.4,0.2,0.9,0.3,1.5,0.3c0.4,0,0.8-0.1,1-0.2c0.2-0.2,0.4-0.4,0.4-0.6
			v0c0-0.1,0-0.2-0.1-0.4c0-0.1-0.1-0.2-0.3-0.3c-0.1-0.1-0.3-0.2-0.6-0.3c-0.2-0.1-0.6-0.2-0.9-0.3c-0.5-0.1-0.9-0.2-1.3-0.4
			c-0.4-0.1-0.7-0.3-1-0.5c-0.3-0.2-0.5-0.5-0.6-0.8c-0.1-0.3-0.2-0.7-0.2-1.2v0c0-0.4,0.1-0.8,0.2-1.1c0.2-0.3,0.4-0.6,0.7-0.9
			s0.6-0.4,1-0.6s0.8-0.2,1.3-0.2c0.7,0,1.3,0.1,1.9,0.3c0.6,0.2,1.1,0.5,1.6,0.9l-1.1,1.5c-0.4-0.3-0.8-0.5-1.2-0.7S60.4,25,60,25
			s-0.7,0.1-0.9,0.2c-0.2,0.2-0.3,0.3-0.3,0.6v0c0,0.2,0,0.3,0.1,0.4s0.2,0.2,0.3,0.3c0.2,0.1,0.4,0.2,0.6,0.3
			c0.3,0.1,0.6,0.2,1,0.3c0.5,0.1,0.9,0.3,1.3,0.4c0.4,0.2,0.7,0.3,0.9,0.6c0.3,0.2,0.4,0.5,0.6,0.8c0.1,0.3,0.2,0.6,0.2,1v0
			C63.7,30.3,63.7,30.7,63.5,31.1z"/>
		<path d="M65.5,32.6v-9.3h7v1.8h-5V27h4.4v1.8h-4.4v1.9h5v1.8H65.5z"/>
	</g>
</g>
</svg>
