<?xml version="1.0" encoding="utf-8"?>
<!-- Generator: Adobe Illustrator 22.0.0, SVG Export Plug-In . SVG Version: 6.00 Build 0)  -->
<svg version="1.1" id="Layer_1" xmlns="http://www.w3.org/2000/svg" xmlns:xlink="http://www.w3.org/1999/xlink" x="0px" y="0px"
	 viewBox="0 0 100 100" style="enable-background:new 0 0 100 100;" xml:space="preserve">
<style type="text/css">
	.st0{fill:none;stroke:#000000;stroke-width:2;stroke-miterlimit:10;}
	.st1{fill:none;}
	.st2{fill:none;stroke:#000000;stroke-width:2;stroke-linecap:round;stroke-miterlimit:10;stroke-dasharray:7;}
	.st3{fill:none;stroke:#000000;stroke-width:2;stroke-linecap:round;stroke-miterlimit:10;}
	.st4{fill:none;stroke:#000000;stroke-width:2;stroke-linecap:round;stroke-linejoin:round;stroke-miterlimit:10;}
	.st5{fill:none;stroke:#000000;stroke-width:2;stroke-linecap:square;stroke-miterlimit:10;}
	.st6{fill:none;stroke:#000000;stroke-width:2;stroke-miterlimit:10;stroke-dasharray:5.3638,5.3638;}
</style>
<g>
	<path class="st0" d="M34.6,41.9c-0.9,2.1-1.4,4.4-1.4,6.8c0,4.9,2.1,9.4,5.5,12.4c1.4,1.3,2.3,3.1,2.3,5.1v4.6
		c0,1.4,1.1,2.6,2.6,2.6h12.8c1.4,0,2.6-1.1,2.6-2.6v-4.6c0-2,0.9-3.8,2.3-5.1c3.6-3.3,5.8-8.2,5.4-13.6c-0.6-8.1-7-14.7-15-15.5
		C44.1,31.3,37.5,35.6,34.6,41.9z"/>
	<g>
		<line class="st0" x1="50" y1="14.2" x2="50" y2="24"/>
		<line class="st0" x1="32.8" y1="18.8" x2="37.6" y2="27.3"/>
		<line class="st0" x1="20.1" y1="31.5" x2="28.6" y2="36.3"/>
		<line class="st0" x1="15.5" y1="48.7" x2="25.3" y2="48.7"/>
		<line class="st0" x1="20.1" y1="65.9" x2="28.6" y2="61.1"/>
		<line class="st0" x1="79.9" y1="65.9" x2="71.4" y2="61.1"/>
		<line class="st0" x1="84.5" y1="48.7" x2="74.7" y2="48.7"/>
		<line class="st0" x1="79.9" y1="31.5" x2="71.4" y2="36.3"/>
		<line class="st0" x1="67.2" y1="18.8" x2="62.4" y2="27.3"/>
	</g>
	<g>
		<line class="st0" x1="42" y1="77.6" x2="58" y2="77.6"/>
		<line class="st0" x1="42" y1="81.7" x2="58" y2="81.7"/>
		<line class="st0" x1="42" y1="85.8" x2="58" y2="85.8"/>
	</g>
</g>
</svg>
