<?xml version="1.0" encoding="utf-8"?>
<!-- Generator: Adobe Illustrator 22.0.0, SVG Export Plug-In . SVG Version: 6.00 Build 0)  -->
<svg version="1.1" id="Layer_1" xmlns="http://www.w3.org/2000/svg" xmlns:xlink="http://www.w3.org/1999/xlink" x="0px" y="0px"
	 viewBox="0 0 100 100" style="enable-background:new 0 0 100 100;" xml:space="preserve">
<style type="text/css">
	.st0{fill:none;stroke:#000000;stroke-width:2;stroke-miterlimit:10;}
	.st1{fill:none;}
	.st2{fill:none;stroke:#000000;stroke-width:2;stroke-linecap:round;stroke-miterlimit:10;stroke-dasharray:7;}
	.st3{fill:none;stroke:#000000;stroke-width:2;stroke-linecap:round;stroke-miterlimit:10;}
	.st4{fill:none;stroke:#000000;stroke-width:2;stroke-linecap:round;stroke-linejoin:round;stroke-miterlimit:10;}
	.st5{fill:none;stroke:#000000;stroke-width:2;stroke-linecap:square;stroke-miterlimit:10;}
	.st6{fill:none;stroke:#000000;stroke-width:2;stroke-miterlimit:10;stroke-dasharray:5.3638,5.3638;}
</style>
<g>
	<g>
		<path class="st5" d="M61.4,39.9c1.3,2.7,2.1,5.8,2.1,9.2c0,5-1.7,9.5-4.3,12.6c-3.1,3.6-4.9,8.1-4.9,12.9v0c0,0.7-0.5,1.2-1.2,1.2
			h-6c-0.7,0-1.2-0.5-1.2-1.2v0c0-4.8-1.8-9.3-4.9-12.9c-2.7-3.1-4.3-7.6-4.3-12.6c0-9.5,6-17.1,13.5-17.1
			C54.8,32,59,35.1,61.4,39.9z"/>
		<line class="st5" x1="50" y1="23.1" x2="50" y2="14.1"/>
		<line class="st5" x1="40.1" y1="25.8" x2="35.6" y2="17.9"/>
		<line class="st5" x1="32.8" y1="33" x2="25" y2="28.5"/>
		<line class="st5" x1="67.2" y1="33" x2="75" y2="28.5"/>
		<line class="st5" x1="59.9" y1="25.8" x2="64.4" y2="17.9"/>
	</g>
	<line class="st0" x1="45.8" y1="81" x2="54.2" y2="81"/>
	<line class="st0" x1="45.8" y1="85.9" x2="54.2" y2="85.9"/>
</g>
</svg>
