<?xml version="1.0" encoding="utf-8"?>
<!-- Generator: Adobe Illustrator 22.0.0, SVG Export Plug-In . SVG Version: 6.00 Build 0)  -->
<svg version="1.1" id="Layer_1" xmlns="http://www.w3.org/2000/svg" xmlns:xlink="http://www.w3.org/1999/xlink" x="0px" y="0px"
	 viewBox="0 0 100 100" style="enable-background:new 0 0 100 100;" xml:space="preserve">
<style type="text/css">
	.st0{fill:none;stroke:#000000;stroke-width:2;stroke-miterlimit:10;}
	.st1{fill:none;}
	.st2{fill:none;stroke:#000000;stroke-width:2;stroke-linecap:round;stroke-miterlimit:10;stroke-dasharray:7;}
	.st3{fill:none;stroke:#000000;stroke-width:2;stroke-linecap:round;stroke-miterlimit:10;}
	.st4{fill:none;stroke:#000000;stroke-width:2;stroke-linecap:round;stroke-linejoin:round;stroke-miterlimit:10;}
	.st5{fill:none;stroke:#000000;stroke-width:2;stroke-linecap:square;stroke-miterlimit:10;}
	.st6{fill:none;stroke:#000000;stroke-width:2;stroke-miterlimit:10;stroke-dasharray:5.3638,5.3638;}
</style>
<g>
	<path class="st0" d="M86.1,36.8v35.9c0,4.3-3.5,7.7-7.7,7.7H21.6c-4.3,0-7.7-3.5-7.7-7.7V36.8c0-4.3,3.5-7.7,7.7-7.7h56.8
		C82.7,29.1,86.1,32.6,86.1,36.8z"/>
	<path class="st0" d="M63.2,29.1v-6.7c0-1.6-1.3-2.9-2.9-2.9H39.8c-1.6,0-2.9,1.3-2.9,2.9v6.7"/>
	<path class="st0" d="M55.6,55.8c11.8-0.9,22.4-4.8,30.5-10.5v-8.5c0-4.3-3.5-7.7-7.7-7.7H63.2v-6.7c0-1.6-1.3-2.9-2.9-2.9H39.8
		c-1.6,0-2.9,1.3-2.9,2.9v6.7H21.6c-4.3,0-7.7,3.5-7.7,7.7v8.5c8.1,5.7,18.7,9.6,30.5,10.5"/>
	<rect x="44.4" y="50.4" class="st0" width="11.3" height="11.3"/>
	<line class="st0" x1="50" y1="61.7" x2="50" y2="80.5"/>
</g>
</svg>
