<?xml version="1.0" encoding="utf-8"?>
<!-- Generator: Adobe Illustrator 22.0.0, SVG Export Plug-In . SVG Version: 6.00 Build 0)  -->
<svg version="1.1" id="Layer_1" xmlns="http://www.w3.org/2000/svg" xmlns:xlink="http://www.w3.org/1999/xlink" x="0px" y="0px"
	 viewBox="0 0 100 100" style="enable-background:new 0 0 100 100;" xml:space="preserve">
<style type="text/css">
	.st0{fill:none;stroke:#000000;stroke-width:2;stroke-miterlimit:10;}
	.st1{fill:none;}
	.st2{fill:none;stroke:#000000;stroke-width:2;stroke-linecap:round;stroke-miterlimit:10;stroke-dasharray:7;}
	.st3{fill:none;stroke:#000000;stroke-width:2;stroke-linecap:round;stroke-miterlimit:10;}
	.st4{fill:none;stroke:#000000;stroke-width:2;stroke-linecap:round;stroke-linejoin:round;stroke-miterlimit:10;}
	.st5{fill:none;stroke:#000000;stroke-width:2;stroke-linecap:square;stroke-miterlimit:10;}
	.st6{fill:none;stroke:#000000;stroke-width:2;stroke-miterlimit:10;stroke-dasharray:5.3638,5.3638;}
</style>
<g>
	<path class="st0" d="M50.1,75.5H31.6c-0.6,0-1.2-0.3-1.4-0.9L14.7,45.4c-0.2-0.3-0.2-0.6-0.2-1V42c0-1.6,1.3-2.9,2.9-2.9h65.4
		c1.6,0,2.9,1.3,2.9,2.9v2.3c0,0.3-0.1,0.7-0.2,1L69.9,74.6c-0.3,0.5-0.8,0.9-1.4,0.9H49.9"/>
	<g>
		<line class="st0" x1="30.6" y1="75.5" x2="30.6" y2="39.2"/>
		<line class="st0" x1="69.4" y1="75.5" x2="69.4" y2="39.2"/>
	</g>
	<path class="st0" d="M41.3,39.2l0.4-6.9c0.3-4.4,3.9-7.8,8.3-7.8c2.2,0,4.2,0.9,5.7,2.3c1.5,1.4,2.5,3.3,2.6,5.5l0.4,6.9"/>
	<line class="st3" x1="30.6" y1="52.6" x2="69.4" y2="52.6"/>
</g>
</svg>
