<?xml version="1.0" encoding="utf-8"?>
<!-- Generator: Adobe Illustrator 22.0.0, SVG Export Plug-In . SVG Version: 6.00 Build 0)  -->
<svg version="1.1" id="Layer_1" xmlns="http://www.w3.org/2000/svg" xmlns:xlink="http://www.w3.org/1999/xlink" x="0px" y="0px"
	 viewBox="0 0 100 100" style="enable-background:new 0 0 100 100;" xml:space="preserve">
<style type="text/css">
	.st0{fill:none;stroke:#000000;stroke-width:2;stroke-miterlimit:10;}
	.st1{fill:none;}
	.st2{fill:none;stroke:#000000;stroke-width:2;stroke-linecap:round;stroke-miterlimit:10;stroke-dasharray:7;}
	.st3{fill:none;stroke:#000000;stroke-width:2;stroke-linecap:round;stroke-miterlimit:10;}
	.st4{fill:none;stroke:#000000;stroke-width:2;stroke-linecap:round;stroke-linejoin:round;stroke-miterlimit:10;}
	.st5{fill:none;stroke:#000000;stroke-width:2;stroke-linecap:square;stroke-miterlimit:10;}
	.st6{fill:none;stroke:#000000;stroke-width:2;stroke-miterlimit:10;stroke-dasharray:5.3638,5.3638;}
</style>
<g>
	<path class="st0" d="M78.8,83.3H21.3c-3.2,0-5.8-2.6-5.8-5.8V59.1c0-3.2,2.6-5.8,5.8-5.8h57.5c3.2,0,5.8,2.6,5.8,5.8v18.5
		C84.5,80.8,81.9,83.3,78.8,83.3z"/>
	<g>
		<path d="M37.3,70.6c-0.3,0.8-0.8,1.4-1.4,2c-0.6,0.6-1.3,1-2.1,1.4c-0.8,0.3-1.7,0.5-2.6,0.5c-1,0-1.8-0.2-2.6-0.5
			c-0.8-0.3-1.5-0.8-2.1-1.4c-0.6-0.6-1-1.2-1.4-2c-0.3-0.8-0.5-1.6-0.5-2.5v0c0-0.9,0.2-1.7,0.5-2.5c0.3-0.8,0.8-1.4,1.4-2
			c0.6-0.6,1.3-1,2.1-1.4c0.8-0.3,1.7-0.5,2.6-0.5c1,0,1.8,0.2,2.6,0.5c0.8,0.3,1.5,0.8,2.1,1.4c0.6,0.6,1,1.2,1.4,2
			c0.3,0.8,0.5,1.6,0.5,2.5v0C37.8,69,37.6,69.8,37.3,70.6z M34.9,68.1c0-0.5-0.1-1-0.3-1.5c-0.2-0.5-0.4-0.9-0.8-1.2
			c-0.3-0.4-0.7-0.6-1.2-0.8s-1-0.3-1.5-0.3c-0.6,0-1.1,0.1-1.5,0.3c-0.5,0.2-0.8,0.5-1.2,0.8c-0.3,0.4-0.6,0.8-0.8,1.2
			c-0.2,0.5-0.3,1-0.3,1.5v0c0,0.5,0.1,1,0.3,1.5c0.2,0.5,0.4,0.9,0.8,1.2c0.3,0.4,0.7,0.6,1.2,0.8c0.5,0.2,1,0.3,1.5,0.3
			c0.5,0,1-0.1,1.5-0.3s0.9-0.5,1.2-0.8c0.3-0.4,0.6-0.8,0.8-1.2C34.9,69.2,34.9,68.7,34.9,68.1L34.9,68.1z"/>
		<path d="M49.6,68.2c-0.3,0.5-0.6,1-1.1,1.4c-0.5,0.4-1,0.6-1.6,0.8c-0.6,0.2-1.3,0.3-2,0.3h-2.1v3.7h-2.7V62h5
			c0.7,0,1.4,0.1,2,0.3s1.1,0.5,1.5,0.9c0.4,0.4,0.7,0.8,0.9,1.4c0.2,0.5,0.3,1.1,0.3,1.7v0C50,67,49.9,67.6,49.6,68.2z M47.2,66.3
			c0-0.6-0.2-1.1-0.6-1.4c-0.4-0.3-0.9-0.5-1.6-0.5h-2.1v3.8h2.2c0.7,0,1.2-0.2,1.6-0.5C47,67.3,47.2,66.8,47.2,66.3L47.2,66.3z"/>
		<path d="M52,74.3V62h9.3v2.4h-6.6v2.5h5.8v2.4h-5.8v2.6h6.7v2.4H52z"/>
		<path d="M72.5,74.3l-6-7.9v7.9h-2.7V62h2.5l5.8,7.6V62h2.7v12.4H72.5z"/>
	</g>
	<polyline class="st0" points="29.2,53.3 50,30.2 70.8,53.3 	"/>
	<circle class="st0" cx="50" cy="22.5" r="5.8"/>
</g>
</svg>
