<?xml version="1.0" encoding="utf-8"?>
<!-- Generator: Adobe Illustrator 22.0.0, SVG Export Plug-In . SVG Version: 6.00 Build 0)  -->
<svg version="1.1" id="Layer_1" xmlns="http://www.w3.org/2000/svg" xmlns:xlink="http://www.w3.org/1999/xlink" x="0px" y="0px"
	 viewBox="0 0 100 100" style="enable-background:new 0 0 100 100;" xml:space="preserve">
<style type="text/css">
	.st0{fill:none;stroke:#000000;stroke-width:2;stroke-miterlimit:10;}
	.st1{fill:none;}
	.st2{fill:none;stroke:#000000;stroke-width:2;stroke-linecap:round;stroke-miterlimit:10;stroke-dasharray:7;}
	.st3{fill:none;stroke:#000000;stroke-width:2;stroke-linecap:round;stroke-miterlimit:10;}
	.st4{fill:none;stroke:#000000;stroke-width:2;stroke-linecap:round;stroke-linejoin:round;stroke-miterlimit:10;}
	.st5{fill:none;stroke:#000000;stroke-width:2;stroke-linecap:square;stroke-miterlimit:10;}
	.st6{fill:none;stroke:#000000;stroke-width:2;stroke-miterlimit:10;stroke-dasharray:5.3638,5.3638;}
</style>
<g>
	<path class="st0" d="M49.9,40.4H16.6c-1.4,0-2.5-1.1-2.5-2.5v-3.5c0-0.7,0.3-1.3,0.7-1.8l8.2-8.2c0.9-0.9,2-1.3,3.2-1.3h47.5
		c1.2,0,2.4,0.5,3.2,1.3l8.2,8.2c0.5,0.5,0.7,1.1,0.7,1.8v3.5c0,1.4-1.1,2.5-2.5,2.5H49.1"/>
	<g>
		<line class="st0" x1="27.1" y1="69.3" x2="27.1" y2="40.4"/>
		<line class="st0" x1="72.9" y1="69.3" x2="72.9" y2="40.4"/>
	</g>
	<path class="st0" d="M79.5,77h-59c-0.8,0-1.5-0.7-1.5-1.5v-4.8c0-0.8,0.7-1.5,1.5-1.5h59c0.8,0,1.5,0.7,1.5,1.5v4.8
		C81,76.3,80.3,77,79.5,77z"/>
	<path class="st0" d="M55.7,69.3H44.3V51.5c0-1,0.8-1.8,1.8-1.8h7.8c1,0,1.8,0.8,1.8,1.8V69.3z"/>
</g>
</svg>
