<?xml version="1.0" encoding="utf-8"?>
<!-- Generator: Adobe Illustrator 22.0.0, SVG Export Plug-In . SVG Version: 6.00 Build 0)  -->
<svg version="1.1" id="Layer_1" xmlns="http://www.w3.org/2000/svg" xmlns:xlink="http://www.w3.org/1999/xlink" x="0px" y="0px"
	 viewBox="0 0 100 100" style="enable-background:new 0 0 100 100;" xml:space="preserve">
<style type="text/css">
	.st0{fill:none;stroke:#000000;stroke-width:2;stroke-miterlimit:10;}
	.st1{fill:none;}
	.st2{fill:none;stroke:#000000;stroke-width:2;stroke-linecap:round;stroke-miterlimit:10;stroke-dasharray:7;}
	.st3{fill:none;stroke:#000000;stroke-width:2;stroke-linecap:round;stroke-miterlimit:10;}
	.st4{fill:none;stroke:#000000;stroke-width:2;stroke-linecap:round;stroke-linejoin:round;stroke-miterlimit:10;}
	.st5{fill:none;stroke:#000000;stroke-width:2;stroke-linecap:square;stroke-miterlimit:10;}
	.st6{fill:none;stroke:#000000;stroke-width:2;stroke-miterlimit:10;stroke-dasharray:5.3638,5.3638;}
</style>
<g>
	<path class="st0" d="M85.3,37.4l-9.6-9.6c-0.1-0.1-0.2-0.1-0.3-0.1h-51c-0.1,0-0.2,0-0.3,0.1l-9.6,9.6c-0.2,0.2-0.1,0.6,0.3,0.6
		h70.1C85.4,38.1,85.6,37.7,85.3,37.4z"/>
	<path class="st0" d="M79.4,31.5h5.6c0.3,0,0.5-0.4,0.3-0.6l-9.5-9.5c-0.1-0.1-0.2-0.1-0.3-0.1h-51c-0.1,0-0.2,0-0.3,0.1l-9.6,9.5
		c-0.2,0.2-0.1,0.6,0.3,0.6h5.6"/>
	<g>
		<line class="st0" x1="27.1" y1="71" x2="27.1" y2="38.1"/>
		<line class="st0" x1="72.9" y1="71" x2="72.9" y2="38.1"/>
	</g>
	<path class="st0" d="M79.5,78.8h-59c-0.8,0-1.5-0.7-1.5-1.5v-4.8c0-0.8,0.7-1.5,1.5-1.5h59c0.8,0,1.5,0.7,1.5,1.5v4.8
		C81,78.1,80.3,78.8,79.5,78.8z"/>
	<path class="st0" d="M55.7,71H44.3V53.3c0-1,0.8-1.8,1.8-1.8h7.8c1,0,1.8,0.8,1.8,1.8V71z"/>
</g>
</svg>
