<?xml version="1.0" encoding="utf-8"?>
<!-- Generator: Adobe Illustrator 22.0.0, SVG Export Plug-In . SVG Version: 6.00 Build 0)  -->
<svg version="1.1" id="Layer_1" xmlns="http://www.w3.org/2000/svg" xmlns:xlink="http://www.w3.org/1999/xlink" x="0px" y="0px"
	 viewBox="0 0 100 100" style="enable-background:new 0 0 100 100;" xml:space="preserve">
<style type="text/css">
	.st0{fill:none;stroke:#000000;stroke-width:2;stroke-miterlimit:10;}
	.st1{fill:none;}
	.st2{fill:none;stroke:#000000;stroke-width:2;stroke-linecap:round;stroke-miterlimit:10;stroke-dasharray:7;}
	.st3{fill:none;stroke:#000000;stroke-width:2;stroke-linecap:round;stroke-miterlimit:10;}
	.st4{fill:none;stroke:#000000;stroke-width:2;stroke-linecap:round;stroke-linejoin:round;stroke-miterlimit:10;}
	.st5{fill:none;stroke:#000000;stroke-width:2;stroke-linecap:square;stroke-miterlimit:10;}
	.st6{fill:none;stroke:#000000;stroke-width:2;stroke-miterlimit:10;stroke-dasharray:5.3638,5.3638;}
</style>
<g>
	<path class="st0" d="M83.8,32.1H16.2c-1.2,0-2.2-1-2.2-2.2V19.6c0-1.2,1-2.2,2.2-2.2h67.6c1.2,0,2.2,1,2.2,2.2v10.3
		C86,31.1,85,32.1,83.8,32.1z"/>
	<line class="st0" x1="21" y1="71.4" x2="21" y2="32.1"/>
	<line class="st0" x1="79" y1="71.4" x2="79" y2="32.1"/>
	<path class="st0" d="M83.1,80.4v-6.8c0-1.2-1-2.2-2.2-2.2H79H61.1V50.5H38.9v20.9H21h-1.9c-1.2,0-2.2,1-2.2,2.2v6.8
		c0,1.2,1,2.2,2.2,2.2h61.7C82.1,82.6,83.1,81.6,83.1,80.4z"/>
</g>
</svg>
