<?xml version="1.0" encoding="utf-8"?>
<!-- Generator: Adobe Illustrator 22.0.0, SVG Export Plug-In . SVG Version: 6.00 Build 0)  -->
<svg version="1.1" id="Layer_1" xmlns="http://www.w3.org/2000/svg" xmlns:xlink="http://www.w3.org/1999/xlink" x="0px" y="0px"
	 viewBox="0 0 100 100" style="enable-background:new 0 0 100 100;" xml:space="preserve">
<style type="text/css">
	.st0{fill:none;stroke:#000000;stroke-width:2;stroke-miterlimit:10;}
	.st1{fill:none;}
	.st2{fill:none;stroke:#000000;stroke-width:2;stroke-linecap:round;stroke-miterlimit:10;stroke-dasharray:7;}
	.st3{fill:none;stroke:#000000;stroke-width:2;stroke-linecap:round;stroke-miterlimit:10;}
	.st4{fill:none;stroke:#000000;stroke-width:2;stroke-linecap:round;stroke-linejoin:round;stroke-miterlimit:10;}
	.st5{fill:none;stroke:#000000;stroke-width:2;stroke-linecap:square;stroke-miterlimit:10;}
	.st6{fill:none;stroke:#000000;stroke-width:2;stroke-miterlimit:10;stroke-dasharray:5.3638,5.3638;}
</style>
<g>
	<g>
		<g>
			<circle class="st0" cx="71.8" cy="71.8" r="13.9"/>
			<polyline class="st0" points="71.8,62.1 71.8,71.8 67,75.3 			"/>
		</g>
		<g>
			<path class="st0" d="M26.6,25.2h-8.6c-2,0-3.7,1.7-3.7,3.7v46.8c0,2,1.7,3.7,3.7,3.7h42.1"/>
			<path class="st0" d="M64.2,25.2h8.6c2,0,3.7,1.7,3.7,3.7v29.9"/>
			<line class="st0" x1="57.3" y1="25.2" x2="33.5" y2="25.2"/>
			<line class="st0" x1="30.1" y1="28.2" x2="30.1" y2="14.4"/>
			<line class="st0" x1="60.7" y1="28.2" x2="60.7" y2="14.4"/>
			<circle class="st0" cx="30.1" cy="31" r="2.8"/>
			<circle class="st0" cx="60.7" cy="31" r="2.8"/>
		</g>
	</g>
	<line class="st0" x1="49.5" y1="50.3" x2="23" y2="50.3"/>
	<line class="st0" x1="49.5" y1="65.3" x2="23" y2="65.3"/>
</g>
</svg>
