<?xml version="1.0" encoding="utf-8"?>
<!-- Generator: Adobe Illustrator 22.0.0, SVG Export Plug-In . SVG Version: 6.00 Build 0)  -->
<svg version="1.1" id="Layer_1" xmlns="http://www.w3.org/2000/svg" xmlns:xlink="http://www.w3.org/1999/xlink" x="0px" y="0px"
	 viewBox="0 0 100 100" style="enable-background:new 0 0 100 100;" xml:space="preserve">
<style type="text/css">
	.st0{fill:none;stroke:#000000;stroke-width:2;stroke-miterlimit:10;}
	.st1{fill:none;}
	.st2{fill:none;stroke:#000000;stroke-width:2;stroke-linecap:round;stroke-miterlimit:10;stroke-dasharray:7;}
	.st3{fill:none;stroke:#000000;stroke-width:2;stroke-linecap:round;stroke-miterlimit:10;}
	.st4{fill:none;stroke:#000000;stroke-width:2;stroke-linecap:round;stroke-linejoin:round;stroke-miterlimit:10;}
	.st5{fill:none;stroke:#000000;stroke-width:2;stroke-linecap:square;stroke-miterlimit:10;}
	.st6{fill:none;stroke:#000000;stroke-width:2;stroke-miterlimit:10;stroke-dasharray:5.3638,5.3638;}
</style>
<g>
	<path class="st0" d="M75.9,51.9h2.7h1.3c1.6,0,3-0.6,4.1-1.7c1-1,1.7-2.4,1.7-4c0-3.2-2.8-5.9-6-5.9l-21.5,0
		c5.5-20.5-3.7-24.5-8.4-25.3c-1.3-0.2-2.5,0.8-2.5,2.2v9.6c0,3.1-1,6.2-2.7,8.8L34.2,50.9"/>
	<path class="st0" d="M34.2,78.5l4.6,4.6c1.2,1.2,2.9,1.9,4.6,1.9h30.4c2.6,0,4.9-2,5.1-4.6c0.1-1.5-0.5-2.9-1.4-3.8
		c-0.9-0.9-2.1-1.4-3.5-1.4h-2"/>
	<path class="st0" d="M73.9,63.9h2.9h1.8c1.7,0,3.2-0.7,4.2-1.8c1.1-1.1,1.8-2.6,1.8-4.3c0-3.3-2.7-6-6-6h-2.7"/>
	<path class="st0" d="M73.9,63.9L73.9,63.9h2.9c3.1,0,5.6,2.5,5.6,5.6c0,1.5-0.6,2.9-1.6,3.9c-1,1-2.4,1.6-3.9,1.6H74h-2"/>
	<path class="st0" d="M30.9,84.9H17.7c-1.9,0-3.5-1.5-3.5-3.5V51.3c0-1.9,1.5-3.5,3.5-3.5h13.2c1.8,0,3.3,1.5,3.3,3.3v30.4
		C34.2,83.4,32.7,84.9,30.9,84.9z"/>
	<circle class="st0" cx="25.2" cy="76.8" r="3.8"/>
</g>
</svg>
