<?xml version="1.0" encoding="utf-8"?>
<!-- Generator: Adobe Illustrator 22.0.0, SVG Export Plug-In . SVG Version: 6.00 Build 0)  -->
<svg version="1.1" id="Layer_1" xmlns="http://www.w3.org/2000/svg" xmlns:xlink="http://www.w3.org/1999/xlink" x="0px" y="0px"
	 viewBox="0 0 100 100" style="enable-background:new 0 0 100 100;" xml:space="preserve">
<style type="text/css">
	.st0{fill:none;stroke:#000000;stroke-width:2;stroke-miterlimit:10;}
	.st1{fill:none;}
	.st2{fill:none;stroke:#000000;stroke-width:2;stroke-linecap:round;stroke-miterlimit:10;stroke-dasharray:7;}
	.st3{fill:none;stroke:#000000;stroke-width:2;stroke-linecap:round;stroke-miterlimit:10;}
	.st4{fill:none;stroke:#000000;stroke-width:2;stroke-linecap:round;stroke-linejoin:round;stroke-miterlimit:10;}
	.st5{fill:none;stroke:#000000;stroke-width:2;stroke-linecap:square;stroke-miterlimit:10;}
	.st6{fill:none;stroke:#000000;stroke-width:2;stroke-miterlimit:10;stroke-dasharray:5.3638,5.3638;}
</style>
<g>
	<path class="st0" d="M75,40.7H25c-2.8,0-5-2.2-5-5V19.6c0-2.8,2.2-5,5-5h50c2.8,0,5,2.2,5,5v16.1C80,38.4,77.8,40.7,75,40.7z"/>
	<polyline class="st0" points="32.2,40.7 50.2,58.7 67.8,41.1 	"/>
	<line class="st0" x1="50" y1="58.7" x2="50" y2="85.4"/>
	<line class="st0" x1="35.4" y1="85.4" x2="64.6" y2="85.4"/>
	<g>
		<path d="M38.9,29.6c-0.3,0.7-0.7,1.3-1.2,1.8c-0.5,0.5-1.1,0.9-1.8,1.2c-0.7,0.3-1.5,0.4-2.3,0.4c-0.8,0-1.6-0.1-2.3-0.4
			c-0.7-0.3-1.3-0.7-1.8-1.2c-0.5-0.5-0.9-1.1-1.2-1.8S28,28.2,28,27.5v0c0-0.8,0.1-1.5,0.4-2.2c0.3-0.7,0.7-1.3,1.2-1.8
			c0.5-0.5,1.1-0.9,1.8-1.2c0.7-0.3,1.5-0.4,2.3-0.4c0.8,0,1.6,0.1,2.3,0.4c0.7,0.3,1.3,0.7,1.8,1.2s0.9,1.1,1.2,1.7
			c0.3,0.7,0.4,1.4,0.4,2.2v0C39.4,28.2,39.2,28.9,38.9,29.6z M36.9,27.4c0-0.5-0.1-0.9-0.2-1.3c-0.2-0.4-0.4-0.8-0.7-1.1
			c-0.3-0.3-0.6-0.5-1-0.7c-0.4-0.2-0.8-0.3-1.3-0.3c-0.5,0-0.9,0.1-1.3,0.3c-0.4,0.2-0.7,0.4-1,0.7c-0.3,0.3-0.5,0.7-0.7,1.1
			s-0.2,0.8-0.2,1.3v0c0,0.5,0.1,0.9,0.2,1.3c0.2,0.4,0.4,0.8,0.7,1.1c0.3,0.3,0.6,0.5,1,0.7c0.4,0.2,0.8,0.3,1.3,0.3
			c0.5,0,0.9-0.1,1.3-0.3s0.7-0.4,1-0.7c0.3-0.3,0.5-0.7,0.7-1.1C36.8,28.4,36.9,27.9,36.9,27.4L36.9,27.4z"/>
		<path d="M49.6,27.4c-0.2,0.5-0.5,0.9-0.9,1.2c-0.4,0.3-0.9,0.6-1.4,0.7c-0.5,0.2-1.1,0.2-1.7,0.2h-1.8v3.2h-2.4V22.1h4.4
			c0.6,0,1.2,0.1,1.7,0.3c0.5,0.2,0.9,0.4,1.3,0.8c0.4,0.3,0.6,0.7,0.8,1.2c0.2,0.5,0.3,1,0.3,1.5v0C50,26.4,49.9,27,49.6,27.4z
			 M47.6,25.8c0-0.5-0.2-0.9-0.5-1.2c-0.3-0.3-0.8-0.4-1.4-0.4h-1.8v3.3h1.9c0.6,0,1.1-0.2,1.4-0.5C47.4,26.7,47.6,26.3,47.6,25.8
			L47.6,25.8z"/>
		<path d="M51.7,32.8V22.1h8.1v2.1h-5.8v2.2h5.1v2.1h-5.1v2.3h5.8v2.1H51.7z"/>
		<path d="M69.6,32.8L64.3,26v6.8H62V22.1h2.2l5,6.6v-6.6h2.3v10.7H69.6z"/>
	</g>
</g>
</svg>
