<?xml version="1.0" encoding="utf-8"?>
<!-- Generator: Adobe Illustrator 22.0.0, SVG Export Plug-In . SVG Version: 6.00 Build 0)  -->
<svg version="1.1" id="Layer_1" xmlns="http://www.w3.org/2000/svg" xmlns:xlink="http://www.w3.org/1999/xlink" x="0px" y="0px"
	 viewBox="0 0 100 100" style="enable-background:new 0 0 100 100;" xml:space="preserve">
<style type="text/css">
	.st0{fill:none;stroke:#000000;stroke-width:2;stroke-miterlimit:10;}
	.st1{fill:none;}
	.st2{fill:none;stroke:#000000;stroke-width:2;stroke-linecap:round;stroke-miterlimit:10;stroke-dasharray:7;}
	.st3{fill:none;stroke:#000000;stroke-width:2;stroke-linecap:round;stroke-miterlimit:10;}
	.st4{fill:none;stroke:#000000;stroke-width:2;stroke-linecap:round;stroke-linejoin:round;stroke-miterlimit:10;}
	.st5{fill:none;stroke:#000000;stroke-width:2;stroke-linecap:square;stroke-miterlimit:10;}
	.st6{fill:none;stroke:#000000;stroke-width:2;stroke-miterlimit:10;stroke-dasharray:5.3638,5.3638;}
</style>
<g>
	<path class="st0" d="M34.2,49.1l10.4,15.2c1.8,2.6,2.7,5.7,2.7,8.8v9.6c0,1.3,1.2,2.4,2.5,2.2c4.7-0.7,13.9-4.7,8.4-25.3l21.5,0
		c3.2,0,6-2.6,6-5.9c0-1.6-0.7-3-1.7-4c-1-1-2.5-1.7-4.1-1.7h-1.3h-2.7"/>
	<path class="st0" d="M72,24.9h2c1.4,0,2.6-0.6,3.5-1.4c1-1,1.5-2.3,1.4-3.8c-0.2-2.6-2.5-4.6-5.1-4.6l-30.4,0
		c-1.7,0-3.4,0.7-4.6,1.9l-4.6,4.6"/>
	<path class="st0" d="M75.9,48.1h2.7c3.3,0,6-2.7,6-6c0-1.7-0.7-3.2-1.8-4.3c-1.1-1.1-2.6-1.8-4.2-1.8h-1.8h-2.9"/>
	<path class="st0" d="M72,24.9h2h2.8c1.5,0,2.9,0.6,3.9,1.6c1,1,1.6,2.4,1.6,3.9c0,3.1-2.5,5.6-5.6,5.6h-2.9h-0.1"/>
	<path class="st0" d="M30.9,15.1H17.7c-1.9,0-3.5,1.5-3.5,3.5v30.2c0,1.9,1.5,3.5,3.5,3.5h13.2c1.8,0,3.3-1.5,3.3-3.3V18.4
		C34.2,16.6,32.7,15.1,30.9,15.1z"/>
	<circle class="st0" cx="25.2" cy="23.2" r="3.8"/>
</g>
</svg>
