<?xml version="1.0" encoding="utf-8"?>
<!-- Generator: Adobe Illustrator 22.0.0, SVG Export Plug-In . SVG Version: 6.00 Build 0)  -->
<svg version="1.1" id="Layer_1" xmlns="http://www.w3.org/2000/svg" xmlns:xlink="http://www.w3.org/1999/xlink" x="0px" y="0px"
	 viewBox="0 0 100 100" style="enable-background:new 0 0 100 100;" xml:space="preserve">
<style type="text/css">
	.st0{fill:none;stroke:#000000;stroke-width:2;stroke-miterlimit:10;}
	.st1{fill:none;}
	.st2{fill:none;stroke:#000000;stroke-width:2;stroke-linecap:round;stroke-miterlimit:10;stroke-dasharray:7;}
	.st3{fill:none;stroke:#000000;stroke-width:2;stroke-linecap:round;stroke-miterlimit:10;}
	.st4{fill:none;stroke:#000000;stroke-width:2;stroke-linecap:round;stroke-linejoin:round;stroke-miterlimit:10;}
	.st5{fill:none;stroke:#000000;stroke-width:2;stroke-linecap:square;stroke-miterlimit:10;}
	.st6{fill:none;stroke:#000000;stroke-width:2;stroke-miterlimit:10;stroke-dasharray:5.3638,5.3638;}
</style>
<g>
	<line class="st0" x1="63.1" y1="26.1" x2="36.9" y2="26.1"/>
	<line class="st0" x1="33.1" y1="29.4" x2="33.1" y2="14.1"/>
	<line class="st0" x1="66.9" y1="29.4" x2="66.9" y2="14.1"/>
	<circle class="st0" cx="33.1" cy="32.5" r="3.1"/>
	<circle class="st0" cx="66.9" cy="32.5" r="3.1"/>
	<g>
		<path class="st0" d="M70.7,26.1h9.5c2.3,0,4.1,1.8,4.1,4.1v51.7c0,2.3-1.8,4.1-4.1,4.1H19.8c-2.3,0-4.1-1.8-4.1-4.1V30.1
			c0-2.3,1.8-4.1,4.1-4.1h9.5"/>
		<line class="st0" x1="15.8" y1="42" x2="84.2" y2="42"/>
	</g>
	<g>
		<g>
			<rect x="27.5" y="51.3" class="st0" width="9" height="9"/>
			<rect x="45.5" y="51.3" class="st0" width="9" height="9"/>
			<rect x="63.5" y="51.3" class="st0" width="9" height="9"/>
		</g>
		<g>
			<rect x="27.5" y="68.8" class="st0" width="9" height="9"/>
			<rect x="45.5" y="68.8" class="st0" width="9" height="9"/>
			<rect x="63.5" y="68.8" class="st0" width="9" height="9"/>
		</g>
	</g>
</g>
</svg>
