<?xml version="1.0" encoding="utf-8"?>
<!-- Generator: Adobe Illustrator 22.0.0, SVG Export Plug-In . SVG Version: 6.00 Build 0)  -->
<svg version="1.1" id="Layer_1" xmlns="http://www.w3.org/2000/svg" xmlns:xlink="http://www.w3.org/1999/xlink" x="0px" y="0px"
	 viewBox="0 0 100 100" style="enable-background:new 0 0 100 100;" xml:space="preserve">
<style type="text/css">
	.st0{fill:none;stroke:#000000;stroke-width:2;stroke-miterlimit:10;}
	.st1{fill:none;}
	.st2{fill:none;stroke:#000000;stroke-width:2;stroke-linecap:round;stroke-miterlimit:10;stroke-dasharray:7;}
	.st3{fill:none;stroke:#000000;stroke-width:2;stroke-linecap:round;stroke-miterlimit:10;}
	.st4{fill:none;stroke:#000000;stroke-width:2;stroke-linecap:round;stroke-linejoin:round;stroke-miterlimit:10;}
	.st5{fill:none;stroke:#000000;stroke-width:2;stroke-linecap:square;stroke-miterlimit:10;}
	.st6{fill:none;stroke:#000000;stroke-width:2;stroke-miterlimit:10;stroke-dasharray:5.3638,5.3638;}
</style>
<g>
	<g>
		<g>
			<path class="st0" d="M75.7,63.8l6.7-26.2L66.9,56L51.7,31.8c0,0-0.8-1.3-1.7-2.7c-0.8,1.3-1.7,2.7-1.7,2.7L33.1,56L17.6,37.6
				l6.7,26.2c0.4,1.7,1.9,2.8,3.6,2.8h44C73.7,66.6,75.2,65.5,75.7,63.8z"/>
			<polyline class="st0" points="27.4,49.2 33,41.6 37.4,49.2 			"/>
		</g>
		<g>
			<polyline class="st0" points="72.6,49.2 67,41.6 62.6,49.2 			"/>
		</g>
	</g>
	<path class="st0" d="M73.1,82.5H26.9c-0.8,0-1.5-0.7-1.5-1.5v-6c0-0.8,0.7-1.5,1.5-1.5h46.2c0.8,0,1.5,0.7,1.5,1.5v6
		C74.6,81.8,73.9,82.5,73.1,82.5z"/>
	<circle class="st0" cx="50" cy="22.9" r="5.3"/>
</g>
</svg>
