<?xml version="1.0" encoding="utf-8"?>
<!-- Generator: Adobe Illustrator 22.0.0, SVG Export Plug-In . SVG Version: 6.00 Build 0)  -->
<svg version="1.1" id="Layer_1" xmlns="http://www.w3.org/2000/svg" xmlns:xlink="http://www.w3.org/1999/xlink" x="0px" y="0px"
	 viewBox="0 0 100 100" style="enable-background:new 0 0 100 100;" xml:space="preserve">
<style type="text/css">
	.st0{fill:none;stroke:#000000;stroke-width:2;stroke-miterlimit:10;}
	.st1{fill:none;}
	.st2{fill:none;stroke:#000000;stroke-width:2;stroke-linecap:round;stroke-miterlimit:10;stroke-dasharray:7;}
	.st3{fill:none;stroke:#000000;stroke-width:2;stroke-linecap:round;stroke-miterlimit:10;}
	.st4{fill:none;stroke:#000000;stroke-width:2;stroke-linecap:round;stroke-linejoin:round;stroke-miterlimit:10;}
	.st5{fill:none;stroke:#000000;stroke-width:2;stroke-linecap:square;stroke-miterlimit:10;}
	.st6{fill:none;stroke:#000000;stroke-width:2;stroke-miterlimit:10;stroke-dasharray:5.3638,5.3638;}
</style>
<g>
	<path class="st0" d="M68,15.9l-3.6,4.9c-1.3,1.8-2,4-2,6.2v46.1c0,6.8-5.5,12.4-12.4,12.4h0c-6.8,0-12.4-5.5-12.4-12.4V27.1
		c0-2.2-0.7-4.4-2-6.2L32,15.9c-0.4-0.6,0-1.4,0.7-1.4h34.5C68,14.5,68.4,15.3,68,15.9z"/>
	<line class="st0" x1="62.4" y1="72.5" x2="50" y2="72.5"/>
	<line class="st0" x1="62.4" y1="63.4" x2="50" y2="63.4"/>
	<line class="st0" x1="62.4" y1="54.4" x2="50" y2="54.4"/>
	<line class="st0" x1="62.4" y1="45.3" x2="50" y2="45.3"/>
	<line class="st0" x1="62.4" y1="36.2" x2="50" y2="36.2"/>
</g>
</svg>
