<?xml version="1.0" encoding="utf-8"?>
<!-- Generator: Adobe Illustrator 22.0.0, SVG Export Plug-In . SVG Version: 6.00 Build 0)  -->
<svg version="1.1" id="Layer_1" xmlns="http://www.w3.org/2000/svg" xmlns:xlink="http://www.w3.org/1999/xlink" x="0px" y="0px"
	 viewBox="0 0 100 100" style="enable-background:new 0 0 100 100;" xml:space="preserve">
<style type="text/css">
	.st0{fill:none;stroke:#000000;stroke-width:2;stroke-miterlimit:10;}
	.st1{fill:none;}
	.st2{fill:none;stroke:#000000;stroke-width:2;stroke-linecap:round;stroke-miterlimit:10;stroke-dasharray:7;}
	.st3{fill:none;stroke:#000000;stroke-width:2;stroke-linecap:round;stroke-miterlimit:10;}
	.st4{fill:none;stroke:#000000;stroke-width:2;stroke-linecap:round;stroke-linejoin:round;stroke-miterlimit:10;}
	.st5{fill:none;stroke:#000000;stroke-width:2;stroke-linecap:square;stroke-miterlimit:10;}
	.st6{fill:none;stroke:#000000;stroke-width:2;stroke-miterlimit:10;stroke-dasharray:5.3638,5.3638;}
</style>
<g>
	<g>
		<g>
			<path class="st0" d="M59.7,64.9H40.3c-0.6,0-1.2-0.5-1.2-1.2V47.6c0-0.6,0.5-1.2,1.2-1.2h19.4c0.6,0,1.2,0.5,1.2,1.2v16.2
				C60.9,64.4,60.3,64.9,59.7,64.9z"/>
			<path class="st0" d="M48,55.2c0.2,0.3,0.4,0.5,0.7,0.7v2.4c0,0.7,0.6,1.3,1.3,1.3h0c0.7,0,1.3-0.6,1.3-1.3v-2.4
				c0.8-0.5,1.2-1.4,1-2.4c-0.2-0.9-0.9-1.6-1.7-1.8c-1.5-0.3-2.9,0.8-2.9,2.3C47.7,54.5,47.8,54.9,48,55.2z"/>
		</g>
		<path class="st0" d="M43.9,44.7v-5.9c0-2,1.7-3.7,3.7-3.7h4.9c2,0,3.7,1.7,3.7,3.7v5.9"/>
	</g>
	<path class="st0" d="M50,13.9c0.1,0.1,0.2,0.2,0.2,0.2S62.6,30.3,82.7,28c0,0,3.3,43.9-32.7,58.1C14,71.9,17.3,28,17.3,28
		c20.1,2.3,32.6-13.9,32.6-13.9S49.9,14,50,13.9z"/>
</g>
</svg>
