<?xml version="1.0" encoding="utf-8"?>
<!-- Generator: Adobe Illustrator 22.0.0, SVG Export Plug-In . SVG Version: 6.00 Build 0)  -->
<svg version="1.1" id="Layer_1" xmlns="http://www.w3.org/2000/svg" xmlns:xlink="http://www.w3.org/1999/xlink" x="0px" y="0px"
	 viewBox="0 0 100 100" style="enable-background:new 0 0 100 100;" xml:space="preserve">
<style type="text/css">
	.st0{fill:none;stroke:#000000;stroke-width:2;stroke-miterlimit:10;}
	.st1{fill:none;}
	.st2{fill:none;stroke:#000000;stroke-width:2;stroke-linecap:round;stroke-miterlimit:10;stroke-dasharray:7;}
	.st3{fill:none;stroke:#000000;stroke-width:2;stroke-linecap:round;stroke-miterlimit:10;}
	.st4{fill:none;stroke:#000000;stroke-width:2;stroke-linecap:round;stroke-linejoin:round;stroke-miterlimit:10;}
	.st5{fill:none;stroke:#000000;stroke-width:2;stroke-linecap:square;stroke-miterlimit:10;}
	.st6{fill:none;stroke:#000000;stroke-width:2;stroke-miterlimit:10;stroke-dasharray:5.3638,5.3638;}
</style>
<g>
	<g>
		<path class="st0" d="M71.8,38.4l-3.4,4.4c-0.7,0.9-1,1.9-1,3v33.9c0,3.2-2.6,5.8-5.8,5.8h-23c-3.2,0-5.8-2.6-5.8-5.8V45.8
			c0-1.1-0.4-2.2-1-3l-3.4-4.4c-0.2-0.3,0-0.6,0.3-0.6h42.9C71.8,37.7,72,38.1,71.8,38.4z"/>
		<line class="st0" x1="32.7" y1="52.5" x2="67.3" y2="52.5"/>
		<line class="st0" x1="32.7" y1="76.6" x2="50" y2="76.6"/>
		<line class="st0" x1="32.7" y1="69.1" x2="50" y2="69.1"/>
		<line class="st0" x1="32.7" y1="61.6" x2="50" y2="61.6"/>
	</g>
	<circle class="st0" cx="62.8" cy="24.9" r="4.5"/>
	<circle class="st0" cx="45.9" cy="20.7" r="6.2"/>
</g>
</svg>
