<?xml version="1.0" encoding="utf-8"?>
<!-- Generator: Adobe Illustrator 22.0.0, SVG Export Plug-In . SVG Version: 6.00 Build 0)  -->
<svg version="1.1" id="Layer_1" xmlns="http://www.w3.org/2000/svg" xmlns:xlink="http://www.w3.org/1999/xlink" x="0px" y="0px"
	 viewBox="0 0 100 100" style="enable-background:new 0 0 100 100;" xml:space="preserve">
<style type="text/css">
	.st0{fill:none;stroke:#000000;stroke-width:2;stroke-miterlimit:10;}
	.st1{fill:none;}
	.st2{fill:none;stroke:#000000;stroke-width:2;stroke-linecap:round;stroke-miterlimit:10;stroke-dasharray:7;}
	.st3{fill:none;stroke:#000000;stroke-width:2;stroke-linecap:round;stroke-miterlimit:10;}
	.st4{fill:none;stroke:#000000;stroke-width:2;stroke-linecap:round;stroke-linejoin:round;stroke-miterlimit:10;}
	.st5{fill:none;stroke:#000000;stroke-width:2;stroke-linecap:square;stroke-miterlimit:10;}
	.st6{fill:none;stroke:#000000;stroke-width:2;stroke-miterlimit:10;stroke-dasharray:5.3638,5.3638;}
</style>
<g>
	<path class="st0" d="M72.8,85H27.2c-1.5,0-2.7-1.2-2.7-2.7v-38c0-1.5,1.2-2.7,2.7-2.7h45.7c1.5,0,2.7,1.2,2.7,2.7v38
		C75.6,83.8,74.3,85,72.8,85z"/>
	<path class="st0" d="M35.6,37.6V23.7c0-4.8,3.9-8.7,8.7-8.7h11.4c4.8,0,8.7,3.9,8.7,8.7v13.9"/>
	<path class="st0" d="M50,50.6C50,50.6,50.1,50.6,50,50.6c0.1,0.1,4.4,5.8,11.5,5c0,0,1.2,15.5-11.5,20.5
		c-12.7-5-11.5-20.5-11.5-20.5C45.6,56.3,49.9,50.6,50,50.6C49.9,50.6,50,50.6,50,50.6z"/>
</g>
</svg>
