<?xml version="1.0" encoding="utf-8"?>
<!-- Generator: Adobe Illustrator 22.0.0, SVG Export Plug-In . SVG Version: 6.00 Build 0)  -->
<svg version="1.1" id="Layer_1" xmlns="http://www.w3.org/2000/svg" xmlns:xlink="http://www.w3.org/1999/xlink" x="0px" y="0px"
	 viewBox="0 0 100 100" style="enable-background:new 0 0 100 100;" xml:space="preserve">
<style type="text/css">
	.st0{fill:none;stroke:#000000;stroke-width:2;stroke-miterlimit:10;}
	.st1{fill:none;}
	.st2{fill:none;stroke:#000000;stroke-width:2;stroke-linecap:round;stroke-miterlimit:10;stroke-dasharray:7;}
	.st3{fill:none;stroke:#000000;stroke-width:2;stroke-linecap:round;stroke-miterlimit:10;}
	.st4{fill:none;stroke:#000000;stroke-width:2;stroke-linecap:round;stroke-linejoin:round;stroke-miterlimit:10;}
	.st5{fill:none;stroke:#000000;stroke-width:2;stroke-linecap:square;stroke-miterlimit:10;}
	.st6{fill:none;stroke:#000000;stroke-width:2;stroke-miterlimit:10;stroke-dasharray:5.3638,5.3638;}
</style>
<g>
	<g>
		<path class="st0" d="M54.9,18.9v11.5c0,2.4,0.5,4.8,1.6,7L74,73.5c2.7,5.6-1.4,12.2-7.6,12.2H33.6c-6.3,0-10.4-6.6-7.6-12.2
			l17.6-36.1c1.1-2.2,1.6-4.5,1.6-7V18.9"/>
		<path class="st0" d="M56.2,18.9H43.8c-1.3,0-2.3-1-2.3-2.3v0c0-1.3,1-2.3,2.3-2.3h12.4c1.3,0,2.3,1,2.3,2.3v0
			C58.5,17.9,57.5,18.9,56.2,18.9z"/>
	</g>
	<line class="st0" x1="36.8" y1="76.7" x2="63.3" y2="76.7"/>
	<line class="st0" x1="36.8" y1="68.1" x2="63.3" y2="68.1"/>
</g>
</svg>
