<?xml version="1.0" encoding="utf-8"?>
<!-- Generator: Adobe Illustrator 22.0.0, SVG Export Plug-In . SVG Version: 6.00 Build 0)  -->
<svg version="1.1" id="Layer_1" xmlns="http://www.w3.org/2000/svg" xmlns:xlink="http://www.w3.org/1999/xlink" x="0px" y="0px"
	 viewBox="0 0 100 100" style="enable-background:new 0 0 100 100;" xml:space="preserve">
<style type="text/css">
	.st0{fill:none;stroke:#000000;stroke-width:2;stroke-miterlimit:10;}
	.st1{fill:none;}
	.st2{fill:none;stroke:#000000;stroke-width:2;stroke-linecap:round;stroke-miterlimit:10;stroke-dasharray:7;}
	.st3{fill:none;stroke:#000000;stroke-width:2;stroke-linecap:round;stroke-miterlimit:10;}
	.st4{fill:none;stroke:#000000;stroke-width:2;stroke-linecap:round;stroke-linejoin:round;stroke-miterlimit:10;}
	.st5{fill:none;stroke:#000000;stroke-width:2;stroke-linecap:square;stroke-miterlimit:10;}
	.st6{fill:none;stroke:#000000;stroke-width:2;stroke-miterlimit:10;stroke-dasharray:5.3638,5.3638;}
</style>
<g>
	<path class="st0" d="M71.5,38.4v44.9c0,1.5-1.2,2.6-2.6,2.6H31.1c-1.5,0-2.6-1.2-2.6-2.6V38.4"/>
	<path class="st0" d="M63.8,30.4h7.9c2.2,0,4,1.8,4,4c0,1.1-0.5,2.1-1.2,2.8c-0.7,0.7-1.7,1.2-2.8,1.2h-0.2h-9.7"/>
	<path class="st0" d="M55.8,38.4H28.5h-0.2c-2.2,0-4-1.8-4-4c0-1.1,0.4-2.1,1.2-2.8c0.7-0.7,1.7-1.2,2.8-1.2h29.6"/>
	<path class="st0" d="M55.5,63.1h9.9v14.4c0,1.4-1.2,2.6-2.6,2.6H37.2c-1.5,0-2.6-1.2-2.6-2.6V63.1h15"/>
	<path class="st0" d="M48.5,79L48.5,79c1.5,0.4,3.1-0.5,3.5-2.1l15.1-59.3c0.4-1.5-0.5-3.1-2.1-3.5l0,0c-1.5-0.4-3.1,0.5-3.5,2.1
		L46.4,75.5C46,77,46.9,78.6,48.5,79z"/>
	<line class="st0" x1="37.9" y1="71.6" x2="43.3" y2="71.6"/>
	<line class="st0" x1="56.7" y1="71.6" x2="62.1" y2="71.6"/>
</g>
</svg>
