<?xml version="1.0" encoding="utf-8"?>
<!-- Generator: Adobe Illustrator 22.0.0, SVG Export Plug-In . SVG Version: 6.00 Build 0)  -->
<svg version="1.1" id="Layer_1" xmlns="http://www.w3.org/2000/svg" xmlns:xlink="http://www.w3.org/1999/xlink" x="0px" y="0px"
	 viewBox="0 0 100 100" style="enable-background:new 0 0 100 100;" xml:space="preserve">
<style type="text/css">
	.st0{fill:none;stroke:#000000;stroke-width:2;stroke-miterlimit:10;}
	.st1{fill:none;}
	.st2{fill:none;stroke:#000000;stroke-width:2;stroke-linecap:round;stroke-miterlimit:10;stroke-dasharray:7;}
	.st3{fill:none;stroke:#000000;stroke-width:2;stroke-linecap:round;stroke-miterlimit:10;}
	.st4{fill:none;stroke:#000000;stroke-width:2;stroke-linecap:round;stroke-linejoin:round;stroke-miterlimit:10;}
	.st5{fill:none;stroke:#000000;stroke-width:2;stroke-linecap:square;stroke-miterlimit:10;}
	.st6{fill:none;stroke:#000000;stroke-width:2;stroke-miterlimit:10;stroke-dasharray:5.3638,5.3638;}
</style>
<g>
	<g>
		<g>
			<g>
				<path class="st0" d="M56.3,59.8H43.7c-0.4,0-0.8-0.3-0.8-0.8V48.5c0-0.4,0.3-0.8,0.8-0.8h12.7c0.4,0,0.8,0.3,0.8,0.8v10.6
					C57.1,59.5,56.8,59.8,56.3,59.8z"/>
				<g>
					<circle class="st0" cx="50" cy="52.4" r="1.5"/>
					<line class="st0" x1="50" y1="56.7" x2="50" y2="54"/>
				</g>
			</g>
			<path class="st0" d="M45.8,47.8V44c0-2.1,1.7-3.8,3.8-3.8h0.9c2.1,0,3.8,1.7,3.8,3.8v0"/>
		</g>
		<circle class="st0" cx="50" cy="50" r="17.6"/>
	</g>
	<path class="st0" d="M50,13.2c0.1,0,0.1,0,0.1,0l31.5,10c0,0,7.4,49.4-31.7,63.4C10.9,72.7,18.3,23.3,18.3,23.3l31.5-10
		C49.9,13.3,49.9,13.3,50,13.2z"/>
</g>
</svg>
