<?xml version="1.0" encoding="utf-8"?>
<!-- Generator: Adobe Illustrator 22.0.0, SVG Export Plug-In . SVG Version: 6.00 Build 0)  -->
<svg version="1.1" id="Layer_1" xmlns="http://www.w3.org/2000/svg" xmlns:xlink="http://www.w3.org/1999/xlink" x="0px" y="0px"
	 viewBox="0 0 100 100" style="enable-background:new 0 0 100 100;" xml:space="preserve">
<style type="text/css">
	.st0{fill:none;stroke:#000000;stroke-width:2;stroke-miterlimit:10;}
	.st1{fill:none;}
	.st2{fill:none;stroke:#000000;stroke-width:2;stroke-linecap:round;stroke-miterlimit:10;stroke-dasharray:7;}
	.st3{fill:none;stroke:#000000;stroke-width:2;stroke-linecap:round;stroke-miterlimit:10;}
	.st4{fill:none;stroke:#000000;stroke-width:2;stroke-linecap:round;stroke-linejoin:round;stroke-miterlimit:10;}
	.st5{fill:none;stroke:#000000;stroke-width:2;stroke-linecap:square;stroke-miterlimit:10;}
	.st6{fill:none;stroke:#000000;stroke-width:2;stroke-miterlimit:10;stroke-dasharray:5.3638,5.3638;}
</style>
<g>
	<path class="st0" d="M35.3,65.9L17.3,35.4l20.8,9.7l11.5-19.4c0,0,0.2-0.3,0.4-0.7c0.2,0.3,0.4,0.7,0.4,0.7l11.5,19.4l20.8-9.7
		L64.7,65.9"/>
	<path class="st0" d="M67.4,75H32.6c-1.9,0-3.4-1.5-3.4-3.4v-2.3c0-1.9,1.5-3.4,3.4-3.4h34.9c1.9,0,3.4,1.5,3.4,3.4v2.3
		C70.8,73.5,69.3,75,67.4,75z"/>
	<path class="st0" d="M38.1,45.1l-2.8,20.6c0,0,0,0.1,0.1,0L50,52.1l14.4,13.5c0.1,0.1,0.3,0,0.2-0.1l-2.8-20.4"/>
	<line class="st0" x1="50" y1="52.1" x2="50" y2="25"/>
	<g>
		<circle class="st0" cx="36.1" cy="70.4" r="1.4"/>
		<circle class="st0" cx="50" cy="70.4" r="1.4"/>
		<circle class="st0" cx="63.9" cy="70.4" r="1.4"/>
	</g>
</g>
</svg>
