<?xml version="1.0" encoding="utf-8"?>
<!-- Generator: Adobe Illustrator 22.0.0, SVG Export Plug-In . SVG Version: 6.00 Build 0)  -->
<svg version="1.1" id="Layer_1" xmlns="http://www.w3.org/2000/svg" xmlns:xlink="http://www.w3.org/1999/xlink" x="0px" y="0px"
	 viewBox="0 0 100 100" style="enable-background:new 0 0 100 100;" xml:space="preserve">
<style type="text/css">
	.st0{fill:none;stroke:#000000;stroke-width:2;stroke-miterlimit:10;}
	.st1{fill:none;}
	.st2{fill:none;stroke:#000000;stroke-width:2;stroke-linecap:round;stroke-miterlimit:10;stroke-dasharray:7;}
	.st3{fill:none;stroke:#000000;stroke-width:2;stroke-linecap:round;stroke-miterlimit:10;}
	.st4{fill:none;stroke:#000000;stroke-width:2;stroke-linecap:round;stroke-linejoin:round;stroke-miterlimit:10;}
	.st5{fill:none;stroke:#000000;stroke-width:2;stroke-linecap:square;stroke-miterlimit:10;}
	.st6{fill:none;stroke:#000000;stroke-width:2;stroke-miterlimit:10;stroke-dasharray:5.3638,5.3638;}
</style>
<g>
	<g>
		<path class="st0" d="M78,43.2L56.8,22c-1.6-1.6-1.6-4.1,0-5.7l0,0c1.6-1.6,4.1-1.6,5.7,0l21.2,21.2c1.6,1.6,1.6,4.1,0,5.7l0,0
			C82.1,44.7,79.6,44.7,78,43.2z"/>
		<g>
			<path class="st0" d="M56.8,21.9v6.8c0,1.4-0.6,2.7-1.5,3.7L42,45.7c-1.1,1.1-2.7,1.4-4.1,0.9c-4.2-1.6-13.3-4.1-18.4,0.9l33,33
				c5.1-5.1,2.5-14.2,0.9-18.4c-0.5-1.4-0.2-3,0.9-4.1l13.3-13.3c1-1,2.3-1.5,3.7-1.5h6.8"/>
		</g>
	</g>
	<polyline class="st0" points="37.6,65.6 23.8,79.4 15.1,84.9 20.6,76.2 34.4,62.4 	"/>
</g>
</svg>
