<?xml version="1.0" encoding="utf-8"?>
<!-- Generator: Adobe Illustrator 22.0.0, SVG Export Plug-In . SVG Version: 6.00 Build 0)  -->
<svg version="1.1" id="Layer_1" xmlns="http://www.w3.org/2000/svg" xmlns:xlink="http://www.w3.org/1999/xlink" x="0px" y="0px"
	 viewBox="0 0 100 100" style="enable-background:new 0 0 100 100;" xml:space="preserve">
<style type="text/css">
	.st0{fill:none;stroke:#000000;stroke-width:2;stroke-miterlimit:10;}
	.st1{fill:none;}
	.st2{fill:none;stroke:#000000;stroke-width:2;stroke-linecap:round;stroke-miterlimit:10;stroke-dasharray:7;}
	.st3{fill:none;stroke:#000000;stroke-width:2;stroke-linecap:round;stroke-miterlimit:10;}
	.st4{fill:none;stroke:#000000;stroke-width:2;stroke-linecap:round;stroke-linejoin:round;stroke-miterlimit:10;}
	.st5{fill:none;stroke:#000000;stroke-width:2;stroke-linecap:square;stroke-miterlimit:10;}
	.st6{fill:none;stroke:#000000;stroke-width:2;stroke-miterlimit:10;stroke-dasharray:5.3638,5.3638;}
</style>
<g>
	<path class="st0" d="M56.2,45.4V22.7c0-0.9,0.3-1.8,0.9-2.5l4.3-4.9c0.5-0.5,0.1-1.4-0.6-1.4H39.2c-0.7,0-1.1,0.8-0.6,1.4l4.3,4.9
		c0.6,0.7,0.9,1.6,0.9,2.5v22.8"/>
	<path class="st0" d="M70,52.2H30c-0.5,0-0.9-0.6-0.6-1c0.5-0.8,1.1-1.6,1.8-2.2c2.2-2.2,5.2-3.5,8.5-3.5h20.6
		c4.3,0,8.1,2.3,10.2,5.7C70.8,51.6,70.5,52.2,70,52.2z"/>
	<line class="st0" x1="50" y1="86.1" x2="50" y2="56.6"/>
</g>
</svg>
