<?xml version="1.0" encoding="utf-8"?>
<!-- Generator: Adobe Illustrator 22.0.0, SVG Export Plug-In . SVG Version: 6.00 Build 0)  -->
<svg version="1.1" id="Layer_1" xmlns="http://www.w3.org/2000/svg" xmlns:xlink="http://www.w3.org/1999/xlink" x="0px" y="0px"
	 viewBox="0 0 100 100" style="enable-background:new 0 0 100 100;" xml:space="preserve">
<style type="text/css">
	.st0{fill:none;stroke:#000000;stroke-width:2;stroke-miterlimit:10;}
	.st1{fill:none;}
	.st2{fill:none;stroke:#000000;stroke-width:2;stroke-linecap:round;stroke-miterlimit:10;stroke-dasharray:7;}
	.st3{fill:none;stroke:#000000;stroke-width:2;stroke-linecap:round;stroke-miterlimit:10;}
	.st4{fill:none;stroke:#000000;stroke-width:2;stroke-linecap:round;stroke-linejoin:round;stroke-miterlimit:10;}
	.st5{fill:none;stroke:#000000;stroke-width:2;stroke-linecap:square;stroke-miterlimit:10;}
	.st6{fill:none;stroke:#000000;stroke-width:2;stroke-miterlimit:10;stroke-dasharray:5.3638,5.3638;}
</style>
<g>
	<path class="st0" d="M70.3,77.4L79.6,43L65.2,64V34l-8.9,25.8l-5.6-38c0,0-0.4-2.4-0.7-4.7c-0.4,2.4-0.7,4.7-0.7,4.7l-5.6,38
		L34.8,34v30L20.4,43l9.3,34.4"/>
	<path class="st0" d="M71.1,83H28.9c-1.4,0-2.5-1.1-2.5-2.5l0,0c0-1.7,1.4-3.1,3.1-3.1h40.9c1.7,0,3.1,1.4,3.1,3.1l0,0
		C73.5,81.9,72.4,83,71.1,83z"/>
	<line class="st0" x1="27.3" y1="66.2" x2="72.7" y2="66.2"/>
</g>
</svg>
