<?xml version="1.0" encoding="utf-8"?>
<!-- Generator: Adobe Illustrator 22.0.0, SVG Export Plug-In . SVG Version: 6.00 Build 0)  -->
<svg version="1.1" id="Layer_1" xmlns="http://www.w3.org/2000/svg" xmlns:xlink="http://www.w3.org/1999/xlink" x="0px" y="0px"
	 viewBox="0 0 100 100" style="enable-background:new 0 0 100 100;" xml:space="preserve">
<style type="text/css">
	.st0{fill:none;stroke:#000000;stroke-width:2;stroke-miterlimit:10;}
	.st1{fill:none;}
	.st2{fill:none;stroke:#000000;stroke-width:2;stroke-linecap:round;stroke-miterlimit:10;stroke-dasharray:7;}
	.st3{fill:none;stroke:#000000;stroke-width:2;stroke-linecap:round;stroke-miterlimit:10;}
	.st4{fill:none;stroke:#000000;stroke-width:2;stroke-linecap:round;stroke-linejoin:round;stroke-miterlimit:10;}
	.st5{fill:none;stroke:#000000;stroke-width:2;stroke-linecap:square;stroke-miterlimit:10;}
	.st6{fill:none;stroke:#000000;stroke-width:2;stroke-miterlimit:10;stroke-dasharray:5.3638,5.3638;}
</style>
<g>
	<g>
		<path class="st0" d="M35.9,48.8c-0.6-2.5,0-5.4,2-7.4c1.5-1.5,3.5-2.3,5.5-2.3"/>
		<path class="st0" d="M50,72.9l-3.8-3.8L35.3,58.2l-2.8-2.8c-2.5-2.5-3.8-5.8-3.8-9.3c0-3.5,1.4-6.8,3.8-9.3
			c2.5-2.5,5.8-3.8,9.3-3.8c3,0,5.9,1,8.2,2.9c2.4-1.9,5.3-2.9,8.2-2.9c3.4,0,6.7,1.3,9.3,3.8c2.5,2.5,3.8,5.8,3.8,9.3
			c0,3.5-1.4,6.8-3.8,9.3l-2.8,2.8v0L53.8,69.1L50,72.9z"/>
	</g>
	<circle class="st0" cx="50" cy="50" r="34.6"/>
</g>
</svg>
