<?xml version="1.0" encoding="utf-8"?>
<!-- Generator: Adobe Illustrator 22.0.0, SVG Export Plug-In . SVG Version: 6.00 Build 0)  -->
<svg version="1.1" id="Layer_1" xmlns="http://www.w3.org/2000/svg" xmlns:xlink="http://www.w3.org/1999/xlink" x="0px" y="0px"
	 viewBox="0 0 100 100" style="enable-background:new 0 0 100 100;" xml:space="preserve">
<style type="text/css">
	.st0{fill:none;stroke:#000000;stroke-width:2;stroke-miterlimit:10;}
	.st1{fill:none;}
	.st2{fill:none;stroke:#000000;stroke-width:2;stroke-linecap:round;stroke-miterlimit:10;stroke-dasharray:7;}
	.st3{fill:none;stroke:#000000;stroke-width:2;stroke-linecap:round;stroke-miterlimit:10;}
	.st4{fill:none;stroke:#000000;stroke-width:2;stroke-linecap:round;stroke-linejoin:round;stroke-miterlimit:10;}
	.st5{fill:none;stroke:#000000;stroke-width:2;stroke-linecap:square;stroke-miterlimit:10;}
	.st6{fill:none;stroke:#000000;stroke-width:2;stroke-miterlimit:10;stroke-dasharray:5.3638,5.3638;}
</style>
<g>
	<g>
		<polyline class="st0" points="22.5,54.6 42.3,74.4 54.1,62.7 		"/>
		<path class="st0" d="M54.1,62.7L42.3,74.4L22.5,54.6l-5-5c-5.5-5.5-5.5-14.4,0-19.9c2.7-2.7,6.3-4.1,9.9-4.1s7.2,1.4,9.9,4.1l5,5
			l5-5c5.5-5.5,14.4-5.5,19.9,0c2.7,2.7,4.1,6.3,4.1,9.9c0,3.1-1,6.2-3.1,8.7"/>
	</g>
	<g>
		<polyline class="st0" points="51.4,57.4 54.1,62.7 60.1,74.4 77.1,65.7 		"/>
		<path class="st0" d="M68.3,48.3l0.2,0.3l4.3-2.2c4.7-2.4,10.5-0.5,12.9,4.2c1.2,2.4,1.3,5,0.6,7.3s-2.4,4.4-4.8,5.6l-4.3,2.2
			l-17,8.7l-6-11.8l-2.7-5.3l-2.2-4.3c-2.4-4.7-0.5-10.5,4.2-12.9c2.4-1.2,5-1.3,7.3-0.6c2.3,0.8,4.4,2.4,5.6,4.7L68.3,48.3"/>
	</g>
</g>
</svg>
