<?xml version="1.0" encoding="utf-8"?>
<!-- Generator: Adobe Illustrator 22.0.0, SVG Export Plug-In . SVG Version: 6.00 Build 0)  -->
<svg version="1.1" id="Layer_1" xmlns="http://www.w3.org/2000/svg" xmlns:xlink="http://www.w3.org/1999/xlink" x="0px" y="0px"
	 viewBox="0 0 100 100" style="enable-background:new 0 0 100 100;" xml:space="preserve">
<style type="text/css">
	.st0{fill:none;stroke:#000000;stroke-width:2;stroke-miterlimit:10;}
	.st1{fill:none;}
	.st2{fill:none;stroke:#000000;stroke-width:2;stroke-linecap:round;stroke-miterlimit:10;stroke-dasharray:7;}
	.st3{fill:none;stroke:#000000;stroke-width:2;stroke-linecap:round;stroke-miterlimit:10;}
	.st4{fill:none;stroke:#000000;stroke-width:2;stroke-linecap:round;stroke-linejoin:round;stroke-miterlimit:10;}
	.st5{fill:none;stroke:#000000;stroke-width:2;stroke-linecap:square;stroke-miterlimit:10;}
	.st6{fill:none;stroke:#000000;stroke-width:2;stroke-miterlimit:10;stroke-dasharray:5.3638,5.3638;}
</style>
<g>
	<g>
		<path class="st0" d="M20.3,53c0,0.1,0.1,0.1,0.1,0.2l29.2,29.2c0.1,0.1,0.1,0.1,0.2,0.2l0.2-0.2l4.6-4.6"/>
		<path class="st0" d="M54.5,77.7l-4.6,4.6l-0.2,0.2c-0.1,0-0.1-0.1-0.2-0.2L20.4,53.1c-0.1-0.1-0.1-0.1-0.1-0.2
			c-8-8.2-7.9-21.2,0.1-29.3c4.1-4.1,9.4-6.1,14.7-6.1c5.3,0,10.5,2,14.6,6c8.2-8,21.2-7.9,29.3,0.2c4.1,4.1,6.1,9.4,6.1,14.7
			c0,2.2-0.3,4.3-1,6.4"/>
		<path class="st0" d="M64.3,25.5c3.3,0,6.6,1.3,9.2,3.8c2.4,2.4,3.8,5.7,3.8,9.2"/>
	</g>
	<path class="st0" d="M48.8,65.7C48.8,65.7,48.8,65.7,48.8,65.7l8.9,8.9l7.8,7.8c0,0,0.1,0.1,0.1,0.1l0.1-0.1l16.6-16.6
		c0,0,0.1-0.1,0.1-0.1"/>
	<path class="st0" d="M82.3,49c2.3,2.3,3.4,5.3,3.4,8.4c0,3-1.1,6-3.4,8.3c0,0-0.1,0.1-0.1,0.1L65.6,82.4l-0.1,0.1
		c0,0-0.1-0.1-0.1-0.1l-7.8-7.8l-8.8-8.8c0,0-0.1-0.1-0.1-0.1C44.2,61,44.2,53.6,48.8,49c2.3-2.3,5.4-3.5,8.4-3.5c3,0,6,1.1,8.3,3.4
		C70.2,44.4,77.6,44.4,82.3,49C82.2,49,82.2,49,82.3,49"/>
	<path class="st0" d="M57.6,74.6l-8.8-8.8c0,0-0.1-0.1-0.1-0.1C44.2,61,44.2,53.6,48.8,49c2.3-2.3,5.4-3.5,8.4-3.5
		c3,0,6,1.1,8.3,3.4c4.6-4.5,12.1-4.5,16.7,0.1c0,0,0,0,0,0"/>
	<path class="st0" d="M79.5,59.2c0-2-0.8-3.8-2.2-5.2c-1.4-1.4-3.3-2.1-5.2-2.1"/>
</g>
</svg>
