<?xml version="1.0" encoding="utf-8"?>
<!-- Generator: Adobe Illustrator 22.0.0, SVG Export Plug-In . SVG Version: 6.00 Build 0)  -->
<svg version="1.1" id="Layer_1" xmlns="http://www.w3.org/2000/svg" xmlns:xlink="http://www.w3.org/1999/xlink" x="0px" y="0px"
	 viewBox="0 0 100 100" style="enable-background:new 0 0 100 100;" xml:space="preserve">
<style type="text/css">
	.st0{fill:none;stroke:#000000;stroke-width:2;stroke-miterlimit:10;}
	.st1{fill:none;}
	.st2{fill:none;stroke:#000000;stroke-width:2;stroke-linecap:round;stroke-miterlimit:10;stroke-dasharray:7;}
	.st3{fill:none;stroke:#000000;stroke-width:2;stroke-linecap:round;stroke-miterlimit:10;}
	.st4{fill:none;stroke:#000000;stroke-width:2;stroke-linecap:round;stroke-linejoin:round;stroke-miterlimit:10;}
	.st5{fill:none;stroke:#000000;stroke-width:2;stroke-linecap:square;stroke-miterlimit:10;}
	.st6{fill:none;stroke:#000000;stroke-width:2;stroke-miterlimit:10;stroke-dasharray:5.3638,5.3638;}
</style>
<g>
	<g>
		<path class="st0" d="M22.7,76C22.7,76,22.7,76,22.7,76"/>
		<path class="st0" d="M50,64.8c12.5,0,23.8,0.8,31.5,2.1v8.3c0,0,0,0.6,0,1.3c-1.3-0.2-2.7-0.4-4.2-0.6C69.9,75,60.4,74.4,50,74.5
			c-10.4,0-19.9,0.6-27.3,1.5c-1.5,0.2-2.9,0.4-4.2,0.6c0-0.6,0-1.3,0-1.3V67C26.2,65.7,37.5,64.8,50,64.8z"/>
		<g>
			<path class="st0" d="M18.5,76.6v-1.3V67l-2.9-15.2L25,63.1l-2.2-17l13.4,17.7l13.6-30.9c0,0,0.1-0.2,0.2-0.4
				c0.1,0.2,0.2,0.4,0.2,0.4l13.6,30.9l13.4-17.7l-2.2,17l9.4-11.4L81.5,67v8.3v1.3"/>
		</g>
	</g>
	<circle class="st0" cx="50" cy="27" r="3.6"/>
	<g>
		<path class="st0" d="M50,53.8L50,53.8c-0.5-0.5-1.1-0.8-1.8-0.8c-0.6,0-1.2,0.2-1.7,0.7c-0.9,0.9-0.9,2.5,0,3.4l0,0l3.4,3.4
			l3.4-3.4l0,0c0.5-0.5,0.7-1.1,0.7-1.7c0-0.6-0.2-1.2-0.7-1.7C52.5,52.8,51,52.8,50,53.8C50,53.8,50,53.8,50,53.8z"/>
	</g>
</g>
</svg>
