<?xml version="1.0" encoding="utf-8"?>
<!-- Generator: Adobe Illustrator 22.0.0, SVG Export Plug-In . SVG Version: 6.00 Build 0)  -->
<svg version="1.1" id="Layer_1" xmlns="http://www.w3.org/2000/svg" xmlns:xlink="http://www.w3.org/1999/xlink" x="0px" y="0px"
	 viewBox="0 0 100 100" style="enable-background:new 0 0 100 100;" xml:space="preserve">
<style type="text/css">
	.st0{fill:none;stroke:#000000;stroke-width:2;stroke-miterlimit:10;}
	.st1{fill:none;}
	.st2{fill:none;stroke:#000000;stroke-width:2;stroke-linecap:round;stroke-miterlimit:10;stroke-dasharray:7;}
	.st3{fill:none;stroke:#000000;stroke-width:2;stroke-linecap:round;stroke-miterlimit:10;}
	.st4{fill:none;stroke:#000000;stroke-width:2;stroke-linecap:round;stroke-linejoin:round;stroke-miterlimit:10;}
	.st5{fill:none;stroke:#000000;stroke-width:2;stroke-linecap:square;stroke-miterlimit:10;}
	.st6{fill:none;stroke:#000000;stroke-width:2;stroke-miterlimit:10;stroke-dasharray:5.3638,5.3638;}
</style>
<g>
	<path class="st0" d="M50,82.9l-6.3-6.3L25.7,58.6L21.1,54c-4.1-4.1-6.3-9.5-6.3-15.3s2.3-11.2,6.3-15.3c4.1-4.1,9.5-6.3,15.3-6.3
		c5,0,9.8,1.7,13.6,4.8c4-3.2,8.8-4.8,13.6-4.8c5.5,0,11.1,2.1,15.3,6.3c4.1,4.1,6.3,9.5,6.3,15.3c0,5.8-2.3,11.2-6.3,15.3l-4.6,4.6
		v0L56.3,76.7L50,82.9z"/>
	<polyline class="st0" points="50.2,21.6 46.2,26.3 50.2,31 46.2,35.7 50.2,40.3 46.2,45 50.2,49.7 46.2,54.4 50.2,59.1 46.2,63.8 
		50.2,68.5 46.2,73.2 50,82.9 	"/>
</g>
</svg>
