<?xml version="1.0" encoding="utf-8"?>
<!-- Generator: Adobe Illustrator 22.0.0, SVG Export Plug-In . SVG Version: 6.00 Build 0)  -->
<svg version="1.1" id="Layer_1" xmlns="http://www.w3.org/2000/svg" xmlns:xlink="http://www.w3.org/1999/xlink" x="0px" y="0px"
	 viewBox="0 0 100 100" style="enable-background:new 0 0 100 100;" xml:space="preserve">
<style type="text/css">
	.st0{fill:none;stroke:#000000;stroke-width:2;stroke-miterlimit:10;}
	.st1{fill:none;}
	.st2{fill:none;stroke:#000000;stroke-width:2;stroke-linecap:round;stroke-miterlimit:10;stroke-dasharray:7;}
	.st3{fill:none;stroke:#000000;stroke-width:2;stroke-linecap:round;stroke-miterlimit:10;}
	.st4{fill:none;stroke:#000000;stroke-width:2;stroke-linecap:round;stroke-linejoin:round;stroke-miterlimit:10;}
	.st5{fill:none;stroke:#000000;stroke-width:2;stroke-linecap:square;stroke-miterlimit:10;}
	.st6{fill:none;stroke:#000000;stroke-width:2;stroke-miterlimit:10;stroke-dasharray:5.3638,5.3638;}
</style>
<g>
	<g>
		<path class="st0" d="M28.7,64.9l-5.4-5.4c-5.9-5.9-5.9-15.4,0-21.3c2.9-2.9,6.8-4.4,10.6-4.4c3.8,0,7.7,1.5,10.6,4.4l5.4,5.4
			l5.4-5.4c5.9-5.9,15.4-5.9,21.3,0c2.9,2.9,4.4,6.8,4.4,10.6c0,3.9-1.5,7.7-4.4,10.6l-5.4,5.4L50,86.1L28.7,64.9"/>
		<path class="st0" d="M76.7,38.2c-5.9-5.9-15.4-5.9-21.3,0L50,43.6l-5.4-5.4c-2.9-2.9-6.8-4.4-10.6-4.4c-3.9,0-7.7,1.5-10.6,4.4
			c-5.9,5.9-5.9,15.4,0,21.3l5.4,5.4L50,86.1l26.6-26.6c2.9-2.9,4.4-6.8,4.4-10.6C81.1,45,79.6,41.1,76.7,38.2z M26.7,48.8
			c0-1.9,0.8-3.8,2.1-5.1c1.4-1.4,3.2-2.1,5.1-2.1"/>
	</g>
	<g>
		<path class="st0" d="M22.7,38.9L22.7,38.9c-5.2-5.9-5-14.9,0.6-20.6c2.9-2.9,6.8-4.4,10.6-4.4c3.8,0,7.7,1.5,10.6,4.4l5.4,5.4
			l5.4-5.4c5.9-5.9,15.4-5.9,21.3,0c2.9,2.9,4.4,6.8,4.4,10.6c0,3.6-1.3,7.1-3.8,10v0"/>
		<path class="st0" d="M26.7,28.9c0-1.9,0.8-3.8,2.1-5.1c1.4-1.4,3.2-2.1,5.1-2.1 M77.3,38.9L77.3,38.9c2.5-2.8,3.8-6.4,3.8-10
			c0-3.8-1.5-7.7-4.4-10.6c-5.9-5.9-15.4-5.9-21.3,0L50,23.7l-5.4-5.4c-2.9-2.9-6.8-4.4-10.6-4.4c-3.9,0-7.7,1.5-10.6,4.4
			c-5.7,5.7-5.9,14.7-0.6,20.6v0"/>
	</g>
</g>
</svg>
