<?xml version="1.0" encoding="utf-8"?>
<!-- Generator: Adobe Illustrator 22.0.0, SVG Export Plug-In . SVG Version: 6.00 Build 0)  -->
<svg version="1.1" id="Layer_1" xmlns="http://www.w3.org/2000/svg" xmlns:xlink="http://www.w3.org/1999/xlink" x="0px" y="0px"
	 viewBox="0 0 100 100" style="enable-background:new 0 0 100 100;" xml:space="preserve">
<style type="text/css">
	.st0{fill:none;stroke:#000000;stroke-width:2;stroke-miterlimit:10;}
	.st1{fill:none;}
	.st2{fill:none;stroke:#000000;stroke-width:2;stroke-linecap:round;stroke-miterlimit:10;stroke-dasharray:7;}
	.st3{fill:none;stroke:#000000;stroke-width:2;stroke-linecap:round;stroke-miterlimit:10;}
	.st4{fill:none;stroke:#000000;stroke-width:2;stroke-linecap:round;stroke-linejoin:round;stroke-miterlimit:10;}
	.st5{fill:none;stroke:#000000;stroke-width:2;stroke-linecap:square;stroke-miterlimit:10;}
	.st6{fill:none;stroke:#000000;stroke-width:2;stroke-miterlimit:10;stroke-dasharray:5.3638,5.3638;}
</style>
<g>
	<g>
		<path class="st0" d="M37.7,49.9c1.2,0.5,2.3,1.3,3.3,2.2c1.8,1.8,3,4.4,3,7.2v0.1H23.7v-0.1c0-4.2,2.6-7.8,6.2-9.3"/>
		<circle class="st0" cx="33.8" cy="46.1" r="5.4"/>
	</g>
	<path class="st0" d="M78.6,71H21.4c-3.5,0-6.4-2.9-6.4-6.4V35.4c0-3.5,2.9-6.4,6.4-6.4h57.2c3.5,0,6.4,2.9,6.4,6.4v29.2
		C85,68.1,82.1,71,78.6,71z"/>
	<g>
		<line class="st0" x1="50" y1="40.8" x2="76.8" y2="40.8"/>
		<line class="st0" x1="50" y1="50" x2="76.8" y2="50"/>
		<line class="st0" x1="50" y1="59.2" x2="76.8" y2="59.2"/>
	</g>
</g>
</svg>
