<?xml version="1.0" encoding="utf-8"?>
<!-- Generator: Adobe Illustrator 22.0.0, SVG Export Plug-In . SVG Version: 6.00 Build 0)  -->
<svg version="1.1" id="Layer_1" xmlns="http://www.w3.org/2000/svg" xmlns:xlink="http://www.w3.org/1999/xlink" x="0px" y="0px"
	 viewBox="0 0 100 100" style="enable-background:new 0 0 100 100;" xml:space="preserve">
<style type="text/css">
	.st0{fill:none;stroke:#000000;stroke-width:2;stroke-miterlimit:10;}
	.st1{fill:none;}
	.st2{fill:none;stroke:#000000;stroke-width:2;stroke-linecap:round;stroke-miterlimit:10;stroke-dasharray:7;}
	.st3{fill:none;stroke:#000000;stroke-width:2;stroke-linecap:round;stroke-miterlimit:10;}
	.st4{fill:none;stroke:#000000;stroke-width:2;stroke-linecap:round;stroke-linejoin:round;stroke-miterlimit:10;}
	.st5{fill:none;stroke:#000000;stroke-width:2;stroke-linecap:square;stroke-miterlimit:10;}
	.st6{fill:none;stroke:#000000;stroke-width:2;stroke-miterlimit:10;stroke-dasharray:5.3638,5.3638;}
</style>
<g>
	<g>
		<circle class="st0" cx="50" cy="50" r="36"/>
		<line class="st0" x1="75.4" y1="75.4" x2="24.5" y2="24.5"/>
	</g>
	<g>
		<rect x="23.5" y="46.8" class="st0" width="41.8" height="6.5"/>
		<rect x="70.4" y="46.8" class="st0" width="6.1" height="6.5"/>
	</g>
	<g>
		<path d="M72.4,44.1c-0.1-0.2-0.1-0.5-0.1-0.8c0.1-0.3,0.2-0.6,0.4-0.8c0.3-0.4,0.7-0.8,0.8-1c0.1-0.1,0-0.2,0-0.3
			c0-0.1,0-0.2-0.1-0.3c-0.1-0.1-0.2-0.3-0.6-0.6c-0.2-0.2-0.4-0.3-0.6-0.6c-0.2-0.2-0.5-0.6-0.6-1c-0.1-0.4-0.1-0.8,0-1.1
			c0.1-0.4,0.3-0.7,0.5-1c1-1,1.9-0.7,2.3-1.7c0.1,0.2,0.2,0.5,0.1,0.8c-0.1,0.3-0.2,0.6-0.4,0.8c-0.3,0.4-0.7,0.8-0.8,1
			c-0.1,0.1,0,0.2,0,0.3c0,0.1,0,0.2,0.1,0.3c0.1,0.1,0.2,0.3,0.6,0.6c0.2,0.2,0.4,0.3,0.6,0.6c0.2,0.3,0.5,0.6,0.6,1
			c0.1,0.4,0.1,0.8,0,1.1c-0.1,0.4-0.3,0.7-0.5,1C73.7,43.4,72.9,43.1,72.4,44.1z"/>
	</g>
</g>
</svg>
