<?xml version="1.0" encoding="utf-8"?>
<!-- Generator: Adobe Illustrator 22.0.0, SVG Export Plug-In . SVG Version: 6.00 Build 0)  -->
<svg version="1.1" id="Layer_1" xmlns="http://www.w3.org/2000/svg" xmlns:xlink="http://www.w3.org/1999/xlink" x="0px" y="0px"
	 viewBox="0 0 100 100" style="enable-background:new 0 0 100 100;" xml:space="preserve">
<style type="text/css">
	.st0{fill:none;stroke:#000000;stroke-width:2;stroke-miterlimit:10;}
	.st1{fill:none;}
	.st2{fill:none;stroke:#000000;stroke-width:2;stroke-linecap:round;stroke-miterlimit:10;stroke-dasharray:7;}
	.st3{fill:none;stroke:#000000;stroke-width:2;stroke-linecap:round;stroke-miterlimit:10;}
	.st4{fill:none;stroke:#000000;stroke-width:2;stroke-linecap:round;stroke-linejoin:round;stroke-miterlimit:10;}
	.st5{fill:none;stroke:#000000;stroke-width:2;stroke-linecap:square;stroke-miterlimit:10;}
	.st6{fill:none;stroke:#000000;stroke-width:2;stroke-miterlimit:10;stroke-dasharray:5.3638,5.3638;}
</style>
<g>
	<path class="st0" d="M25.5,72.1c6.1-2.4,14.8-3.8,24.5-3.8s18.4,1.5,24.5,3.8"/>
	<path class="st0" d="M60.8,52.7c0.6,1.3,1,2.1,1,2.1l18-15.7l-5.3,33v6.6c0,0.7-0.7,1.2-1.3,0.9c-6-2.2-14.4-3.6-23.7-3.6
		c-8.7,0-16.7,1.2-22.6,3.2c-0.7,0.2-1.3-0.3-1.3-0.9v-6.3l-5.3-33l18,15.7l11.2-23.6c0,0,0.3-0.6,0.6-1.2c0.3,0.6,0.6,1.2,0.6,1.2
		S58,46.9,60.8,52.7z"/>
	<circle class="st0" cx="50" cy="24.5" r="4.2"/>
	<g>
		<circle class="st0" cx="18.1" cy="33.8" r="3.4"/>
		<circle class="st0" cx="81.9" cy="33.8" r="3.4"/>
	</g>
</g>
</svg>
