<?xml version="1.0" encoding="utf-8"?>
<!-- Generator: Adobe Illustrator 22.0.0, SVG Export Plug-In . SVG Version: 6.00 Build 0)  -->
<svg version="1.1" id="Layer_1" xmlns="http://www.w3.org/2000/svg" xmlns:xlink="http://www.w3.org/1999/xlink" x="0px" y="0px"
	 viewBox="0 0 100 100" style="enable-background:new 0 0 100 100;" xml:space="preserve">
<style type="text/css">
	.st0{fill:none;stroke:#000000;stroke-width:2;stroke-miterlimit:10;}
	.st1{fill:none;}
	.st2{fill:none;stroke:#000000;stroke-width:2;stroke-linecap:round;stroke-miterlimit:10;stroke-dasharray:7;}
	.st3{fill:none;stroke:#000000;stroke-width:2;stroke-linecap:round;stroke-miterlimit:10;}
	.st4{fill:none;stroke:#000000;stroke-width:2;stroke-linecap:round;stroke-linejoin:round;stroke-miterlimit:10;}
	.st5{fill:none;stroke:#000000;stroke-width:2;stroke-linecap:square;stroke-miterlimit:10;}
	.st6{fill:none;stroke:#000000;stroke-width:2;stroke-miterlimit:10;stroke-dasharray:5.3638,5.3638;}
</style>
<g>
	<path class="st0" d="M78.4,72.4H21.6c-3.7,0-6.6-3-6.6-6.6V34.2c0-3.7,3-6.6,6.6-6.6h56.8c3.7,0,6.6,3,6.6,6.6v31.7
		C85,69.5,82,72.4,78.4,72.4z"/>
	<line class="st0" x1="15" y1="40.2" x2="85" y2="40.2"/>
	<path class="st0" d="M67.4,53.2c0.9-1.3,2.4-2.2,4.1-2.2c2.8,0,5,2.2,5,5c0,2.8-2.2,5-5,5c-1.7,0-3.2-0.8-4.1-2.2
		c-0.9,1.3-2.4,2.2-4.1,2.2c-2.8,0-5-2.2-5-5c0-2.8,2.2-5,5-5C65,51.1,66.5,51.9,67.4,53.2z"/>
	<line class="st0" x1="49" y1="56.1" x2="22.8" y2="56.1"/>
</g>
</svg>
