<?xml version="1.0" encoding="utf-8"?>
<!-- Generator: Adobe Illustrator 22.0.0, SVG Export Plug-In . SVG Version: 6.00 Build 0)  -->
<svg version="1.1" id="Layer_1" xmlns="http://www.w3.org/2000/svg" xmlns:xlink="http://www.w3.org/1999/xlink" x="0px" y="0px"
	 viewBox="0 0 100 100" style="enable-background:new 0 0 100 100;" xml:space="preserve">
<style type="text/css">
	.st0{fill:none;stroke:#000000;stroke-width:2;stroke-miterlimit:10;}
	.st1{fill:none;}
	.st2{fill:none;stroke:#000000;stroke-width:2;stroke-linecap:round;stroke-miterlimit:10;stroke-dasharray:7;}
	.st3{fill:none;stroke:#000000;stroke-width:2;stroke-linecap:round;stroke-miterlimit:10;}
	.st4{fill:none;stroke:#000000;stroke-width:2;stroke-linecap:round;stroke-linejoin:round;stroke-miterlimit:10;}
	.st5{fill:none;stroke:#000000;stroke-width:2;stroke-linecap:square;stroke-miterlimit:10;}
	.st6{fill:none;stroke:#000000;stroke-width:2;stroke-miterlimit:10;stroke-dasharray:5.3638,5.3638;}
</style>
<g>
	<path class="st0" d="M61.6,17.8h10.1c3.2,0,5.8,2.6,5.8,5.8v57.7c0,3.2-2.6,5.8-5.8,5.8H28.3c-3.2,0-5.8-2.6-5.8-5.8V23.6
		c0-3.2,2.6-5.8,5.8-5.8h10.1"/>
	<g>
		<g>
			<line class="st0" x1="44.5" y1="33.9" x2="68.7" y2="33.9"/>
			<line class="st0" x1="44.5" y1="38.8" x2="56.6" y2="38.8"/>
		</g>
		<g>
			<line class="st0" x1="44.5" y1="53.3" x2="68.7" y2="53.3"/>
			<line class="st0" x1="44.5" y1="58.2" x2="56.6" y2="58.2"/>
		</g>
		<g>
			<line class="st0" x1="44.5" y1="71.5" x2="68.7" y2="71.5"/>
			<line class="st0" x1="44.5" y1="76.4" x2="56.6" y2="76.4"/>
		</g>
		<g>
			<g>
				<polygon points="34.5,34.6 36.2,37 35.1,37 40.3,31.1 36.2,37.8 35.8,38.5 35.1,37.9 33,35.9 				"/>
			</g>
			<polyline class="st0" points="38.9,36.4 38.9,40.2 31.3,40.2 31.3,32.6 35.1,32.6 			"/>
		</g>
		<rect x="31.3" y="52" class="st0" width="7.6" height="7.6"/>
		<rect x="31.3" y="70.1" class="st0" width="7.6" height="7.6"/>
	</g>
	<path class="st0" d="M56.7,22.7H43.3c-2.7,0-4.9-2.2-4.9-4.9v0c0-2.7,2.2-4.9,4.9-4.9h13.5c2.7,0,4.9,2.2,4.9,4.9v0
		C61.6,20.5,59.4,22.7,56.7,22.7z"/>
</g>
</svg>
