<?xml version="1.0" encoding="utf-8"?>
<!-- Generator: Adobe Illustrator 22.0.0, SVG Export Plug-In . SVG Version: 6.00 Build 0)  -->
<svg version="1.1" id="Layer_1" xmlns="http://www.w3.org/2000/svg" xmlns:xlink="http://www.w3.org/1999/xlink" x="0px" y="0px"
	 viewBox="0 0 100 100" style="enable-background:new 0 0 100 100;" xml:space="preserve">
<style type="text/css">
	.st0{fill:none;stroke:#000000;stroke-width:2;stroke-miterlimit:10;}
	.st1{fill:none;}
	.st2{fill:none;stroke:#000000;stroke-width:2;stroke-linecap:round;stroke-miterlimit:10;stroke-dasharray:7;}
	.st3{fill:none;stroke:#000000;stroke-width:2;stroke-linecap:round;stroke-miterlimit:10;}
	.st4{fill:none;stroke:#000000;stroke-width:2;stroke-linecap:round;stroke-linejoin:round;stroke-miterlimit:10;}
	.st5{fill:none;stroke:#000000;stroke-width:2;stroke-linecap:square;stroke-miterlimit:10;}
	.st6{fill:none;stroke:#000000;stroke-width:2;stroke-miterlimit:10;stroke-dasharray:5.3638,5.3638;}
</style>
<g>
	<path class="st0" d="M41.1,57.6l-0.4-0.4c-1.2-1.2-2.8-1.8-4.4-1.7l-4.9,0.3c-1.2,0.1-2.3-0.4-3.1-1.2l-13-13c-1-1-1.4-2.6-1-4
		L19,23.1c0.4-1.2,1.3-2.2,2.6-2.6l14.7-4.7c1.4-0.4,2.9-0.1,4,1l13,13c0.8,0.8,1.2,1.9,1.2,3.1L54,37.8c-0.1,1.6,0.5,3.3,1.7,4.4
		l0.4,0.4c0.7,0.7,0.7,1.7,0,2.4L43.5,57.6C42.8,58.3,41.8,58.3,41.1,57.6z"/>
	<path class="st0" d="M21.9,37.6l3.3-10.3c0.1-0.3,0.3-0.4,0.5-0.5L36,23.5c0.3-0.1,0.6,0,0.8,0.2l9.9,9.9c0.2,0.2,0.3,0.4,0.2,0.6
		l-0.2,3.1c-0.1,1.8,0.2,3.7,0.8,5.3c0.1,0.3,0,0.6-0.2,0.8L42,49c-0.2,0.2-0.6,0.3-0.8,0.2c-1.7-0.6-3.5-0.9-5.3-0.8l-3.1,0.2
		c-0.2,0-0.5-0.1-0.6-0.2l-9.9-9.9C21.9,38.2,21.8,37.9,21.9,37.6z"/>
	<g>
		<path class="st0" d="M54.3,46.9l28.3,28.3c0.5,0.5,1,1.2,1.4,1.8l1.9,5.9c0.1,0.2,0,0.4-0.1,0.5l-0.9,0.9
			c-0.1,0.1-0.1,0.1-0.2,0.1c-0.1,0-0.1,0-0.2,0l-8.4-0.2c-1.6,0-3.2-0.7-4.3-1.8L45.4,55.8"/>
		<polyline class="st0" points="50.8,50.4 84.7,84.3 84.7,84.4 		"/>
	</g>
</g>
</svg>
