<?xml version="1.0" encoding="utf-8"?>
<!-- Generator: Adobe Illustrator 22.0.0, SVG Export Plug-In . SVG Version: 6.00 Build 0)  -->
<svg version="1.1" id="Layer_1" xmlns="http://www.w3.org/2000/svg" xmlns:xlink="http://www.w3.org/1999/xlink" x="0px" y="0px"
	 viewBox="0 0 100 100" style="enable-background:new 0 0 100 100;" xml:space="preserve">
<style type="text/css">
	.st0{fill:none;stroke:#000000;stroke-width:2;stroke-miterlimit:10;}
	.st1{fill:none;}
	.st2{fill:none;stroke:#000000;stroke-width:2;stroke-linecap:round;stroke-miterlimit:10;stroke-dasharray:7;}
	.st3{fill:none;stroke:#000000;stroke-width:2;stroke-linecap:round;stroke-miterlimit:10;}
	.st4{fill:none;stroke:#000000;stroke-width:2;stroke-linecap:round;stroke-linejoin:round;stroke-miterlimit:10;}
	.st5{fill:none;stroke:#000000;stroke-width:2;stroke-linecap:square;stroke-miterlimit:10;}
	.st6{fill:none;stroke:#000000;stroke-width:2;stroke-miterlimit:10;stroke-dasharray:5.3638,5.3638;}
</style>
<g>
	<g>
		<polyline class="st0" points="32.7,28.8 34.4,30.8 38.2,26.2 		"/>
		<polyline class="st0" points="32.7,49.8 34.4,51.7 38.2,47.2 		"/>
		<polyline class="st0" points="32.7,71.8 34.4,73.8 38.2,69.2 		"/>
		<line class="st0" x1="42.7" y1="28.5" x2="67.3" y2="28.5"/>
		<line class="st0" x1="42.7" y1="49.4" x2="67.3" y2="49.4"/>
		<line class="st0" x1="42.7" y1="71.5" x2="67.3" y2="71.5"/>
	</g>
	<path class="st0" d="M72.1,85.3H27.9c-3.3,0-5.9-2.6-5.9-5.9V20.6c0-3.3,2.6-5.9,5.9-5.9h44.2c3.3,0,5.9,2.6,5.9,5.9v58.8
		C78,82.7,75.4,85.3,72.1,85.3z"/>
</g>
</svg>
