<?xml version="1.0" encoding="utf-8"?>
<!-- Generator: Adobe Illustrator 22.0.0, SVG Export Plug-In . SVG Version: 6.00 Build 0)  -->
<svg version="1.1" id="Layer_1" xmlns="http://www.w3.org/2000/svg" xmlns:xlink="http://www.w3.org/1999/xlink" x="0px" y="0px"
	 viewBox="0 0 100 100" style="enable-background:new 0 0 100 100;" xml:space="preserve">
<style type="text/css">
	.st0{fill:none;stroke:#000000;stroke-width:2;stroke-miterlimit:10;}
	.st1{fill:none;}
	.st2{fill:none;stroke:#000000;stroke-width:2;stroke-linecap:round;stroke-miterlimit:10;stroke-dasharray:7;}
	.st3{fill:none;stroke:#000000;stroke-width:2;stroke-linecap:round;stroke-miterlimit:10;}
	.st4{fill:none;stroke:#000000;stroke-width:2;stroke-linecap:round;stroke-linejoin:round;stroke-miterlimit:10;}
	.st5{fill:none;stroke:#000000;stroke-width:2;stroke-linecap:square;stroke-miterlimit:10;}
	.st6{fill:none;stroke:#000000;stroke-width:2;stroke-miterlimit:10;stroke-dasharray:5.3638,5.3638;}
</style>
<g>
	<g>
		<polyline class="st0" points="43.3,54.7 47.4,59.5 56.7,48.4 		"/>
		<circle class="st0" cx="50" cy="53.9" r="14.4"/>
	</g>
	<g>
		<path class="st0" d="M61.5,18.2h9.9c3.2,0,5.7,2.6,5.7,5.7v57c0,3.2-2.6,5.7-5.7,5.7H28.6c-3.2,0-5.7-2.6-5.7-5.7v-57
			c0-3.2,2.6-5.7,5.7-5.7h9.9"/>
		<path class="st0" d="M56.6,23.1H43.4c-2.7,0-4.8-2.2-4.8-4.8v0c0-2.7,2.2-4.8,4.8-4.8h13.3c2.7,0,4.8,2.2,4.8,4.8v0
			C61.5,20.9,59.3,23.1,56.6,23.1z"/>
	</g>
</g>
</svg>
