<?xml version="1.0" encoding="utf-8"?>
<!-- Generator: Adobe Illustrator 22.0.0, SVG Export Plug-In . SVG Version: 6.00 Build 0)  -->
<svg version="1.1" id="Layer_1" xmlns="http://www.w3.org/2000/svg" xmlns:xlink="http://www.w3.org/1999/xlink" x="0px" y="0px"
	 viewBox="0 0 100 100" style="enable-background:new 0 0 100 100;" xml:space="preserve">
<style type="text/css">
	.st0{fill:none;stroke:#000000;stroke-width:2;stroke-miterlimit:10;}
	.st1{fill:none;}
	.st2{fill:none;stroke:#000000;stroke-width:2;stroke-linecap:round;stroke-miterlimit:10;stroke-dasharray:7;}
	.st3{fill:none;stroke:#000000;stroke-width:2;stroke-linecap:round;stroke-miterlimit:10;}
	.st4{fill:none;stroke:#000000;stroke-width:2;stroke-linecap:round;stroke-linejoin:round;stroke-miterlimit:10;}
	.st5{fill:none;stroke:#000000;stroke-width:2;stroke-linecap:square;stroke-miterlimit:10;}
	.st6{fill:none;stroke:#000000;stroke-width:2;stroke-miterlimit:10;stroke-dasharray:5.3638,5.3638;}
</style>
<g>
	<path class="st0" d="M77,30.4v51.8c0,1.3-1.1,2.4-2.4,2.4H25.4c-1.3,0-2.4-1.1-2.4-2.4V17.8c0-1.3,1.1-2.4,2.4-2.4h36.5
		c0.8,0,1.6,0.3,2.2,0.9l12,12C76.7,28.8,77,29.6,77,30.4z"/>
	<g>
		<g>
			<polyline class="st0" points="34.1,35.9 36,38 40.2,33 			"/>
			<circle class="st0" cx="37.1" cy="35.5" r="6.5"/>
		</g>
		<g>
			<line class="st0" x1="49.1" y1="32.3" x2="69.4" y2="32.3"/>
			<line class="st0" x1="49.1" y1="38.8" x2="62.2" y2="38.8"/>
		</g>
		<g>
			<polyline class="st0" points="34.1,64.8 36,67 40.2,62 			"/>
			<circle class="st0" cx="37.1" cy="64.5" r="6.5"/>
		</g>
		<g>
			<line class="st0" x1="49.1" y1="61.2" x2="69.4" y2="61.2"/>
			<line class="st0" x1="49.1" y1="67.7" x2="62.2" y2="67.7"/>
		</g>
	</g>
</g>
</svg>
