<?xml version="1.0" encoding="utf-8"?>
<!-- Generator: Adobe Illustrator 22.0.0, SVG Export Plug-In . SVG Version: 6.00 Build 0)  -->
<svg version="1.1" id="Layer_1" xmlns="http://www.w3.org/2000/svg" xmlns:xlink="http://www.w3.org/1999/xlink" x="0px" y="0px"
	 viewBox="0 0 100 100" style="enable-background:new 0 0 100 100;" xml:space="preserve">
<style type="text/css">
	.st0{fill:none;stroke:#000000;stroke-width:2;stroke-miterlimit:10;}
	.st1{fill:none;}
	.st2{fill:none;stroke:#000000;stroke-width:2;stroke-linecap:round;stroke-miterlimit:10;stroke-dasharray:7;}
	.st3{fill:none;stroke:#000000;stroke-width:2;stroke-linecap:round;stroke-miterlimit:10;}
	.st4{fill:none;stroke:#000000;stroke-width:2;stroke-linecap:round;stroke-linejoin:round;stroke-miterlimit:10;}
	.st5{fill:none;stroke:#000000;stroke-width:2;stroke-linecap:square;stroke-miterlimit:10;}
	.st6{fill:none;stroke:#000000;stroke-width:2;stroke-miterlimit:10;stroke-dasharray:5.3638,5.3638;}
</style>
<g>
	<g>
		<line class="st0" x1="41.4" y1="35.2" x2="29.2" y2="35.2"/>
		<polyline class="st0" points="73.1,35.2 85.3,35.2 77.8,63.3 37.2,63.3 		"/>
		<path class="st0" d="M75.4,70.3H43.7c-2.7,0-5-1.8-5.8-4.4l-0.7-2.6l-8-28.1l-1.7-5.8c-0.8-2.7-3.2-4.5-5.9-4.5h-6.9"/>
		<g>
			<circle class="st0" cx="46.2" cy="80.5" r="5.1"/>
			<circle class="st0" cx="68.9" cy="80.5" r="5.1"/>
		</g>
	</g>
	<g>
		<g>
			<path class="st0" d="M70.9,52.4H43.6c-1.2,0-2.2-1-2.2-2.2V31.8h31.6v18.5C73.1,51.4,72.1,52.4,70.9,52.4z"/>
			<path class="st0" d="M74.5,31.8H40c-1.4,0-2.5-1.1-2.5-2.5V26c0-1.4,1.1-2.5,2.5-2.5h34.4c1.4,0,2.5,1.1,2.5,2.5v3.2
				C77,30.6,75.9,31.8,74.5,31.8z"/>
		</g>
		<g>
			<path class="st0" d="M42.6,23.5c0,0-3.5-20.4,12.5,0v8.3"/>
			<path class="st0" d="M71.8,23.5c0,0,3.5-20.4-12.5,0v8.3"/>
		</g>
	</g>
</g>
</svg>
