<?xml version="1.0" encoding="utf-8"?>
<!-- Generator: Adobe Illustrator 22.0.0, SVG Export Plug-In . SVG Version: 6.00 Build 0)  -->
<svg version="1.1" id="Layer_1" xmlns="http://www.w3.org/2000/svg" xmlns:xlink="http://www.w3.org/1999/xlink" x="0px" y="0px"
	 viewBox="0 0 100 100" style="enable-background:new 0 0 100 100;" xml:space="preserve">
<style type="text/css">
	.st0{fill:none;stroke:#000000;stroke-width:2;stroke-miterlimit:10;}
	.st1{fill:none;}
	.st2{fill:none;stroke:#000000;stroke-width:2;stroke-linecap:round;stroke-miterlimit:10;stroke-dasharray:7;}
	.st3{fill:none;stroke:#000000;stroke-width:2;stroke-linecap:round;stroke-miterlimit:10;}
	.st4{fill:none;stroke:#000000;stroke-width:2;stroke-linecap:round;stroke-linejoin:round;stroke-miterlimit:10;}
	.st5{fill:none;stroke:#000000;stroke-width:2;stroke-linecap:square;stroke-miterlimit:10;}
	.st6{fill:none;stroke:#000000;stroke-width:2;stroke-miterlimit:10;stroke-dasharray:5.3638,5.3638;}
</style>
<g>
	<g>
		<g>
			<path class="st0" d="M42.8,78.9h36.5c1.2,0,2.2-1,2.2-2.2v-49L68.8,15l0,0H33.9c-1.2,0-2.2,1-2.2,2.2v4.1"/>
			<line class="st0" x1="31.7" y1="58.6" x2="31.7" y2="29.5"/>
			<path class="st0" d="M68.8,15v11.7c0,0.6,0.5,1,1,1h11.7"/>
		</g>
		<path class="st0" d="M56.7,29.5H28.9c-1.2,0-2.1-1-2.1-2.1v-3.9c0-1.2,1-2.1,2.1-2.1h27.8c1.2,0,2.1,1,2.1,2.1v3.9
			C58.9,28.6,57.9,29.5,56.7,29.5z"/>
		<g>
			<line class="st0" x1="44.1" y1="38" x2="72.2" y2="38"/>
			<line class="st0" x1="44.1" y1="46.4" x2="72.2" y2="46.4"/>
			<line class="st0" x1="44.1" y1="54.9" x2="72.2" y2="54.9"/>
			<line class="st0" x1="44.1" y1="63.3" x2="72.2" y2="63.3"/>
			<line class="st0" x1="72.2" y1="71.8" x2="44.9" y2="71.8"/>
		</g>
	</g>
	<g>
		<polyline class="st0" points="25.5,72.5 29.3,76.9 37.9,66.7 		"/>
		<circle class="st0" cx="31.7" cy="71.8" r="13.2"/>
	</g>
</g>
</svg>
