<?xml version="1.0" encoding="utf-8"?>
<!-- Generator: Adobe Illustrator 22.0.0, SVG Export Plug-In . SVG Version: 6.00 Build 0)  -->
<svg version="1.1" id="Layer_1" xmlns="http://www.w3.org/2000/svg" xmlns:xlink="http://www.w3.org/1999/xlink" x="0px" y="0px"
	 viewBox="0 0 100 100" style="enable-background:new 0 0 100 100;" xml:space="preserve">
<style type="text/css">
	.st0{fill:none;stroke:#000000;stroke-width:2;stroke-miterlimit:10;}
	.st1{fill:none;}
	.st2{fill:none;stroke:#000000;stroke-width:2;stroke-linecap:round;stroke-miterlimit:10;stroke-dasharray:7;}
	.st3{fill:none;stroke:#000000;stroke-width:2;stroke-linecap:round;stroke-miterlimit:10;}
	.st4{fill:none;stroke:#000000;stroke-width:2;stroke-linecap:round;stroke-linejoin:round;stroke-miterlimit:10;}
	.st5{fill:none;stroke:#000000;stroke-width:2;stroke-linecap:square;stroke-miterlimit:10;}
	.st6{fill:none;stroke:#000000;stroke-width:2;stroke-miterlimit:10;stroke-dasharray:5.3638,5.3638;}
</style>
<g>
	<g>
		<path class="st0" d="M70.7,80.2H29.3c-0.3,0-0.5-0.2-0.6-0.4L14.8,45.6c-0.2-0.4,0.1-0.9,0.6-0.9h69.2c0.5,0,0.8,0.5,0.6,0.9
			L71.3,79.7C71.2,80,70.9,80.2,70.7,80.2z"/>
		<g>
			<polyline class="st0" points="19.2,56.4 34.1,56.4 50,56.4 65.9,56.4 80.8,56.4 			"/>
			<polyline class="st0" points="24.1,68.5 36,68.5 50,68.5 63.9,68.5 75.9,68.5 			"/>
		</g>
		<g>
			<line class="st0" x1="38" y1="80.1" x2="36" y2="68.5"/>
			<line class="st0" x1="64" y1="68.5" x2="62" y2="80.1"/>
			<line class="st0" x1="50" y1="80.1" x2="50" y2="68.5"/>
			<line class="st0" x1="50" y1="56.4" x2="50" y2="44.7"/>
		</g>
	</g>
	<g>
		<g>
			<line class="st0" x1="31.3" y1="44.7" x2="40.1" y2="26"/>
			<circle class="st0" cx="40.6" cy="22.9" r="3.1"/>
		</g>
		<g>
			<line class="st0" x1="59.9" y1="26" x2="68.7" y2="44.7"/>
			<circle class="st0" cx="59.4" cy="22.9" r="3.1"/>
		</g>
	</g>
</g>
</svg>
