<?xml version="1.0" encoding="utf-8"?>
<!-- Generator: Adobe Illustrator 22.0.0, SVG Export Plug-In . SVG Version: 6.00 Build 0)  -->
<svg version="1.1" id="Layer_1" xmlns="http://www.w3.org/2000/svg" xmlns:xlink="http://www.w3.org/1999/xlink" x="0px" y="0px"
	 viewBox="0 0 100 100" style="enable-background:new 0 0 100 100;" xml:space="preserve">
<style type="text/css">
	.st0{fill:none;stroke:#000000;stroke-width:2;stroke-miterlimit:10;}
	.st1{fill:none;}
	.st2{fill:none;stroke:#000000;stroke-width:2;stroke-linecap:round;stroke-miterlimit:10;stroke-dasharray:7;}
	.st3{fill:none;stroke:#000000;stroke-width:2;stroke-linecap:round;stroke-miterlimit:10;}
	.st4{fill:none;stroke:#000000;stroke-width:2;stroke-linecap:round;stroke-linejoin:round;stroke-miterlimit:10;}
	.st5{fill:none;stroke:#000000;stroke-width:2;stroke-linecap:square;stroke-miterlimit:10;}
	.st6{fill:none;stroke:#000000;stroke-width:2;stroke-miterlimit:10;stroke-dasharray:5.3638,5.3638;}
</style>
<g>
	<path class="st0" d="M70.7,83.7H29.3c-0.3,0-0.5-0.2-0.6-0.4L14.8,49.2c-0.2-0.4,0.1-0.9,0.6-0.9h69.2c0.5,0,0.8,0.5,0.6,0.9
		L71.3,83.3C71.2,83.5,70.9,83.7,70.7,83.7z"/>
	<g>
		<polyline class="st0" points="19.2,59.9 34.1,59.9 50,59.9 65.9,59.9 80.8,59.9 		"/>
		<polyline class="st0" points="24.1,72 36,72 50,72 63.9,72 75.9,72 		"/>
	</g>
	<g>
		<polyline class="st0" points="32.1,48.2 34.1,59.9 36,72 38,83.7 		"/>
		<polyline class="st0" points="67.9,48.2 65.9,59.9 64,72 62,83.7 		"/>
		<polyline class="st0" points="50,48.2 50,59.9 50,72 50,83.7 		"/>
	</g>
	<g>
		<g>
			<line class="st0" x1="32.1" y1="48.2" x2="40.9" y2="29.6"/>
			<path class="st0" d="M40.9,29.6L40.9,29.6c-1.5-0.7-2.1-2.4-1.4-3.9l3.6-7.7c0.7-1.5,2.4-2.1,3.9-1.4l0,0
				c1.5,0.7,2.1,2.4,1.4,3.9l-3.6,7.7C44.1,29.6,42.4,30.2,40.9,29.6z"/>
		</g>
		<g>
			<line class="st0" x1="59.1" y1="29.6" x2="67.9" y2="48.2"/>
			<path class="st0" d="M59.1,29.6L59.1,29.6c1.5-0.7,2.1-2.4,1.4-3.9L56.8,18c-0.7-1.5-2.4-2.1-3.9-1.4l0,0
				c-1.5,0.7-2.1,2.4-1.4,3.9l3.6,7.7C55.9,29.6,57.6,30.2,59.1,29.6z"/>
		</g>
	</g>
</g>
</svg>
