<?xml version="1.0" encoding="utf-8"?>
<!-- Generator: Adobe Illustrator 22.0.0, SVG Export Plug-In . SVG Version: 6.00 Build 0)  -->
<svg version="1.1" id="Layer_1" xmlns="http://www.w3.org/2000/svg" xmlns:xlink="http://www.w3.org/1999/xlink" x="0px" y="0px"
	 viewBox="0 0 100 100" style="enable-background:new 0 0 100 100;" xml:space="preserve">
<style type="text/css">
	.st0{fill:none;stroke:#000000;stroke-width:2;stroke-miterlimit:10;}
	.st1{fill:none;}
	.st2{fill:none;stroke:#000000;stroke-width:2;stroke-linecap:round;stroke-miterlimit:10;stroke-dasharray:7;}
	.st3{fill:none;stroke:#000000;stroke-width:2;stroke-linecap:round;stroke-miterlimit:10;}
	.st4{fill:none;stroke:#000000;stroke-width:2;stroke-linecap:round;stroke-linejoin:round;stroke-miterlimit:10;}
	.st5{fill:none;stroke:#000000;stroke-width:2;stroke-linecap:square;stroke-miterlimit:10;}
	.st6{fill:none;stroke:#000000;stroke-width:2;stroke-miterlimit:10;stroke-dasharray:5.3638,5.3638;}
</style>
<g>
	<polyline class="st0" points="21.5,57.5 31.8,57.5 31.8,62 36.3,62 	"/>
	<polyline class="st0" points="44.2,62 62.3,62 72.5,62 	"/>
	<path class="st0" d="M80.4,62h0.8H86v-6.4c0-1.7-0.7-3.3-1.8-4.4c-1.1-1.1-2.7-1.8-4.4-1.8H66.8v-8.9h-4.5"/>
	<path class="st0" d="M66.8,40.3H71c1.2,0,2.4,0.6,3.1,1.6l5.6,7.4"/>
	<path class="st0" d="M62.3,62V35.7c0-0.9-0.7-1.6-1.6-1.6H33.6c-0.9,0-1.6,0.7-1.6,1.6v2h-3.2"/>
	<circle class="st0" cx="40.3" cy="62" r="4"/>
	<circle class="st0" cx="76.4" cy="62" r="4"/>
	<line class="st0" x1="44.2" y1="62" x2="44.2" y2="34"/>
	<line class="st0" x1="44.2" y1="57.5" x2="62.3" y2="57.5"/>
	<line class="st0" x1="62.3" y1="45.6" x2="16.3" y2="45.6"/>
	<line class="st0" x1="35.1" y1="52" x2="23.7" y2="52"/>
	<line class="st0" x1="39.3" y1="41.7" x2="27.9" y2="41.7"/>
	<line class="st0" x1="26.4" y1="41.7" x2="25" y2="41.7"/>
	<line class="st0" x1="15.4" y1="45.6" x2="14" y2="45.6"/>
	<line class="st0" x1="22.8" y1="52" x2="21.5" y2="52"/>
	<line class="st0" x1="20.3" y1="57.5" x2="18.9" y2="57.5"/>
	<line class="st0" x1="27.8" y1="37.7" x2="26.4" y2="37.7"/>
	<line class="st0" x1="23.7" y1="41.7" x2="22.3" y2="41.7"/>
</g>
</svg>
