<?xml version="1.0" encoding="utf-8"?>
<!-- Generator: Adobe Illustrator 22.0.0, SVG Export Plug-In . SVG Version: 6.00 Build 0)  -->
<svg version="1.1" id="Layer_1" xmlns="http://www.w3.org/2000/svg" xmlns:xlink="http://www.w3.org/1999/xlink" x="0px" y="0px"
	 viewBox="0 0 100 100" style="enable-background:new 0 0 100 100;" xml:space="preserve">
<style type="text/css">
	.st0{fill:none;stroke:#000000;stroke-width:2;stroke-miterlimit:10;}
	.st1{fill:none;}
	.st2{fill:none;stroke:#000000;stroke-width:2;stroke-linecap:round;stroke-miterlimit:10;stroke-dasharray:7;}
	.st3{fill:none;stroke:#000000;stroke-width:2;stroke-linecap:round;stroke-miterlimit:10;}
	.st4{fill:none;stroke:#000000;stroke-width:2;stroke-linecap:round;stroke-linejoin:round;stroke-miterlimit:10;}
	.st5{fill:none;stroke:#000000;stroke-width:2;stroke-linecap:square;stroke-miterlimit:10;}
	.st6{fill:none;stroke:#000000;stroke-width:2;stroke-miterlimit:10;stroke-dasharray:5.3638,5.3638;}
</style>
<g>
	<path class="st0" d="M84.3,64H15.7c-0.9,0-1.6-0.7-1.6-1.6V50.2c0-4,3.2-7.2,7.2-7.2h57.4c4,0,7.2,3.2,7.2,7.2v12.2
		C85.9,63.2,85.2,64,84.3,64z"/>
	<path class="st0" d="M24.4,43l2.4-13.4c0.6-3.5,3.6-6,7.2-6h32.1c3.5,0,6.6,2.5,7.2,6L75.6,43"/>
	<path class="st0" d="M34,43l1.4-8c0.2-1.1,1.1-1.9,2.2-1.9h24.7c1.1,0,2,0.8,2.2,1.9l1.4,8"/>
	<g>
		<path class="st0" d="M32,64v6.7c0,3.2-2.6,5.7-5.7,5.7s-5.7-2.6-5.7-5.7V64"/>
		<path class="st0" d="M79.4,64v6.7c0,3.2-2.6,5.7-5.7,5.7S68,73.8,68,70.7V64"/>
	</g>
	<path class="st0" d="M72.6,56.7H27.4c-1.8,0-3.2-1.4-3.2-3.2v0c0-1.8,1.4-3.2,3.2-3.2h45.2c1.8,0,3.2,1.4,3.2,3.2v0
		C75.8,55.3,74.4,56.7,72.6,56.7z"/>
	<line class="st0" x1="50" y1="50.3" x2="50" y2="56.7"/>
</g>
</svg>
