<?xml version="1.0" encoding="utf-8"?>
<!-- Generator: Adobe Illustrator 22.0.0, SVG Export Plug-In . SVG Version: 6.00 Build 0)  -->
<svg version="1.1" id="Layer_1" xmlns="http://www.w3.org/2000/svg" xmlns:xlink="http://www.w3.org/1999/xlink" x="0px" y="0px"
	 viewBox="0 0 100 100" style="enable-background:new 0 0 100 100;" xml:space="preserve">
<style type="text/css">
	.st0{fill:none;stroke:#000000;stroke-width:2;stroke-miterlimit:10;}
	.st1{fill:none;}
	.st2{fill:none;stroke:#000000;stroke-width:2;stroke-linecap:round;stroke-miterlimit:10;stroke-dasharray:7;}
	.st3{fill:none;stroke:#000000;stroke-width:2;stroke-linecap:round;stroke-miterlimit:10;}
	.st4{fill:none;stroke:#000000;stroke-width:2;stroke-linecap:round;stroke-linejoin:round;stroke-miterlimit:10;}
	.st5{fill:none;stroke:#000000;stroke-width:2;stroke-linecap:square;stroke-miterlimit:10;}
	.st6{fill:none;stroke:#000000;stroke-width:2;stroke-miterlimit:10;stroke-dasharray:5.3638,5.3638;}
</style>
<g>
	<path class="st0" d="M24.2,58.8H18c-1.7,0-3.1-1.4-3.1-3.1V54c0-4.7,3.8-8.5,8.5-8.5h2H71h5.6c4.7,0,8.5,3.8,8.5,8.5v1.7
		c0,1.7-1.4,3.1-3.1,3.1h-6.6"/>
	<line class="st0" x1="60.9" y1="58.8" x2="38.7" y2="58.8"/>
	<path class="st0" d="M25.4,45.5l7.9-10.3c0.6-0.8,1.6-1.3,2.6-1.3h19.8c0.8,0,1.5,0.3,2.1,0.7L71,45.5"/>
	<circle class="st0" cx="31.5" cy="58.8" r="7.2"/>
	<circle class="st0" cx="31.5" cy="58.8" r="3.2"/>
	<circle class="st0" cx="68.2" cy="58.8" r="7.2"/>
	<circle class="st0" cx="68.2" cy="58.8" r="3.2"/>
	<line class="st0" x1="46.7" y1="33.9" x2="46.7" y2="45.5"/>
	<line class="st0" x1="62.8" y1="54" x2="36.9" y2="54"/>
	<line class="st0" x1="85.1" y1="54" x2="73.6" y2="54"/>
	<line class="st0" x1="26.1" y1="54" x2="14.9" y2="54"/>
	<path class="st0" d="M79.1,45.9c0,0-1.3,7.3,6,7.8"/>
</g>
</svg>
