<?xml version="1.0" encoding="utf-8"?>
<!-- Generator: Adobe Illustrator 22.0.0, SVG Export Plug-In . SVG Version: 6.00 Build 0)  -->
<svg version="1.1" id="Layer_1" xmlns="http://www.w3.org/2000/svg" xmlns:xlink="http://www.w3.org/1999/xlink" x="0px" y="0px"
	 viewBox="0 0 100 100" style="enable-background:new 0 0 100 100;" xml:space="preserve">
<style type="text/css">
	.st0{fill:none;stroke:#000000;stroke-width:2;stroke-miterlimit:10;}
	.st1{fill:none;}
	.st2{fill:none;stroke:#000000;stroke-width:2;stroke-linecap:round;stroke-miterlimit:10;stroke-dasharray:7;}
	.st3{fill:none;stroke:#000000;stroke-width:2;stroke-linecap:round;stroke-miterlimit:10;}
	.st4{fill:none;stroke:#000000;stroke-width:2;stroke-linecap:round;stroke-linejoin:round;stroke-miterlimit:10;}
	.st5{fill:none;stroke:#000000;stroke-width:2;stroke-linecap:square;stroke-miterlimit:10;}
	.st6{fill:none;stroke:#000000;stroke-width:2;stroke-miterlimit:10;stroke-dasharray:5.3638,5.3638;}
</style>
<g>
	<g>
		<path class="st3" d="M86.5,55.3c0,7.9-6.4,14.3-14.3,14.3c-2.7,0-5.2-0.7-7.3-2c-4.2-2.5-7-7.1-7-12.3c0-7.6,6-13.9,13.6-14.3
			c0.2,0,0.5,0,0.7,0C80.1,41,86.5,47.4,86.5,55.3z"/>
		<path class="st3" d="M64.9,67.6c-3.9,3.1-8.8,5-14.2,5c-5.2,0-10.1-1.8-13.9-4.8c-2.2,1.1-4.6,1.7-7.3,1.7
			c-8.8,0-15.9-7.1-15.9-15.9s7.1-15.9,15.9-15.9c0.7,0,1.4,0,2.1,0.1c4-6.3,11.1-10.5,19.1-10.5C60,27.4,68,33,71.4,41
			c-7.5,0.4-13.6,6.6-13.6,14.3C57.9,60.5,60.7,65.1,64.9,67.6z"/>
	</g>
	<g>
		<line class="st3" x1="75.7" y1="60.1" x2="68.6" y2="51.4"/>
		<line class="st3" x1="68.6" y1="60.1" x2="75.7" y2="51.4"/>
	</g>
</g>
</svg>
