<?xml version="1.0" encoding="utf-8"?>
<!-- Generator: Adobe Illustrator 22.0.0, SVG Export Plug-In . SVG Version: 6.00 Build 0)  -->
<svg version="1.1" id="Layer_1" xmlns="http://www.w3.org/2000/svg" xmlns:xlink="http://www.w3.org/1999/xlink" x="0px" y="0px"
	 viewBox="0 0 100 100" style="enable-background:new 0 0 100 100;" xml:space="preserve">
<style type="text/css">
	.st0{fill:none;stroke:#000000;stroke-width:2;stroke-miterlimit:10;}
	.st1{fill:none;}
	.st2{fill:none;stroke:#000000;stroke-width:2;stroke-linecap:round;stroke-miterlimit:10;stroke-dasharray:7;}
	.st3{fill:none;stroke:#000000;stroke-width:2;stroke-linecap:round;stroke-miterlimit:10;}
	.st4{fill:none;stroke:#000000;stroke-width:2;stroke-linecap:round;stroke-linejoin:round;stroke-miterlimit:10;}
	.st5{fill:none;stroke:#000000;stroke-width:2;stroke-linecap:square;stroke-miterlimit:10;}
	.st6{fill:none;stroke:#000000;stroke-width:2;stroke-miterlimit:10;stroke-dasharray:5.3638,5.3638;}
</style>
<g>
	<path class="st3" d="M64.7,60.9c2.2,1.3,4.8,2,7.5,2c7.7-0.1,13.9-6.5,13.9-14.2c0-7.8-6.4-14.1-14.1-14.1c-0.2,0-0.5,0-0.7,0
		c-3.4-8-11.4-13.5-20.6-13.5c-7.9,0-14.9,4.1-18.9,10.4c-0.7-0.1-1.4-0.1-2-0.1c-8.8,0-15.8,7.1-15.8,15.9C14,56,21.4,63,30,62.9
		c2.5,0,4.8-0.3,6.8-1.7"/>
	<path class="st3" d="M50.9,60c12,7,7.2,18.9,0,18.9h0C43.7,78.9,38.9,67,50.9,60z"/>
</g>
</svg>
