<?xml version="1.0" encoding="utf-8"?>
<!-- Generator: Adobe Illustrator 22.0.0, SVG Export Plug-In . SVG Version: 6.00 Build 0)  -->
<svg version="1.1" id="Layer_1" xmlns="http://www.w3.org/2000/svg" xmlns:xlink="http://www.w3.org/1999/xlink" x="0px" y="0px"
	 viewBox="0 0 100 100" style="enable-background:new 0 0 100 100;" xml:space="preserve">
<style type="text/css">
	.st0{fill:none;stroke:#000000;stroke-width:2;stroke-miterlimit:10;}
	.st1{fill:none;}
	.st2{fill:none;stroke:#000000;stroke-width:2;stroke-linecap:round;stroke-miterlimit:10;stroke-dasharray:7;}
	.st3{fill:none;stroke:#000000;stroke-width:2;stroke-linecap:round;stroke-miterlimit:10;}
	.st4{fill:none;stroke:#000000;stroke-width:2;stroke-linecap:round;stroke-linejoin:round;stroke-miterlimit:10;}
	.st5{fill:none;stroke:#000000;stroke-width:2;stroke-linecap:square;stroke-miterlimit:10;}
	.st6{fill:none;stroke:#000000;stroke-width:2;stroke-miterlimit:10;stroke-dasharray:5.3638,5.3638;}
</style>
<g>
	<g>
		<path class="st3" d="M31.8,38c-0.7-0.1-1.3-0.1-2-0.1c-8.7,0-15.7,7-15.7,15.7s7,15.7,15.7,15.7c2.6,0,5-0.6,7.2-1.7"/>
		<path class="st3" d="M86,55.2c0,7.8-6.3,14.1-14.1,14.1c-2.6,0-5.1-0.7-7.2-2c-3.8,3.1-8.7,5-14,5c-5.2,0-9.9-1.8-13.7-4.7
			c5.1-2.6,8.6-7.9,8.6-14c0-8-6-14.6-13.7-15.6c4-6.2,10.9-10.3,18.8-10.3c9.2,0,17.1,5.5,20.5,13.5c0.2,0,0.5,0,0.7,0
			C79.6,41.1,86,47.5,86,55.2z"/>
	</g>
	<g>
		<rect x="24.6" y="52.8" class="st3" width="10" height="7.7"/>
		<path class="st3" d="M26,52.7v-3c0-2,1.6-3.6,3.6-3.6c2,0,3.6,1.6,3.6,3.6v3"/>
	</g>
</g>
</svg>
