<?xml version="1.0" encoding="utf-8"?>
<!-- Generator: Adobe Illustrator 22.0.0, SVG Export Plug-In . SVG Version: 6.00 Build 0)  -->
<svg version="1.1" id="Layer_1" xmlns="http://www.w3.org/2000/svg" xmlns:xlink="http://www.w3.org/1999/xlink" x="0px" y="0px"
	 viewBox="0 0 100 100" style="enable-background:new 0 0 100 100;" xml:space="preserve">
<style type="text/css">
	.st0{fill:none;stroke:#000000;stroke-width:2;stroke-miterlimit:10;}
	.st1{fill:none;}
	.st2{fill:none;stroke:#000000;stroke-width:2;stroke-linecap:round;stroke-miterlimit:10;stroke-dasharray:7;}
	.st3{fill:none;stroke:#000000;stroke-width:2;stroke-linecap:round;stroke-miterlimit:10;}
	.st4{fill:none;stroke:#000000;stroke-width:2;stroke-linecap:round;stroke-linejoin:round;stroke-miterlimit:10;}
	.st5{fill:none;stroke:#000000;stroke-width:2;stroke-linecap:square;stroke-miterlimit:10;}
	.st6{fill:none;stroke:#000000;stroke-width:2;stroke-miterlimit:10;stroke-dasharray:5.3638,5.3638;}
</style>
<g>
	<g>
		<g>
			<path class="st3" d="M66.2,32.8c0,3.9-2.6,7.2-6.1,8.3c-0.1,0-0.2,0-0.2,0c-1.9-4.4-6-7.6-11-8.2v-0.1c0-4.8,3.9-8.7,8.7-8.7
				C62.3,24.1,66.2,28,66.2,32.8z"/>
			<path class="st3" d="M60.1,41.1c0.1,0,0.1,0,0.2,0c4.8,0,8.7,3.9,8.7,8.7s-3.9,8.7-8.7,8.7c-1.6,0-3.1-0.4-4.4-1.2
				c-2.4,1.9-5.4,3.1-8.6,3.1c-3.2,0-6.1-1.1-8.4-2.9c0,0,0,0,0,0c-1.3,0.7-2.8,1.1-4.4,1.1c-5.3,0-9.7-4.3-9.7-9.7
				c0-5.3,4.3-9.7,9.7-9.7c0.4,0,0.8,0,1.3,0.1c2.4-3.8,6.7-6.4,11.6-6.4c0.5,0,1.1,0,1.6,0.1"/>
		</g>
		<g>
			<line class="st3" x1="57.8" y1="20.2" x2="57.8" y2="14.5"/>
			<line class="st3" x1="63.7" y1="21.8" x2="66.6" y2="16.9"/>
			<line class="st3" x1="68.1" y1="26.2" x2="73" y2="23.4"/>
			<line class="st3" x1="70.1" y1="32.2" x2="75.3" y2="32.2"/>
			<line class="st3" x1="68.6" y1="38.5" x2="72.9" y2="41"/>
			<line class="st3" x1="51.7" y1="21.7" x2="48.9" y2="16.7"/>
			<line class="st3" x1="46.8" y1="25.8" x2="42.3" y2="23.2"/>
		</g>
	</g>
	<g>
		<line class="st3" x1="46.8" y1="70.2" x2="46.8" y2="64.5"/>
		<line class="st3" x1="46.8" y1="85.5" x2="46.8" y2="79.8"/>
		<line class="st3" x1="56.9" y1="71.8" x2="56.9" y2="66.1"/>
		<line class="st3" x1="36.8" y1="71.8" x2="36.8" y2="66.1"/>
		<line class="st3" x1="41.8" y1="78.7" x2="41.8" y2="73"/>
		<line class="st3" x1="51.9" y1="78.7" x2="51.9" y2="73"/>
	</g>
</g>
</svg>
