<?xml version="1.0" encoding="utf-8"?>
<!-- Generator: Adobe Illustrator 22.0.0, SVG Export Plug-In . SVG Version: 6.00 Build 0)  -->
<svg version="1.1" id="Layer_1" xmlns="http://www.w3.org/2000/svg" xmlns:xlink="http://www.w3.org/1999/xlink" x="0px" y="0px"
	 viewBox="0 0 100 100" style="enable-background:new 0 0 100 100;" xml:space="preserve">
<style type="text/css">
	.st0{fill:none;stroke:#000000;stroke-width:2;stroke-miterlimit:10;}
	.st1{fill:none;}
	.st2{fill:none;stroke:#000000;stroke-width:2;stroke-linecap:round;stroke-miterlimit:10;stroke-dasharray:7;}
	.st3{fill:none;stroke:#000000;stroke-width:2;stroke-linecap:round;stroke-miterlimit:10;}
	.st4{fill:none;stroke:#000000;stroke-width:2;stroke-linecap:round;stroke-linejoin:round;stroke-miterlimit:10;}
	.st5{fill:none;stroke:#000000;stroke-width:2;stroke-linecap:square;stroke-miterlimit:10;}
	.st6{fill:none;stroke:#000000;stroke-width:2;stroke-miterlimit:10;stroke-dasharray:5.3638,5.3638;}
</style>
<g>
	<g>
		<path class="st3" d="M31.6,37.9c-0.7-0.1-1.4-0.1-2.1-0.1c-8.8,0-15.9,7.1-15.9,15.9s7.1,15.9,15.9,15.9c2.6,0,5.1-0.6,7.2-1.7"/>
		<path class="st3" d="M86.3,55.3c0,7.9-6.4,14.2-14.2,14.2c-2.7,0-5.1-0.7-7.3-2c-3.9,3.1-8.8,5-14.2,5c-5.2,0-10-1.8-13.8-4.8
			c5.1-2.6,8.6-8,8.6-14.1c0-8.1-6-14.7-13.8-15.7c4-6.3,11-10.4,19-10.4c9.3,0,17.2,5.6,20.7,13.6c0.2,0,0.5,0,0.7,0
			C79.9,41.1,86.3,47.4,86.3,55.3z"/>
	</g>
	<g>
		<line class="st3" x1="29.1" y1="59.7" x2="29.1" y2="46.6"/>
		<polyline class="st3" points="23.4,53.5 29.1,59.7 34.9,53.5 		"/>
	</g>
</g>
</svg>
