<?xml version="1.0" encoding="utf-8"?>
<!-- Generator: Adobe Illustrator 22.0.0, SVG Export Plug-In . SVG Version: 6.00 Build 0)  -->
<svg version="1.1" id="Layer_1" xmlns="http://www.w3.org/2000/svg" xmlns:xlink="http://www.w3.org/1999/xlink" x="0px" y="0px"
	 viewBox="0 0 100 100" style="enable-background:new 0 0 100 100;" xml:space="preserve">
<style type="text/css">
	.st0{fill:none;stroke:#000000;stroke-width:2;stroke-miterlimit:10;}
	.st1{fill:none;}
	.st2{fill:none;stroke:#000000;stroke-width:2;stroke-linecap:round;stroke-miterlimit:10;stroke-dasharray:7;}
	.st3{fill:none;stroke:#000000;stroke-width:2;stroke-linecap:round;stroke-miterlimit:10;}
	.st4{fill:none;stroke:#000000;stroke-width:2;stroke-linecap:round;stroke-linejoin:round;stroke-miterlimit:10;}
	.st5{fill:none;stroke:#000000;stroke-width:2;stroke-linecap:square;stroke-miterlimit:10;}
	.st6{fill:none;stroke:#000000;stroke-width:2;stroke-miterlimit:10;stroke-dasharray:5.3638,5.3638;}
</style>
<g>
	<path class="st0" d="M77.8,59.2h6.7c0.8,0,1.5-0.7,1.5-1.5v-2.9c0-0.6-0.3-1.1-0.8-1.3l-1.5-0.7l-1.1-2.8c-0.4-1-1.3-1.8-2.4-2.1
		l-9.9-2.5c-1.4-0.4-2.8-0.9-4.1-1.7l-9-5.7c-3-1.9-6.4-2.8-9.9-2.7l-8.7,0.3l-10.2,0.4c-3,0.1-5.7,1.5-7.6,3.8l-2.1,2.6
		c-0.5,0.7-0.7,1.5-0.4,2.3l1.2,3.3l-4.9,4.9c-0.4,0.4-0.7,1-0.7,1.6v2.4c0,1.3,1,2.3,2.3,2.3H23"/>
	<line class="st0" x1="66.5" y1="59.2" x2="34.3" y2="59.2"/>
	<circle class="st0" cx="28.6" cy="59.2" r="5.7"/>
	<circle class="st0" cx="28.6" cy="59.2" r="2.2"/>
	<circle class="st0" cx="72.1" cy="59.2" r="5.7"/>
	<circle class="st0" cx="72.1" cy="59.2" r="2.2"/>
	<polyline class="st0" points="80.2,47.8 50.3,47.9 44.4,47.9 38.6,47.9 19.6,47.9 	"/>
	<polyline class="st0" points="44.4,47.9 44.4,47.9 38.7,35.5 	"/>
	<line class="st0" x1="43.8" y1="59.2" x2="38.6" y2="47.9"/>
	<polyline class="st0" points="50.3,47.9 50.3,47.9 55.6,59.2 	"/>
</g>
</svg>
