<?xml version="1.0" encoding="utf-8"?>
<!-- Generator: Adobe Illustrator 22.0.0, SVG Export Plug-In . SVG Version: 6.00 Build 0)  -->
<svg version="1.1" id="Layer_1" xmlns="http://www.w3.org/2000/svg" xmlns:xlink="http://www.w3.org/1999/xlink" x="0px" y="0px"
	 viewBox="0 0 100 100" style="enable-background:new 0 0 100 100;" xml:space="preserve">
<style type="text/css">
	.st0{fill:none;stroke:#000000;stroke-width:2;stroke-miterlimit:10;}
	.st1{fill:none;}
	.st2{fill:none;stroke:#000000;stroke-width:2;stroke-linecap:round;stroke-miterlimit:10;stroke-dasharray:7;}
	.st3{fill:none;stroke:#000000;stroke-width:2;stroke-linecap:round;stroke-miterlimit:10;}
	.st4{fill:none;stroke:#000000;stroke-width:2;stroke-linecap:round;stroke-linejoin:round;stroke-miterlimit:10;}
	.st5{fill:none;stroke:#000000;stroke-width:2;stroke-linecap:square;stroke-miterlimit:10;}
	.st6{fill:none;stroke:#000000;stroke-width:2;stroke-miterlimit:10;stroke-dasharray:5.3638,5.3638;}
</style>
<g>
	<g>
		<path class="st3" d="M86,55.2c0,7.8-6.3,14.1-14.1,14.1c-2.6,0-5.1-0.7-7.2-2c-4.1-2.5-6.9-7-6.9-12.1c0-7.5,5.9-13.7,13.4-14.1
			c0.2,0,0.5,0,0.7,0C79.6,41.1,86,47.5,86,55.2z"/>
		<path class="st3" d="M64.7,67.4c-3.8,3.1-8.7,5-14,5c-5.2,0-9.9-1.8-13.7-4.7c-2.1,1.1-4.6,1.7-7.2,1.7c-8.7,0-15.7-7-15.7-15.7
			s7-15.7,15.7-15.7c0.7,0,1.4,0,2,0.1c4-6.2,10.9-10.3,18.8-10.3c9.2,0,17.1,5.5,20.5,13.5c-7.4,0.4-13.4,6.5-13.4,14.1
			C57.8,60.4,60.5,64.9,64.7,67.4z"/>
	</g>
	<g>
		<line class="st3" x1="71.9" y1="49.8" x2="71.9" y2="61.9"/>
		<polyline class="st3" points="77.7,55.9 71.9,49.8 66.2,55.9 		"/>
	</g>
</g>
</svg>
