<?xml version="1.0" encoding="utf-8"?>
<!-- Generator: Adobe Illustrator 22.0.0, SVG Export Plug-In . SVG Version: 6.00 Build 0)  -->
<svg version="1.1" id="Layer_1" xmlns="http://www.w3.org/2000/svg" xmlns:xlink="http://www.w3.org/1999/xlink" x="0px" y="0px"
	 viewBox="0 0 100 100" style="enable-background:new 0 0 100 100;" xml:space="preserve">
<style type="text/css">
	.st0{fill:none;stroke:#000000;stroke-width:2;stroke-miterlimit:10;}
	.st1{fill:none;}
	.st2{fill:none;stroke:#000000;stroke-width:2;stroke-linecap:round;stroke-miterlimit:10;stroke-dasharray:7;}
	.st3{fill:none;stroke:#000000;stroke-width:2;stroke-linecap:round;stroke-miterlimit:10;}
	.st4{fill:none;stroke:#000000;stroke-width:2;stroke-linecap:round;stroke-linejoin:round;stroke-miterlimit:10;}
	.st5{fill:none;stroke:#000000;stroke-width:2;stroke-linecap:square;stroke-miterlimit:10;}
	.st6{fill:none;stroke:#000000;stroke-width:2;stroke-miterlimit:10;stroke-dasharray:5.3638,5.3638;}
</style>
<g>
	<path class="st3" d="M68.1,25.7c-0.2,0-0.4,0-0.6,0c-2.8-6.6-9.4-11.2-17-11.2c-6.6,0-12.3,3.4-15.6,8.6C34.4,23,33.8,23,33.2,23
		c-7.2,0-13.1,5.9-13,13.1c0.1,7.2,6.1,13,13.3,12.9c2.1,0,3.9-0.2,5.6-1.4c3.1,2.4,7.1,3.9,11.4,3.9c4.4,0,8.4-1.5,11.6-4.1
		c1.8,1.1,3.9,1.7,6.2,1.6c6.3-0.1,11.5-5.4,11.5-11.7C79.8,30.9,74.5,25.7,68.1,25.7z"/>
	<line class="st3" x1="50" y1="64.8" x2="50" y2="57.2"/>
	<line class="st3" x1="50" y1="85.5" x2="50" y2="77.8"/>
	<line class="st3" x1="63.6" y1="66.9" x2="63.6" y2="59.3"/>
	<line class="st3" x1="36.4" y1="66.9" x2="36.4" y2="59.3"/>
	<line class="st3" x1="43.2" y1="76.2" x2="43.2" y2="68.6"/>
	<line class="st3" x1="56.8" y1="76.2" x2="56.8" y2="68.6"/>
</g>
</svg>
