<?xml version="1.0" encoding="utf-8"?>
<!-- Generator: Adobe Illustrator 22.0.0, SVG Export Plug-In . SVG Version: 6.00 Build 0)  -->
<svg version="1.1" id="Layer_1" xmlns="http://www.w3.org/2000/svg" xmlns:xlink="http://www.w3.org/1999/xlink" x="0px" y="0px"
	 viewBox="0 0 100 100" style="enable-background:new 0 0 100 100;" xml:space="preserve">
<style type="text/css">
	.st0{fill:none;stroke:#000000;stroke-width:2;stroke-miterlimit:10;}
	.st1{fill:none;}
	.st2{fill:none;stroke:#000000;stroke-width:2;stroke-linecap:round;stroke-miterlimit:10;stroke-dasharray:7;}
	.st3{fill:none;stroke:#000000;stroke-width:2;stroke-linecap:round;stroke-miterlimit:10;}
	.st4{fill:none;stroke:#000000;stroke-width:2;stroke-linecap:round;stroke-linejoin:round;stroke-miterlimit:10;}
	.st5{fill:none;stroke:#000000;stroke-width:2;stroke-linecap:square;stroke-miterlimit:10;}
	.st6{fill:none;stroke:#000000;stroke-width:2;stroke-miterlimit:10;stroke-dasharray:5.3638,5.3638;}
</style>
<g>
	<g>
		<path class="st3" d="M77.1,42.5c0,8.2-8.9,13.4-16.1,9.2c-6.1,4.9-14.8,5-20.9,0.2c-1.6,1.1-3.2,1.3-5.1,1.3
			c-6.5,0-12.1-5.2-12.1-11.8c-0.1-7.1,6.1-12.8,13.4-11.8c4.6-7.1,13.6-9.7,21.1-6.3c0,6.5,6.4,11.2,12.6,9.3
			C74.1,34,77.1,37.9,77.1,42.5z"/>
		<path class="st4" d="M70,32.6c3.2-1,5.6-3.5,6.5-6.6c-7.4,2.8-15-4-12.8-11.8c-3.6,1.4-6.2,4.9-6.2,9.1"/>
	</g>
	<g>
		<line class="st3" x1="50" y1="67" x2="50" y2="60.1"/>
		<line class="st3" x1="50" y1="85.8" x2="50" y2="78.8"/>
		<line class="st3" x1="62.3" y1="69" x2="62.3" y2="62"/>
		<line class="st3" x1="37.7" y1="69" x2="37.7" y2="62"/>
		<line class="st3" x1="43.8" y1="77.4" x2="43.8" y2="70.4"/>
		<line class="st3" x1="56.2" y1="77.4" x2="56.2" y2="70.4"/>
	</g>
</g>
</svg>
