<?xml version="1.0" encoding="utf-8"?>
<!-- Generator: Adobe Illustrator 22.0.0, SVG Export Plug-In . SVG Version: 6.00 Build 0)  -->
<svg version="1.1" id="Layer_1" xmlns="http://www.w3.org/2000/svg" xmlns:xlink="http://www.w3.org/1999/xlink" x="0px" y="0px"
	 viewBox="0 0 100 100" style="enable-background:new 0 0 100 100;" xml:space="preserve">
<style type="text/css">
	.st0{fill:none;stroke:#000000;stroke-width:2;stroke-miterlimit:10;}
	.st1{fill:none;}
	.st2{fill:none;stroke:#000000;stroke-width:2;stroke-linecap:round;stroke-miterlimit:10;stroke-dasharray:7;}
	.st3{fill:none;stroke:#000000;stroke-width:2;stroke-linecap:round;stroke-miterlimit:10;}
	.st4{fill:none;stroke:#000000;stroke-width:2;stroke-linecap:round;stroke-linejoin:round;stroke-miterlimit:10;}
	.st5{fill:none;stroke:#000000;stroke-width:2;stroke-linecap:square;stroke-miterlimit:10;}
	.st6{fill:none;stroke:#000000;stroke-width:2;stroke-miterlimit:10;stroke-dasharray:5.3638,5.3638;}
</style>
<g>
	<path class="st0" d="M71.6,32.2C64.4,15.3,41.2,13.5,31.4,29c-9.7-1.3-18.3,6.3-18.2,16.1c0.1,8.9,7.6,16,16.5,16
		c2.6,0,4.9-0.3,7-1.8c3.9,3,8.7,4.8,14,4.8c5.4,0,10.4-1.9,14.4-5.1c2.2,1.3,4.8,2.1,7.6,2c7.9-0.1,14.2-6.6,14.2-14.5
		C86.8,38.3,79.9,31.8,71.6,32.2z"/>
	<g>
		<polyline class="st3" points="41.9,62 34,72.5 44,71.2 36.2,81.6 		"/>
		<polyline class="st3" points="65,59 56,72.5 66,71.2 58.1,81.6 		"/>
	</g>
</g>
</svg>
