<?xml version="1.0" encoding="utf-8"?>
<!-- Generator: Adobe Illustrator 22.0.0, SVG Export Plug-In . SVG Version: 6.00 Build 0)  -->
<svg version="1.1" id="Layer_1" xmlns="http://www.w3.org/2000/svg" xmlns:xlink="http://www.w3.org/1999/xlink" x="0px" y="0px"
	 viewBox="0 0 100 100" style="enable-background:new 0 0 100 100;" xml:space="preserve">
<style type="text/css">
	.st0{fill:none;stroke:#000000;stroke-width:2;stroke-miterlimit:10;}
	.st1{fill:none;}
	.st2{fill:none;stroke:#000000;stroke-width:2;stroke-linecap:round;stroke-miterlimit:10;stroke-dasharray:7;}
	.st3{fill:none;stroke:#000000;stroke-width:2;stroke-linecap:round;stroke-miterlimit:10;}
	.st4{fill:none;stroke:#000000;stroke-width:2;stroke-linecap:round;stroke-linejoin:round;stroke-miterlimit:10;}
	.st5{fill:none;stroke:#000000;stroke-width:2;stroke-linecap:square;stroke-miterlimit:10;}
	.st6{fill:none;stroke:#000000;stroke-width:2;stroke-miterlimit:10;stroke-dasharray:5.3638,5.3638;}
</style>
<g>
	<path class="st3" d="M86.3,60.3c0,10.9-12,17.9-21.5,12.3c-8.1,6.6-19.7,6.7-28,0.3c-2.1,1.5-4.3,1.7-6.9,1.7
		c-8.7,0.1-16.1-7-16.2-15.7c-0.1-9.5,8.2-17.1,17.9-15.9c6.1-9.6,18.2-13,28.2-8.4c0,8.7,8.5,14.9,16.8,12.4
		C82.2,48.9,86.2,54.1,86.3,60.3z"/>
	<path class="st4" d="M76.7,47c4.3-1.3,7.5-4.7,8.7-8.8c-9.9,3.8-20.1-5.3-17.1-15.7c-4.8,1.8-8.3,6.5-8.3,12.2"/>
</g>
</svg>
