<?xml version="1.0" encoding="utf-8"?>
<!-- Generator: Adobe Illustrator 22.0.0, SVG Export Plug-In . SVG Version: 6.00 Build 0)  -->
<svg version="1.1" id="Layer_1" xmlns="http://www.w3.org/2000/svg" xmlns:xlink="http://www.w3.org/1999/xlink" x="0px" y="0px"
	 viewBox="0 0 100 100" style="enable-background:new 0 0 100 100;" xml:space="preserve">
<style type="text/css">
	.st0{fill:none;stroke:#000000;stroke-width:2;stroke-miterlimit:10;}
	.st1{fill:none;}
	.st2{fill:none;stroke:#000000;stroke-width:2;stroke-linecap:round;stroke-miterlimit:10;stroke-dasharray:7;}
	.st3{fill:none;stroke:#000000;stroke-width:2;stroke-linecap:round;stroke-miterlimit:10;}
	.st4{fill:none;stroke:#000000;stroke-width:2;stroke-linecap:round;stroke-linejoin:round;stroke-miterlimit:10;}
	.st5{fill:none;stroke:#000000;stroke-width:2;stroke-linecap:square;stroke-miterlimit:10;}
	.st6{fill:none;stroke:#000000;stroke-width:2;stroke-miterlimit:10;stroke-dasharray:5.3638,5.3638;}
</style>
<g>
	<g>
		<path class="st3" d="M73.2,43.4c0,5.6-3.7,10.3-8.8,11.9c-0.1,0-0.2,0-0.3,0c-2.7-6.3-8.7-10.9-15.8-11.8v-0.1
			c0-6.9,5.6-12.4,12.4-12.4C67.6,31,73.2,36.6,73.2,43.4z"/>
		<path class="st3" d="M64.4,55.3c0.1,0,0.2,0,0.3,0c6.9,0,12.4,5.6,12.4,12.4s-5.6,12.4-12.4,12.4c-2.3,0-4.5-0.6-6.4-1.8
			c-3.4,2.7-7.7,4.4-12.4,4.4c-4.6,0-8.8-1.6-12.1-4.2c0,0,0,0,0,0c-1.9,1-4,1.5-6.3,1.5c-7.7,0-13.9-6.2-13.9-13.9
			c0-7.7,6.2-13.9,13.9-13.9c0.6,0,1.2,0,1.8,0.1c3.5-5.5,9.6-9.1,16.6-9.1c0.8,0,1.6,0,2.3,0.1"/>
	</g>
	<g>
		<line class="st3" x1="61.1" y1="25.3" x2="61.1" y2="17.2"/>
		<line class="st3" x1="69.7" y1="27.7" x2="73.8" y2="20.6"/>
		<line class="st3" x1="75.9" y1="34" x2="83" y2="29.9"/>
		<line class="st3" x1="78.8" y1="42.6" x2="86.3" y2="42.6"/>
		<line class="st3" x1="76.7" y1="51.7" x2="82.8" y2="55.2"/>
		<line class="st3" x1="52.4" y1="27.5" x2="48.4" y2="20.4"/>
		<line class="st3" x1="45.4" y1="33.4" x2="38.9" y2="29.6"/>
	</g>
</g>
</svg>
