<?xml version="1.0" encoding="utf-8"?>
<!-- Generator: Adobe Illustrator 22.0.0, SVG Export Plug-In . SVG Version: 6.00 Build 0)  -->
<svg version="1.1" id="Layer_1" xmlns="http://www.w3.org/2000/svg" xmlns:xlink="http://www.w3.org/1999/xlink" x="0px" y="0px"
	 viewBox="0 0 100 100" style="enable-background:new 0 0 100 100;" xml:space="preserve">
<style type="text/css">
	.st0{fill:none;stroke:#000000;stroke-width:2;stroke-miterlimit:10;}
	.st1{fill:none;}
	.st2{fill:none;stroke:#000000;stroke-width:2;stroke-linecap:round;stroke-miterlimit:10;stroke-dasharray:7;}
	.st3{fill:none;stroke:#000000;stroke-width:2;stroke-linecap:round;stroke-miterlimit:10;}
	.st4{fill:none;stroke:#000000;stroke-width:2;stroke-linecap:round;stroke-linejoin:round;stroke-miterlimit:10;}
	.st5{fill:none;stroke:#000000;stroke-width:2;stroke-linecap:square;stroke-miterlimit:10;}
	.st6{fill:none;stroke:#000000;stroke-width:2;stroke-miterlimit:10;stroke-dasharray:5.3638,5.3638;}
</style>
<g>
	<g>
		<g>
			<path class="st0" d="M26.6,69.3v1.9c0,2.1-1.7,3.8-3.8,3.8s-3.8-1.7-3.8-3.8v-1.9"/>
		</g>
		<g>
			<path class="st0" d="M50.1,69.3h31.5c1.4,0,2.5-1.1,2.5-2.5V49.4c0-1.2-0.4-2.4-1.1-3.4l-5.7-8H50.1h-0.1H22.7L17,46
				c-0.7,1-1.1,2.2-1.1,3.4v17.4c0,1.4,1.1,2.5,2.5,2.5h31.5H50.1z"/>
			<path class="st0" d="M79.5,38.1v-3.3c0-0.8,0.7-1.5,1.5-1.5h4.3c0.4,0,0.8,0.3,0.8,0.8v1.8c0,1.2-0.9,2.1-2.1,2.1h-6.6L72,28
				c-1-1.8-2.9-3-5-3H50.1h-0.1H33c-2.1,0-4,1.2-5,3l-5.4,10h-6.6c-1.2,0-2.1-0.9-2.1-2.1v-1.8c0-0.4,0.3-0.8,0.8-0.8h4.3
				c0.8,0,1.5,0.7,1.5,1.5v3.3"/>
			<path class="st0" d="M30.6,69.3V68c0-2.9,2.4-5.3,5.3-5.3H45h11.1h8c2.9,0,5.3,2.4,5.3,5.3v1.3"/>
			<path class="st0" d="M80.9,69.3v1.9c0,2.1-1.7,3.8-3.8,3.8s-3.8-1.7-3.8-3.8v-1.9"/>
		</g>
	</g>
	<g>
		<path class="st0" d="M28.8,57.4H26c-2.3,0-4.2-1.9-4.2-4.2v-2.9h2.9c2.3,0,4.2,1.9,4.2,4.2V57.4z"/>
		<path class="st0" d="M71.2,57.4H74c2.3,0,4.2-1.9,4.2-4.2v-2.9h-2.9c-2.3,0-4.2,1.9-4.2,4.2V57.4z"/>
	</g>
	<path class="st0" d="M60.9,55.8H39.1c-1.4,0-2.6-1.2-2.6-2.6v0c0-1.4,1.2-2.6,2.6-2.6h21.9c1.4,0,2.6,1.2,2.6,2.6v0
		C63.5,54.7,62.4,55.8,60.9,55.8z"/>
</g>
</svg>
