<?xml version="1.0" encoding="utf-8"?>
<!-- Generator: Adobe Illustrator 22.0.0, SVG Export Plug-In . SVG Version: 6.00 Build 0)  -->
<svg version="1.1" id="Layer_1" xmlns="http://www.w3.org/2000/svg" xmlns:xlink="http://www.w3.org/1999/xlink" x="0px" y="0px"
	 viewBox="0 0 100 100" style="enable-background:new 0 0 100 100;" xml:space="preserve">
<style type="text/css">
	.st0{fill:none;stroke:#000000;stroke-width:2;stroke-miterlimit:10;}
	.st1{fill:none;}
	.st2{fill:none;stroke:#000000;stroke-width:2;stroke-linecap:round;stroke-miterlimit:10;stroke-dasharray:7;}
	.st3{fill:none;stroke:#000000;stroke-width:2;stroke-linecap:round;stroke-miterlimit:10;}
	.st4{fill:none;stroke:#000000;stroke-width:2;stroke-linecap:round;stroke-linejoin:round;stroke-miterlimit:10;}
	.st5{fill:none;stroke:#000000;stroke-width:2;stroke-linecap:square;stroke-miterlimit:10;}
	.st6{fill:none;stroke:#000000;stroke-width:2;stroke-miterlimit:10;stroke-dasharray:5.3638,5.3638;}
</style>
<g>
	<g>
		<g>
			<path class="st0" d="M18.2,66.5c1.6,3.2,3.8,6.2,6.5,8.8c13.4,13.4,34.8,14,48.8,1.7"/>
			<g>
				<polygon points="24.1,64.7 13.1,69.7 16.1,61.7 				"/>
			</g>
		</g>
	</g>
	<g>
		<g>
			<path class="st0" d="M61.7,16.1c5,1.7,9.7,4.6,13.7,8.5c12.1,12.1,13.7,30.8,4.9,44.6"/>
			<g>
				<polygon points="85.5,72.2 75.7,65 77,73.5 				"/>
			</g>
		</g>
	</g>
	<g>
		<g>
			<path class="st0" d="M14.8,56.8c-2.2-11.3,1.1-23.4,9.8-32.2c7.4-7.4,17.2-10.9,27-10.5"/>
			<g>
				<polygon points="51.5,8.1 50.1,20.2 56.8,14.8 				"/>
			</g>
		</g>
	</g>
</g>
</svg>
