<?xml version="1.0" encoding="utf-8"?>
<!-- Generator: Adobe Illustrator 22.0.0, SVG Export Plug-In . SVG Version: 6.00 Build 0)  -->
<svg version="1.1" id="Layer_1" xmlns="http://www.w3.org/2000/svg" xmlns:xlink="http://www.w3.org/1999/xlink" x="0px" y="0px"
	 viewBox="0 0 100 100" style="enable-background:new 0 0 100 100;" xml:space="preserve">
<style type="text/css">
	.st0{fill:none;stroke:#000000;stroke-width:2;stroke-miterlimit:10;}
	.st1{fill:none;}
	.st2{fill:none;stroke:#000000;stroke-width:2;stroke-linecap:round;stroke-miterlimit:10;stroke-dasharray:7;}
	.st3{fill:none;stroke:#000000;stroke-width:2;stroke-linecap:round;stroke-miterlimit:10;}
	.st4{fill:none;stroke:#000000;stroke-width:2;stroke-linecap:round;stroke-linejoin:round;stroke-miterlimit:10;}
	.st5{fill:none;stroke:#000000;stroke-width:2;stroke-linecap:square;stroke-miterlimit:10;}
	.st6{fill:none;stroke:#000000;stroke-width:2;stroke-miterlimit:10;stroke-dasharray:5.3638,5.3638;}
</style>
<g>
	<path class="st0" d="M77,30.4v51.8c0,1.3-1.1,2.4-2.4,2.4H25.4c-1.3,0-2.4-1.1-2.4-2.4V17.8c0-1.3,1.1-2.4,2.4-2.4h36.5
		c0.8,0,1.6,0.3,2.2,0.9l12,12C76.7,28.8,77,29.6,77,30.4z"/>
	<g>
		<line class="st0" x1="32.5" y1="26.3" x2="59.5" y2="26.3"/>
		<line class="st0" x1="32.5" y1="35.8" x2="67.5" y2="35.8"/>
		<line class="st0" x1="32.5" y1="45.3" x2="67.5" y2="45.3"/>
		<line class="st0" x1="32.5" y1="54.8" x2="67.5" y2="54.8"/>
		<line class="st0" x1="32.5" y1="64.3" x2="67.5" y2="64.3"/>
		<line class="st0" x1="32.5" y1="73.8" x2="67.5" y2="73.8"/>
	</g>
</g>
</svg>
