<?xml version="1.0" encoding="utf-8"?>
<!-- Generator: Adobe Illustrator 22.0.0, SVG Export Plug-In . SVG Version: 6.00 Build 0)  -->
<svg version="1.1" id="Layer_1" xmlns="http://www.w3.org/2000/svg" xmlns:xlink="http://www.w3.org/1999/xlink" x="0px" y="0px"
	 viewBox="0 0 100 100" style="enable-background:new 0 0 100 100;" xml:space="preserve">
<style type="text/css">
	.st0{fill:none;stroke:#000000;stroke-width:2;stroke-miterlimit:10;}
	.st1{fill:none;}
	.st2{fill:none;stroke:#000000;stroke-width:2;stroke-linecap:round;stroke-miterlimit:10;stroke-dasharray:7;}
	.st3{fill:none;stroke:#000000;stroke-width:2;stroke-linecap:round;stroke-miterlimit:10;}
	.st4{fill:none;stroke:#000000;stroke-width:2;stroke-linecap:round;stroke-linejoin:round;stroke-miterlimit:10;}
	.st5{fill:none;stroke:#000000;stroke-width:2;stroke-linecap:square;stroke-miterlimit:10;}
	.st6{fill:none;stroke:#000000;stroke-width:2;stroke-miterlimit:10;stroke-dasharray:5.3638,5.3638;}
</style>
<g>
	<g>
		<path class="st0" d="M25.6,31.1v51.1c0,1.3,1.1,2.4,2.4,2.4h49.2c1.3,0,2.4-1.1,2.4-2.4V29.1L65.9,15.3H28.1
			c-1.3,0-2.4,1.1-2.4,2.4v4.5"/>
		<path class="st0" d="M65.9,15.3V28c0,0.6,0.5,1.1,1.1,1.1h12.7"/>
	</g>
	<path class="st0" d="M52.8,31.1H22.6c-1.3,0-2.3-1-2.3-2.3v-4.3c0-1.3,1-2.3,2.3-2.3h30.1c1.3,0,2.3,1,2.3,2.3v4.3
		C55.1,30.1,54,31.1,52.8,31.1z"/>
	<g>
		<line class="st0" x1="39.1" y1="40.3" x2="69.5" y2="40.3"/>
		<line class="st0" x1="39.1" y1="49.4" x2="69.5" y2="49.4"/>
		<line class="st0" x1="39.1" y1="58.6" x2="69.5" y2="58.6"/>
		<line class="st0" x1="39.1" y1="67.8" x2="69.5" y2="67.8"/>
		<line class="st0" x1="39.1" y1="76.9" x2="69.5" y2="76.9"/>
	</g>
</g>
</svg>
