<?xml version="1.0" encoding="utf-8"?>
<!-- Generator: Adobe Illustrator 22.0.0, SVG Export Plug-In . SVG Version: 6.00 Build 0)  -->
<svg version="1.1" id="Layer_1" xmlns="http://www.w3.org/2000/svg" xmlns:xlink="http://www.w3.org/1999/xlink" x="0px" y="0px"
	 viewBox="0 0 100 100" style="enable-background:new 0 0 100 100;" xml:space="preserve">
<style type="text/css">
	.st0{fill:none;stroke:#000000;stroke-width:2;stroke-miterlimit:10;}
	.st1{fill:none;}
	.st2{fill:none;stroke:#000000;stroke-width:2;stroke-linecap:round;stroke-miterlimit:10;stroke-dasharray:7;}
	.st3{fill:none;stroke:#000000;stroke-width:2;stroke-linecap:round;stroke-miterlimit:10;}
	.st4{fill:none;stroke:#000000;stroke-width:2;stroke-linecap:round;stroke-linejoin:round;stroke-miterlimit:10;}
	.st5{fill:none;stroke:#000000;stroke-width:2;stroke-linecap:square;stroke-miterlimit:10;}
	.st6{fill:none;stroke:#000000;stroke-width:2;stroke-miterlimit:10;stroke-dasharray:5.3638,5.3638;}
</style>
<g>
	<path class="st0" d="M28.9,81.2h55.1c1,0,1.8-0.8,1.8-1.8v-42c0-1-0.8-1.8-1.8-1.8H71.7h-41c-1,0-1.8,0.8-1.8,1.8V81.2h-13
		c-1,0-1.8-0.8-1.8-1.8V30.8v-5v-5.2c0-1,0.8-1.8,1.8-1.8h21.6c1,0,1.8,0.8,1.8,1.8V24c0,1,0.8,1.8,1.8,1.8h28.8
		c1,0,1.8,0.8,1.8,1.8v8"/>
	<g>
		<line class="st0" x1="76.8" y1="56.2" x2="50" y2="56.2"/>
		<line class="st0" x1="76.8" y1="64.8" x2="50" y2="64.8"/>
	</g>
</g>
</svg>
