<?xml version="1.0" encoding="utf-8"?>
<!-- Generator: Adobe Illustrator 22.0.0, SVG Export Plug-In . SVG Version: 6.00 Build 0)  -->
<svg version="1.1" id="Layer_1" xmlns="http://www.w3.org/2000/svg" xmlns:xlink="http://www.w3.org/1999/xlink" x="0px" y="0px"
	 viewBox="0 0 100 100" style="enable-background:new 0 0 100 100;" xml:space="preserve">
<style type="text/css">
	.st0{fill:none;stroke:#000000;stroke-width:2;stroke-miterlimit:10;}
	.st1{fill:none;}
	.st2{fill:none;stroke:#000000;stroke-width:2;stroke-linecap:round;stroke-miterlimit:10;stroke-dasharray:7;}
	.st3{fill:none;stroke:#000000;stroke-width:2;stroke-linecap:round;stroke-miterlimit:10;}
	.st4{fill:none;stroke:#000000;stroke-width:2;stroke-linecap:round;stroke-linejoin:round;stroke-miterlimit:10;}
	.st5{fill:none;stroke:#000000;stroke-width:2;stroke-linecap:square;stroke-miterlimit:10;}
	.st6{fill:none;stroke:#000000;stroke-width:2;stroke-miterlimit:10;stroke-dasharray:5.3638,5.3638;}
</style>
<g>
	<path class="st0" d="M14,37.7h25.4c2,0,3.7,1.6,3.7,3.7v3.3c0,2,1.6,3.7,3.7,3.7H86"/>
	<path class="st0" d="M14,68.7c0-3.6,0-7,0-7V23.9c0-0.9,0.7-1.6,1.6-1.6h23.8c2,0,3.7,1.6,3.7,3.7v3.3c0,2,1.6,3.7,3.7,3.7h37.6
		c0.9,0,1.6,0.7,1.6,1.6v41.5c0,0.9-0.7,1.6-1.6,1.6H15.6c-0.9,0-1.6-0.7-1.6-1.6V68.7z"/>
</g>
</svg>
