<?xml version="1.0" encoding="utf-8"?>
<!-- Generator: Adobe Illustrator 22.0.0, SVG Export Plug-In . SVG Version: 6.00 Build 0)  -->
<svg version="1.1" id="Layer_1" xmlns="http://www.w3.org/2000/svg" xmlns:xlink="http://www.w3.org/1999/xlink" x="0px" y="0px"
	 viewBox="0 0 100 100" style="enable-background:new 0 0 100 100;" xml:space="preserve">
<style type="text/css">
	.st0{fill:none;stroke:#000000;stroke-width:2;stroke-miterlimit:10;}
	.st1{fill:none;}
	.st2{fill:none;stroke:#000000;stroke-width:2;stroke-linecap:round;stroke-miterlimit:10;stroke-dasharray:7;}
	.st3{fill:none;stroke:#000000;stroke-width:2;stroke-linecap:round;stroke-miterlimit:10;}
	.st4{fill:none;stroke:#000000;stroke-width:2;stroke-linecap:round;stroke-linejoin:round;stroke-miterlimit:10;}
	.st5{fill:none;stroke:#000000;stroke-width:2;stroke-linecap:square;stroke-miterlimit:10;}
	.st6{fill:none;stroke:#000000;stroke-width:2;stroke-miterlimit:10;stroke-dasharray:5.3638,5.3638;}
</style>
<g>
	<path class="st0" d="M85,36.3v-9.2c0-0.9-0.7-1.5-1.5-1.5H64.3l-3.8,3.8l-6.2,6.2c-0.4,0.4-1,0.7-1.7,0.7h-36
		c-0.9,0-1.5,0.7-1.5,1.5v38.5c0,0.9,0.7,1.5,1.5,1.5h66.9c0.9,0,1.5-0.7,1.5-1.5V36.3"/>
	<path class="st0" d="M60.4,29.3H20.7v-5.7c0-0.9,0.7-1.5,1.5-1.5h18.5c0.6,0,1.2,0.2,1.7,0.7l6.6,6.5"/>
	<line class="st0" x1="20.7" y1="29.3" x2="20.7" y2="36.3"/>
</g>
</svg>
