<?xml version="1.0" encoding="utf-8"?>
<!-- Generator: Adobe Illustrator 22.0.0, SVG Export Plug-In . SVG Version: 6.00 Build 0)  -->
<svg version="1.1" id="Layer_1" xmlns="http://www.w3.org/2000/svg" xmlns:xlink="http://www.w3.org/1999/xlink" x="0px" y="0px"
	 viewBox="0 0 100 100" style="enable-background:new 0 0 100 100;" xml:space="preserve">
<style type="text/css">
	.st0{fill:none;stroke:#000000;stroke-width:2;stroke-miterlimit:10;}
	.st1{fill:none;}
	.st2{fill:none;stroke:#000000;stroke-width:2;stroke-linecap:round;stroke-miterlimit:10;stroke-dasharray:7;}
	.st3{fill:none;stroke:#000000;stroke-width:2;stroke-linecap:round;stroke-miterlimit:10;}
	.st4{fill:none;stroke:#000000;stroke-width:2;stroke-linecap:round;stroke-linejoin:round;stroke-miterlimit:10;}
	.st5{fill:none;stroke:#000000;stroke-width:2;stroke-linecap:square;stroke-miterlimit:10;}
	.st6{fill:none;stroke:#000000;stroke-width:2;stroke-miterlimit:10;stroke-dasharray:5.3638,5.3638;}
</style>
<g>
	<path class="st0" d="M71.4,37v-4.9c0-0.6-0.5-1-1-1H36.1H16.7h-1.4c-0.6,0-1,0.5-1,1v39.3c0,1,0.8,1.8,1.8,1.8l54.2,0
		c0.7,0,1.4-0.4,1.7-1.1l13.8-33.7c0.3-0.7-0.2-1.4-1-1.4H29.8c-0.4,0-0.8,0.3-1,0.6L14.6,72.2"/>
	<path class="st0" d="M16.7,31v-3.1c0-0.6,0.5-1.1,1.1-1.1H35c0.6,0,1.1,0.5,1.1,1.1V31"/>
</g>
</svg>
