<?xml version="1.0" encoding="utf-8"?>
<!-- Generator: Adobe Illustrator 22.0.0, SVG Export Plug-In . SVG Version: 6.00 Build 0)  -->
<svg version="1.1" id="Layer_1" xmlns="http://www.w3.org/2000/svg" xmlns:xlink="http://www.w3.org/1999/xlink" x="0px" y="0px"
	 viewBox="0 0 100 100" style="enable-background:new 0 0 100 100;" xml:space="preserve">
<style type="text/css">
	.st0{fill:none;stroke:#000000;stroke-width:2;stroke-miterlimit:10;}
	.st1{fill:none;}
	.st2{fill:none;stroke:#000000;stroke-width:2;stroke-linecap:round;stroke-miterlimit:10;stroke-dasharray:7;}
	.st3{fill:none;stroke:#000000;stroke-width:2;stroke-linecap:round;stroke-miterlimit:10;}
	.st4{fill:none;stroke:#000000;stroke-width:2;stroke-linecap:round;stroke-linejoin:round;stroke-miterlimit:10;}
	.st5{fill:none;stroke:#000000;stroke-width:2;stroke-linecap:square;stroke-miterlimit:10;}
	.st6{fill:none;stroke:#000000;stroke-width:2;stroke-miterlimit:10;stroke-dasharray:5.3638,5.3638;}
</style>
<g>
	<path class="st0" d="M23.6,59.1h-7.1c-1.2,0-2.2-1-2.2-2.2v-5c0-1,0.7-1.9,1.6-2.1l15.4-4h48.9l4.4,1.8c0.6,0.3,1,0.8,1,1.5v8.5
		c0,0.9-0.7,1.6-1.6,1.6h-5.7"/>
	<line class="st0" x1="67.1" y1="59.1" x2="34.8" y2="59.1"/>
	<path class="st0" d="M31.3,45.7l15.5-10.1c0.5-0.3,1.1-0.5,1.7-0.5h22.7c1.1,0,2,0.5,2.6,1.4l6.3,9.2"/>
	<circle class="st0" cx="72.7" cy="59.3" r="5.6"/>
	<circle class="st0" cx="29.2" cy="59.3" r="5.6"/>
</g>
</svg>
