<?xml version="1.0" encoding="utf-8"?>
<!-- Generator: Adobe Illustrator 22.0.0, SVG Export Plug-In . SVG Version: 6.00 Build 0)  -->
<svg version="1.1" id="Layer_1" xmlns="http://www.w3.org/2000/svg" xmlns:xlink="http://www.w3.org/1999/xlink" x="0px" y="0px"
	 viewBox="0 0 100 100" style="enable-background:new 0 0 100 100;" xml:space="preserve">
<style type="text/css">
	.st0{fill:none;stroke:#000000;stroke-width:2;stroke-miterlimit:10;}
	.st1{fill:none;}
	.st2{fill:none;stroke:#000000;stroke-width:2;stroke-linecap:round;stroke-miterlimit:10;stroke-dasharray:7;}
	.st3{fill:none;stroke:#000000;stroke-width:2;stroke-linecap:round;stroke-miterlimit:10;}
	.st4{fill:none;stroke:#000000;stroke-width:2;stroke-linecap:round;stroke-linejoin:round;stroke-miterlimit:10;}
	.st5{fill:none;stroke:#000000;stroke-width:2;stroke-linecap:square;stroke-miterlimit:10;}
	.st6{fill:none;stroke:#000000;stroke-width:2;stroke-miterlimit:10;stroke-dasharray:5.3638,5.3638;}
</style>
<g>
	<path class="st0" d="M19.6,57.5V45.1c0-14.3,11.6-25.9,25.9-25.9h9c14.3,0,25.9,11.6,25.9,25.9v12.4"/>
	<g>
		<g>
			<path class="st0" d="M27.6,80.9h-3c-2.5,0-4.5-2-4.5-4.5V58.3c0-2.5,2-4.5,4.5-4.5h3c2.5,0,4.5,2,4.5,4.5v18.1
				C32.2,78.8,30.1,80.9,27.6,80.9z"/>
			<path class="st0" d="M20.1,77.1h-1.9c-2.3,0-4.2-1.9-4.2-4.2V61.6c0-2.3,1.9-4.2,4.2-4.2h1.9"/>
		</g>
		<g>
			<path class="st0" d="M72.4,80.9h3c2.5,0,4.5-2,4.5-4.5V58.3c0-2.5-2-4.5-4.5-4.5h-3c-2.5,0-4.5,2-4.5,4.5v18.1
				C67.8,78.8,69.9,80.9,72.4,80.9z"/>
			<path class="st0" d="M79.9,57.5h1.9c2.3,0,4.2,1.9,4.2,4.2v11.3c0,2.3-1.9,4.2-4.2,4.2h-1.9"/>
		</g>
	</g>
</g>
</svg>
