<?xml version="1.0" encoding="utf-8"?>
<!-- Generator: Adobe Illustrator 22.0.0, SVG Export Plug-In . SVG Version: 6.00 Build 0)  -->
<svg version="1.1" id="Layer_1" xmlns="http://www.w3.org/2000/svg" xmlns:xlink="http://www.w3.org/1999/xlink" x="0px" y="0px"
	 viewBox="0 0 100 100" style="enable-background:new 0 0 100 100;" xml:space="preserve">
<style type="text/css">
	.st0{fill:none;stroke:#000000;stroke-width:2;stroke-miterlimit:10;}
	.st1{fill:none;}
	.st2{fill:none;stroke:#000000;stroke-width:2;stroke-linecap:round;stroke-miterlimit:10;stroke-dasharray:7;}
	.st3{fill:none;stroke:#000000;stroke-width:2;stroke-linecap:round;stroke-miterlimit:10;}
	.st4{fill:none;stroke:#000000;stroke-width:2;stroke-linecap:round;stroke-linejoin:round;stroke-miterlimit:10;}
	.st5{fill:none;stroke:#000000;stroke-width:2;stroke-linecap:square;stroke-miterlimit:10;}
	.st6{fill:none;stroke:#000000;stroke-width:2;stroke-miterlimit:10;stroke-dasharray:5.3638,5.3638;}
</style>
<g>
	<path class="st0" d="M38.3,77.2H22.1c-3.9,0-7.1-3.2-7.1-7.1V32.4c0-3.9,3.2-7.1,7.1-7.1h3.3c0.8,0,1.4-0.6,1.6-1.3l0.5-3
		c0.3-1.8,1.8-3.1,3.6-3.1h10.2c1.8,0,3.4,1.3,3.6,3.1l0.5,3c0.1,0.8,0.8,1.3,1.6,1.3h31c3.9,0,7.1,3.2,7.1,7.1v37.7
		c0,3.9-3.2,7.1-7.1,7.1H61.7"/>
	<g>
		<circle class="st0" cx="50" cy="65.7" r="16.4"/>
		<path class="st0" d="M50,56.3c-5.2,0-9.4,4.2-9.4,9.4"/>
	</g>
	<circle class="st0" cx="72.1" cy="36" r="2.6"/>
</g>
</svg>
