<?xml version="1.0" encoding="utf-8"?>
<!-- Generator: Adobe Illustrator 22.0.0, SVG Export Plug-In . SVG Version: 6.00 Build 0)  -->
<svg version="1.1" id="Layer_1" xmlns="http://www.w3.org/2000/svg" xmlns:xlink="http://www.w3.org/1999/xlink" x="0px" y="0px"
	 viewBox="0 0 100 100" style="enable-background:new 0 0 100 100;" xml:space="preserve">
<style type="text/css">
	.st0{fill:none;stroke:#000000;stroke-width:2;stroke-miterlimit:10;}
	.st1{fill:none;}
	.st2{fill:none;stroke:#000000;stroke-width:2;stroke-linecap:round;stroke-miterlimit:10;stroke-dasharray:7;}
	.st3{fill:none;stroke:#000000;stroke-width:2;stroke-linecap:round;stroke-miterlimit:10;}
	.st4{fill:none;stroke:#000000;stroke-width:2;stroke-linecap:round;stroke-linejoin:round;stroke-miterlimit:10;}
	.st5{fill:none;stroke:#000000;stroke-width:2;stroke-linecap:square;stroke-miterlimit:10;}
	.st6{fill:none;stroke:#000000;stroke-width:2;stroke-miterlimit:10;stroke-dasharray:5.3638,5.3638;}
</style>
<g>
	<path class="st0" d="M48,80.9h31c4.1,0,7.4-3.3,7.4-7.4V34.2c0-4.1-3.3-7.4-7.4-7.4H46.7c-0.8,0-1.5-0.6-1.6-1.4l-0.5-3.1
		c-0.3-1.9-1.9-3.2-3.8-3.2H30.3c-1.9,0-3.5,1.4-3.8,3.2L26,25.5c-0.1,0.8-0.8,1.4-1.6,1.4H21c-4.1,0-7.4,3.3-7.4,7.4v39.3
		c0,4.1,3.3,7.4,7.4,7.4H48z"/>
	<circle class="st0" cx="50" cy="53.9" r="13.7"/>
	<path class="st0" d="M50,46c4.3,0,7.8,3.5,7.8,7.8"/>
	<circle class="st0" cx="75.8" cy="37" r="2.8"/>
</g>
</svg>
