<?xml version="1.0" encoding="utf-8"?>
<!-- Generator: Adobe Illustrator 22.0.0, SVG Export Plug-In . SVG Version: 6.00 Build 0)  -->
<svg version="1.1" id="Layer_1" xmlns="http://www.w3.org/2000/svg" xmlns:xlink="http://www.w3.org/1999/xlink" x="0px" y="0px"
	 viewBox="0 0 100 100" style="enable-background:new 0 0 100 100;" xml:space="preserve">
<style type="text/css">
	.st0{fill:none;stroke:#000000;stroke-width:2;stroke-miterlimit:10;}
	.st1{fill:none;}
	.st2{fill:none;stroke:#000000;stroke-width:2;stroke-linecap:round;stroke-miterlimit:10;stroke-dasharray:7;}
	.st3{fill:none;stroke:#000000;stroke-width:2;stroke-linecap:round;stroke-miterlimit:10;}
	.st4{fill:none;stroke:#000000;stroke-width:2;stroke-linecap:round;stroke-linejoin:round;stroke-miterlimit:10;}
	.st5{fill:none;stroke:#000000;stroke-width:2;stroke-linecap:square;stroke-miterlimit:10;}
	.st6{fill:none;stroke:#000000;stroke-width:2;stroke-miterlimit:10;stroke-dasharray:5.3638,5.3638;}
</style>
<g>
	<g>
		<path class="st0" d="M67.3,37.9v44.7c0,1.1-0.9,2-2,2H23.8c-1.1,0-2-0.9-2-2V28.3c0-1.1,0.9-2,2-2h31.9L67.3,37.9z"/>
		<path class="st0" d="M55.7,26.3v10.7c0,0.5,0.4,1,1,1h10.7"/>
		<g>
			<line class="st0" x1="31.4" y1="44.9" x2="57.6" y2="44.9"/>
			<line class="st0" x1="31.4" y1="52" x2="57.6" y2="52"/>
			<line class="st0" x1="31.4" y1="59" x2="57.6" y2="59"/>
			<line class="st0" x1="31.4" y1="66" x2="57.6" y2="66"/>
		</g>
	</g>
	<g>
		<path class="st0" d="M67.3,73.7h8.9c1.1,0,2-0.9,2-2V26.9L66.6,15.3H34.8c-1.1,0-2,0.9-2,2v8.9"/>
		<path class="st0" d="M66.6,15.3V26c0,0.5,0.4,1,1,1h10.7"/>
	</g>
</g>
</svg>
