<?xml version="1.0" encoding="utf-8"?>
<!-- Generator: Adobe Illustrator 22.0.0, SVG Export Plug-In . SVG Version: 6.00 Build 0)  -->
<svg version="1.1" id="Layer_1" xmlns="http://www.w3.org/2000/svg" xmlns:xlink="http://www.w3.org/1999/xlink" x="0px" y="0px"
	 viewBox="0 0 100 100" style="enable-background:new 0 0 100 100;" xml:space="preserve">
<style type="text/css">
	.st0{fill:none;stroke:#000000;stroke-width:2;stroke-miterlimit:10;}
	.st1{fill:none;}
	.st2{fill:none;stroke:#000000;stroke-width:2;stroke-linecap:round;stroke-miterlimit:10;stroke-dasharray:7;}
	.st3{fill:none;stroke:#000000;stroke-width:2;stroke-linecap:round;stroke-miterlimit:10;}
	.st4{fill:none;stroke:#000000;stroke-width:2;stroke-linecap:round;stroke-linejoin:round;stroke-miterlimit:10;}
	.st5{fill:none;stroke:#000000;stroke-width:2;stroke-linecap:square;stroke-miterlimit:10;}
	.st6{fill:none;stroke:#000000;stroke-width:2;stroke-miterlimit:10;stroke-dasharray:5.3638,5.3638;}
</style>
<g>
	<path class="st0" d="M25.6,80.6c7.4,0,22.5,0,22.5,0h30.3c4,0,7.2-3.2,7.2-7.2V34.9c0-4-3.2-7.2-7.2-7.2H62.8
		c-0.4,0-0.8-0.3-0.8-0.8v-3.4c0-2.3-1.8-4.1-4.1-4.1H42.1c-2.3,0-4.1,1.8-4.1,4.1V27c0,0.4-0.3,0.8-0.8,0.8h-4.1
		c-0.4,0-0.8-0.3-0.8-0.8v-0.8c0-1.4-1.1-2.5-2.5-2.5h-3.7c-1.4,0-2.5,1.1-2.5,2.5V27c0,0.4-0.3,0.8-0.8,0.8h-1.3
		c-4,0-7.2,3.2-7.2,7.2v38.4c0,4,3.2,7.2,7.2,7.2H25.6z"/>
	<circle class="st0" cx="50" cy="54.2" r="16.4"/>
	<path class="st0" d="M50,44.8c5.2,0,9.4,4.2,9.4,9.4"/>
	<circle class="st0" cx="75.2" cy="37.6" r="2.7"/>
</g>
</svg>
