<?xml version="1.0" encoding="utf-8"?>
<!-- Generator: Adobe Illustrator 22.0.0, SVG Export Plug-In . SVG Version: 6.00 Build 0)  -->
<svg version="1.1" id="Layer_1" xmlns="http://www.w3.org/2000/svg" xmlns:xlink="http://www.w3.org/1999/xlink" x="0px" y="0px"
	 viewBox="0 0 100 100" style="enable-background:new 0 0 100 100;" xml:space="preserve">
<style type="text/css">
	.st0{fill:none;stroke:#000000;stroke-width:2;stroke-miterlimit:10;}
	.st1{fill:none;}
	.st2{fill:none;stroke:#000000;stroke-width:2;stroke-linecap:round;stroke-miterlimit:10;stroke-dasharray:7;}
	.st3{fill:none;stroke:#000000;stroke-width:2;stroke-linecap:round;stroke-miterlimit:10;}
	.st4{fill:none;stroke:#000000;stroke-width:2;stroke-linecap:round;stroke-linejoin:round;stroke-miterlimit:10;}
	.st5{fill:none;stroke:#000000;stroke-width:2;stroke-linecap:square;stroke-miterlimit:10;}
	.st6{fill:none;stroke:#000000;stroke-width:2;stroke-miterlimit:10;stroke-dasharray:5.3638,5.3638;}
</style>
<g>
	<g>
		<path class="st0" d="M31.2,59.8l-3.6,3.6c-0.8,0.8-0.2,2.1,0.9,2.1h43.1c1.1,0,1.6-1.3,0.9-2.1l-7.6-7.6c-0.4-0.4-0.7-1-0.7-1.7
			l0-9.1c0-7.6-5.9-14.1-13.6-14.4c-8-0.3-14.6,6.1-14.6,14.1v9.5c0,0.6-0.2,1.2-0.7,1.7L31.2,59.8z"/>
		<path class="st0" d="M41.1,44.6c0-4.9,4-8.9,8.9-8.9c0.1,0,0.2,0,0.3,0"/>
		<path class="st0" d="M45.4,31.3v-3.4c0-2.6,2.1-4.6,4.6-4.6h0c2.6,0,4.6,2.1,4.6,4.6v3.4"/>
		<path class="st0" d="M44.9,73.9c1.1,1.7,3,2.8,5.1,2.8c3.2,0,5.9-2.5,6.1-5.7H43.9C44,72.1,44.3,73.1,44.9,73.9z"/>
	</g>
	<g>
		<g>
			<path class="st0" d="M27.2,76.7c-7.2,0-12.9-5.8-12.9-12.9s5.8-12.9,12.9-12.9"/>
			<path class="st0" d="M27.2,71.4c-4.2,0-7.6-3.4-7.6-7.6c0-4.2,3.4-7.6,7.6-7.6"/>
		</g>
		<g>
			<path class="st0" d="M72.8,76.7c7.2,0,12.9-5.8,12.9-12.9s-5.8-12.9-12.9-12.9"/>
			<path class="st0" d="M72.8,71.4c4.2,0,7.6-3.4,7.6-7.6c0-4.2-3.4-7.6-7.6-7.6"/>
		</g>
	</g>
</g>
</svg>
