<?xml version="1.0" encoding="utf-8"?>
<!-- Generator: Adobe Illustrator 22.0.0, SVG Export Plug-In . SVG Version: 6.00 Build 0)  -->
<svg version="1.1" id="Layer_1" xmlns="http://www.w3.org/2000/svg" xmlns:xlink="http://www.w3.org/1999/xlink" x="0px" y="0px"
	 viewBox="0 0 100 100" style="enable-background:new 0 0 100 100;" xml:space="preserve">
<style type="text/css">
	.st0{fill:none;stroke:#000000;stroke-width:2;stroke-miterlimit:10;}
	.st1{fill:none;}
	.st2{fill:none;stroke:#000000;stroke-width:2;stroke-linecap:round;stroke-miterlimit:10;stroke-dasharray:7;}
	.st3{fill:none;stroke:#000000;stroke-width:2;stroke-linecap:round;stroke-miterlimit:10;}
	.st4{fill:none;stroke:#000000;stroke-width:2;stroke-linecap:round;stroke-linejoin:round;stroke-miterlimit:10;}
	.st5{fill:none;stroke:#000000;stroke-width:2;stroke-linecap:square;stroke-miterlimit:10;}
	.st6{fill:none;stroke:#000000;stroke-width:2;stroke-miterlimit:10;stroke-dasharray:5.3638,5.3638;}
</style>
<g>
	<g>
		<path class="st0" d="M65.7,31.9H18.4c-1.2,0-2.3,0.5-3.2,1.2c-0.9,0.8-1.5,2.1-1.5,3.4v33.6c0,2.6,2.1,4.7,4.7,4.7h56.5
			c2.6,0,4.7-2.1,4.7-4.7V45.8"/>
		<polyline class="st0" points="67.2,42.5 52.3,55.4 47.1,59.9 41.4,55.1 15.2,33.2 		"/>
		<g>
			<line class="st0" x1="41.4" y1="55.1" x2="15.4" y2="73.7"/>
			<polyline class="st0" points="51.9,55.1 52.3,55.4 77.9,73.7 			"/>
		</g>
	</g>
	<g>
		<path d="M76.4,30.5h1.3v10.8h-1.9v-8.9l-1.9,0.5l-0.4-1.5L76.4,30.5z"/>
	</g>
	<circle class="st0" cx="75.6" cy="35.9" r="10.7"/>
</g>
</svg>
