<?xml version="1.0" encoding="utf-8"?>
<!-- Generator: Adobe Illustrator 22.0.0, SVG Export Plug-In . SVG Version: 6.00 Build 0)  -->
<svg version="1.1" id="Layer_1" xmlns="http://www.w3.org/2000/svg" xmlns:xlink="http://www.w3.org/1999/xlink" x="0px" y="0px"
	 viewBox="0 0 100 100" style="enable-background:new 0 0 100 100;" xml:space="preserve">
<style type="text/css">
	.st0{fill:none;stroke:#000000;stroke-width:2;stroke-miterlimit:10;}
	.st1{fill:none;}
	.st2{fill:none;stroke:#000000;stroke-width:2;stroke-linecap:round;stroke-miterlimit:10;stroke-dasharray:7;}
	.st3{fill:none;stroke:#000000;stroke-width:2;stroke-linecap:round;stroke-miterlimit:10;}
	.st4{fill:none;stroke:#000000;stroke-width:2;stroke-linecap:round;stroke-linejoin:round;stroke-miterlimit:10;}
	.st5{fill:none;stroke:#000000;stroke-width:2;stroke-linecap:square;stroke-miterlimit:10;}
	.st6{fill:none;stroke:#000000;stroke-width:2;stroke-miterlimit:10;stroke-dasharray:5.3638,5.3638;}
</style>
<g>
	<g>
		<path class="st0" d="M26.2,29.7L26.2,29.7c-0.7-0.7-0.7-1.8-0.1-2.4C32.2,21,40.6,17.1,50,17.1c9.4,0,17.8,3.9,23.9,10.1
			c0.6,0.7,0.6,1.7,0,2.4l-1.6,1.6l-1.6,1.6c-0.7,0.7-1.8,0.6-2.4,0C63.6,28,57.1,25.1,50,25.1c-7.1,0-13.6,3-18.2,7.7
			c-0.7,0.7-1.7,0.7-2.4,0l-1.6-1.6C27.8,31.3,27,30.4,26.2,29.7z"/>
		<path class="st0" d="M20.6,53.8v-3.4c0-7.3,2.7-14.1,7.1-19.2"/>
		<path class="st0" d="M72.2,31.3c4.4,5.1,7.1,11.9,7.1,19.2v3.4"/>
	</g>
	<g>
		<g>
			<path class="st0" d="M25.8,69.6h-5.2v-16h5.2c2.5,0,4.5,2,4.5,4.5v6.9C30.4,67.6,28.3,69.6,25.8,69.6z"/>
			<path class="st0" d="M20.6,67.5h-0.8c-3.2,0-5.9-2.6-5.9-5.9c0-1.6,0.7-3.1,1.7-4.2c1.1-1.1,2.5-1.7,4.2-1.7h0.8"/>
		</g>
		<g>
			<path class="st0" d="M74.2,69.6h5.2v-16h-5.2c-2.5,0-4.5,2-4.5,4.5v6.9C69.6,67.6,71.7,69.6,74.2,69.6z"/>
			<path class="st0" d="M79.4,55.8h0.8c1.6,0,3.1,0.7,4.2,1.7c1.1,1.1,1.7,2.5,1.7,4.2c0,3.3-2.6,5.9-5.9,5.9h-0.8"/>
		</g>
	</g>
	<path class="st0" d="M76.3,69.3v1c0,5.5-4.4,9.9-9.9,9.9h-8.3"/>
	<path class="st0" d="M55.5,82.9h-3.7c-1.4,0-2.6-1.2-2.6-2.6v0c0-1.4,1.2-2.6,2.6-2.6h3.7c1.4,0,2.6,1.2,2.6,2.6v0
		C58.1,81.7,56.9,82.9,55.5,82.9z"/>
</g>
</svg>
