<?xml version="1.0" encoding="utf-8"?>
<!-- Generator: Adobe Illustrator 22.0.0, SVG Export Plug-In . SVG Version: 6.00 Build 0)  -->
<svg version="1.1" id="Layer_1" xmlns="http://www.w3.org/2000/svg" xmlns:xlink="http://www.w3.org/1999/xlink" x="0px" y="0px"
	 viewBox="0 0 100 100" style="enable-background:new 0 0 100 100;" xml:space="preserve">
<style type="text/css">
	.st0{fill:none;stroke:#000000;stroke-width:2;stroke-miterlimit:10;}
	.st1{fill:none;}
	.st2{fill:none;stroke:#000000;stroke-width:2;stroke-linecap:round;stroke-miterlimit:10;stroke-dasharray:7;}
	.st3{fill:none;stroke:#000000;stroke-width:2;stroke-linecap:round;stroke-miterlimit:10;}
	.st4{fill:none;stroke:#000000;stroke-width:2;stroke-linecap:round;stroke-linejoin:round;stroke-miterlimit:10;}
	.st5{fill:none;stroke:#000000;stroke-width:2;stroke-linecap:square;stroke-miterlimit:10;}
	.st6{fill:none;stroke:#000000;stroke-width:2;stroke-miterlimit:10;stroke-dasharray:5.3638,5.3638;}
</style>
<g>
	<g>
		<g>
			<path class="st1" d="M76.2,23h1.3v10.9h-1.9v-9l-2,0.5l-0.4-1.5L76.2,23z"/>
		</g>
		<g>
			<path class="st1" d="M68,24.6h1.8v2.9h3v1.7h-3v3H68v-3h-3v-1.7h3V24.6z"/>
		</g>
	</g>
	<path class="st0" d="M77.7,39.7v35c0,5.4-4.4,9.9-9.9,9.9H25.6c-5.5,0-9.9-4.4-9.9-9.9V32.4c0-5.4,4.4-9.9,9.9-9.9h34"/>
	<g>
		<path class="st0" d="M43.6,41.1c-8.7,0.9-15.4,5.6-15.4,11.3c0,2.8,1.6,5.4,4.3,7.3l-1,9.4c0,0.1,0.1,0.2,0.3,0.2l9.7-5.9
			c1.7,0.3,3.4,0.5,5.2,0.5c10.2,0,18.5-5.1,18.5-11.5C65.3,46.1,57,41,46.7,41C45.7,41,44.6,41,43.6,41.1z"/>
		<line class="st0" x1="36.7" y1="52.8" x2="56.7" y2="52.8"/>
	</g>
	<circle class="st0" cx="71.3" cy="28.5" r="13"/>
</g>
</svg>
