<?xml version="1.0" encoding="utf-8"?>
<!-- Generator: Adobe Illustrator 22.0.0, SVG Export Plug-In . SVG Version: 6.00 Build 0)  -->
<svg version="1.1" id="Layer_1" xmlns="http://www.w3.org/2000/svg" xmlns:xlink="http://www.w3.org/1999/xlink" x="0px" y="0px"
	 viewBox="0 0 100 100" style="enable-background:new 0 0 100 100;" xml:space="preserve">
<style type="text/css">
	.st0{fill:none;stroke:#000000;stroke-width:2;stroke-miterlimit:10;}
	.st1{fill:none;}
	.st2{fill:none;stroke:#000000;stroke-width:2;stroke-linecap:round;stroke-miterlimit:10;stroke-dasharray:7;}
	.st3{fill:none;stroke:#000000;stroke-width:2;stroke-linecap:round;stroke-miterlimit:10;}
	.st4{fill:none;stroke:#000000;stroke-width:2;stroke-linecap:round;stroke-linejoin:round;stroke-miterlimit:10;}
	.st5{fill:none;stroke:#000000;stroke-width:2;stroke-linecap:square;stroke-miterlimit:10;}
	.st6{fill:none;stroke:#000000;stroke-width:2;stroke-miterlimit:10;stroke-dasharray:5.3638,5.3638;}
</style>
<g>
	<g>
		<g>
			<path d="M53.8,28.7h1v8.5h-1.5v-7l-1.5,0.4l-0.3-1.2L53.8,28.7z"/>
		</g>
		<g>
			<path d="M47.5,29.9h1.4v2.3h2.3v1.3h-2.3v2.3h-1.4v-2.3h-2.3v-1.3h2.3V29.9z"/>
		</g>
	</g>
	<g>
		<path class="st0" d="M61.3,33h18.6c1.3,0,2.5,0.5,3.4,1.3c1,0.9,1.6,2.2,1.6,3.6v35.5c0,2.7-2.2,4.9-4.9,4.9H20.2
			c-1.2,0-2.4-0.5-3.2-1.2c-1-0.9-1.7-2.2-1.7-3.7V38c0-1.4,0.6-2.7,1.6-3.6c0.9-0.8,2-1.3,3.3-1.3h18.6"/>
		<polyline class="st0" points="16.8,34.4 44.5,57.5 50.5,62.6 56,57.8 83.2,34.4 		"/>
		<g>
			<line class="st0" x1="44.5" y1="57.5" x2="16.9" y2="77.2"/>
			<polyline class="st0" points="55.5,57.5 56,57.8 83.1,77.2 			"/>
		</g>
	</g>
	<circle class="st0" cx="50" cy="32.9" r="11.3"/>
</g>
</svg>
