<?xml version="1.0" encoding="utf-8"?>
<!-- Generator: Adobe Illustrator 22.0.0, SVG Export Plug-In . SVG Version: 6.00 Build 0)  -->
<svg version="1.1" id="Layer_1" xmlns="http://www.w3.org/2000/svg" xmlns:xlink="http://www.w3.org/1999/xlink" x="0px" y="0px"
	 viewBox="0 0 100 100" style="enable-background:new 0 0 100 100;" xml:space="preserve">
<style type="text/css">
	.st0{fill:none;stroke:#000000;stroke-width:2;stroke-miterlimit:10;}
	.st1{fill:none;}
	.st2{fill:none;stroke:#000000;stroke-width:2;stroke-linecap:round;stroke-miterlimit:10;stroke-dasharray:7;}
	.st3{fill:none;stroke:#000000;stroke-width:2;stroke-linecap:round;stroke-miterlimit:10;}
	.st4{fill:none;stroke:#000000;stroke-width:2;stroke-linecap:round;stroke-linejoin:round;stroke-miterlimit:10;}
	.st5{fill:none;stroke:#000000;stroke-width:2;stroke-linecap:square;stroke-miterlimit:10;}
	.st6{fill:none;stroke:#000000;stroke-width:2;stroke-miterlimit:10;stroke-dasharray:5.3638,5.3638;}
</style>
<g>
	<g>
		<path d="M71.5,23.4h1.4v11.4h-2v-9.4l-2,0.6l-0.4-1.6L71.5,23.4z"/>
	</g>
	<path class="st0" d="M76.9,40v34c0,5.3-4.3,9.6-9.6,9.6H26.3c-5.3,0-9.6-4.3-9.6-9.6V32.9c0-5.3,4.3-9.6,9.6-9.6h33.1"/>
	<g>
		<path class="st0" d="M43.8,41.4c-8.5,0.9-15,5.5-15,11c0,2.7,1.6,5.2,4.2,7.1l-1,9.1c0,0.1,0.1,0.2,0.2,0.2l9.4-5.7
			c1.6,0.3,3.3,0.5,5.1,0.5c9.9,0,18-5,18-11.1c0-6.2-8.1-11.1-18-11.1C45.8,41.2,44.8,41.3,43.8,41.4z"/>
		<line class="st0" x1="37.1" y1="52.8" x2="56.5" y2="52.8"/>
	</g>
	<circle class="st0" cx="70.7" cy="29.1" r="12.6"/>
</g>
</svg>
