<?xml version="1.0" encoding="utf-8"?>
<!-- Generator: Adobe Illustrator 22.0.0, SVG Export Plug-In . SVG Version: 6.00 Build 0)  -->
<svg version="1.1" id="Layer_1" xmlns="http://www.w3.org/2000/svg" xmlns:xlink="http://www.w3.org/1999/xlink" x="0px" y="0px"
	 viewBox="0 0 100 100" style="enable-background:new 0 0 100 100;" xml:space="preserve">
<style type="text/css">
	.st0{fill:none;stroke:#000000;stroke-width:2;stroke-miterlimit:10;}
	.st1{fill:none;}
	.st2{fill:none;stroke:#000000;stroke-width:2;stroke-linecap:round;stroke-miterlimit:10;stroke-dasharray:7;}
	.st3{fill:none;stroke:#000000;stroke-width:2;stroke-linecap:round;stroke-miterlimit:10;}
	.st4{fill:none;stroke:#000000;stroke-width:2;stroke-linecap:round;stroke-linejoin:round;stroke-miterlimit:10;}
	.st5{fill:none;stroke:#000000;stroke-width:2;stroke-linecap:square;stroke-miterlimit:10;}
	.st6{fill:none;stroke:#000000;stroke-width:2;stroke-miterlimit:10;stroke-dasharray:5.3638,5.3638;}
</style>
<g>
	<g>
		<g>
			<g>
				<path class="st0" d="M68.9,46v9.5c0,0.8,0.3,1.6,0.9,2.2L80.1,68c1,1,0.3,2.8-1.2,2.8H21.1c-1.5,0-2.2-1.8-1.2-2.8l4.8-4.8
					l5.5-5.5c0.6-0.6,0.9-1.4,0.9-2.2V42.8c0-10.7,8.8-19.2,19.6-18.9c4,0.1,7.6,1.5,10.6,3.8"/>
			</g>
		</g>
		<path class="st0" d="M43.8,25v-4.6c0-3.4,2.8-6.2,6.2-6.2h0c3.4,0,6.2,2.8,6.2,6.2V25"/>
		<path class="st0" d="M50,85.8L50,85.8c-4.5,0-8.1-3.6-8.1-8.1v-2.5h16.3v2.5C58.1,82.2,54.5,85.8,50,85.8z"/>
	</g>
	<circle class="st0" cx="66.5" cy="36.3" r="10"/>
	<g>
		<g>
			<path d="M70.3,32h1v8.5h-1.5v-7L68.3,34L68,32.8L70.3,32z"/>
		</g>
		<g>
			<path d="M64,33.3h1.4v2.3h2.3v1.3h-2.3v2.3H64v-2.3h-2.3v-1.3H64V33.3z"/>
		</g>
	</g>
</g>
</svg>
