<?xml version="1.0" encoding="utf-8"?>
<!-- Generator: Adobe Illustrator 22.0.0, SVG Export Plug-In . SVG Version: 6.00 Build 0)  -->
<svg version="1.1" id="Layer_1" xmlns="http://www.w3.org/2000/svg" xmlns:xlink="http://www.w3.org/1999/xlink" x="0px" y="0px"
	 viewBox="0 0 100 100" style="enable-background:new 0 0 100 100;" xml:space="preserve">
<style type="text/css">
	.st0{fill:none;stroke:#000000;stroke-width:2;stroke-miterlimit:10;}
	.st1{fill:none;}
	.st2{fill:none;stroke:#000000;stroke-width:2;stroke-linecap:round;stroke-miterlimit:10;stroke-dasharray:7;}
	.st3{fill:none;stroke:#000000;stroke-width:2;stroke-linecap:round;stroke-miterlimit:10;}
	.st4{fill:none;stroke:#000000;stroke-width:2;stroke-linecap:round;stroke-linejoin:round;stroke-miterlimit:10;}
	.st5{fill:none;stroke:#000000;stroke-width:2;stroke-linecap:square;stroke-miterlimit:10;}
	.st6{fill:none;stroke:#000000;stroke-width:2;stroke-miterlimit:10;stroke-dasharray:5.3638,5.3638;}
</style>
<g>
	<g>
		<line class="st0" x1="72" y1="20.1" x2="72" y2="31.6"/>
		<line class="st0" x1="72" y1="33.4" x2="72" y2="35.3"/>
	</g>
	<path class="st0" d="M78.7,39.4v36.2c0,5.6-4.6,10.2-10.2,10.2H24.8c-5.6,0-10.2-4.6-10.2-10.2V31.8c0-5.6,4.6-10.2,10.2-10.2H60"
		/>
	<g>
		<path class="st0" d="M43.4,40.8c-9,1-15.9,5.8-15.9,11.7c0,2.9,1.7,5.5,4.5,7.6l-1,9.7c0,0.1,0.1,0.2,0.3,0.2l10.1-6.1
			c1.7,0.3,3.5,0.5,5.4,0.5c10.6,0,19.2-5.3,19.2-11.9c0-6.6-8.6-11.9-19.2-11.9C45.5,40.7,44.4,40.7,43.4,40.8z"/>
		<line class="st0" x1="36.3" y1="52.9" x2="57" y2="52.9"/>
	</g>
	<circle class="st0" cx="72" cy="27.7" r="13.4"/>
</g>
</svg>
