<?xml version="1.0" encoding="utf-8"?>
<!-- Generator: Adobe Illustrator 22.0.0, SVG Export Plug-In . SVG Version: 6.00 Build 0)  -->
<svg version="1.1" id="Layer_1" xmlns="http://www.w3.org/2000/svg" xmlns:xlink="http://www.w3.org/1999/xlink" x="0px" y="0px"
	 viewBox="0 0 100 100" style="enable-background:new 0 0 100 100;" xml:space="preserve">
<style type="text/css">
	.st0{fill:none;stroke:#000000;stroke-width:2;stroke-miterlimit:10;}
	.st1{fill:none;}
	.st2{fill:none;stroke:#000000;stroke-width:2;stroke-linecap:round;stroke-miterlimit:10;stroke-dasharray:7;}
	.st3{fill:none;stroke:#000000;stroke-width:2;stroke-linecap:round;stroke-miterlimit:10;}
	.st4{fill:none;stroke:#000000;stroke-width:2;stroke-linecap:round;stroke-linejoin:round;stroke-miterlimit:10;}
	.st5{fill:none;stroke:#000000;stroke-width:2;stroke-linecap:square;stroke-miterlimit:10;}
	.st6{fill:none;stroke:#000000;stroke-width:2;stroke-miterlimit:10;stroke-dasharray:5.3638,5.3638;}
</style>
<g>
	<g>
		<g>
			<path class="st0" d="M24.8,63.2L19.9,68c-1,1-0.3,2.8,1.2,2.8h57.8c1.5,0,2.2-1.8,1.2-2.8L69.8,57.7c-0.6-0.6-0.9-1.4-0.9-2.2
				V43.3c0-10.2-8-19-18.2-19.3c-10.7-0.4-19.6,8.2-19.6,18.9v12.7c0,0.8-0.3,1.6-0.9,2.2L24.8,63.2z"/>
		</g>
	</g>
	<path class="st0" d="M43.8,25v-4.6c0-3.4,2.8-6.2,6.2-6.2h0c3.4,0,6.2,2.8,6.2,6.2V25"/>
	<path class="st0" d="M50,85.8L50,85.8c-4.5,0-8.1-3.6-8.1-8.1v-2.5h16.3v2.5C58.1,82.2,54.5,85.8,50,85.8z"/>
</g>
</svg>
