<?xml version="1.0" encoding="utf-8"?>
<!-- Generator: Adobe Illustrator 22.0.0, SVG Export Plug-In . SVG Version: 6.00 Build 0)  -->
<svg version="1.1" id="Layer_1" xmlns="http://www.w3.org/2000/svg" xmlns:xlink="http://www.w3.org/1999/xlink" x="0px" y="0px"
	 viewBox="0 0 100 100" style="enable-background:new 0 0 100 100;" xml:space="preserve">
<style type="text/css">
	.st0{fill:none;stroke:#000000;stroke-width:2;stroke-miterlimit:10;}
	.st1{fill:none;}
	.st2{fill:none;stroke:#000000;stroke-width:2;stroke-linecap:round;stroke-miterlimit:10;stroke-dasharray:7;}
	.st3{fill:none;stroke:#000000;stroke-width:2;stroke-linecap:round;stroke-miterlimit:10;}
	.st4{fill:none;stroke:#000000;stroke-width:2;stroke-linecap:round;stroke-linejoin:round;stroke-miterlimit:10;}
	.st5{fill:none;stroke:#000000;stroke-width:2;stroke-linecap:square;stroke-miterlimit:10;}
	.st6{fill:none;stroke:#000000;stroke-width:2;stroke-miterlimit:10;stroke-dasharray:5.3638,5.3638;}
</style>
<g>
	<g>
		<g>
			<path class="st0" d="M25.2,62.9l-4.7,4.7c-1,1-0.3,2.8,1.1,2.8h56.6c1.4,0,2.2-1.7,1.1-2.8L69.4,57.6c-0.6-0.6-0.9-1.4-0.9-2.2
				v-12c0-10-7.8-18.6-17.8-18.9c-10.5-0.4-19.2,8-19.2,18.5v12.4c0,0.8-0.3,1.6-0.9,2.2L25.2,62.9z"/>
			<path class="st0" d="M34.7,63.2l0.8-0.8c1.9-1.9,2.9-4.4,2.9-7V43c0-6.4,5.2-11.6,11.6-11.6c0.1,0,0.3,0,0.4,0
				c6.2,0.2,11.2,5.6,11.2,12.1v12c0,2.6,1,5.2,2.9,7l0.8,0.7c0.1,0.1,0,0.3-0.1,0.3H34.8C34.7,63.5,34.6,63.3,34.7,63.2z"/>
		</g>
	</g>
	<path class="st0" d="M43.9,25.5V21c0-3.4,2.7-6.1,6.1-6.1h0c3.4,0,6.1,2.7,6.1,6.1v4.5"/>
	<path class="st0" d="M50,85.1L50,85.1c-4.4,0-8-3.6-8-8v-2.5h16v2.5C58,81.6,54.4,85.1,50,85.1z"/>
</g>
</svg>
