<?xml version="1.0" encoding="utf-8"?>
<!-- Generator: Adobe Illustrator 22.0.0, SVG Export Plug-In . SVG Version: 6.00 Build 0)  -->
<svg version="1.1" id="Layer_1" xmlns="http://www.w3.org/2000/svg" xmlns:xlink="http://www.w3.org/1999/xlink" x="0px" y="0px"
	 viewBox="0 0 100 100" style="enable-background:new 0 0 100 100;" xml:space="preserve">
<style type="text/css">
	.st0{fill:none;stroke:#000000;stroke-width:2;stroke-miterlimit:10;}
	.st1{fill:none;}
	.st2{fill:none;stroke:#000000;stroke-width:2;stroke-linecap:round;stroke-miterlimit:10;stroke-dasharray:7;}
	.st3{fill:none;stroke:#000000;stroke-width:2;stroke-linecap:round;stroke-miterlimit:10;}
	.st4{fill:none;stroke:#000000;stroke-width:2;stroke-linecap:round;stroke-linejoin:round;stroke-miterlimit:10;}
	.st5{fill:none;stroke:#000000;stroke-width:2;stroke-linecap:square;stroke-miterlimit:10;}
	.st6{fill:none;stroke:#000000;stroke-width:2;stroke-miterlimit:10;stroke-dasharray:5.3638,5.3638;}
</style>
<g>
	<path class="st0" d="M69.1,32.3c6.8,5.5,11.1,14,11.1,23.4c0,16.7-13.5,30.2-30.2,30.2S19.8,72.4,19.8,55.7S33.3,25.5,50,25.5
		c3.1,0,6.1,0.5,8.9,1.3"/>
	<g>
		<g>
			<g>
				<line class="st0" x1="30.9" y1="79.1" x2="30.9" y2="63"/>
				<g>
					<polygon points="36,64.5 30.9,55.7 25.8,64.5 					"/>
				</g>
			</g>
		</g>
		<g>
			<g>
				<line class="st0" x1="50" y1="85.9" x2="50" y2="48.3"/>
				<g>
					<polygon points="55.1,49.8 50,41 44.9,49.8 					"/>
				</g>
			</g>
		</g>
		<g>
			<g>
				<polyline class="st0" points="69.1,79.1 69.1,60.8 69.1,32.3 69.1,21.4 				"/>
				<g>
					<polygon points="74.2,22.9 69.1,14.1 64,22.9 					"/>
				</g>
			</g>
		</g>
	</g>
</g>
</svg>
