<?xml version="1.0" encoding="utf-8"?>
<!-- Generator: Adobe Illustrator 22.0.0, SVG Export Plug-In . SVG Version: 6.00 Build 0)  -->
<svg version="1.1" id="Layer_1" xmlns="http://www.w3.org/2000/svg" xmlns:xlink="http://www.w3.org/1999/xlink" x="0px" y="0px"
	 viewBox="0 0 100 100" style="enable-background:new 0 0 100 100;" xml:space="preserve">
<style type="text/css">
	.st0{fill:none;stroke:#000000;stroke-width:2;stroke-miterlimit:10;}
	.st1{fill:none;}
	.st2{fill:none;stroke:#000000;stroke-width:2;stroke-linecap:round;stroke-miterlimit:10;stroke-dasharray:7;}
	.st3{fill:none;stroke:#000000;stroke-width:2;stroke-linecap:round;stroke-miterlimit:10;}
	.st4{fill:none;stroke:#000000;stroke-width:2;stroke-linecap:round;stroke-linejoin:round;stroke-miterlimit:10;}
	.st5{fill:none;stroke:#000000;stroke-width:2;stroke-linecap:square;stroke-miterlimit:10;}
	.st6{fill:none;stroke:#000000;stroke-width:2;stroke-miterlimit:10;stroke-dasharray:5.3638,5.3638;}
</style>
<g>
	<g>
		<g>
			<path class="st0" d="M25.3,78.1c2.3,0,4.1-1.8,4.1-4.1V62c0-2.3-1.8-4.1-4.1-4.1l0,1.4H24c-4.8,0-8.7,3.9-8.7,8.7
				c0,4.8,3.9,8.7,8.7,8.7h1.3L25.3,78.1z"/>
		</g>
		<g>
			<path class="st0" d="M77.2,76.6c4.2-0.6,7.5-4.2,7.5-8.6c0-4.8-3.9-8.7-8.7-8.7h-1.3v-1.4c-2.3,0-4.1,1.8-4.1,4.1v12
				c0,2.3,1.8,4.1,4.1,4.1v-1.4H76C76.4,76.7,76.8,76.7,77.2,76.6z"/>
		</g>
	</g>
	<path class="st0" d="M24.5,35.3L24.5,35.3c-0.8-0.8-0.8-1.9-0.1-2.6C30.9,26.1,40,21.9,50,21.9c10,0,19.1,4.1,25.6,10.8
		c0.7,0.7,0.7,1.8,0,2.5L73.8,37l-1.7,1.7c-0.7,0.7-1.9,0.7-2.6,0c-4.9-5.1-11.9-8.3-19.5-8.3c-7.6,0-14.6,3.2-19.5,8.3
		c-0.7,0.7-1.9,0.8-2.6,0L26.2,37C26.2,37,25.3,36.2,24.5,35.3z"/>
	<path class="st0" d="M18.6,61.2v-3.6c0-7.9,2.9-15,7.7-20.5"/>
	<path class="st0" d="M73.8,37c4.8,5.5,7.6,12.7,7.6,20.5v3.6"/>
</g>
</svg>
