<?xml version="1.0" encoding="utf-8"?>
<!-- Generator: Adobe Illustrator 22.0.0, SVG Export Plug-In . SVG Version: 6.00 Build 0)  -->
<svg version="1.1" id="Layer_1" xmlns="http://www.w3.org/2000/svg" xmlns:xlink="http://www.w3.org/1999/xlink" x="0px" y="0px"
	 viewBox="0 0 100 100" style="enable-background:new 0 0 100 100;" xml:space="preserve">
<style type="text/css">
	.st0{fill:none;stroke:#000000;stroke-width:2;stroke-miterlimit:10;}
	.st1{fill:none;}
	.st2{fill:none;stroke:#000000;stroke-width:2;stroke-linecap:round;stroke-miterlimit:10;stroke-dasharray:7;}
	.st3{fill:none;stroke:#000000;stroke-width:2;stroke-linecap:round;stroke-miterlimit:10;}
	.st4{fill:none;stroke:#000000;stroke-width:2;stroke-linecap:round;stroke-linejoin:round;stroke-miterlimit:10;}
	.st5{fill:none;stroke:#000000;stroke-width:2;stroke-linecap:square;stroke-miterlimit:10;}
	.st6{fill:none;stroke:#000000;stroke-width:2;stroke-miterlimit:10;stroke-dasharray:5.3638,5.3638;}
</style>
<g>
	<path class="st0" d="M31.5,40.4V33c0-10.2,8.3-18.5,18.5-18.5c5.1,0,9.7,2.1,13.1,5.4c3.3,3.3,5.4,8,5.4,13.1v7.3"/>
	<g>
		<path class="st0" d="M73.4,85.5H26.6c-1.7,0-3.1-1.4-3.1-3.1V43.5c0-1.7,1.4-3.1,3.1-3.1h46.8c1.7,0,3.1,1.4,3.1,3.1v38.9
			C76.5,84.1,75.1,85.5,73.4,85.5z"/>
		<g>
			<circle class="st0" cx="50" cy="57.9" r="5.7"/>
			<line class="st0" x1="50" y1="73.6" x2="50" y2="63.6"/>
		</g>
	</g>
</g>
</svg>
