<?xml version="1.0" encoding="utf-8"?>
<!-- Generator: Adobe Illustrator 22.0.0, SVG Export Plug-In . SVG Version: 6.00 Build 0)  -->
<svg version="1.1" id="Layer_1" xmlns="http://www.w3.org/2000/svg" xmlns:xlink="http://www.w3.org/1999/xlink" x="0px" y="0px"
	 viewBox="0 0 100 100" style="enable-background:new 0 0 100 100;" xml:space="preserve">
<style type="text/css">
	.st0{fill:none;stroke:#000000;stroke-width:2;stroke-miterlimit:10;}
	.st1{fill:none;}
	.st2{fill:none;stroke:#000000;stroke-width:2;stroke-linecap:round;stroke-miterlimit:10;stroke-dasharray:7;}
	.st3{fill:none;stroke:#000000;stroke-width:2;stroke-linecap:round;stroke-miterlimit:10;}
	.st4{fill:none;stroke:#000000;stroke-width:2;stroke-linecap:round;stroke-linejoin:round;stroke-miterlimit:10;}
	.st5{fill:none;stroke:#000000;stroke-width:2;stroke-linecap:square;stroke-miterlimit:10;}
	.st6{fill:none;stroke:#000000;stroke-width:2;stroke-miterlimit:10;stroke-dasharray:5.3638,5.3638;}
</style>
<g>
	<g>
		<g>
			<path class="st0" d="M24.6,75.3h-1.3c-4.9,0-9-4-9-9v0c0-4.9,4-9,9-9h1.3V75.3z"/>
			<path class="st0" d="M24.6,76.7L24.6,76.7l0-20.8h0c2.3,0,4.2,1.9,4.2,4.2v12.3C28.8,74.8,26.9,76.7,24.6,76.7z"/>
		</g>
		<g>
			<path class="st0" d="M75.4,75.3h1.3c4.9,0,9-4,9-9v0c0-4.9-4-9-9-9h-1.3V75.3z"/>
			<path class="st0" d="M75.4,76.7L75.4,76.7V55.9l0,0c-2.3,0-4.2,1.9-4.2,4.2v12.3C71.2,74.8,73.1,76.7,75.4,76.7z"/>
		</g>
	</g>
	<path class="st0" d="M82.3,59.7v-4.1c0-17.9-14.5-32.3-32.3-32.3h0c-17.9,0-32.3,14.5-32.3,32.3v4.1"/>
</g>
</svg>
