<?xml version="1.0" encoding="utf-8"?>
<!-- Generator: Adobe Illustrator 22.0.0, SVG Export Plug-In . SVG Version: 6.00 Build 0)  -->
<svg version="1.1" id="Layer_1" xmlns="http://www.w3.org/2000/svg" xmlns:xlink="http://www.w3.org/1999/xlink" x="0px" y="0px"
	 viewBox="0 0 100 100" style="enable-background:new 0 0 100 100;" xml:space="preserve">
<style type="text/css">
	.st0{fill:none;stroke:#000000;stroke-width:2;stroke-miterlimit:10;}
	.st1{fill:none;}
	.st2{fill:none;stroke:#000000;stroke-width:2;stroke-linecap:round;stroke-miterlimit:10;stroke-dasharray:7;}
	.st3{fill:none;stroke:#000000;stroke-width:2;stroke-linecap:round;stroke-miterlimit:10;}
	.st4{fill:none;stroke:#000000;stroke-width:2;stroke-linecap:round;stroke-linejoin:round;stroke-miterlimit:10;}
	.st5{fill:none;stroke:#000000;stroke-width:2;stroke-linecap:square;stroke-miterlimit:10;}
	.st6{fill:none;stroke:#000000;stroke-width:2;stroke-miterlimit:10;stroke-dasharray:5.3638,5.3638;}
</style>
<g>
	<circle class="st0" cx="50" cy="50" r="35.2"/>
	<g>
		<g>
			<path class="st0" d="M64.2,71.8H35.8c-0.9,0-1.7-0.8-1.7-1.7V46.4c0-0.9,0.8-1.7,1.7-1.7h28.5c0.9,0,1.7,0.8,1.7,1.7v23.7
				C65.9,71.1,65.2,71.8,64.2,71.8z"/>
			<path class="st0" d="M47.1,57.7c0.3,0.4,0.6,0.7,1,1v3.5c0,1,0.9,1.9,1.9,1.9h0c1,0,1.9-0.9,1.9-1.9v-3.5
				c1.1-0.7,1.8-2.1,1.4-3.6c-0.3-1.3-1.3-2.3-2.6-2.6c-2.2-0.5-4.2,1.2-4.2,3.3C46.6,56.5,46.8,57.2,47.1,57.7z"/>
		</g>
		<path class="st0" d="M41,42.2v-8.7c0-3,2.4-5.4,5.4-5.4h7.1c3,0,5.4,2.4,5.4,5.4v8.7"/>
	</g>
</g>
</svg>
