<?xml version="1.0" encoding="utf-8"?>
<!-- Generator: Adobe Illustrator 22.0.0, SVG Export Plug-In . SVG Version: 6.00 Build 0)  -->
<svg version="1.1" id="Layer_1" xmlns="http://www.w3.org/2000/svg" xmlns:xlink="http://www.w3.org/1999/xlink" x="0px" y="0px"
	 viewBox="0 0 100 100" style="enable-background:new 0 0 100 100;" xml:space="preserve">
<style type="text/css">
	.st0{fill:none;stroke:#000000;stroke-width:2;stroke-miterlimit:10;}
	.st1{fill:none;}
	.st2{fill:none;stroke:#000000;stroke-width:2;stroke-linecap:round;stroke-miterlimit:10;stroke-dasharray:7;}
	.st3{fill:none;stroke:#000000;stroke-width:2;stroke-linecap:round;stroke-miterlimit:10;}
	.st4{fill:none;stroke:#000000;stroke-width:2;stroke-linecap:round;stroke-linejoin:round;stroke-miterlimit:10;}
	.st5{fill:none;stroke:#000000;stroke-width:2;stroke-linecap:square;stroke-miterlimit:10;}
	.st6{fill:none;stroke:#000000;stroke-width:2;stroke-miterlimit:10;stroke-dasharray:5.3638,5.3638;}
</style>
<g>
	<path class="st0" d="M72.6,84.3H27.4c-4.8,0-8.7-3.9-8.7-8.7V50.2c0-4.8,3.9-8.7,8.7-8.7h45.2c4.8,0,8.7,3.9,8.7,8.7v25.4
		C81.3,80.4,77.4,84.3,72.6,84.3z"/>
	<path class="st0" d="M37.1,41.6V28.6c0-7.1,5.8-12.9,12.9-12.9h0c7.1,0,12.9,5.8,12.9,12.9v12.9"/>
	<path class="st0" d="M50,70.2L50,70.2c-1.7,0-3-1.3-3-3v-8.6c0-1.7,1.3-3,3-3h0c1.7,0,3,1.3,3,3v8.6C53,68.9,51.7,70.2,50,70.2z"/>
</g>
</svg>
