<?xml version="1.0" encoding="utf-8"?>
<!-- Generator: Adobe Illustrator 22.0.0, SVG Export Plug-In . SVG Version: 6.00 Build 0)  -->
<svg version="1.1" id="Layer_1" xmlns="http://www.w3.org/2000/svg" xmlns:xlink="http://www.w3.org/1999/xlink" x="0px" y="0px"
	 viewBox="0 0 100 100" style="enable-background:new 0 0 100 100;" xml:space="preserve">
<style type="text/css">
	.st0{fill:none;stroke:#000000;stroke-width:2;stroke-miterlimit:10;}
	.st1{fill:none;}
	.st2{fill:none;stroke:#000000;stroke-width:2;stroke-linecap:round;stroke-miterlimit:10;stroke-dasharray:7;}
	.st3{fill:none;stroke:#000000;stroke-width:2;stroke-linecap:round;stroke-miterlimit:10;}
	.st4{fill:none;stroke:#000000;stroke-width:2;stroke-linecap:round;stroke-linejoin:round;stroke-miterlimit:10;}
	.st5{fill:none;stroke:#000000;stroke-width:2;stroke-linecap:square;stroke-miterlimit:10;}
	.st6{fill:none;stroke:#000000;stroke-width:2;stroke-miterlimit:10;stroke-dasharray:5.3638,5.3638;}
</style>
<g>
	<path class="st0" d="M80.5,68.6c-2.1,1.7-4.8,2.7-7.8,2.7H28.2c-7.4,0-13.3-6-13.3-13.3c0-7,5.4-12.7,12.2-13.3
		c0-0.4-0.1-0.8-0.1-1.2c0-8.2,6.6-14.8,14.8-14.8c6,0,11.1,3.5,13.5,8.6c1.4-0.4,2.8-0.6,4.3-0.6c6.5,0,12,4.1,14,9.9
		c6.4,0.5,11.4,5.8,11.4,12.4C85.1,62.8,83.3,66.3,80.5,68.6z"/>
</g>
</svg>
