<?xml version="1.0" encoding="utf-8"?>
<!-- Generator: Adobe Illustrator 22.0.0, SVG Export Plug-In . SVG Version: 6.00 Build 0)  -->
<svg version="1.1" id="Layer_1" xmlns="http://www.w3.org/2000/svg" xmlns:xlink="http://www.w3.org/1999/xlink" x="0px" y="0px"
	 viewBox="0 0 100 100" style="enable-background:new 0 0 100 100;" xml:space="preserve">
<style type="text/css">
	.st0{fill:none;stroke:#000000;stroke-width:2;stroke-miterlimit:10;}
	.st1{fill:none;}
	.st2{fill:none;stroke:#000000;stroke-width:2;stroke-linecap:round;stroke-miterlimit:10;stroke-dasharray:7;}
	.st3{fill:none;stroke:#000000;stroke-width:2;stroke-linecap:round;stroke-miterlimit:10;}
	.st4{fill:none;stroke:#000000;stroke-width:2;stroke-linecap:round;stroke-linejoin:round;stroke-miterlimit:10;}
	.st5{fill:none;stroke:#000000;stroke-width:2;stroke-linecap:square;stroke-miterlimit:10;}
	.st6{fill:none;stroke:#000000;stroke-width:2;stroke-miterlimit:10;stroke-dasharray:5.3638,5.3638;}
</style>
<g>
	<path class="st0" d="M76.9,57.2C76.9,57.2,76.9,57.2,76.9,57.2c0.4-1.4,1.6-2.4,3-2.4h2c1.7,0,3.1-1.4,3.1-3.1v-3.5
		c0-1.7-1.4-3.1-3.1-3.1h-2c-1.4,0-2.6-1-3-2.4c0,0,0,0,0-0.1c-0.4-1.4,0.2-2.8,1.4-3.5l1.8-1c1.5-0.8,2-2.7,1.1-4.2L79.4,31
		c-0.8-1.5-2.7-2-4.2-1.1l-1.8,1c-1.2,0.7-2.8,0.5-3.8-0.5c0,0,0,0,0,0c-1-1-1.2-2.5-0.5-3.8l1-1.8c0.8-1.5,0.3-3.3-1.1-4.2L66,18.8
		c-1.5-0.8-3.3-0.3-4.2,1.1l-1,1.8c-0.7,1.2-2.1,1.8-3.5,1.4c0,0,0,0,0,0c-1.4-0.4-2.4-1.6-2.4-3v-2.1c0-1.7-1.4-3.1-3.1-3.1h-3.5
		c-1.7,0-3.1,1.4-3.1,3.1v2.1c0,1.4-1,2.6-2.3,3c0,0,0,0-0.1,0c-1.4,0.4-2.8-0.2-3.5-1.4l-1-1.8c-0.8-1.5-2.7-2-4.2-1.1L31,20.6
		c-1.5,0.8-2,2.7-1.1,4.2l1,1.8c0.7,1.2,0.5,2.8-0.5,3.7c0,0,0,0,0,0c-1,1-2.5,1.2-3.8,0.5l-1.8-1c-1.5-0.8-3.3-0.3-4.2,1.1L18.8,34
		c-0.8,1.5-0.3,3.3,1.1,4.2l1.8,1c1.2,0.7,1.8,2.1,1.4,3.5c0,0,0,0,0,0.1c-0.4,1.4-1.6,2.3-3,2.3h-2.1c-1.7,0-3.1,1.4-3.1,3.1v3.5
		c0,1.7,1.4,3.1,3.1,3.1h2.1c1.4,0,2.6,1,3,2.3c0,0,0,0,0,0.1c0.4,1.4-0.2,2.8-1.4,3.5l-1.8,1c-1.5,0.8-2,2.7-1.1,4.2l1.8,3.1
		c0.8,1.5,2.7,2,4.2,1.1l1.8-1c1.2-0.7,2.8-0.5,3.8,0.5c0,0,0,0,0,0c1,1,1.2,2.5,0.5,3.7l-1,1.8c-0.8,1.5-0.3,3.3,1.1,4.2l3.1,1.8
		c1.5,0.8,3.3,0.3,4.2-1.1l1-1.8c0.7-1.2,2.1-1.8,3.5-1.4c0,0,0,0,0.1,0c1.4,0.4,2.3,1.6,2.3,3v2.1c0,1.7,1.4,3.1,3.1,3.1h3.5
		c1.7,0,3.1-1.4,3.1-3.1v-2.1c0-1.4,1-2.6,2.4-3c0,0,0,0,0,0c1.4-0.4,2.8,0.2,3.5,1.4l1,1.8c0.8,1.5,2.7,2,4.2,1.1l3.1-1.8
		c1.5-0.8,2-2.7,1.1-4.2l-1-1.8c-0.7-1.2-0.5-2.8,0.5-3.8c0,0,0,0,0,0c1-1,2.5-1.2,3.8-0.5l1.8,1c1.5,0.8,3.3,0.3,4.2-1.1l1.8-3.1
		c0.8-1.5,0.3-3.3-1.1-4.2l-1.8-1C77.1,60,76.5,58.6,76.9,57.2z"/>
	<circle class="st0" cx="50" cy="50" r="14.5"/>
</g>
</svg>
