<?xml version="1.0" encoding="utf-8"?>
<!-- Generator: Adobe Illustrator 22.0.0, SVG Export Plug-In . SVG Version: 6.00 Build 0)  -->
<svg version="1.1" id="Layer_1" xmlns="http://www.w3.org/2000/svg" xmlns:xlink="http://www.w3.org/1999/xlink" x="0px" y="0px"
	 viewBox="0 0 100 100" style="enable-background:new 0 0 100 100;" xml:space="preserve">
<style type="text/css">
	.st0{fill:none;stroke:#000000;stroke-width:2;stroke-miterlimit:10;}
	.st1{fill:none;}
	.st2{fill:none;stroke:#000000;stroke-width:2;stroke-linecap:round;stroke-miterlimit:10;stroke-dasharray:7;}
	.st3{fill:none;stroke:#000000;stroke-width:2;stroke-linecap:round;stroke-miterlimit:10;}
	.st4{fill:none;stroke:#000000;stroke-width:2;stroke-linecap:round;stroke-linejoin:round;stroke-miterlimit:10;}
	.st5{fill:none;stroke:#000000;stroke-width:2;stroke-linecap:square;stroke-miterlimit:10;}
	.st6{fill:none;stroke:#000000;stroke-width:2;stroke-miterlimit:10;stroke-dasharray:5.3638,5.3638;}
</style>
<g>
	<path class="st0" d="M69.6,46.8h8.7c4.2,0,7.7-3.4,7.7-7.7V27.3c0-4.2-3.4-7.7-7.7-7.7H42.8c-4.2,0-7.7,3.4-7.7,7.7v7.9"/>
	<path class="st0" d="M26.1,35.2c-2.1,0-3.7,0-3.7,0c-4.6,0-8.4,3.7-8.4,8.4v12.9c0,4.6,3.7,8.4,8.4,8.4H27v15.4l20.1-15.4h14.1
		c4.6,0,8.4-3.7,8.4-8.4v-9.7v-3.2c0-4.6-3.7-8.4-8.4-8.4H35.1C35.1,35.2,29.9,35.2,26.1,35.2z"/>
	<g>
		<line class="st0" x1="26.5" y1="45.2" x2="57.2" y2="45.2"/>
		<line class="st0" x1="26.5" y1="50" x2="57.2" y2="50"/>
		<line class="st0" x1="26.5" y1="54.9" x2="57.2" y2="54.9"/>
	</g>
</g>
</svg>
