<?xml version="1.0" encoding="utf-8"?>
<!-- Generator: Adobe Illustrator 22.0.0, SVG Export Plug-In . SVG Version: 6.00 Build 0)  -->
<svg version="1.1" id="Layer_1" xmlns="http://www.w3.org/2000/svg" xmlns:xlink="http://www.w3.org/1999/xlink" x="0px" y="0px"
	 viewBox="0 0 100 100" style="enable-background:new 0 0 100 100;" xml:space="preserve">
<style type="text/css">
	.st0{fill:none;stroke:#000000;stroke-width:2;stroke-miterlimit:10;}
	.st1{fill:none;}
	.st2{fill:none;stroke:#000000;stroke-width:2;stroke-linecap:round;stroke-miterlimit:10;stroke-dasharray:7;}
	.st3{fill:none;stroke:#000000;stroke-width:2;stroke-linecap:round;stroke-miterlimit:10;}
	.st4{fill:none;stroke:#000000;stroke-width:2;stroke-linecap:round;stroke-linejoin:round;stroke-miterlimit:10;}
	.st5{fill:none;stroke:#000000;stroke-width:2;stroke-linecap:square;stroke-miterlimit:10;}
	.st6{fill:none;stroke:#000000;stroke-width:2;stroke-miterlimit:10;stroke-dasharray:5.3638,5.3638;}
</style>
<g>
	<path class="st0" d="M32.6,33.3c9-8.2,17.4-16,17.4-16l11,10.1V22c0-1.5,1.2-2.6,2.6-2.6h7.5c1.5,0,2.6,1.2,2.6,2.6v17.3L85.5,50
		c1,0.9,0.3,2.5-1,2.5h-7.3V80c0,1.5-1.2,2.6-2.6,2.6H60.7c-1.5,0-2.6-1.2-2.6-2.6V58c0-1.5-1.2-2.6-2.6-2.6H44.6
		c-1.5,0-2.6,1.2-2.6,2.6v22c0,1.5-1.2,2.6-2.6,2.6h-14c-1.5,0-2.6-1.2-2.6-2.6V52.5h-7.3c-1.3,0-1.9-1.6-1-2.5L32.6,33.3z"/>
</g>
</svg>
