<?xml version="1.0" encoding="utf-8"?>
<!-- Generator: Adobe Illustrator 22.0.0, SVG Export Plug-In . SVG Version: 6.00 Build 0)  -->
<svg version="1.1" id="Layer_1" xmlns="http://www.w3.org/2000/svg" xmlns:xlink="http://www.w3.org/1999/xlink" x="0px" y="0px"
	 viewBox="0 0 100 100" style="enable-background:new 0 0 100 100;" xml:space="preserve">
<style type="text/css">
	.st0{fill:none;stroke:#000000;stroke-width:2;stroke-miterlimit:10;}
	.st1{fill:none;}
	.st2{fill:none;stroke:#000000;stroke-width:2;stroke-linecap:round;stroke-miterlimit:10;stroke-dasharray:7;}
	.st3{fill:none;stroke:#000000;stroke-width:2;stroke-linecap:round;stroke-miterlimit:10;}
	.st4{fill:none;stroke:#000000;stroke-width:2;stroke-linecap:round;stroke-linejoin:round;stroke-miterlimit:10;}
	.st5{fill:none;stroke:#000000;stroke-width:2;stroke-linecap:square;stroke-miterlimit:10;}
	.st6{fill:none;stroke:#000000;stroke-width:2;stroke-miterlimit:10;stroke-dasharray:5.3638,5.3638;}
</style>
<g>
	<path class="st0" d="M42.1,46.7l30.2,0c1.4,0,2.5-1,2.7-2.4c0.8-5.6,2.7-9.5,5-9.5c3,0,5.4,6.8,5.4,15.2S83,65.2,80,65.2
		c-2.3,0-4.2-3.9-5-9.5c-0.2-1.4-1.3-2.4-2.7-2.4c-8.2,0-34.1,0-34.1,0H22.5h-4.7c-1.8,0-3.3-1.5-3.3-3.3v0c0-1.8,1.5-3.3,3.3-3.3
		H42.1z"/>
	<path class="st0" d="M38.2,53.3V61c0,1.3-1.1,2.4-2.4,2.4H24.9c-1.3,0-2.4-1.1-2.4-2.4v-7.7"/>
</g>
</svg>
