<?xml version="1.0" encoding="utf-8"?>
<!-- Generator: Adobe Illustrator 22.0.0, SVG Export Plug-In . SVG Version: 6.00 Build 0)  -->
<svg version="1.1" id="Layer_1" xmlns="http://www.w3.org/2000/svg" xmlns:xlink="http://www.w3.org/1999/xlink" x="0px" y="0px"
	 viewBox="0 0 100 100" style="enable-background:new 0 0 100 100;" xml:space="preserve">
<style type="text/css">
	.st0{fill:none;stroke:#000000;stroke-width:2;stroke-miterlimit:10;}
	.st1{fill:none;}
	.st2{fill:none;stroke:#000000;stroke-width:2;stroke-linecap:round;stroke-miterlimit:10;stroke-dasharray:7;}
	.st3{fill:none;stroke:#000000;stroke-width:2;stroke-linecap:round;stroke-miterlimit:10;}
	.st4{fill:none;stroke:#000000;stroke-width:2;stroke-linecap:round;stroke-linejoin:round;stroke-miterlimit:10;}
	.st5{fill:none;stroke:#000000;stroke-width:2;stroke-linecap:square;stroke-miterlimit:10;}
	.st6{fill:none;stroke:#000000;stroke-width:2;stroke-miterlimit:10;stroke-dasharray:5.3638,5.3638;}
</style>
<g>
	<path class="st0" d="M86,50c0,10-4,19-10.6,25.5c-3,3-6.5,5.4-10.3,7.2C60.5,84.8,55.4,86,50,86s-10.5-1.2-15.1-3.3
		c-3.9-1.8-7.4-4.2-10.3-7.2C18,69,14,60,14,50c0-19.9,16.1-36,36-36S86,30.1,86,50z"/>
	<g>
		<path class="st0" d="M24.6,75.5v-0.2c0-10.6,6.5-19.7,15.7-23.5"/>
		<path class="st0" d="M59.8,51.8c3.1,1.3,5.9,3.2,8.2,5.5c4.6,4.6,7.4,11,7.4,18v0.2"/>
		<circle class="st0" cx="50" cy="42.3" r="13.6"/>
	</g>
</g>
</svg>
