<?xml version="1.0" encoding="utf-8"?>
<!-- Generator: Adobe Illustrator 22.0.0, SVG Export Plug-In . SVG Version: 6.00 Build 0)  -->
<svg version="1.1" id="Layer_1" xmlns="http://www.w3.org/2000/svg" xmlns:xlink="http://www.w3.org/1999/xlink" x="0px" y="0px"
	 viewBox="0 0 100 100" style="enable-background:new 0 0 100 100;" xml:space="preserve">
<style type="text/css">
	.st0{fill:none;stroke:#000000;stroke-width:2;stroke-miterlimit:10;}
	.st1{fill:none;}
	.st2{fill:none;stroke:#000000;stroke-width:2;stroke-linecap:round;stroke-miterlimit:10;stroke-dasharray:7;}
	.st3{fill:none;stroke:#000000;stroke-width:2;stroke-linecap:round;stroke-miterlimit:10;}
	.st4{fill:none;stroke:#000000;stroke-width:2;stroke-linecap:round;stroke-linejoin:round;stroke-miterlimit:10;}
	.st5{fill:none;stroke:#000000;stroke-width:2;stroke-linecap:square;stroke-miterlimit:10;}
	.st6{fill:none;stroke:#000000;stroke-width:2;stroke-miterlimit:10;stroke-dasharray:5.3638,5.3638;}
</style>
<g>
	<path class="st0" d="M85.8,50c0,14.4-8.5,26.8-20.8,32.5c-4.6,2.1-9.6,3.3-15,3.3s-10.4-1.2-15-3.3C22.8,76.8,14.3,64.4,14.3,50
		c0-19.7,16-35.8,35.8-35.8S85.8,30.3,85.8,50z"/>
	<g>
		<path class="st0" d="M56.6,55.9c3-2.1,4.9-5.5,4.9-9.4c0-6.4-5.2-11.5-11.5-11.5c-6.4,0-11.5,5.2-11.5,11.5c0,3.9,1.9,7.4,4.9,9.4
			"/>
		<path class="st0" d="M65,69.3v13.1c-4.6,2.1-9.6,3.3-15,3.3s-10.4-1.2-15-3.3V69.3c0-8.3,6.7-15,15-15c2.4,0,4.6,0.6,6.6,1.5
			c1.5,0.7,2.8,1.7,4,2.8C63.3,61.4,65,65.2,65,69.3z"/>
	</g>
</g>
</svg>
