<?xml version="1.0" encoding="utf-8"?>
<!-- Generator: Adobe Illustrator 22.0.0, SVG Export Plug-In . SVG Version: 6.00 Build 0)  -->
<svg version="1.1" id="Layer_1" xmlns="http://www.w3.org/2000/svg" xmlns:xlink="http://www.w3.org/1999/xlink" x="0px" y="0px"
	 viewBox="0 0 100 100" style="enable-background:new 0 0 100 100;" xml:space="preserve">
<style type="text/css">
	.st0{fill:none;stroke:#000000;stroke-width:2;stroke-miterlimit:10;}
	.st1{fill:none;}
	.st2{fill:none;stroke:#000000;stroke-width:2;stroke-linecap:round;stroke-miterlimit:10;stroke-dasharray:7;}
	.st3{fill:none;stroke:#000000;stroke-width:2;stroke-linecap:round;stroke-miterlimit:10;}
	.st4{fill:none;stroke:#000000;stroke-width:2;stroke-linecap:round;stroke-linejoin:round;stroke-miterlimit:10;}
	.st5{fill:none;stroke:#000000;stroke-width:2;stroke-linecap:square;stroke-miterlimit:10;}
	.st6{fill:none;stroke:#000000;stroke-width:2;stroke-miterlimit:10;stroke-dasharray:5.3638,5.3638;}
</style>
<g>
	<path class="st0" d="M57.1,23.1c2.5,0.6,4.8,1.6,7,2.9c0.8,0.5,1.9,0.3,2.5-0.3l3.9-3.9c0.8-0.8,2.2-0.8,3,0l4.8,4.8
		c0.8,0.8,0.8,2.2,0,3l-3.9,3.9c-0.7,0.7-0.8,1.7-0.3,2.5c1.3,2.2,2.3,4.5,2.9,7c0.2,0.9,1.1,1.6,2,1.6h5.5c1.2,0,2.1,1,2.1,2.1v6.8
		c0,1.2-1,2.1-2.1,2.1H79c-1,0-1.8,0.6-2,1.6c-0.6,2.5-1.6,4.8-2.9,7c-0.5,0.8-0.3,1.9,0.3,2.5l3.9,3.9c0.8,0.8,0.8,2.2,0,3
		l-4.8,4.8c-0.8,0.8-2.2,0.8-3,0l-3.9-3.9c-0.7-0.7-1.7-0.8-2.5-0.3c-2.2,1.3-4.5,2.2-7,2.9c-0.9,0.2-1.6,1.1-1.6,2v5.5
		c0,1.2-1,2.1-2.1,2.1h-6.8c-1.2,0-2.1-1-2.1-2.1V79c0-1-0.6-1.8-1.6-2c-2.5-0.6-4.8-1.6-7-2.9c-0.8-0.5-1.9-0.3-2.5,0.3l-3.9,3.9
		c-0.8,0.8-2.2,0.8-3,0l-4.8-4.8c-0.8-0.8-0.8-2.2,0-3l3.9-3.9c0.7-0.7,0.8-1.7,0.3-2.5c-1.3-2.2-2.3-4.5-2.9-7
		c-0.2-0.9-1.1-1.6-2-1.6h-5.5c-1.2,0-2.1-1-2.1-2.1v-6.8c0-1.2,1-2.1,2.1-2.1H21c1,0,1.8-0.6,2-1.6c0.6-2.5,1.6-4.8,2.9-7
		c0.5-0.8,0.3-1.9-0.3-2.5l-3.9-3.9c-0.8-0.8-0.8-2.2,0-3l4.8-4.8c0.8-0.8,2.2-0.8,3,0l3.9,3.9c0.7,0.7,1.7,0.8,2.5,0.3
		c2.2-1.3,4.5-2.2,7-2.9c0.9-0.2,1.6-1.1,1.6-2v-5.5c0-1.2,1-2.1,2.1-2.1h6.8c1.2,0,2.1,1,2.1,2.1V21C55.5,22,56.1,22.8,57.1,23.1z"
		/>
	<circle class="st0" cx="50" cy="50" r="12.8"/>
</g>
</svg>
