<?xml version="1.0" encoding="utf-8"?>
<!-- Generator: Adobe Illustrator 22.0.0, SVG Export Plug-In . SVG Version: 6.00 Build 0)  -->
<svg version="1.1" id="Layer_1" xmlns="http://www.w3.org/2000/svg" xmlns:xlink="http://www.w3.org/1999/xlink" x="0px" y="0px"
	 viewBox="0 0 100 100" style="enable-background:new 0 0 100 100;" xml:space="preserve">
<style type="text/css">
	.st0{fill:none;stroke:#000000;stroke-width:2;stroke-miterlimit:10;}
	.st1{fill:none;}
	.st2{fill:none;stroke:#000000;stroke-width:2;stroke-linecap:round;stroke-miterlimit:10;stroke-dasharray:7;}
	.st3{fill:none;stroke:#000000;stroke-width:2;stroke-linecap:round;stroke-miterlimit:10;}
	.st4{fill:none;stroke:#000000;stroke-width:2;stroke-linecap:round;stroke-linejoin:round;stroke-miterlimit:10;}
	.st5{fill:none;stroke:#000000;stroke-width:2;stroke-linecap:square;stroke-miterlimit:10;}
	.st6{fill:none;stroke:#000000;stroke-width:2;stroke-miterlimit:10;stroke-dasharray:5.3638,5.3638;}
</style>
<g>
	<path class="st0" d="M18.4,78l-2.3-2.3l34.3-34.3c0.5-0.5,0.7-1.3,0.5-2.1l-2.2-8c-0.3-1,0-2,0.7-2.8l10.9-10.9
		c3.5-3.5,9.1-3.5,12.6,0l9.3,9.3c3.5,3.5,3.5,9.2,0,12.6L71.5,50.4c-0.7,0.7-1.8,1-2.8,0.7l-8-2.2c-0.7-0.2-1.5,0-2.1,0.5
		L24.3,83.9L22,81.6"/>
	<polyline class="st0" points="57.2,46.4 22,81.6 18.6,84.9 15.1,81.4 18.4,78 53.6,42.8 	"/>
	<circle class="st0" cx="70.9" cy="29.1" r="4.7"/>
</g>
</svg>
