<?xml version="1.0" encoding="utf-8"?>
<!-- Generator: Adobe Illustrator 22.0.0, SVG Export Plug-In . SVG Version: 6.00 Build 0)  -->
<svg version="1.1" id="Layer_1" xmlns="http://www.w3.org/2000/svg" xmlns:xlink="http://www.w3.org/1999/xlink" x="0px" y="0px"
	 viewBox="0 0 100 100" style="enable-background:new 0 0 100 100;" xml:space="preserve">
<style type="text/css">
	.st0{fill:none;stroke:#000000;stroke-width:2;stroke-miterlimit:10;}
	.st1{fill:none;}
	.st2{fill:none;stroke:#000000;stroke-width:2;stroke-linecap:round;stroke-miterlimit:10;stroke-dasharray:7;}
	.st3{fill:none;stroke:#000000;stroke-width:2;stroke-linecap:round;stroke-miterlimit:10;}
	.st4{fill:none;stroke:#000000;stroke-width:2;stroke-linecap:round;stroke-linejoin:round;stroke-miterlimit:10;}
	.st5{fill:none;stroke:#000000;stroke-width:2;stroke-linecap:square;stroke-miterlimit:10;}
	.st6{fill:none;stroke:#000000;stroke-width:2;stroke-miterlimit:10;stroke-dasharray:5.3638,5.3638;}
</style>
<g>
	<g>
		<path class="st0" d="M74.2,15.2v16.4c0,0.8-0.1,1.6-0.2,2.3l-2.1,11.4c-0.2,1-0.2,1.9-0.2,2.9l1.5,34.1c0.1,1.9-1.4,3.4-3.3,3.4h0
			c-1.8,0-3.3-1.5-3.3-3.4l0.9-34.2c0-1,0.2-1.9,0.4-2.9l3.2-12.6V14.3h2.1C73.8,14.3,74.2,14.7,74.2,15.2z"/>
		<line class="st0" x1="71.1" y1="32.7" x2="64.4" y2="32.7"/>
		<line class="st0" x1="71.1" y1="29.6" x2="66.4" y2="29.6"/>
		<line class="st0" x1="71.1" y1="26.6" x2="64.4" y2="26.6"/>
		<line class="st0" x1="71.1" y1="23.5" x2="66.4" y2="23.5"/>
		<line class="st0" x1="71.1" y1="20.4" x2="64.4" y2="20.4"/>
		<line class="st0" x1="71.1" y1="17.3" x2="66.4" y2="17.3"/>
		<line class="st0" x1="71.1" y1="14.3" x2="64.4" y2="14.3"/>
		<line class="st0" x1="67.2" y1="59.3" x2="72.1" y2="59.3"/>
	</g>
	<g>
		<path class="st0" d="M53.4,85.7H27c-0.7,0-1.2-0.6-1.2-1.3L29,30.7c0.1-1.2,1-2.1,2.2-2.1h17.9c1.2,0,2.1,0.9,2.2,2.1l3.2,53.8
			C54.6,85.2,54.1,85.7,53.4,85.7z"/>
		<path class="st0" d="M34.3,28.6V16.2c0-1.1,0.9-1.9,1.9-1.9h8c1.1,0,1.9,0.9,1.9,1.9v12.4"/>
		<line class="st0" x1="40.2" y1="28.6" x2="40.2" y2="85.7"/>
	</g>
</g>
</svg>
