<?xml version="1.0" encoding="utf-8"?>
<!-- Generator: Adobe Illustrator 22.0.0, SVG Export Plug-In . SVG Version: 6.00 Build 0)  -->
<svg version="1.1" id="Layer_1" xmlns="http://www.w3.org/2000/svg" xmlns:xlink="http://www.w3.org/1999/xlink" x="0px" y="0px"
	 viewBox="0 0 100 100" style="enable-background:new 0 0 100 100;" xml:space="preserve">
<style type="text/css">
	.st0{fill:none;stroke:#000000;stroke-width:2;stroke-miterlimit:10;}
	.st1{fill:none;}
	.st2{fill:none;stroke:#000000;stroke-width:2;stroke-linecap:round;stroke-miterlimit:10;stroke-dasharray:7;}
	.st3{fill:none;stroke:#000000;stroke-width:2;stroke-linecap:round;stroke-miterlimit:10;}
	.st4{fill:none;stroke:#000000;stroke-width:2;stroke-linecap:round;stroke-linejoin:round;stroke-miterlimit:10;}
	.st5{fill:none;stroke:#000000;stroke-width:2;stroke-linecap:square;stroke-miterlimit:10;}
	.st6{fill:none;stroke:#000000;stroke-width:2;stroke-miterlimit:10;stroke-dasharray:5.3638,5.3638;}
</style>
<g>
	<path class="st0" d="M25.2,17.1l14.2,14.2c0.7,0.7,1.3,1.4,1.8,2.2l8,11.7c0.7,1,1.5,1.9,2.4,2.7l30.9,28.3
		c1.7,1.5,1.7,4.2,0.1,5.8h0c-1.6,1.6-4.2,1.6-5.7-0.1L48,51.5c-0.8-0.9-1.5-1.8-2.1-2.8L37.8,35l-16-16l1.9-1.9
		C24.1,16.7,24.8,16.7,25.2,17.1z"/>
	<line class="st0" x1="37.8" y1="35" x2="32.1" y2="40.6"/>
	<line class="st0" x1="35.1" y1="32.3" x2="31" y2="36.4"/>
	<line class="st0" x1="32.4" y1="29.6" x2="26.8" y2="35.3"/>
	<line class="st0" x1="29.8" y1="27" x2="25.7" y2="31.1"/>
	<line class="st0" x1="27.1" y1="24.3" x2="21.4" y2="30"/>
	<line class="st0" x1="24.4" y1="21.6" x2="20.3" y2="25.7"/>
	<line class="st0" x1="21.8" y1="19" x2="16.1" y2="24.6"/>
	<line class="st0" x1="57.4" y1="61.4" x2="61.7" y2="57.2"/>
</g>
</svg>
