<?xml version="1.0" encoding="utf-8"?>
<!-- Generator: Adobe Illustrator 22.0.0, SVG Export Plug-In . SVG Version: 6.00 Build 0)  -->
<svg version="1.1" id="Layer_1" xmlns="http://www.w3.org/2000/svg" xmlns:xlink="http://www.w3.org/1999/xlink" x="0px" y="0px"
	 viewBox="0 0 100 100" style="enable-background:new 0 0 100 100;" xml:space="preserve">
<style type="text/css">
	.st0{fill:none;stroke:#000000;stroke-width:2;stroke-miterlimit:10;}
	.st1{fill:none;}
	.st2{fill:none;stroke:#000000;stroke-width:2;stroke-linecap:round;stroke-miterlimit:10;stroke-dasharray:7;}
	.st3{fill:none;stroke:#000000;stroke-width:2;stroke-linecap:round;stroke-miterlimit:10;}
	.st4{fill:none;stroke:#000000;stroke-width:2;stroke-linecap:round;stroke-linejoin:round;stroke-miterlimit:10;}
	.st5{fill:none;stroke:#000000;stroke-width:2;stroke-linecap:square;stroke-miterlimit:10;}
	.st6{fill:none;stroke:#000000;stroke-width:2;stroke-miterlimit:10;stroke-dasharray:5.3638,5.3638;}
</style>
<g>
	<polyline class="st0" points="33.3,64.7 29.1,60.5 60.5,29.1 64.7,33.3 	"/>
	<path class="st0" d="M41.7,66.1L41.7,66.1c3.1-3.1,8-3.2,11.3-0.3l18.9,17c3.1,2.8,7.8,2.6,10.7-0.3c2.9-2.9,3-7.6,0.3-10.7
		L65.8,53c-2.9-3.2-2.8-8.2,0.3-11.3l4.3-4.3c1.7-1.7,1.7-4.5,0-6.2l-1.8-1.8l-3.9,3.9L33.3,64.7l-3.9,3.9l1.8,1.8
		c1.7,1.7,4.5,1.7,6.2,0L41.7,66.1z"/>
	<g>
		<line class="st0" x1="31.5" y1="58.1" x2="15.2" y2="41.9"/>
		<line class="st0" x1="58.1" y1="31.5" x2="41.9" y2="15.2"/>
		<line class="st0" x1="52.8" y1="36.8" x2="36.5" y2="20.5"/>
		<line class="st0" x1="47.5" y1="42.1" x2="31.2" y2="25.9"/>
		<line class="st0" x1="42.1" y1="47.5" x2="25.9" y2="31.2"/>
		<line class="st0" x1="36.8" y1="52.8" x2="20.5" y2="36.5"/>
	</g>
	<circle class="st0" cx="76.8" cy="76.8" r="3.1"/>
</g>
</svg>
