<?xml version="1.0" encoding="utf-8"?>
<!-- Generator: Adobe Illustrator 22.0.0, SVG Export Plug-In . SVG Version: 6.00 Build 0)  -->
<svg version="1.1" id="Layer_1" xmlns="http://www.w3.org/2000/svg" xmlns:xlink="http://www.w3.org/1999/xlink" x="0px" y="0px"
	 viewBox="0 0 100 100" style="enable-background:new 0 0 100 100;" xml:space="preserve">
<style type="text/css">
	.st0{fill:none;stroke:#000000;stroke-width:2;stroke-miterlimit:10;}
	.st1{fill:none;}
	.st2{fill:none;stroke:#000000;stroke-width:2;stroke-linecap:round;stroke-miterlimit:10;stroke-dasharray:7;}
	.st3{fill:none;stroke:#000000;stroke-width:2;stroke-linecap:round;stroke-miterlimit:10;}
	.st4{fill:none;stroke:#000000;stroke-width:2;stroke-linecap:round;stroke-linejoin:round;stroke-miterlimit:10;}
	.st5{fill:none;stroke:#000000;stroke-width:2;stroke-linecap:square;stroke-miterlimit:10;}
	.st6{fill:none;stroke:#000000;stroke-width:2;stroke-miterlimit:10;stroke-dasharray:5.3638,5.3638;}
</style>
<g>
	<g>
		<g>
			<path class="st0" d="M65.4,59.5v-9c0-2.7-2.2-4.8-4.8-4.8h-5.3"/>
			<path class="st0" d="M34.6,59.5v-9c0-2.7,2.2-4.8,4.8-4.8h5.3"/>
			<polygon class="st0" points="34.6,59.5 65.4,59.5 68.3,85.3 31.7,85.3 			"/>
			<g>
				<g>
					<line class="st0" x1="62.2" y1="85.3" x2="59" y2="59.5"/>
					<line class="st0" x1="55.7" y1="85.3" x2="52.5" y2="59.5"/>
				</g>
				<g>
					<line class="st0" x1="37.8" y1="85.3" x2="41" y2="59.5"/>
					<line class="st0" x1="44.3" y1="85.3" x2="47.5" y2="59.5"/>
				</g>
			</g>
			<path class="st0" d="M50,14.7L50,14.7c3.7,0,6.7,3.1,6.5,6.8l-1.4,27.7H44.9l-1.4-27.7C43.3,17.8,46.3,14.7,50,14.7z"/>
		</g>
		<circle class="st0" cx="50" cy="21.3" r="2.4"/>
	</g>
	<line class="st0" x1="34.6" y1="54" x2="65.4" y2="54"/>
</g>
</svg>
