<?xml version="1.0" encoding="utf-8"?>
<!-- Generator: Adobe Illustrator 22.0.0, SVG Export Plug-In . SVG Version: 6.00 Build 0)  -->
<svg version="1.1" id="Layer_1" xmlns="http://www.w3.org/2000/svg" xmlns:xlink="http://www.w3.org/1999/xlink" x="0px" y="0px"
	 viewBox="0 0 100 100" style="enable-background:new 0 0 100 100;" xml:space="preserve">
<style type="text/css">
	.st0{fill:none;stroke:#000000;stroke-width:2;stroke-miterlimit:10;}
	.st1{fill:none;}
	.st2{fill:none;stroke:#000000;stroke-width:2;stroke-linecap:round;stroke-miterlimit:10;stroke-dasharray:7;}
	.st3{fill:none;stroke:#000000;stroke-width:2;stroke-linecap:round;stroke-miterlimit:10;}
	.st4{fill:none;stroke:#000000;stroke-width:2;stroke-linecap:round;stroke-linejoin:round;stroke-miterlimit:10;}
	.st5{fill:none;stroke:#000000;stroke-width:2;stroke-linecap:square;stroke-miterlimit:10;}
	.st6{fill:none;stroke:#000000;stroke-width:2;stroke-miterlimit:10;stroke-dasharray:5.3638,5.3638;}
</style>
<g>
	<path class="st0" d="M82.9,48.7v30.1c0,2-1.6,3.6-3.6,3.6H59.5h-19H20.7c-2,0-3.6-1.6-3.6-3.6V48.7"/>
	<path class="st0" d="M17.1,34.9h-0.7c-1.1,0-2,0.9-2,2v9.8c0,1.1,0.9,2,2,2h0.7h23.4h19h23.4h0.7c1.1,0,2-0.9,2-2v-9.8
		c0-1.1-0.9-2-2-2h-0.7H17.1z"/>
	<g>
		<line class="st0" x1="40.5" y1="82.4" x2="40.5" y2="48.7"/>
		<line class="st0" x1="59.5" y1="82.4" x2="59.5" y2="48.7"/>
	</g>
	<g>
		<path class="st0" d="M50,21.2L37.2,34l-1-1c-3.5-3.5-3.5-9.3,0-12.8c1.8-1.8,4.1-2.6,6.4-2.6c2.3,0,4.6,0.9,6.4,2.6L50,21.2z"/>
		<path class="st0" d="M66.4,26.6c0,2.3-0.9,4.6-2.7,6.4l-1,1L50,21.2l1-1c3.5-3.5,9.3-3.5,12.8,0C65.5,22,66.4,24.3,66.4,26.6z"/>
	</g>
</g>
</svg>
