<?xml version="1.0" encoding="utf-8"?>
<!-- Generator: Adobe Illustrator 22.0.0, SVG Export Plug-In . SVG Version: 6.00 Build 0)  -->
<svg version="1.1" id="Layer_1" xmlns="http://www.w3.org/2000/svg" xmlns:xlink="http://www.w3.org/1999/xlink" x="0px" y="0px"
	 viewBox="0 0 100 100" style="enable-background:new 0 0 100 100;" xml:space="preserve">
<style type="text/css">
	.st0{fill:none;stroke:#000000;stroke-width:2;stroke-miterlimit:10;}
	.st1{fill:none;}
	.st2{fill:none;stroke:#000000;stroke-width:2;stroke-linecap:round;stroke-miterlimit:10;stroke-dasharray:7;}
	.st3{fill:none;stroke:#000000;stroke-width:2;stroke-linecap:round;stroke-miterlimit:10;}
	.st4{fill:none;stroke:#000000;stroke-width:2;stroke-linecap:round;stroke-linejoin:round;stroke-miterlimit:10;}
	.st5{fill:none;stroke:#000000;stroke-width:2;stroke-linecap:square;stroke-miterlimit:10;}
	.st6{fill:none;stroke:#000000;stroke-width:2;stroke-miterlimit:10;stroke-dasharray:5.3638,5.3638;}
</style>
<g>
	<g>
		<path class="st0" d="M80.2,55.5V83c0,1.8-1.5,3.3-3.3,3.3H58.7H41.3H23.2c-1.8,0-3.3-1.5-3.3-3.3V55.5"/>
		<path class="st0" d="M19.8,42.8h-0.6c-1,0-1.8,0.8-1.8,1.8v8.9c0,1,0.8,1.8,1.8,1.8h0.6h21.5h17.4h21.5h0.6c1,0,1.8-0.8,1.8-1.8
			v-8.9c0-1-0.8-1.8-1.8-1.8h-0.6H19.8z"/>
		<g>
			<line class="st0" x1="41.3" y1="86.4" x2="41.3" y2="55.5"/>
			<line class="st0" x1="58.7" y1="86.4" x2="58.7" y2="55.5"/>
		</g>
		<g>
			<line class="st0" x1="41.3" y1="62.8" x2="58.7" y2="62.8"/>
			<line class="st0" x1="41.3" y1="70.9" x2="58.7" y2="70.9"/>
			<line class="st0" x1="41.3" y1="79" x2="58.7" y2="79"/>
		</g>
	</g>
	<g>
		<path class="st0" d="M49.2,41.5c0,0-27.6-11.6-24.2-24.1S49.1,26.3,49.2,41.5z"/>
		<path class="st0" d="M50.8,41.5c0,0,27.6-11.6,24.2-24.1C71.6,4.9,50.9,26.3,50.8,41.5z"/>
	</g>
</g>
</svg>
