<?xml version="1.0" encoding="utf-8"?>
<!-- Generator: Adobe Illustrator 22.0.0, SVG Export Plug-In . SVG Version: 6.00 Build 0)  -->
<svg version="1.1" id="Layer_1" xmlns="http://www.w3.org/2000/svg" xmlns:xlink="http://www.w3.org/1999/xlink" x="0px" y="0px"
	 viewBox="0 0 100 100" style="enable-background:new 0 0 100 100;" xml:space="preserve">
<style type="text/css">
	.st0{fill:none;stroke:#000000;stroke-width:2;stroke-miterlimit:10;}
	.st1{fill:none;}
	.st2{fill:none;stroke:#000000;stroke-width:2;stroke-linecap:round;stroke-miterlimit:10;stroke-dasharray:7;}
	.st3{fill:none;stroke:#000000;stroke-width:2;stroke-linecap:round;stroke-miterlimit:10;}
	.st4{fill:none;stroke:#000000;stroke-width:2;stroke-linecap:round;stroke-linejoin:round;stroke-miterlimit:10;}
	.st5{fill:none;stroke:#000000;stroke-width:2;stroke-linecap:square;stroke-miterlimit:10;}
	.st6{fill:none;stroke:#000000;stroke-width:2;stroke-miterlimit:10;stroke-dasharray:5.3638,5.3638;}
</style>
<g>
	<path class="st0" d="M67.5,36.7H73c1.5,0,2.9,0.3,4.2,0.9c3.4,1.6,5.7,5,5.7,8.9v12.2h-5.1h0H56.8H50h-6.8H22.2h0h-5.1V46.6
		c0-4,2.3-7.4,5.7-8.9c1.3-0.6,2.7-0.9,4.2-0.9h5.5"/>
	<path class="st0" d="M77.8,58.8v13.3v9.4c0,2.7-2.2,4.8-4.8,4.8H50H27.1c-2.7,0-4.8-2.2-4.8-4.8v-9.4V58.8"/>
	<polyline class="st0" points="50,86.3 50,72.1 50,58.8 	"/>
	<path class="st0" d="M31.7,35.9l0.8,0.8L50,54.2l17.5-17.5l0.8-0.8c2.5-2.5,3.8-5.9,3.8-9.2s-1.3-6.6-3.8-9.2
		c-5.1-5.1-13.3-5.1-18.3,0c-2.5-2.5-5.8-3.8-9.2-3.8c-3.3,0-6.6,1.3-9.2,3.8C26.6,22.6,26.6,30.8,31.7,35.9l0.8,0.8L50,54.2
		l17.5-17.5l0.8-0.8"/>
	<path class="st0" d="M37.4,23.2c0.9-0.9,2.2-1.4,3.5-1.4c1.3,0,2.5,0.5,3.5,1.4l5.7,5.7l5.7-5.7c0.9-0.9,2.2-1.4,3.5-1.4
		c1.3,0,2.5,0.5,3.5,1.4c0.9,0.9,1.4,2.1,1.4,3.5c0,1.3-0.5,2.5-1.4,3.5L50,42.8L37.4,30.2c-0.9-0.9-1.4-2.2-1.4-3.5
		C35.9,25.4,36.4,24.2,37.4,23.2z M22.8,37.6c1.3-0.6,2.7-0.9,4.2-0.9h5.5l-0.8-0.8c-5.1-5.1-5.1-13.3,0-18.3
		c2.5-2.5,5.8-3.8,9.2-3.8c3.3,0,6.6,1.3,9.2,3.8c5.1-5.1,13.3-5.1,18.3,0c2.5,2.5,3.8,5.8,3.8,9.2s-1.3,6.6-3.8,9.2l-0.8,0.8H73
		c1.5,0,2.9,0.3,4.2,0.9"/>
</g>
</svg>
