<?xml version="1.0" encoding="utf-8"?>
<!-- Generator: Adobe Illustrator 22.0.0, SVG Export Plug-In . SVG Version: 6.00 Build 0)  -->
<svg version="1.1" id="Layer_1" xmlns="http://www.w3.org/2000/svg" xmlns:xlink="http://www.w3.org/1999/xlink" x="0px" y="0px"
	 viewBox="0 0 100 100" style="enable-background:new 0 0 100 100;" xml:space="preserve">
<style type="text/css">
	.st0{fill:none;stroke:#000000;stroke-width:2;stroke-miterlimit:10;}
	.st1{fill:none;}
	.st2{fill:none;stroke:#000000;stroke-width:2;stroke-linecap:round;stroke-miterlimit:10;stroke-dasharray:7;}
	.st3{fill:none;stroke:#000000;stroke-width:2;stroke-linecap:round;stroke-miterlimit:10;}
	.st4{fill:none;stroke:#000000;stroke-width:2;stroke-linecap:round;stroke-linejoin:round;stroke-miterlimit:10;}
	.st5{fill:none;stroke:#000000;stroke-width:2;stroke-linecap:square;stroke-miterlimit:10;}
	.st6{fill:none;stroke:#000000;stroke-width:2;stroke-miterlimit:10;stroke-dasharray:5.3638,5.3638;}
</style>
<g>
	<path class="st0" d="M83.1,57.7H16.9V45.3c0-5.5,4.5-10,10-10h46.4c5.5,0,10,4.5,10,10V57.7z"/>
	<path class="st0" d="M78,57.7V71v9.5c0,2.7-2.2,4.9-4.9,4.9H50H26.9c-2.7,0-4.9-2.2-4.9-4.9V71V57.7"/>
	<line class="st0" x1="22" y1="71" x2="78" y2="71"/>
	<polyline class="st0" points="50,85.4 50,71 50,57.7 	"/>
	<line class="st0" x1="16.9" y1="45.3" x2="83.1" y2="45.3"/>
	<g>
		<path class="st0" d="M50,35.4h-6.6c-7.8,0-14.1-6.3-14.1-14.1v0c0-3.7,3-6.6,6.6-6.6h0C43.7,14.6,50,21,50,28.8V35.4z"/>
		<path class="st0" d="M50,35.4h4.8c5.7,0,10.3-4.6,10.3-10.3v0c0-2.7-2.2-4.8-4.8-4.8h0c-5.7,0-10.3,4.6-10.3,10.3V35.4z"/>
	</g>
	<line class="st0" x1="50" y1="45.3" x2="50" y2="35.4"/>
</g>
</svg>
