<?xml version="1.0" encoding="utf-8"?>
<!-- Generator: Adobe Illustrator 22.0.0, SVG Export Plug-In . SVG Version: 6.00 Build 0)  -->
<svg version="1.1" id="Layer_1" xmlns="http://www.w3.org/2000/svg" xmlns:xlink="http://www.w3.org/1999/xlink" x="0px" y="0px"
	 viewBox="0 0 100 100" style="enable-background:new 0 0 100 100;" xml:space="preserve">
<style type="text/css">
	.st0{fill:none;stroke:#000000;stroke-width:2;stroke-miterlimit:10;}
	.st1{fill:none;}
	.st2{fill:none;stroke:#000000;stroke-width:2;stroke-linecap:round;stroke-miterlimit:10;stroke-dasharray:7;}
	.st3{fill:none;stroke:#000000;stroke-width:2;stroke-linecap:round;stroke-miterlimit:10;}
	.st4{fill:none;stroke:#000000;stroke-width:2;stroke-linecap:round;stroke-linejoin:round;stroke-miterlimit:10;}
	.st5{fill:none;stroke:#000000;stroke-width:2;stroke-linecap:square;stroke-miterlimit:10;}
	.st6{fill:none;stroke:#000000;stroke-width:2;stroke-miterlimit:10;stroke-dasharray:5.3638,5.3638;}
</style>
<g>
	<g>
		<path class="st0" d="M33.9,13.7c0,0,1.5,6.1,11.4,13.2l-9.9,5.1C35.4,32.1,27.6,20.4,33.9,13.7z"/>
		<path class="st0" d="M66.1,13.7c0,0-1.5,6.1-11.4,13.2l9.9,5.1C64.6,32.1,72.4,20.4,66.1,13.7z"/>
	</g>
	<g>
		<polygon class="st0" points="56.6,80.3 53.3,49.4 46.9,49.4 43.6,80.3 50.1,86.3 		"/>
		<g>
			<path class="st0" d="M46.9,49.4l-3.8-10.7c-0.2-0.5,0.2-1.1,0.8-1.1h12.2c0.6,0,0.9,0.5,0.8,1.1l-3.8,10.7"/>
		</g>
	</g>
</g>
</svg>
