<?xml version="1.0" encoding="utf-8"?>
<!-- Generator: Adobe Illustrator 22.0.0, SVG Export Plug-In . SVG Version: 6.00 Build 0)  -->
<svg version="1.1" id="Layer_1" xmlns="http://www.w3.org/2000/svg" xmlns:xlink="http://www.w3.org/1999/xlink" x="0px" y="0px"
	 viewBox="0 0 100 100" style="enable-background:new 0 0 100 100;" xml:space="preserve">
<style type="text/css">
	.st0{fill:none;stroke:#000000;stroke-width:2;stroke-miterlimit:10;}
	.st1{fill:none;}
	.st2{fill:none;stroke:#000000;stroke-width:2;stroke-linecap:round;stroke-miterlimit:10;stroke-dasharray:7;}
	.st3{fill:none;stroke:#000000;stroke-width:2;stroke-linecap:round;stroke-miterlimit:10;}
	.st4{fill:none;stroke:#000000;stroke-width:2;stroke-linecap:round;stroke-linejoin:round;stroke-miterlimit:10;}
	.st5{fill:none;stroke:#000000;stroke-width:2;stroke-linecap:square;stroke-miterlimit:10;}
	.st6{fill:none;stroke:#000000;stroke-width:2;stroke-miterlimit:10;stroke-dasharray:5.3638,5.3638;}
</style>
<g>
	<g>
		<path class="st0" d="M40.7,44.6L18.4,33.5c-2.2,4.3-3.6,10.1-3.6,16.5s1.4,12.2,3.6,16.5L41,55.2V44.8L40.7,44.6L18.4,33.5"/>
		<path class="st0" d="M81.6,33.5L59.3,44.6L59,44.8v10.4l22.6,11.4c2.2-4.3,3.6-10.1,3.6-16.5S83.8,37.8,81.6,33.5L59.3,44.6"/>
	</g>
	<path class="st0" d="M56.4,55.3H43.6c-1.4,0-2.6-1.2-2.6-2.6v-5.3c0-1.4,1.2-2.6,2.6-2.6h12.7c1.4,0,2.6,1.2,2.6,2.6v5.3
		C59,54.1,57.8,55.3,56.4,55.3z"/>
</g>
</svg>
