<?xml version="1.0" encoding="utf-8"?>
<!-- Generator: Adobe Illustrator 22.0.0, SVG Export Plug-In . SVG Version: 6.00 Build 0)  -->
<svg version="1.1" id="Layer_1" xmlns="http://www.w3.org/2000/svg" xmlns:xlink="http://www.w3.org/1999/xlink" x="0px" y="0px"
	 viewBox="0 0 100 100" style="enable-background:new 0 0 100 100;" xml:space="preserve">
<style type="text/css">
	.st0{fill:none;stroke:#000000;stroke-width:2;stroke-miterlimit:10;}
	.st1{fill:none;}
	.st2{fill:none;stroke:#000000;stroke-width:2;stroke-linecap:round;stroke-miterlimit:10;stroke-dasharray:7;}
	.st3{fill:none;stroke:#000000;stroke-width:2;stroke-linecap:round;stroke-miterlimit:10;}
	.st4{fill:none;stroke:#000000;stroke-width:2;stroke-linecap:round;stroke-linejoin:round;stroke-miterlimit:10;}
	.st5{fill:none;stroke:#000000;stroke-width:2;stroke-linecap:square;stroke-miterlimit:10;}
	.st6{fill:none;stroke:#000000;stroke-width:2;stroke-miterlimit:10;stroke-dasharray:5.3638,5.3638;}
</style>
<g>
	<g>
		<polygon class="st0" points="57.1,78 54.4,35.4 45.6,35.4 42.9,78 50,86.3 		"/>
		<g>
		</g>
	</g>
	<g>
		<g>
			<path class="st0" d="M44.3,20.6l-13.8-6.9c-1.4,2.7-2.2,6.3-2.2,10.2s0.8,7.6,2.2,10.2l14-7v-6.4L44.3,20.6l-13.8-6.9"/>
			<path class="st0" d="M69.5,13.7l-13.8,6.9l-0.2,0.1v6.4l14,7c1.4-2.7,2.2-6.3,2.2-10.2S70.9,16.4,69.5,13.7l-13.8,6.9"/>
		</g>
		<path class="st0" d="M53.9,27.2h-7.8c-0.9,0-1.6-0.7-1.6-1.6v-3.3c0-0.9,0.7-1.6,1.6-1.6h7.8c0.9,0,1.6,0.7,1.6,1.6v3.3
			C55.5,26.5,54.8,27.2,53.9,27.2z"/>
	</g>
</g>
</svg>
