<?xml version="1.0" encoding="utf-8"?>
<!-- Generator: Adobe Illustrator 22.0.0, SVG Export Plug-In . SVG Version: 6.00 Build 0)  -->
<svg version="1.1" id="Layer_1" xmlns="http://www.w3.org/2000/svg" xmlns:xlink="http://www.w3.org/1999/xlink" x="0px" y="0px"
	 viewBox="0 0 100 100" style="enable-background:new 0 0 100 100;" xml:space="preserve">
<style type="text/css">
	.st0{fill:none;stroke:#000000;stroke-width:2;stroke-miterlimit:10;}
	.st1{fill:none;}
	.st2{fill:none;stroke:#000000;stroke-width:2;stroke-linecap:round;stroke-miterlimit:10;stroke-dasharray:7;}
	.st3{fill:none;stroke:#000000;stroke-width:2;stroke-linecap:round;stroke-miterlimit:10;}
	.st4{fill:none;stroke:#000000;stroke-width:2;stroke-linecap:round;stroke-linejoin:round;stroke-miterlimit:10;}
	.st5{fill:none;stroke:#000000;stroke-width:2;stroke-linecap:square;stroke-miterlimit:10;}
	.st6{fill:none;stroke:#000000;stroke-width:2;stroke-miterlimit:10;stroke-dasharray:5.3638,5.3638;}
</style>
<g>
	<circle class="st0" cx="50" cy="43.6" r="4"/>
	<g>
		<path class="st0" d="M62,85.1H38c-2.6,0-4.7-2.1-4.7-4.7V19.6c0-2.6,2.1-4.7,4.7-4.7h24c2.6,0,4.7,2.1,4.7,4.7v60.8
			C66.7,83,64.6,85.1,62,85.1z"/>
		<g>
			<path class="st0" d="M40.5,34.8h-2.3c-0.5,0-1-0.4-1-1V20.6c0-0.5,0.4-1,1-1h2.3c0.5,0,1,0.4,1,1v13.2
				C41.5,34.4,41.1,34.8,40.5,34.8z"/>
			<g>
				<line class="st0" x1="37.2" y1="24.7" x2="41.5" y2="24.7"/>
				<line class="st0" x1="37.2" y1="29.8" x2="41.5" y2="29.8"/>
			</g>
		</g>
	</g>
</g>
</svg>
