<?xml version="1.0" encoding="utf-8"?>
<!-- Generator: Adobe Illustrator 22.0.0, SVG Export Plug-In . SVG Version: 6.00 Build 0)  -->
<svg version="1.1" id="Layer_1" xmlns="http://www.w3.org/2000/svg" xmlns:xlink="http://www.w3.org/1999/xlink" x="0px" y="0px"
	 viewBox="0 0 100 100" style="enable-background:new 0 0 100 100;" xml:space="preserve">
<style type="text/css">
	.st0{fill:none;stroke:#000000;stroke-width:2;stroke-miterlimit:10;}
	.st1{fill:none;}
	.st2{fill:none;stroke:#000000;stroke-width:2;stroke-linecap:round;stroke-miterlimit:10;stroke-dasharray:7;}
	.st3{fill:none;stroke:#000000;stroke-width:2;stroke-linecap:round;stroke-miterlimit:10;}
	.st4{fill:none;stroke:#000000;stroke-width:2;stroke-linecap:round;stroke-linejoin:round;stroke-miterlimit:10;}
	.st5{fill:none;stroke:#000000;stroke-width:2;stroke-linecap:square;stroke-miterlimit:10;}
	.st6{fill:none;stroke:#000000;stroke-width:2;stroke-miterlimit:10;stroke-dasharray:5.3638,5.3638;}
</style>
<g>
	<path class="st0" d="M50.6,85.6H24.2c-1.9,0-3.5-1.6-3.5-3.5V17.9c0-1.9,1.6-3.5,3.5-3.5h26.4c1.9,0,3.5,1.6,3.5,3.5v64.3
		C54.1,84.1,52.5,85.6,50.6,85.6z"/>
	<g>
		<line class="st0" x1="20.7" y1="20.7" x2="54.1" y2="20.7"/>
		<line class="st0" x1="20.7" y1="79.3" x2="54.1" y2="79.3"/>
	</g>
	<g>
		<path class="st0" d="M49.4,14.4h1.2h25.2c1.9,0,3.5,1.6,3.5,3.5v64.3c0,1.9-1.6,3.5-3.5,3.5H50.6h-1.2"/>
		<g>
			<circle class="st0" cx="62.6" cy="21.8" r="3"/>
			<circle class="st0" cx="62.6" cy="29.7" r="1.2"/>
			<circle class="st0" cx="62.6" cy="37.5" r="3"/>
		</g>
	</g>
</g>
</svg>
