<?xml version="1.0" encoding="utf-8"?>
<!-- Generator: Adobe Illustrator 22.0.0, SVG Export Plug-In . SVG Version: 6.00 Build 0)  -->
<svg version="1.1" id="Layer_1" xmlns="http://www.w3.org/2000/svg" xmlns:xlink="http://www.w3.org/1999/xlink" x="0px" y="0px"
	 viewBox="0 0 100 100" style="enable-background:new 0 0 100 100;" xml:space="preserve">
<style type="text/css">
	.st0{fill:none;stroke:#000000;stroke-width:2;stroke-miterlimit:10;}
	.st1{fill:none;}
	.st2{fill:none;stroke:#000000;stroke-width:2;stroke-linecap:round;stroke-miterlimit:10;stroke-dasharray:7;}
	.st3{fill:none;stroke:#000000;stroke-width:2;stroke-linecap:round;stroke-miterlimit:10;}
	.st4{fill:none;stroke:#000000;stroke-width:2;stroke-linecap:round;stroke-linejoin:round;stroke-miterlimit:10;}
	.st5{fill:none;stroke:#000000;stroke-width:2;stroke-linecap:square;stroke-miterlimit:10;}
	.st6{fill:none;stroke:#000000;stroke-width:2;stroke-miterlimit:10;stroke-dasharray:5.3638,5.3638;}
</style>
<g>
	<path class="st0" d="M67,18.5v63c0,2.5-2,4.5-4.5,4.5H37.5c-2.5,0-4.5-2-4.5-4.5v-63c0-2.5,2-4.5,4.5-4.5h24.9
		C64.9,14,67,16,67,18.5z"/>
	<path class="st0" d="M54,15.6c0,2.4-1.8,4.4-4,4.4c-2.2,0-4-2-4-4.4c0-0.6,0.1-1.1,0.3-1.6h7.5C53.9,14.5,54,15,54,15.6z"/>
	<line class="st0" x1="33" y1="81.5" x2="67" y2="81.5"/>
</g>
</svg>
