<?xml version="1.0" encoding="utf-8"?>
<!-- Generator: Adobe Illustrator 22.0.0, SVG Export Plug-In . SVG Version: 6.00 Build 0)  -->
<svg version="1.1" id="Layer_1" xmlns="http://www.w3.org/2000/svg" xmlns:xlink="http://www.w3.org/1999/xlink" x="0px" y="0px"
	 viewBox="0 0 100 100" style="enable-background:new 0 0 100 100;" xml:space="preserve">
<style type="text/css">
	.st0{fill:none;stroke:#000000;stroke-width:2;stroke-miterlimit:10;}
	.st1{fill:none;}
	.st2{fill:none;stroke:#000000;stroke-width:2;stroke-linecap:round;stroke-miterlimit:10;stroke-dasharray:7;}
	.st3{fill:none;stroke:#000000;stroke-width:2;stroke-linecap:round;stroke-miterlimit:10;}
	.st4{fill:none;stroke:#000000;stroke-width:2;stroke-linecap:round;stroke-linejoin:round;stroke-miterlimit:10;}
	.st5{fill:none;stroke:#000000;stroke-width:2;stroke-linecap:square;stroke-miterlimit:10;}
	.st6{fill:none;stroke:#000000;stroke-width:2;stroke-miterlimit:10;stroke-dasharray:5.3638,5.3638;}
</style>
<g>
	<path class="st0" d="M63.5,85.7h-27c-2.8,0-5-2.2-5-5V19.3c0-2.8,2.2-5,5-5h27c2.8,0,5,2.2,5,5v61.4C68.5,83.4,66.3,85.7,63.5,85.7
		z"/>
	<g>
		<line class="st0" x1="31.5" y1="22.8" x2="68.5" y2="22.8"/>
		<line class="st0" x1="31.5" y1="77.2" x2="68.5" y2="77.2"/>
	</g>
	<path class="st0" d="M59.7,35H40.3c-1.5,0-2.7-1.2-2.7-2.7v0c0-1.5,1.2-2.7,2.7-2.7h19.4c1.5,0,2.7,1.2,2.7,2.7v0
		C62.4,33.8,61.2,35,59.7,35z"/>
</g>
</svg>
