<?xml version="1.0" encoding="utf-8"?>
<!-- Generator: Adobe Illustrator 22.0.0, SVG Export Plug-In . SVG Version: 6.00 Build 0)  -->
<svg version="1.1" id="Layer_1" xmlns="http://www.w3.org/2000/svg" xmlns:xlink="http://www.w3.org/1999/xlink" x="0px" y="0px"
	 viewBox="0 0 100 100" style="enable-background:new 0 0 100 100;" xml:space="preserve">
<style type="text/css">
	.st0{fill:none;stroke:#000000;stroke-width:2;stroke-miterlimit:10;}
	.st1{fill:none;}
	.st2{fill:none;stroke:#000000;stroke-width:2;stroke-linecap:round;stroke-miterlimit:10;stroke-dasharray:7;}
	.st3{fill:none;stroke:#000000;stroke-width:2;stroke-linecap:round;stroke-miterlimit:10;}
	.st4{fill:none;stroke:#000000;stroke-width:2;stroke-linecap:round;stroke-linejoin:round;stroke-miterlimit:10;}
	.st5{fill:none;stroke:#000000;stroke-width:2;stroke-linecap:square;stroke-miterlimit:10;}
	.st6{fill:none;stroke:#000000;stroke-width:2;stroke-miterlimit:10;stroke-dasharray:5.3638,5.3638;}
</style>
<g>
	<path class="st0" d="M58.2,85.6H41.8c-3.7,0-6.6-3-6.6-6.6V21c0-3.7,3-6.6,6.6-6.6h16.5c3.7,0,6.6,3,6.6,6.6V79
		C64.9,82.6,61.9,85.6,58.2,85.6z"/>
	<path class="st0" d="M64.9,47.8c0,3.5-2.9,6.4-6.5,6.4H41.6c-3.6,0-6.5-2.8-6.5-6.4"/>
	<path class="st0" d="M58.9,47.8H41c-0.6,0-1.1-0.5-1.1-1.1v-24c0-0.6,0.5-1.1,1.1-1.1h18c0.6,0,1.1,0.5,1.1,1.1v24
		C60,47.3,59.5,47.8,58.9,47.8z"/>
</g>
</svg>
