<?xml version="1.0" encoding="utf-8"?>
<!-- Generator: Adobe Illustrator 22.0.0, SVG Export Plug-In . SVG Version: 6.00 Build 0)  -->
<svg version="1.1" id="Layer_1" xmlns="http://www.w3.org/2000/svg" xmlns:xlink="http://www.w3.org/1999/xlink" x="0px" y="0px"
	 viewBox="0 0 100 100" style="enable-background:new 0 0 100 100;" xml:space="preserve">
<style type="text/css">
	.st0{fill:none;stroke:#000000;stroke-width:2;stroke-miterlimit:10;}
	.st1{fill:none;}
	.st2{fill:none;stroke:#000000;stroke-width:2;stroke-linecap:round;stroke-miterlimit:10;stroke-dasharray:7;}
	.st3{fill:none;stroke:#000000;stroke-width:2;stroke-linecap:round;stroke-miterlimit:10;}
	.st4{fill:none;stroke:#000000;stroke-width:2;stroke-linecap:round;stroke-linejoin:round;stroke-miterlimit:10;}
	.st5{fill:none;stroke:#000000;stroke-width:2;stroke-linecap:square;stroke-miterlimit:10;}
	.st6{fill:none;stroke:#000000;stroke-width:2;stroke-miterlimit:10;stroke-dasharray:5.3638,5.3638;}
</style>
<g>
	<polyline class="st0" points="36.4,73.5 29.4,80.4 13.8,81.8 29.3,66.4 	"/>
	<path class="st0" d="M85.2,28.6l0.6,0.6c0.6,0.6,0.6,1.5,0,2.1L73.1,43.8c-0.1,0.1-0.3,0.3-0.5,0.3L68,45.9
		c-0.2,0.1-0.4,0.2-0.5,0.3L39.4,74.4c-0.6,0.6-1.5,0.6-2.1,0l-8.9-8.9c-0.6-0.6-0.6-1.5,0-2.1l44.7-44.7c0.6-0.6,1.5-0.6,2.1,0
		L85.2,28.6"/>
	<path class="st0" d="M76.4,30.6L40.7,66.3c-1.2,1.2-3.1,1.2-4.3,0l0,0c-1.2-1.2-1.2-3.1,0-4.3l35.7-35.7c1.2-1.2,3.1-1.2,4.3,0l0,0
		C77.5,27.6,77.5,29.5,76.4,30.6z"/>
	<line class="st0" x1="63.3" y1="35.2" x2="67.6" y2="39.5"/>
</g>
</svg>
