<?xml version="1.0" encoding="utf-8"?>
<!-- Generator: Adobe Illustrator 22.0.0, SVG Export Plug-In . SVG Version: 6.00 Build 0)  -->
<svg version="1.1" id="Layer_1" xmlns="http://www.w3.org/2000/svg" xmlns:xlink="http://www.w3.org/1999/xlink" x="0px" y="0px"
	 viewBox="0 0 100 100" style="enable-background:new 0 0 100 100;" xml:space="preserve">
<style type="text/css">
	.st0{fill:none;stroke:#000000;stroke-width:2;stroke-miterlimit:10;}
	.st1{fill:none;}
	.st2{fill:none;stroke:#000000;stroke-width:2;stroke-linecap:round;stroke-miterlimit:10;stroke-dasharray:7;}
	.st3{fill:none;stroke:#000000;stroke-width:2;stroke-linecap:round;stroke-miterlimit:10;}
	.st4{fill:none;stroke:#000000;stroke-width:2;stroke-linecap:round;stroke-linejoin:round;stroke-miterlimit:10;}
	.st5{fill:none;stroke:#000000;stroke-width:2;stroke-linecap:square;stroke-miterlimit:10;}
	.st6{fill:none;stroke:#000000;stroke-width:2;stroke-miterlimit:10;stroke-dasharray:5.3638,5.3638;}
</style>
<g>
	<g>
		<path class="st0" d="M42.6,48.8l33.6-33.6c3.4,3.4,5.1,7.8,5.1,12.3c0,4.4-1.7,8.9-5.1,12.3L54.8,61"/>
		<path class="st0" d="M54.5,71.8L31.8,49.1l0,0c3.1-3.1,8-3.1,11.1,0l11.6,11.6C57.6,63.8,57.6,68.7,54.5,71.8L54.5,71.8z"/>
		<path class="st0" d="M48.2,65.4L30.9,82.7c-2.8,2.8-7.3,2.8-10.1,0l0,0c-2.8-2.8-2.8-7.3,0-10.1l17.3-17.3"/>
	</g>
	<line class="st0" x1="43.2" y1="60.4" x2="20.9" y2="82.7"/>
</g>
</svg>
