<?xml version="1.0" encoding="utf-8"?>
<!-- Generator: Adobe Illustrator 22.0.0, SVG Export Plug-In . SVG Version: 6.00 Build 0)  -->
<svg version="1.1" id="Layer_1" xmlns="http://www.w3.org/2000/svg" xmlns:xlink="http://www.w3.org/1999/xlink" x="0px" y="0px"
	 viewBox="0 0 100 100" style="enable-background:new 0 0 100 100;" xml:space="preserve">
<style type="text/css">
	.st0{fill:none;stroke:#000000;stroke-width:2;stroke-miterlimit:10;}
	.st1{fill:none;}
	.st2{fill:none;stroke:#000000;stroke-width:2;stroke-linecap:round;stroke-miterlimit:10;stroke-dasharray:7;}
	.st3{fill:none;stroke:#000000;stroke-width:2;stroke-linecap:round;stroke-miterlimit:10;}
	.st4{fill:none;stroke:#000000;stroke-width:2;stroke-linecap:round;stroke-linejoin:round;stroke-miterlimit:10;}
	.st5{fill:none;stroke:#000000;stroke-width:2;stroke-linecap:square;stroke-miterlimit:10;}
	.st6{fill:none;stroke:#000000;stroke-width:2;stroke-miterlimit:10;stroke-dasharray:5.3638,5.3638;}
</style>
<g>
	<g>
		<path class="st0" d="M64.4,85.8H35.6c-3.4,0-6.2-2.8-6.2-6.2v-59c0-3.4,2.8-6.2,6.2-6.2h28.8c3.4,0,6.2,2.8,6.2,6.2v59
			C70.6,83,67.9,85.8,64.4,85.8z"/>
		<line class="st0" x1="29.4" y1="72.1" x2="70.6" y2="72.1"/>
		<line class="st0" x1="29.4" y1="22.3" x2="70.6" y2="22.3"/>
		<circle class="st0" cx="50" cy="79.1" r="2.6"/>
	</g>
	<g>
		<g>
			<path class="st0" d="M39.9,54.2L39.9,54.2c-1.1,0-2-0.9-2-2V45c0-1.1,0.9-2,2-2h0c1.1,0,2,0.9,2,2v7.1
				C41.9,53.3,41,54.2,39.9,54.2z"/>
			<path class="st0" d="M60.1,54.2L60.1,54.2c-1.1,0-2-0.9-2-2V45c0-1.1,0.9-2,2-2h0c1.1,0,2,0.9,2,2v7.1
				C62.2,53.3,61.2,54.2,60.1,54.2z"/>
		</g>
		<g>
			<path class="st0" d="M58.1,43L58.1,43c0-3.2-2.6-5.8-5.8-5.8h-4.5c-3.2,0-5.8,2.6-5.8,5.8v0H58.1"/>
			<g>
				<line class="st0" x1="46.4" y1="37.3" x2="42.8" y2="33.5"/>
				<line class="st0" x1="57.2" y1="33.5" x2="53.6" y2="37.3"/>
			</g>
			<path class="st0" d="M58.1,43v12.5c0,1.5-1.2,2.7-2.7,2.7H44.6c-1.5,0-2.7-1.2-2.7-2.7V43"/>
			<g>
				<path class="st0" d="M47.5,58.1v3.2c0,0.7-0.6,1.3-1.3,1.3c-0.7,0-1.3-0.6-1.3-1.3v-3.2"/>
				<path class="st0" d="M55.1,58.1v3.2c0,0.7-0.6,1.3-1.3,1.3s-1.3-0.6-1.3-1.3v-3.2"/>
			</g>
		</g>
	</g>
</g>
</svg>
