<?xml version="1.0" encoding="utf-8"?>
<!-- Generator: Adobe Illustrator 22.0.0, SVG Export Plug-In . SVG Version: 6.00 Build 0)  -->
<svg version="1.1" id="Layer_1" xmlns="http://www.w3.org/2000/svg" xmlns:xlink="http://www.w3.org/1999/xlink" x="0px" y="0px"
	 viewBox="0 0 100 100" style="enable-background:new 0 0 100 100;" xml:space="preserve">
<style type="text/css">
	.st0{fill:none;stroke:#000000;stroke-width:2;stroke-miterlimit:10;}
	.st1{fill:none;}
	.st2{fill:none;stroke:#000000;stroke-width:2;stroke-linecap:round;stroke-miterlimit:10;stroke-dasharray:7;}
	.st3{fill:none;stroke:#000000;stroke-width:2;stroke-linecap:round;stroke-miterlimit:10;}
	.st4{fill:none;stroke:#000000;stroke-width:2;stroke-linecap:round;stroke-linejoin:round;stroke-miterlimit:10;}
	.st5{fill:none;stroke:#000000;stroke-width:2;stroke-linecap:square;stroke-miterlimit:10;}
	.st6{fill:none;stroke:#000000;stroke-width:2;stroke-miterlimit:10;stroke-dasharray:5.3638,5.3638;}
</style>
<g>
	<path class="st0" d="M68.4,35.6H31.6v0c0-7.3,5.9-13.2,13.2-13.2h10.4C62.5,22.4,68.4,28.3,68.4,35.6L68.4,35.6z"/>
	<g>
		<line class="st0" x1="41.8" y1="22.7" x2="33.5" y2="13.9"/>
		<line class="st0" x1="66.5" y1="13.9" x2="58.2" y2="22.7"/>
	</g>
	<g>
		<path class="st0" d="M62.3,75.7H37.7c-3.4,0-6.1-2.7-6.1-6.1V41.2h36.8v28.5C68.4,73,65.7,75.7,62.3,75.7z"/>
		<path class="st0" d="M23.1,66.9L23.1,66.9c-2.6,0-4.7-2.1-4.7-4.7V45.9c0-2.6,2.1-4.7,4.7-4.7h0c2.6,0,4.7,2.1,4.7,4.7v16.3
			C27.7,64.8,25.6,66.9,23.1,66.9z"/>
		<path class="st0" d="M76.9,66.9L76.9,66.9c-2.6,0-4.7-2.1-4.7-4.7V45.9c0-2.6,2.1-4.7,4.7-4.7h0c2.6,0,4.7,2.1,4.7,4.7v16.3
			C81.6,64.8,79.5,66.9,76.9,66.9z"/>
	</g>
	<g>
		<path class="st0" d="M44.3,75.7v7.3c0,1.7-1.4,3-3,3c-1.7,0-3-1.4-3-3v-7.3"/>
		<path class="st0" d="M61.7,75.7v7.3c0,1.7-1.4,3-3,3c-1.7,0-3-1.4-3-3v-7.3"/>
	</g>
</g>
</svg>
