<?xml version="1.0" encoding="utf-8"?>
<!-- Generator: Adobe Illustrator 22.0.0, SVG Export Plug-In . SVG Version: 6.00 Build 0)  -->
<svg version="1.1" id="Layer_1" xmlns="http://www.w3.org/2000/svg" xmlns:xlink="http://www.w3.org/1999/xlink" x="0px" y="0px"
	 viewBox="0 0 100 100" style="enable-background:new 0 0 100 100;" xml:space="preserve">
<style type="text/css">
	.st0{fill:none;stroke:#000000;stroke-width:2;stroke-miterlimit:10;}
	.st1{fill:none;}
	.st2{fill:none;stroke:#000000;stroke-width:2;stroke-linecap:round;stroke-miterlimit:10;stroke-dasharray:7;}
	.st3{fill:none;stroke:#000000;stroke-width:2;stroke-linecap:round;stroke-miterlimit:10;}
	.st4{fill:none;stroke:#000000;stroke-width:2;stroke-linecap:round;stroke-linejoin:round;stroke-miterlimit:10;}
	.st5{fill:none;stroke:#000000;stroke-width:2;stroke-linecap:square;stroke-miterlimit:10;}
	.st6{fill:none;stroke:#000000;stroke-width:2;stroke-miterlimit:10;stroke-dasharray:5.3638,5.3638;}
</style>
<g>
	<path class="st0" d="M75,40.3V27.2c0-2.7-2.2-4.9-4.9-4.9H21.1c-2.7,0-4.9,2.2-4.9,4.9v26.2c0,2.7,2.2,4.9,4.9,4.9h43"/>
	<path class="st0" d="M64.2,66.9H22.8c-4.7,0-8.6-3.8-8.6-8.6h6.9h43"/>
	<g>
		<path class="st0" d="M82.5,77.7H67.5c-1.8,0-3.3-1.5-3.3-3.3V43.6c0-1.8,1.5-3.3,3.3-3.3h15.1c1.8,0,3.3,1.5,3.3,3.3v30.9
			C85.8,76.3,84.3,77.7,82.5,77.7z"/>
		<line class="st0" x1="64.2" y1="70.6" x2="85.8" y2="70.6"/>
		<line class="st0" x1="64.2" y1="44.5" x2="85.8" y2="44.5"/>
		<circle class="st0" cx="75" cy="74.2" r="1.4"/>
	</g>
</g>
</svg>
