<?xml version="1.0" encoding="utf-8"?>
<!-- Generator: Adobe Illustrator 22.0.0, SVG Export Plug-In . SVG Version: 6.00 Build 0)  -->
<svg version="1.1" id="Layer_1" xmlns="http://www.w3.org/2000/svg" xmlns:xlink="http://www.w3.org/1999/xlink" x="0px" y="0px"
	 viewBox="0 0 100 100" style="enable-background:new 0 0 100 100;" xml:space="preserve">
<style type="text/css">
	.st0{fill:none;stroke:#000000;stroke-width:2;stroke-miterlimit:10;}
	.st1{fill:none;}
	.st2{fill:none;stroke:#000000;stroke-width:2;stroke-linecap:round;stroke-miterlimit:10;stroke-dasharray:7;}
	.st3{fill:none;stroke:#000000;stroke-width:2;stroke-linecap:round;stroke-miterlimit:10;}
	.st4{fill:none;stroke:#000000;stroke-width:2;stroke-linecap:round;stroke-linejoin:round;stroke-miterlimit:10;}
	.st5{fill:none;stroke:#000000;stroke-width:2;stroke-linecap:square;stroke-miterlimit:10;}
	.st6{fill:none;stroke:#000000;stroke-width:2;stroke-miterlimit:10;stroke-dasharray:5.3638,5.3638;}
</style>
<g>
	<path class="st0" d="M77.5,43V29.9c0-1.7-1.4-3.1-3.1-3.1H18.6c-1.7,0-3.1,1.4-3.1,3.1v28.3c0,1.7,1.4,3.1,3.1,3.1h23.8h8.1H68"/>
	<polyline class="st0" points="68,57.2 21.1,57.2 21.1,30.9 72,30.9 72,43 	"/>
	<path class="st0" d="M83.1,73.2H69.4c-0.8,0-1.4-0.6-1.4-1.4V44.4c0-0.8,0.6-1.4,1.4-1.4h13.7c0.8,0,1.4,0.6,1.4,1.4v27.4
		C84.5,72.6,83.9,73.2,83.1,73.2z"/>
	<g>
		<line class="st0" x1="42.5" y1="68.6" x2="42.5" y2="61.4"/>
		<line class="st0" x1="50.5" y1="68.6" x2="50.5" y2="61.4"/>
		<path class="st0" d="M56.5,73.2h-20v0c0-2.5,2.1-4.6,4.6-4.6h10.7C54.4,68.6,56.5,70.7,56.5,73.2L56.5,73.2z"/>
	</g>
	<g>
		<line class="st0" x1="68" y1="69.1" x2="84.5" y2="69.1"/>
		<line class="st0" x1="68" y1="47.1" x2="84.5" y2="47.1"/>
	</g>
</g>
</svg>
