<?xml version="1.0" encoding="utf-8"?>
<!-- Generator: Adobe Illustrator 22.0.0, SVG Export Plug-In . SVG Version: 6.00 Build 0)  -->
<svg version="1.1" id="Layer_1" xmlns="http://www.w3.org/2000/svg" xmlns:xlink="http://www.w3.org/1999/xlink" x="0px" y="0px"
	 viewBox="0 0 100 100" style="enable-background:new 0 0 100 100;" xml:space="preserve">
<style type="text/css">
	.st0{fill:none;stroke:#000000;stroke-width:2;stroke-miterlimit:10;}
	.st1{fill:none;}
	.st2{fill:none;stroke:#000000;stroke-width:2;stroke-linecap:round;stroke-miterlimit:10;stroke-dasharray:7;}
	.st3{fill:none;stroke:#000000;stroke-width:2;stroke-linecap:round;stroke-miterlimit:10;}
	.st4{fill:none;stroke:#000000;stroke-width:2;stroke-linecap:round;stroke-linejoin:round;stroke-miterlimit:10;}
	.st5{fill:none;stroke:#000000;stroke-width:2;stroke-linecap:square;stroke-miterlimit:10;}
	.st6{fill:none;stroke:#000000;stroke-width:2;stroke-miterlimit:10;stroke-dasharray:5.3638,5.3638;}
</style>
<g>
	<path class="st3" d="M49,62.7l-6.2-25.3l22.4,11.3"/>
	<polyline class="st3" points="65.1,48.8 76.2,54.4 78.3,55.4 74.7,58.3 69.6,62.3 71,64 81.9,77.8 77.6,81.2 73.2,84.6 62.5,71.1 
		60.9,69.2 54.7,74.2 52.3,76.1 51.9,74.7 49,62.7 	"/>
	<path class="st3" d="M45.5,74.9c-15.3-1.2-27.4-14-27.4-29.7c0-16.5,13.3-29.8,29.8-29.8s29.8,13.3,29.8,29.8c0,1-0.1,1.9-0.1,2.9
		 M49,62.7l-6.2-25.3l22.4,11.3"/>
	<path class="st3" d="M67.3,41.4c-1.8-9.1-9.8-15.9-19.4-15.9c-3,0-5.8,0.7-8.4,1.9c-2.2,1-4.2,2.5-5.9,4.3
		c-3.4,3.5-5.4,8.3-5.4,13.6c0,8.7,5.6,16.1,13.4,18.7"/>
</g>
</svg>
