<?xml version="1.0" encoding="utf-8"?>
<!-- Generator: Adobe Illustrator 22.0.0, SVG Export Plug-In . SVG Version: 6.00 Build 0)  -->
<svg version="1.1" id="Layer_1" xmlns="http://www.w3.org/2000/svg" xmlns:xlink="http://www.w3.org/1999/xlink" x="0px" y="0px"
	 viewBox="0 0 100 100" style="enable-background:new 0 0 100 100;" xml:space="preserve">
<style type="text/css">
	.st0{fill:none;stroke:#000000;stroke-width:2;stroke-miterlimit:10;}
	.st1{fill:none;}
	.st2{fill:none;stroke:#000000;stroke-width:2;stroke-linecap:round;stroke-miterlimit:10;stroke-dasharray:7;}
	.st3{fill:none;stroke:#000000;stroke-width:2;stroke-linecap:round;stroke-miterlimit:10;}
	.st4{fill:none;stroke:#000000;stroke-width:2;stroke-linecap:round;stroke-linejoin:round;stroke-miterlimit:10;}
	.st5{fill:none;stroke:#000000;stroke-width:2;stroke-linecap:square;stroke-miterlimit:10;}
	.st6{fill:none;stroke:#000000;stroke-width:2;stroke-miterlimit:10;stroke-dasharray:5.3638,5.3638;}
</style>
<g>
	<g>
		<g>
			<path class="st0" d="M66.8,49.8v19.1c0,9.3-7.5,16.8-16.8,16.8c-9.3,0-16.8-7.5-16.8-16.8V49.8c0-6.9,4.1-12.8,10-15.4
				c2.1-0.9,4.4-1.4,6.8-1.4c2.4,0,4.7,0.5,6.8,1.4c1.9,0.8,3.6,2,5.1,3.5C64.9,41,66.8,45.2,66.8,49.8z"/>
			<path class="st0" d="M56.8,34.4V44c0,3.7-3,6.8-6.8,6.8c-3.7,0-6.8-3-6.8-6.8v-9.5c2.1-0.9,4.4-1.4,6.8-1.4
				C52.4,33,54.7,33.5,56.8,34.4z"/>
			<line class="st0" x1="50" y1="85.7" x2="50" y2="63"/>
			<line class="st0" x1="50" y1="57.2" x2="50" y2="50.7"/>
			<path class="st0" d="M50,46L50,46c-1.4,0-2.5-1.1-2.5-2.5v-3.9c0-1.4,1.1-2.5,2.5-2.5h0c1.4,0,2.5,1.1,2.5,2.5v3.9
				C52.5,44.9,51.4,46,50,46z"/>
		</g>
		<path class="st0" d="M50,33v-2.7c0-3.5,2.8-6.3,6.3-6.3h0c3.5,0,6.3-2.8,6.3-6.3v-3.4"/>
	</g>
	<rect x="33.2" y="57.2" class="st0" width="33.6" height="5.8"/>
</g>
</svg>
