<?xml version="1.0" encoding="utf-8"?>
<!-- Generator: Adobe Illustrator 22.0.0, SVG Export Plug-In . SVG Version: 6.00 Build 0)  -->
<svg version="1.1" id="Layer_1" xmlns="http://www.w3.org/2000/svg" xmlns:xlink="http://www.w3.org/1999/xlink" x="0px" y="0px"
	 viewBox="0 0 100 100" style="enable-background:new 0 0 100 100;" xml:space="preserve">
<style type="text/css">
	.st0{fill:none;stroke:#000000;stroke-width:2;stroke-miterlimit:10;}
	.st1{fill:none;}
	.st2{fill:none;stroke:#000000;stroke-width:2;stroke-linecap:round;stroke-miterlimit:10;stroke-dasharray:7;}
	.st3{fill:none;stroke:#000000;stroke-width:2;stroke-linecap:round;stroke-miterlimit:10;}
	.st4{fill:none;stroke:#000000;stroke-width:2;stroke-linecap:round;stroke-linejoin:round;stroke-miterlimit:10;}
	.st5{fill:none;stroke:#000000;stroke-width:2;stroke-linecap:square;stroke-miterlimit:10;}
	.st6{fill:none;stroke:#000000;stroke-width:2;stroke-miterlimit:10;stroke-dasharray:5.3638,5.3638;}
</style>
<g>
	<g>
		<path class="st0" d="M40.4,33.1c0,0.1,0.1,0.2,0.1,0.2l7.5,19.1l1.8-9.8c0,0,0,0,0-0.1c0,0,0.1,0,0.1,0l9.8-1.8l-19.1-7.5
			C40.5,33.2,40.4,33.1,40.4,33.1z"/>
		<line class="st0" x1="49.7" y1="42.5" x2="56.4" y2="49.2"/>
	</g>
	<path class="st0" d="M80.6,65.2H19.4c-2,0-3.7-1.6-3.7-3.7V24c0-2,1.6-3.7,3.7-3.7h61.2c2,0,3.7,1.6,3.7,3.7v37.5
		C84.3,63.5,82.7,65.2,80.6,65.2z"/>
	<line class="st0" x1="50" y1="74.9" x2="50" y2="65.2"/>
	<path class="st0" d="M62.1,79.7H37.9c-0.9,0-1.6-0.7-1.6-1.6v-1.5c0-0.9,0.7-1.6,1.6-1.6h24.2c0.9,0,1.6,0.7,1.6,1.6v1.5
		C63.8,79,63,79.7,62.1,79.7z"/>
</g>
</svg>
