<?xml version="1.0" encoding="utf-8"?>
<!-- Generator: Adobe Illustrator 22.0.0, SVG Export Plug-In . SVG Version: 6.00 Build 0)  -->
<svg version="1.1" id="Layer_1" xmlns="http://www.w3.org/2000/svg" xmlns:xlink="http://www.w3.org/1999/xlink" x="0px" y="0px"
	 viewBox="0 0 100 100" style="enable-background:new 0 0 100 100;" xml:space="preserve">
<style type="text/css">
	.st0{fill:none;stroke:#000000;stroke-width:2;stroke-miterlimit:10;}
	.st1{fill:none;}
	.st2{fill:none;stroke:#000000;stroke-width:2;stroke-linecap:round;stroke-miterlimit:10;stroke-dasharray:7;}
	.st3{fill:none;stroke:#000000;stroke-width:2;stroke-linecap:round;stroke-miterlimit:10;}
	.st4{fill:none;stroke:#000000;stroke-width:2;stroke-linecap:round;stroke-linejoin:round;stroke-miterlimit:10;}
	.st5{fill:none;stroke:#000000;stroke-width:2;stroke-linecap:square;stroke-miterlimit:10;}
	.st6{fill:none;stroke:#000000;stroke-width:2;stroke-miterlimit:10;stroke-dasharray:5.3638,5.3638;}
</style>
<g>
	<polygon class="st0" points="61.3,61.3 63.2,59.4 55.2,51.4 60,46.6 38.7,38.7 46.6,60 51.4,55.2 59.4,63.2 	"/>
	<line class="st0" x1="24" y1="24" x2="30.8" y2="30.8"/>
	<line class="st0" x1="18.2" y1="31.6" x2="26.5" y2="36.4"/>
	<line class="st0" x1="14.5" y1="40.5" x2="23.8" y2="43"/>
	<line class="st0" x1="13.2" y1="50" x2="22.9" y2="50"/>
	<line class="st0" x1="14.5" y1="59.5" x2="23.8" y2="57"/>
	<line class="st0" x1="18.2" y1="68.4" x2="26.5" y2="63.6"/>
	<line class="st0" x1="24" y1="76" x2="30.8" y2="69.2"/>
	<line class="st0" x1="31.6" y1="81.8" x2="36.4" y2="73.5"/>
	<line class="st0" x1="40.5" y1="85.5" x2="43" y2="76.2"/>
	<line class="st0" x1="50" y1="86.8" x2="50" y2="77.1"/>
	<line class="st0" x1="59.5" y1="85.5" x2="57" y2="76.2"/>
	<line class="st0" x1="68.4" y1="81.8" x2="63.6" y2="73.5"/>
	<line class="st0" x1="76" y1="76" x2="69.2" y2="69.2"/>
	<line class="st0" x1="81.8" y1="68.4" x2="73.5" y2="63.6"/>
	<line class="st0" x1="85.5" y1="59.5" x2="76.2" y2="57"/>
	<line class="st0" x1="86.8" y1="50" x2="77.1" y2="50"/>
	<line class="st0" x1="85.5" y1="40.5" x2="76.2" y2="43"/>
	<line class="st0" x1="81.8" y1="31.6" x2="73.5" y2="36.4"/>
	<line class="st0" x1="76" y1="24" x2="69.2" y2="30.8"/>
	<line class="st0" x1="68.4" y1="18.2" x2="63.6" y2="26.5"/>
	<line class="st0" x1="59.5" y1="14.5" x2="57" y2="23.8"/>
	<line class="st0" x1="50" y1="13.2" x2="50" y2="22.9"/>
	<line class="st0" x1="40.5" y1="14.5" x2="43" y2="23.8"/>
	<line class="st0" x1="31.6" y1="18.2" x2="36.4" y2="26.5"/>
</g>
</svg>
