<?xml version="1.0" encoding="utf-8"?>
<!-- Generator: Adobe Illustrator 22.0.0, SVG Export Plug-In . SVG Version: 6.00 Build 0)  -->
<svg version="1.1" id="Layer_1" xmlns="http://www.w3.org/2000/svg" xmlns:xlink="http://www.w3.org/1999/xlink" x="0px" y="0px"
	 viewBox="0 0 100 100" style="enable-background:new 0 0 100 100;" xml:space="preserve">
<style type="text/css">
	.st0{fill:none;stroke:#000000;stroke-width:2;stroke-miterlimit:10;}
	.st1{fill:none;}
	.st2{fill:none;stroke:#000000;stroke-width:2;stroke-linecap:round;stroke-miterlimit:10;stroke-dasharray:7;}
	.st3{fill:none;stroke:#000000;stroke-width:2;stroke-linecap:round;stroke-miterlimit:10;}
	.st4{fill:none;stroke:#000000;stroke-width:2;stroke-linecap:round;stroke-linejoin:round;stroke-miterlimit:10;}
	.st5{fill:none;stroke:#000000;stroke-width:2;stroke-linecap:square;stroke-miterlimit:10;}
	.st6{fill:none;stroke:#000000;stroke-width:2;stroke-miterlimit:10;stroke-dasharray:5.3638,5.3638;}
</style>
<g>
	<path class="st0" d="M28.3,46.9c1.3-16.3,8.2-28.9,18.1-31.3c1.2-0.3,2.3-0.4,3.6-0.4c1.2,0,2.4,0.1,3.6,0.4
		c9.9,2.5,16.9,15,18.1,31.3"/>
	<path class="st0" d="M28.6,60.6C30.7,76.2,38.9,84.8,50,84.8s19.3-8.6,21.4-24.2"/>
	<g>
		<path class="st0" d="M28.1,60.7L28.1,60.7c-1.6,0-3-1.3-3-3v-7.8c0-1.6,1.3-3,3-3h0c1.6,0,3,1.3,3,3v7.8
			C31.1,59.3,29.7,60.7,28.1,60.7z"/>
		<path class="st0" d="M71.9,60.7L71.9,60.7c-1.6,0-3-1.3-3-3v-7.8c0-1.6,1.3-3,3-3h0c1.6,0,3,1.3,3,3v7.8
			C74.9,59.3,73.6,60.7,71.9,60.7z"/>
	</g>
	<path class="st0" d="M46.4,24.5v-8.8c1.2-0.3,2.4-0.4,3.6-0.4s2.4,0.1,3.6,0.4v8.8"/>
	<path class="st0" d="M53.6,38.1v11.7c0,2-1.6,3.6-3.6,3.6c-1,0-1.9-0.4-2.5-1.1c-0.6-0.6-1.1-1.5-1.1-2.5V38.1"/>
	<path class="st0" d="M50.3,39.4h-0.5c-2.7,0-5-2.2-5-5v-6.2c0-2.7,2.2-5,5-5h0.5c2.7,0,5,2.2,5,5v6.2C55.2,37.1,53,39.4,50.3,39.4z
		"/>
</g>
</svg>
