<?xml version="1.0" encoding="utf-8"?>
<!-- Generator: Adobe Illustrator 22.0.0, SVG Export Plug-In . SVG Version: 6.00 Build 0)  -->
<svg version="1.1" id="Layer_1" xmlns="http://www.w3.org/2000/svg" xmlns:xlink="http://www.w3.org/1999/xlink" x="0px" y="0px"
	 viewBox="0 0 100 100" style="enable-background:new 0 0 100 100;" xml:space="preserve">
<style type="text/css">
	.st0{fill:none;stroke:#000000;stroke-width:2;stroke-miterlimit:10;}
	.st1{fill:none;}
	.st2{fill:none;stroke:#000000;stroke-width:2;stroke-linecap:round;stroke-miterlimit:10;stroke-dasharray:7;}
	.st3{fill:none;stroke:#000000;stroke-width:2;stroke-linecap:round;stroke-miterlimit:10;}
	.st4{fill:none;stroke:#000000;stroke-width:2;stroke-linecap:round;stroke-linejoin:round;stroke-miterlimit:10;}
	.st5{fill:none;stroke:#000000;stroke-width:2;stroke-linecap:square;stroke-miterlimit:10;}
	.st6{fill:none;stroke:#000000;stroke-width:2;stroke-miterlimit:10;stroke-dasharray:5.3638,5.3638;}
</style>
<g>
	<path class="st0" d="M50,86.1c-4.6,0-9.2-1.8-12.7-5.3C25,68.2,27.3,41,29.8,25.5c1.1-6.7,6.8-11.5,13.6-11.5h6.3c0,0,0.2,0,0.5,0
		c0,0,6.3,0,6.3,0c6.7,0,12.5,4.9,13.6,11.5C72.7,41,75,68.2,62.7,80.8C59.2,84.3,54.6,86.1,50,86.1z"/>
	<path class="st0" d="M50,37.3L50,37.3c-2.5,0-4.6-2.1-4.6-4.6v-5.8c0-2.5,2.1-4.6,4.6-4.6h0c2.5,0,4.6,2.1,4.6,4.6v5.8
		C54.6,35.3,52.5,37.3,50,37.3z"/>
</g>
</svg>
