<?xml version="1.0" encoding="utf-8"?>
<!-- Generator: Adobe Illustrator 22.0.0, SVG Export Plug-In . SVG Version: 6.00 Build 0)  -->
<svg version="1.1" id="Layer_1" xmlns="http://www.w3.org/2000/svg" xmlns:xlink="http://www.w3.org/1999/xlink" x="0px" y="0px"
	 viewBox="0 0 100 100" style="enable-background:new 0 0 100 100;" xml:space="preserve">
<style type="text/css">
	.st0{fill:none;stroke:#000000;stroke-width:2;stroke-miterlimit:10;}
	.st1{fill:none;}
	.st2{fill:none;stroke:#000000;stroke-width:2;stroke-linecap:round;stroke-miterlimit:10;stroke-dasharray:7;}
	.st3{fill:none;stroke:#000000;stroke-width:2;stroke-linecap:round;stroke-miterlimit:10;}
	.st4{fill:none;stroke:#000000;stroke-width:2;stroke-linecap:round;stroke-linejoin:round;stroke-miterlimit:10;}
	.st5{fill:none;stroke:#000000;stroke-width:2;stroke-linecap:square;stroke-miterlimit:10;}
	.st6{fill:none;stroke:#000000;stroke-width:2;stroke-miterlimit:10;stroke-dasharray:5.3638,5.3638;}
</style>
<g>
	<path class="st0" d="M50,85.6L50,85.6c-9.8,0-17.8-8-17.8-17.8V34.6c0-7,5.7-12.7,12.7-12.7h10.1c7,0,12.7,5.7,12.7,12.7v33.2
		C67.8,77.6,59.8,85.6,50,85.6z"/>
	<line class="st0" x1="50" y1="21.9" x2="50" y2="14.4"/>
	<path class="st0" d="M50,43.4L50,43.4c-1.7,0-3.1-1.4-3.1-3.1v-5.5c0-1.7,1.4-3.1,3.1-3.1h0c1.7,0,3.1,1.4,3.1,3.1v5.5
		C53.1,42.1,51.7,43.4,50,43.4z"/>
	<line class="st0" x1="32.2" y1="53.7" x2="67.8" y2="53.7"/>
</g>
</svg>
